<svg width="351" height="58" viewBox="0 0 351 58" fill="none" xmlns="http://www.w3.org/2000/svg">
<g clip-path="url(#clip0_527_3198)">
<path fill-rule="evenodd" clip-rule="evenodd" d="M0.257324 30.678C0.257324 30.678 0.625443 30.6247 3.75536 29.2795C6.88528 27.9344 13.958 25.8034 20.954 27.9344C27.6586 30.0653 34.6547 40.7201 41.3593 43.9165C48.3553 47.1129 55.0599 42.851 62.056 40.7201C68.7605 38.5891 75.7566 38.5891 82.4612 33.2617C89.4573 27.9343 96.1618 17.2796 103.158 16.2141C109.862 15.1486 116.859 23.6724 123.855 26.8689C130.559 30.0653 137.555 27.9343 144.26 25.8034C151.256 23.6724 157.96 21.5415 164.957 24.7379C171.661 27.9343 178.657 36.4582 185.362 37.5236C192.358 38.5891 199.062 32.1963 206.058 25.8034C212.763 19.4105 219.759 13.0177 226.464 9.82123C233.46 6.6248 240.456 6.6248 247.16 8.75575C254.157 10.8867 260.861 15.1486 267.857 22.607C274.562 30.0653 281.558 17.8582 288.262 24.251C295.258 30.6439 301.963 32.7749 308.959 24.251C315.664 15.7272 322.66 19.4105 329.364 9.82123C336.36 0.231934 343.065 0.231934 346.563 0.231934H350.061V57.7677H346.563C343.065 57.7677 336.36 57.7677 329.364 57.7677C322.66 57.7677 315.664 57.7677 308.959 57.7677C301.963 57.7677 295.258 57.7677 288.262 57.7677C281.558 57.7677 274.562 57.7677 267.857 57.7677C260.861 57.7677 254.157 57.7677 247.16 57.7677C240.456 57.7677 233.46 57.7677 226.464 57.7677C219.759 57.7677 212.763 57.7677 206.058 57.7677C199.062 57.7677 192.358 57.7677 185.362 57.7677C178.657 57.7677 171.661 57.7677 164.957 57.7677C157.96 57.7677 151.256 57.7677 144.26 57.7677C137.555 57.7677 130.559 57.7677 123.855 57.7677C116.859 57.7677 109.862 57.7677 103.158 57.7677C96.1618 57.7677 89.4573 57.7677 82.4612 57.7677C75.7566 57.7677 68.7605 57.7677 62.056 57.7677C55.0599 57.7677 48.3553 57.7677 41.3593 57.7677C34.6547 57.7677 27.6586 57.7677 20.954 57.7677C13.958 57.7677 7.2534 57.7677 3.75536 57.7677H0.257324V30.678Z" fill="url(#paint0_linear_527_3198)" fill-opacity="0.39"/>
<g filter="url(#filter0_d_527_3198)">
<path d="M0.256348 30.4175L1.71471 29.73C4.84562 28.3655 13.957 25.8695 20.9531 28.0059C27.6576 30.1424 34.6537 40.8247 41.3583 44.0294C48.3544 47.2341 55.0589 42.9612 62.055 40.8247C68.7596 38.6883 75.7556 38.6883 82.4602 33.3471C89.4563 28.0059 96.1609 17.3236 103.157 16.2554C109.862 15.1872 116.858 23.733 123.854 26.9377C130.558 30.1424 137.554 28.0059 144.259 25.8695C151.255 23.733 157.96 21.5966 164.956 24.8013C171.66 28.0059 178.656 36.5518 185.361 37.62C192.357 38.6883 199.061 32.2789 206.058 25.8695C212.762 19.4601 219.758 13.0507 226.463 9.84601C233.459 6.64132 240.455 6.64132 247.159 8.77778C254.156 10.9142 260.86 15.1872 267.856 22.6648C274.561 30.1424 281.557 17.9037 288.261 24.3131C295.258 30.7225 301.962 32.859 308.958 24.3131C315.663 15.7673 322.659 19.4601 329.363 9.84601C336.359 0.231934 343.064 0.231934 346.562 0.231934H350.06" stroke="#B961FF" stroke-width="2" stroke-linecap="round" stroke-linejoin="round"/>
</g>
</g>
<defs>
<filter id="filter0_d_527_3198" x="-4.74365" y="-2.76807" width="359.804" height="54.9497" filterUnits="userSpaceOnUse" color-interpolation-filters="sRGB">
<feFlood flood-opacity="0" result="BackgroundImageFix"/>
<feColorMatrix in="SourceAlpha" type="matrix" values="0 0 0 0 0 0 0 0 0 0 0 0 0 0 0 0 0 0 127 0" result="hardAlpha"/>
<feOffset dy="2"/>
<feGaussianBlur stdDeviation="2"/>
<feComposite in2="hardAlpha" operator="out"/>
<feColorMatrix type="matrix" values="0 0 0 0 0.5975 0 0 0 0 0.329167 0 0 0 0 1 0 0 0 0.1 0"/>
<feBlend mode="normal" in2="BackgroundImageFix" result="effect1_dropShadow_527_3198"/>
<feBlend mode="normal" in="SourceGraphic" in2="effect1_dropShadow_527_3198" result="shape"/>
</filter>
<linearGradient id="paint0_linear_527_3198" x1="175.159" y1="0.231934" x2="175.159" y2="57.7677" gradientUnits="userSpaceOnUse">
<stop stop-color="#BE6CFF"/>
<stop offset="1" stop-color="#B85EFF" stop-opacity="0"/>
</linearGradient>
<clipPath id="clip0_527_3198">
<rect width="349.805" height="57.5358" fill="white" transform="translate(0.256348 0.231934)"/>
</clipPath>
</defs>
</svg>
