<svg width="145" height="84" viewBox="0 0 145 84" fill="none" xmlns="http://www.w3.org/2000/svg">
<g clip-path="url(#clip0_527_3197)">
<rect x="0.584473" y="14.4473" width="91.3639" height="69.0703" rx="10" fill="#AD65CB"/>
<g filter="url(#filter0_bd_527_3197)">
<path d="M59.3347 43.4492C59.3347 43.4492 61.6429 33.9178 59.3347 30.6864C57.0265 27.4604 56.1087 25.3097 51.0334 23.77C45.9582 22.2303 47.8074 22.5372 44.1171 22.6947C40.424 22.8522 37.3501 24.8481 37.3501 25.9261C37.3501 25.9261 35.0419 26.0782 34.1241 27.0014C33.2008 27.9247 31.6638 32.2261 31.6638 33.3014C31.6638 34.3767 32.4323 41.6108 33.2008 43.145L32.2857 43.4546C31.5145 52.3696 35.3542 53.4476 35.3542 53.4476C36.7391 61.7516 38.124 58.216 38.124 60.3667C38.124 62.5174 36.7391 61.7516 36.7391 61.7516C36.7391 61.7516 35.5117 65.1324 32.4377 66.3625C29.3638 67.5899 12.2997 74.1994 10.912 75.5843C9.5217 76.9692 9.6792 83.4267 9.6792 83.4267H82.8536C82.8536 83.4267 83.0165 76.9719 81.6262 75.5843C80.2413 74.1994 63.1744 67.5899 60.1005 66.3625C57.0265 65.1324 55.7991 61.7516 55.7991 61.7516C55.7991 61.7516 54.4142 62.5174 54.4142 60.3667C54.4142 58.216 55.7991 61.7516 57.184 53.4476C57.184 53.4476 61.021 52.3696 60.2525 43.4546H59.3293L59.3347 43.4492Z" fill="white" fill-opacity="0.6" shape-rendering="crispEdges"/>
</g>
<rect x="64.9956" y="0.482422" width="80" height="32" rx="7" fill="white"/>
<path d="M85.0838 13.6802H87.9837V16.8571H85.0838V19.7733H81.9069V16.8571H78.9907V13.6802H81.9069V10.764H85.0838V13.6802Z" fill="#AD65CB"/>
<path d="M98.5788 19.3825C99.5563 19.3608 100.279 19.339 100.746 19.3173V22.3965H92.1273V19.3173C93.3003 19.3608 94.1854 19.3825 94.7828 19.3825V13.7619C94.3918 14.6199 93.5935 15.1738 92.3879 15.4236C92.3553 14.142 92.2359 12.9744 92.0295 11.9209C92.8984 11.8014 93.5012 11.6548 93.8379 11.481C94.1854 11.2964 94.4515 11.0954 94.6362 10.8782C94.8317 10.661 94.962 10.5144 95.0272 10.4383V10.4058H98.5788V19.3825Z" fill="#AD65CB"/>
<path d="M108.437 22.5594C106.102 22.5594 104.38 22.0217 103.272 20.9465C102.164 19.8712 101.61 18.3778 101.61 16.4663C101.61 14.5656 102.164 13.083 103.272 12.0186C104.391 10.9434 106.112 10.4058 108.437 10.4058C110.761 10.4058 112.477 10.9434 113.585 12.0186C114.693 13.083 115.247 14.5656 115.247 16.4663C115.247 18.3778 114.693 19.8712 113.585 20.9465C112.477 22.0217 110.761 22.5594 108.437 22.5594ZM108.453 19.7083C109.452 19.7083 110.18 19.4042 110.636 18.796C111.092 18.1769 111.32 17.4003 111.32 16.4663C111.32 15.5431 111.092 14.7774 110.636 14.1691C110.18 13.5501 109.452 13.2405 108.453 13.2405C107.421 13.2405 106.672 13.5501 106.205 14.1691C105.749 14.7774 105.52 15.5431 105.52 16.4663C105.52 17.3895 105.749 18.1606 106.205 18.7797C106.672 19.3988 107.421 19.7083 108.453 19.7083Z" fill="#AD65CB"/>
<path d="M124.191 22.5594C121.855 22.5594 120.134 22.0217 119.026 20.9465C117.918 19.8712 117.364 18.3778 117.364 16.4663C117.364 14.5656 117.918 13.083 119.026 12.0186C120.145 10.9434 121.866 10.4058 124.191 10.4058C126.515 10.4058 128.231 10.9434 129.339 12.0186C130.447 13.083 131.001 14.5656 131.001 16.4663C131.001 18.3778 130.447 19.8712 129.339 20.9465C128.231 22.0217 126.515 22.5594 124.191 22.5594ZM124.207 19.7083C125.206 19.7083 125.934 19.4042 126.39 18.796C126.846 18.1769 127.074 17.4003 127.074 16.4663C127.074 15.5431 126.846 14.7774 126.39 14.1691C125.934 13.5501 125.206 13.2405 124.207 13.2405C123.175 13.2405 122.426 13.5501 121.959 14.1691C121.502 14.7774 121.274 15.5431 121.274 16.4663C121.274 17.3895 121.502 18.1606 121.959 18.7797C122.426 19.3988 123.175 19.7083 124.207 19.7083Z" fill="#AD65CB"/>
</g>
<defs>
<filter id="filter0_bd_527_3197" x="-14.3262" y="2.55957" width="121.186" height="108.867" filterUnits="userSpaceOnUse" color-interpolation-filters="sRGB">
<feFlood flood-opacity="0" result="BackgroundImageFix"/>
<feGaussianBlur in="BackgroundImage" stdDeviation="5"/>
<feComposite in2="SourceAlpha" operator="in" result="effect1_backgroundBlur_527_3197"/>
<feColorMatrix in="SourceAlpha" type="matrix" values="0 0 0 0 0 0 0 0 0 0 0 0 0 0 0 0 0 0 127 0" result="hardAlpha"/>
<feOffset dy="4"/>
<feGaussianBlur stdDeviation="12"/>
<feComposite in2="hardAlpha" operator="out"/>
<feColorMatrix type="matrix" values="0 0 0 0 0.647059 0 0 0 0 0.215686 0 0 0 0 0.509804 0 0 0 0.1 0"/>
<feBlend mode="normal" in2="effect1_backgroundBlur_527_3197" result="effect2_dropShadow_527_3197"/>
<feBlend mode="normal" in="SourceGraphic" in2="effect2_dropShadow_527_3197" result="shape"/>
</filter>
<clipPath id="clip0_527_3197">
<rect width="144.411" height="83.0351" fill="white" transform="translate(0.584473 0.482422)"/>
</clipPath>
</defs>
</svg>
