<svg width="56" height="56" viewBox="0 0 56 56" fill="none" xmlns="http://www.w3.org/2000/svg">
<path d="M35.7332 0.998047C24.7672 0.998047 15.8752 9.89002 15.8752 20.8618C15.8752 31.8278 24.7672 40.7197 35.7332 40.7197C46.705 40.7197 55.5969 31.8278 55.5969 20.8618C55.5969 9.89002 46.705 0.998047 35.7332 0.998047Z" fill="#D28147"/>
<path d="M20.4609 16.2783C9.48914 16.2783 0.597168 25.1703 0.597168 36.1363C0.597168 47.108 9.48914 56 20.4609 56C31.4269 56 40.3189 47.108 40.3189 36.1363C40.3189 25.1703 31.4269 16.2783 20.4609 16.2783Z" fill="#F6B059"/>
<path d="M18.1702 31.5522C16.056 31.5522 14.3487 33.2653 14.3487 35.3737C14.3487 37.4821 16.056 39.1952 18.1702 39.1952C20.2786 39.1952 21.9859 37.4821 21.9859 35.3737C21.9859 33.2653 20.2786 31.5522 18.1702 31.5522ZM21.2239 22.3853C19.9577 22.3853 18.9322 23.4108 18.9322 24.677C18.9322 25.9432 19.9577 26.9687 21.2239 26.9687C22.4901 26.9687 23.5157 25.9432 23.5157 24.677C23.5157 23.4108 22.4901 22.3853 21.2239 22.3853ZM26.5694 40.7192C24.885 40.7192 23.5157 42.0885 23.5157 43.7787C23.5157 45.4631 24.885 46.8325 26.5694 46.8325C28.2596 46.8325 29.6289 45.4631 29.6289 43.7787C29.6289 42.0885 28.2596 40.7192 26.5694 40.7192ZM9.00317 36.1357C7.73698 36.1357 6.71143 37.1613 6.71143 38.4275C6.71143 39.6937 7.73698 40.7192 9.00317 40.7192C10.2694 40.7192 11.2949 39.6937 11.2949 38.4275C11.2949 37.1613 10.2694 36.1357 9.00317 36.1357ZM30.3909 31.5522C29.1247 31.5522 28.0991 32.5778 28.0991 33.844C28.0991 35.1102 29.1247 36.1357 30.3909 36.1357C31.6571 36.1357 32.6826 35.1102 32.6826 33.844C32.6826 32.5778 31.6571 31.5522 30.3909 31.5522ZM15.8784 45.3027C15.0305 45.3027 14.3487 45.9902 14.3487 46.8325C14.3487 47.6747 15.0305 48.3622 15.8784 48.3622C16.7206 48.3622 17.4024 47.6747 17.4024 46.8325C17.4024 45.9902 16.7206 45.3027 15.8784 45.3027Z" fill="#6D420D"/>
<path d="M31.1521 7.11177C29.4677 7.11177 28.0984 8.47536 28.0984 10.1655C28.0984 11.8557 29.4677 13.2193 31.1521 13.2193C32.8423 13.2193 34.2116 11.8557 34.2116 10.1655C34.2116 8.47536 32.8423 7.11177 31.1521 7.11177ZM39.5571 14.749C38.2909 14.749 37.2654 15.7746 37.2654 17.0408C37.2654 18.307 38.2909 19.3325 39.5571 19.3325C40.8233 19.3325 41.8489 18.307 41.8489 17.0408C41.8489 15.7746 40.8233 14.749 39.5571 14.749ZM41.0811 5.58203C39.8149 5.58203 38.7894 6.60759 38.7894 7.87378C38.7894 9.13997 39.8149 10.1655 41.0811 10.1655C42.3473 10.1655 43.3729 9.13997 43.3729 7.87378C43.3729 6.60759 42.3473 5.58203 41.0811 5.58203ZM46.4324 22.3863C45.5901 22.3863 44.9026 23.0738 44.9026 23.916C44.9026 24.7582 45.5901 25.4457 46.4324 25.4457C47.2746 25.4457 47.9621 24.7582 47.9621 23.916C47.9621 23.0738 47.2746 22.3863 46.4324 22.3863Z" fill="#7A441D"/>
</svg>
