<svg width="64" height="66" viewBox="0 0 64 66" xmlns="http://www.w3.org/2000/svg"><path d="M1.442 34.52l.054.916c.271-.088.384-.34.367-.62a.992.992 0 00-.234-.577L1.954 34c.207.183.315.516.331.778.042.705-.321 1.177-.93 1.22-.553.038-1.022-.334-1.063-1.031-.023-.399.066-.677.233-.877l.336.225a.963.963 0 00-.148.59c.019.313.176.522.458.558l-.054-.921.325-.023zM2.058 36l.23 1.927-.473.073-.083-.69-1.38.214-.064-.54 1.38-.215-.083-.696.473-.073zm1.201 3.796c.133.593-.197 1.063-.752 1.179-.556.117-1.056-.179-1.19-.771-.132-.593.198-1.063.753-1.179.555-.117 1.057.178 1.189.771zm-1.501.315c.063.283.32.445.64.378.313-.066.48-.321.417-.6-.06-.27-.314-.442-.635-.375-.308.065-.484.319-.422.597zm.937 3.989l-.345-1.01-.86.308-.202-.59L3.541 42l.201.59-.85.306.344 1.011.851-.305.201.59L2.036 45l-.202-.59.861-.31zM3.908 47c-.223-.107-.403-.322-.512-.564-.25-.557-.056-1.092.489-1.338.503-.227 1.062-.062 1.317.507.2.446.05.963-.435 1.18a.89.89 0 01-.25.08l-.561-1.25c-.245.156-.293.427-.17.7a.876.876 0 00.376.418L3.908 47zm.337-1.532l.382.85c.212-.092.313-.313.198-.566-.119-.266-.333-.34-.58-.284zM6.074 48l.25.401-.375 1.033 1.096.118.243.39L5.504 51l-.278-.444 1.09-.647-.987-.119-.008-.011.336-.924-1.09.647-.279-.445L6.074 48zm1.493 2c.171.068.387.212.531.394.325.412.214.712-.182.983l-.91.623-.243-.31.172-.117c-.17.003-.368-.091-.517-.28-.2-.254-.174-.553.114-.75.329-.226.663-.107.885.175a.69.69 0 01.153.381c.256-.161.344-.316.18-.523-.127-.161-.26-.227-.39-.295L7.566 50zm-.386 1.365l.153-.104a.47.47 0 00-.12-.295c-.092-.117-.235-.182-.361-.096-.113.078-.108.208-.02.319a.414.414 0 00.348.176zM9.204 52l1.084 1.222-.46.368-.67-.757L7.7 54l-.413-.466L9.204 52zm.084 2.5l1.534-1.5.384.392-.971.95 1.67-.234.383.391L10.755 56l-.383-.392.971-.95-1.67.234-.385-.391zm4 2.176L11.817 58l-.435-.293.441-.397-.242-.163-.793.16-.5-.336.977-.165c-.102-.141-.146-.386.096-.605.285-.256.758-.313 1.37.1l.557.375zm-1.413.231l.227.153.425-.383-.193-.13c-.212-.142-.421-.108-.533-.008-.121.109-.062.276.074.368zm1.278 1.174c.183.142.176.39.007.613a.716.716 0 01-.872.248l.035-.266a.406.406 0 00.345-.021c.08-.042.137-.09.15-.133-.041.011-.082-.02-.11-.041-.088-.068-.102-.226-.006-.352.109-.143.28-.179.45-.048zm1.96.612l.685.44c.09-.258-.026-.477-.234-.611a.836.836 0 00-.545-.122l.014-.379c.248-.064.547.026.742.151.528.339.66.87.345 1.366-.286.452-.817.62-1.337.287-.298-.192-.446-.408-.495-.642l.351-.144a.81.81 0 00.338.426c.233.149.471.138.656-.064l-.688-.442.168-.266zm2.553.307l1.622.748-.246.389-.582-.268L17.743 61l-.455-.21.717-1.132-.585-.27.246-.388zm3.011 1.104c.553.25.743.796.52 1.309-.222.512-.744.734-1.297.484-.553-.252-.743-.797-.52-1.31.22-.512.744-.735 1.297-.483zm-.601 1.386c.263.12.54.013.669-.283.125-.289.014-.576-.246-.694-.252-.114-.535-.015-.664.281-.123.285-.02.578.24.696zm2.844.51l.49.155.457 1.168.946-.726.475.15L24.66 65l-.542-.171.384-1.377-.861.644-.015-.005-.41-1.044-.385 1.376-.542-.17L22.92 62zm2.836 1.066c.212-.06.526-.09.811-.042.643.108.803.416.686.888L26.983 65l-.483-.081.051-.207c-.15.116-.405.172-.7.122-.396-.067-.631-.317-.545-.662.098-.393.497-.52.936-.447a.995.995 0 01.465.198c.088-.295.032-.474-.292-.528-.251-.042-.427-.005-.6.027l-.059-.356zm.834 1.322l.045-.183a.68.68 0 00-.36-.151c-.184-.032-.366.013-.403.163-.034.135.083.234.257.263.232.04.374-.024.46-.092zM27.595 63l.449.062-.02.195c.123-.12.34-.2.567-.169.483.068.75.545.688 1.146-.064.62-.48 1.047-1.043.97a.796.796 0 01-.4-.157l-.099.953-.449-.062.307-2.938zm.38.723l-.086.822c.111.108.21.149.358.17.312.043.52-.194.555-.533.034-.326-.106-.583-.403-.625a.502.502 0 00-.425.166zM30.36 63l.515.017-.072 1.931-.515-.017.073-1.931zm1.098.957l.83 1.043-.671-.023-.76-1.002.76-.932.649.023-.808.891zm3.702.775c-.193.168-.473.256-.754.267-.643.025-1.091-.356-1.117-.957-.023-.555.356-1.016 1.014-1.041.515-.02.96.314.984.848a.847.847 0 01-.02.264l-1.443.056c.057.286.304.434.619.422a.952.952 0 00.556-.196l.16.337zm-1.367-.889l.98-.038c-.005-.234-.182-.41-.475-.397-.306.012-.463.183-.506.435zm1.495-.644L37.226 63l.062.479-.694.07.184 1.396-.544.055-.184-1.395-.699.072-.063-.478zm2.339.801l-.339-1.674.435-.085.214 1.06.579-1.216.434-.085.338 1.674-.434.085-.214-1.06-.58 1.216-.433.085zm4.773-.375l-1.057.302.272.897-.617.176-.71-2.346.617-.176.268.886 1.057-.301-.268-.887.617-.176.71 2.346-.617.176-.272-.897zm-.112-2.221L44.051 61l.237.383-1.091.25.75 1.213-.67.154-.989-1.596zM13.99 12.763c-.11-.41-.25-.718-.418-.923a1.449 1.449 0 00-.544-.434 1.647 1.647 0 00-.656-.126h-.084V11h8.177v.28h-.726c-.558 0-.976.08-1.255.238-.279.159-.418.471-.418.938 0 .15.023.335.07.56.046.223.097.438.153.643l1.395 4.841c.15.486.316 1.068.502 1.75.186.68.372 1.348.559 2 .186.653.334 1.195.447 1.623h.055c.056-.223.107-.42.154-.588l.14-.503a28.1 28.1 0 01.153-.532l3.097-11.11h1.786l2.735 8.256a76.15 76.15 0 011.283 4.197h.083c.075-.317.177-.718.307-1.203a93.3 93.3 0 01.432-1.553c.158-.55.302-1.058.432-1.525l1.48-5.261a6.16 6.16 0 00.181-.77c.047-.27.07-.48.07-.63 0-.485-.154-.835-.46-1.05-.307-.213-.768-.32-1.382-.32h-.947V11h5.497v.28h-.474c-.335 0-.624.056-.866.168-.242.112-.456.326-.642.644s-.362.784-.53 1.4L30.259 26h-2.623l-3.6-11.082-3.097 11.081h-3.014l-3.934-13.236zM20.895 49c-1.221 0-2.248-.269-3.076-.805-.83-.536-1.46-1.367-1.888-2.495-.429-1.127-.643-2.573-.643-4.337 0-1.763.214-3.2.643-4.31.429-1.108 1.049-1.93 1.86-2.468.812-.535 1.8-.804 2.968-.804 1.093 0 1.996.305 2.707.913.712.61 1.167 1.55 1.367 2.823h.055c0-.727-.004-1.405-.014-2.032-.009-.627-.013-1.181-.013-1.663v-3.886c0-.491-.11-.854-.328-1.09a1.543 1.543 0 00-.78-.465 3.57 3.57 0 00-.834-.108h-.328V28h6.428v18.682c0 .51.104.891.314 1.145.21.256.469.424.78.505.31.082.592.123.847.123h.328v.273h-6.4V44.99h-.055c-.182 1.382-.629 2.396-1.34 3.04-.71.647-1.577.969-2.598.969zm1.149-.681c.93 0 1.632-.618 2.106-1.855.473-1.236.71-3.063.71-5.482 0-1.435-.108-2.636-.327-3.6-.219-.963-.538-1.69-.957-2.182a1.998 1.998 0 00-1.587-.736c-.547 0-1.008.245-1.381.736-.375.491-.653 1.219-.835 2.182-.182.964-.273 2.165-.273 3.6 0 1.619.096 2.973.287 4.064.191 1.09.479 1.909.861 2.455.384.544.85.818 1.396.818zM39.022 50c-1.62 0-2.825-.42-3.615-1.263-.792-.843-1.187-2.189-1.187-4.039v-7.472c0-.567-.069-.989-.207-1.264a1.047 1.047 0 00-.607-.549c-.267-.091-.612-.137-1.035-.137h-.083v-.275h6.127v10.604c0 .787.069 1.447.207 1.977.138.532.358.93.662 1.195.304.266.704.398 1.2.398.663 0 1.178-.22 1.546-.66.368-.44.625-1.052.773-1.84.147-.787.22-1.693.22-2.72V37.06c0-.53-.105-.92-.316-1.167a1.517 1.517 0 00-.773-.494 3.327 3.327 0 00-.87-.124h-.11V35h6.265v12.774c0 .476.11.838.33 1.085.221.247.484.407.787.48.304.074.584.11.842.11h.11v.275h-6.264v-2.582h-.055c-.166.604-.387 1.098-.663 1.483s-.589.674-.938.866a3.7 3.7 0 01-1.132.398c-.405.074-.81.111-1.214.111zm.386-18c-2.337 0-4.108-.648-5.313-1.945-1.204-1.297-1.807-3.108-1.807-5.434 0-2.523.584-4.424 1.753-5.702C35.21 17.639 36.855 17 38.977 17c1.96 0 3.502.546 4.626 1.637 1.123 1.091 1.685 2.818 1.685 4.93 0 .3-.244.544-.546.544h-7.646a.647.647 0 00-.649.656c.026 1.509.146 2.752.359 3.732.242 1.118.63 1.932 1.16 2.442.53.51 1.217.765 2.062.765.63 0 1.216-.107 1.713-.403 1.27-.755.542-2.05.542-2.847 0-.722.467-1.546 1.48-1.546 1.019 0 1.524.685 1.524 1.546 0 1.904-2.144 2.784-2.926 3.088-.781.304-1.765.456-2.953.456zm1.13-8.157c.36 0 .651-.294.647-.652-.015-1.325-.077-2.4-.185-3.225-.126-.957-.35-1.646-.675-2.066-.323-.42-.773-.631-1.348-.631a1.84 1.84 0 00-1.43.63c-.378.421-.652 1.11-.823 2.067-.147.823-.238 1.896-.27 3.216a.646.646 0 00.647.661h3.436zm15.75-17.004h-2.64a4.199 4.199 0 01-4.2-4.198V0h-.32v2.64a4.199 4.199 0 01-4.199 4.199h-2.64v.321h2.64a4.199 4.199 0 014.199 4.199V14h.32v-2.641a4.199 4.199 0 014.2-4.199h2.64v-.32z"/><path d="M50.586 58l-.298-.398a30.765 30.765 0 009.093-10.535 29.71 29.71 0 003.406-13.9c0-8.718-3.805-17.027-10.44-22.796l.33-.371c6.744 5.862 10.611 14.306 10.611 23.167 0 4.979-1.164 9.732-3.461 14.127A31.258 31.258 0 0150.587 58z"/></svg>