<svg width="69" height="67" viewBox="0 0 69 67" xmlns="http://www.w3.org/2000/svg"><path d="M34.508 13.086c-5.728 0-10.37 4.643-10.37 10.37 0 5.727 4.642 10.37 10.37 10.37 5.727 0 10.37-4.643 10.37-10.37 0-5.727-4.643-10.37-10.37-10.37zm0 14.657a4.287 4.287 0 110-8.574 4.287 4.287 0 010 8.574zm3.83 14.317c4.151-.846 6.639-2.812 6.77-2.917a2.82 2.82 0 00-3.527-4.4c-.026.02-2.68 2.056-7.045 2.06-4.366-.004-7.076-2.04-7.101-2.06a2.82 2.82 0 00-3.528 4.4c.133.107 2.724 2.124 6.992 2.95l-5.948 6.216a2.82 2.82 0 104.06 3.914l5.525-5.886 6.084 5.925a2.82 2.82 0 103.984-3.991l-6.266-6.21zm-3.802-5.258c-.007 0 .006 0 0 0-.007 0 .007 0 0 0z"/></svg>