<svg width="33" height="24" viewBox="0 0 33 24" xmlns="http://www.w3.org/2000/svg"><path fill-rule="evenodd" clip-rule="evenodd" d="M32.243 4.287c.228-.741 0-1.287-1.093-1.287h-3.61c-.918 0-1.341.47-1.57.99 0 0-1.836 4.338-4.437 7.156-.841.817-1.223 1.076-1.683 1.076-.23 0-.574-.26-.574-1.002V4.287c0-.89-.253-1.287-1.018-1.287h-5.676c-.573 0-.918.413-.918.805 0 .843 1.3 1.038 1.434 3.41v5.155c0 1.13-.21 1.335-.67 1.335-1.223 0-4.2-4.358-5.967-9.344C6.119 3.391 5.772 3 4.85 3H1.237C.207 3 0 3.47 0 3.99c0 .926 1.224 5.524 5.7 11.606C8.682 19.748 12.882 22 16.71 22c2.295 0 2.578-.5 2.578-1.361v-3.14c0-1 .217-1.199.945-1.199.536 0 1.453.26 3.595 2.262C26.276 20.936 26.678 22 28.056 22h3.61c1.03 0 1.548-.5 1.25-1.487-.326-.983-1.495-2.41-3.045-4.102-.841-.963-2.104-2.002-2.487-2.521-.535-.667-.382-.964 0-1.557 0 0 4.4-6.007 4.858-8.046h.001z"/></svg>