<svg width="15" height="15" viewBox="0 0 15 15" xmlns="http://www.w3.org/2000/svg"><path d="M.884 4.34A3.463 3.463 0 014.347.875h6.321a3.463 3.463 0 013.463 3.463v6.322a3.463 3.463 0 01-3.463 3.463H4.347A3.463 3.463 0 01.884 10.66V4.339z" fill="#fff"/><path fill-rule="evenodd" clip-rule="evenodd" d="M7.332 1.674c-.03 2.362-.19 3.69-1.076 4.575-.886.886-2.213 1.047-4.575 1.076v.35c2.362.029 3.69.19 4.575 1.076.886.886 1.047 2.214 1.076 4.576h.35c.029-2.362.19-3.69 1.076-4.576.886-.886 2.213-1.047 4.575-1.076v-.35c-2.362-.029-3.69-.19-4.575-1.076-.886-.886-1.047-2.213-1.077-4.575h-.349z"/></svg>