<svg width="350" height="241" viewBox="0 0 350 241" fill="none" xmlns="http://www.w3.org/2000/svg">
<g filter="url(#filter0_f_1328_5640)">
<ellipse cx="179" cy="59" rx="73" ry="76" fill="#E1A014"/>
</g>
<g filter="url(#filter1_f_1328_5640)">
<ellipse cx="327.5" cy="82" rx="71.5" ry="75" fill="#8A239B"/>
</g>
<g filter="url(#filter2_bd_1328_5640)">
<rect x="147" y="7" width="81" height="78" rx="39" fill="white" fill-opacity="0.35" shape-rendering="crispEdges"/>
<path fill-rule="evenodd" clip-rule="evenodd" d="M211.718 33.8406C212.056 32.7805 211.718 32 210.1 32H204.759C203.399 32 202.773 32.6737 202.433 33.4173C202.433 33.4173 199.716 39.6226 195.868 43.6532C194.623 44.8221 194.057 45.1929 193.378 45.1929C193.038 45.1929 192.527 44.8221 192.527 43.76V33.8406C192.527 32.5669 192.153 32 191.021 32H182.621C181.773 32 181.262 32.5902 181.262 33.1513C181.262 34.3571 183.187 34.6366 183.384 38.0305V45.4045C183.384 47.0218 183.073 47.315 182.393 47.315C180.582 47.315 176.177 41.0807 173.562 33.9474C173.055 32.5592 172.542 32 171.177 32H165.831C164.305 32 164 32.6737 164 33.4173C164 34.7415 165.811 41.3195 172.435 50.0196C176.85 55.9608 183.067 59.1818 188.73 59.1818C192.126 59.1818 192.545 58.4673 192.545 57.2344V52.7436C192.545 51.3127 192.867 51.0273 193.943 51.0273C194.737 51.0273 196.094 51.4001 199.265 54.2638C202.887 57.6596 203.483 59.1818 205.522 59.1818H210.863C212.39 59.1818 213.155 58.4673 212.715 57.0539C212.231 55.6482 210.501 53.6076 208.208 51.1865C206.963 49.808 205.094 48.3227 204.527 47.5791C203.735 46.6258 203.961 46.2006 204.527 45.3521C204.527 45.3521 211.038 36.7588 211.716 33.8406H211.718Z" fill="white"/>
</g>
<g filter="url(#filter3_bd_1328_5640)">
<rect x="187" y="46" width="81" height="78" rx="39" fill="white" fill-opacity="0.35" shape-rendering="crispEdges"/>
<path d="M236.801 67H218.934C214 67 210 70.9684 210 75.8636V93.5909C210 98.4862 214 102.455 218.934 102.455H236.801C241.735 102.455 245.735 98.4862 245.735 93.5909V75.8636C245.735 70.9684 241.735 67 236.801 67Z" fill="white" fill-opacity="0.25"/>
<path d="M235.015 83.6101C235.235 85.0855 234.981 86.5922 234.289 87.9161C233.596 89.24 232.501 90.3135 231.158 90.9841C229.815 91.6546 228.294 91.888 226.809 91.6511C225.325 91.4141 223.954 90.7189 222.891 89.6643C221.828 88.6096 221.127 87.2493 220.889 85.7768C220.65 84.3042 220.885 82.7945 221.561 81.4622C222.237 80.13 223.319 79.0431 224.653 78.3562C225.987 77.6693 227.506 77.4173 228.993 77.636C230.51 77.8592 231.914 78.5604 232.999 79.6362C234.083 80.712 234.79 82.1052 235.015 83.6101Z" fill="white" fill-opacity="0.25"/>
<path d="M237.695 74.9773H237.713M218.934 67H236.801C241.735 67 245.735 70.9684 245.735 75.8636V93.5909C245.735 98.4862 241.735 102.455 236.801 102.455H218.934C214 102.455 210 98.4862 210 93.5909V75.8636C210 70.9684 214 67 218.934 67ZM235.015 83.6101C235.235 85.0855 234.981 86.5922 234.289 87.9161C233.596 89.24 232.501 90.3135 231.158 90.9841C229.815 91.6546 228.294 91.888 226.809 91.6511C225.325 91.4141 223.954 90.7189 222.891 89.6643C221.828 88.6096 221.127 87.2493 220.889 85.7768C220.65 84.3042 220.885 82.7945 221.561 81.4622C222.237 80.13 223.319 79.0431 224.653 78.3562C225.987 77.6693 227.506 77.4173 228.993 77.636C230.51 77.8592 231.914 78.5604 232.999 79.6362C234.083 80.712 234.79 82.1052 235.015 83.6101Z" stroke="white" stroke-width="2" stroke-linecap="round" stroke-linejoin="round"/>
</g>
<g filter="url(#filter4_bd_1328_5640)">
<rect x="231" y="16" width="81" height="79" rx="39.5" fill="white" fill-opacity="0.35" shape-rendering="crispEdges"/>
<path d="M281.85 57.8826L283.085 49.7989H275.361V44.5532C275.361 42.3416 276.44 40.186 279.9 40.186H283.411V33.304C283.411 33.304 280.224 32.7578 277.178 32.7578C270.816 32.7578 266.659 36.6292 266.659 43.6379V49.7989H259.588V57.8826H266.659V77.4242C268.077 77.6475 269.53 77.7639 271.01 77.7639C272.49 77.7639 273.944 77.6475 275.361 77.4242V57.8826H281.85Z" fill="white"/>
<g filter="url(#filter5_bd_1328_5640)">
<rect x="256" y="65" width="81" height="78" rx="39" fill="white" fill-opacity="0.35" shape-rendering="crispEdges"/>
<path d="M307.165 80H299.989C292.812 80 286.636 85.3145 286.636 95.6113C286.636 101.756 289.641 106.406 294.815 108.731L285.134 126.004C284.801 126.502 285.134 127 285.635 127H290.141C290.475 127 290.809 126.834 290.976 126.502L299.822 109.562H302.993V126.502C302.993 126.668 303.16 127 303.494 127H307.499C307.833 127 308 126.834 308 126.502V80.6643C307.833 80.1661 307.666 80 307.165 80ZM302.993 105.576H300.322C288.806 105.576 289.641 83.9859 299.822 83.9859H303.16V105.576H302.993Z" fill="white"/>
</g>
</g>
<defs>
<filter id="filter0_f_1328_5640" x="0" y="-123" width="358" height="364" filterUnits="userSpaceOnUse" color-interpolation-filters="sRGB">
<feFlood flood-opacity="0" result="BackgroundImageFix"/>
<feBlend mode="normal" in="SourceGraphic" in2="BackgroundImageFix" result="shape"/>
<feGaussianBlur stdDeviation="53" result="effect1_foregroundBlur_1328_5640"/>
</filter>
<filter id="filter1_f_1328_5640" x="188" y="-61" width="279" height="286" filterUnits="userSpaceOnUse" color-interpolation-filters="sRGB">
<feFlood flood-opacity="0" result="BackgroundImageFix"/>
<feBlend mode="normal" in="SourceGraphic" in2="BackgroundImageFix" result="shape"/>
<feGaussianBlur stdDeviation="34" result="effect1_foregroundBlur_1328_5640"/>
</filter>
<filter id="filter2_bd_1328_5640" x="123" y="-13" width="129" height="126" filterUnits="userSpaceOnUse" color-interpolation-filters="sRGB">
<feFlood flood-opacity="0" result="BackgroundImageFix"/>
<feGaussianBlur in="BackgroundImage" stdDeviation="5"/>
<feComposite in2="SourceAlpha" operator="in" result="effect1_backgroundBlur_1328_5640"/>
<feColorMatrix in="SourceAlpha" type="matrix" values="0 0 0 0 0 0 0 0 0 0 0 0 0 0 0 0 0 0 127 0" result="hardAlpha"/>
<feOffset dy="4"/>
<feGaussianBlur stdDeviation="12"/>
<feComposite in2="hardAlpha" operator="out"/>
<feColorMatrix type="matrix" values="0 0 0 0 0.647059 0 0 0 0 0.215686 0 0 0 0 0.509804 0 0 0 0.1 0"/>
<feBlend mode="normal" in2="effect1_backgroundBlur_1328_5640" result="effect2_dropShadow_1328_5640"/>
<feBlend mode="normal" in="SourceGraphic" in2="effect2_dropShadow_1328_5640" result="shape"/>
</filter>
<filter id="filter3_bd_1328_5640" x="163" y="26" width="129" height="126" filterUnits="userSpaceOnUse" color-interpolation-filters="sRGB">
<feFlood flood-opacity="0" result="BackgroundImageFix"/>
<feGaussianBlur in="BackgroundImage" stdDeviation="5"/>
<feComposite in2="SourceAlpha" operator="in" result="effect1_backgroundBlur_1328_5640"/>
<feColorMatrix in="SourceAlpha" type="matrix" values="0 0 0 0 0 0 0 0 0 0 0 0 0 0 0 0 0 0 127 0" result="hardAlpha"/>
<feOffset dy="4"/>
<feGaussianBlur stdDeviation="12"/>
<feComposite in2="hardAlpha" operator="out"/>
<feColorMatrix type="matrix" values="0 0 0 0 0.647059 0 0 0 0 0.215686 0 0 0 0 0.509804 0 0 0 0.1 0"/>
<feBlend mode="normal" in2="effect1_backgroundBlur_1328_5640" result="effect2_dropShadow_1328_5640"/>
<feBlend mode="normal" in="SourceGraphic" in2="effect2_dropShadow_1328_5640" result="shape"/>
</filter>
<filter id="filter4_bd_1328_5640" x="207" y="-4" width="154" height="175" filterUnits="userSpaceOnUse" color-interpolation-filters="sRGB">
<feFlood flood-opacity="0" result="BackgroundImageFix"/>
<feGaussianBlur in="BackgroundImage" stdDeviation="5"/>
<feComposite in2="SourceAlpha" operator="in" result="effect1_backgroundBlur_1328_5640"/>
<feColorMatrix in="SourceAlpha" type="matrix" values="0 0 0 0 0 0 0 0 0 0 0 0 0 0 0 0 0 0 127 0" result="hardAlpha"/>
<feOffset dy="4"/>
<feGaussianBlur stdDeviation="12"/>
<feComposite in2="hardAlpha" operator="out"/>
<feColorMatrix type="matrix" values="0 0 0 0 0.647059 0 0 0 0 0.215686 0 0 0 0 0.509804 0 0 0 0.1 0"/>
<feBlend mode="normal" in2="effect1_backgroundBlur_1328_5640" result="effect2_dropShadow_1328_5640"/>
<feBlend mode="normal" in="SourceGraphic" in2="effect2_dropShadow_1328_5640" result="shape"/>
</filter>
<filter id="filter5_bd_1328_5640" x="232" y="45" width="129" height="126" filterUnits="userSpaceOnUse" color-interpolation-filters="sRGB">
<feFlood flood-opacity="0" result="BackgroundImageFix"/>
<feGaussianBlur in="BackgroundImage" stdDeviation="5"/>
<feComposite in2="SourceAlpha" operator="in" result="effect1_backgroundBlur_1328_5640"/>
<feColorMatrix in="SourceAlpha" type="matrix" values="0 0 0 0 0 0 0 0 0 0 0 0 0 0 0 0 0 0 127 0" result="hardAlpha"/>
<feOffset dy="4"/>
<feGaussianBlur stdDeviation="12"/>
<feComposite in2="hardAlpha" operator="out"/>
<feColorMatrix type="matrix" values="0 0 0 0 0.647059 0 0 0 0 0.215686 0 0 0 0 0.509804 0 0 0 0.1 0"/>
<feBlend mode="normal" in2="effect1_backgroundBlur_1328_5640" result="effect2_dropShadow_1328_5640"/>
<feBlend mode="normal" in="SourceGraphic" in2="effect2_dropShadow_1328_5640" result="shape"/>
</filter>
</defs>
</svg>
