<svg width="550" height="550" viewBox="0 0 550 550" fill="none" xmlns="http://www.w3.org/2000/svg">
<rect x="3.5" y="3.5" width="543" height="543" rx="271.5" fill="#1C1C1C"/>
<path d="M155.436 327.309L168.021 339.887C173.326 345.19 176.306 352.381 176.306 359.88C176.306 367.378 173.326 374.569 168.021 379.872L155.44 392.466L156.971 393.996L169.552 381.422C174.857 376.121 182.052 373.143 189.554 373.143C197.056 373.143 204.25 376.121 209.555 381.422L222.148 393.992L223.675 392.462L211.094 379.888C205.789 374.585 202.809 367.394 202.809 359.896C202.809 352.398 205.789 345.206 211.094 339.904L223.671 327.309L222.148 325.796L209.555 338.374C204.25 343.675 197.056 346.653 189.554 346.653C182.052 346.653 174.857 343.675 169.552 338.374L156.955 325.8L155.436 327.309Z" fill="#50327D"/>
<path d="M71.5347 393.992L84.1159 381.414C89.4215 376.112 96.6169 373.134 104.119 373.134C111.622 373.134 118.817 376.112 124.123 381.414L136.708 393.988L138.235 392.458L125.654 379.888C123.026 377.263 120.942 374.146 119.52 370.716C118.098 367.286 117.366 363.609 117.366 359.896C117.366 356.183 118.098 352.506 119.52 349.076C120.942 345.645 123.026 342.529 125.654 339.904L138.235 327.309L136.708 325.8L124.127 338.374C118.821 343.675 111.626 346.654 104.123 346.654C96.6209 346.654 89.4256 343.675 84.1199 338.374L71.5144 325.796L70 327.309L82.5852 339.887C85.2127 342.513 87.297 345.629 88.719 349.06C90.1411 352.49 90.873 356.167 90.873 359.88C90.873 363.593 90.1411 367.269 88.719 370.7C87.297 374.13 85.2127 377.247 82.5852 379.872L70.004 392.466L71.5347 393.992Z" fill="#50327D"/>
<path d="M240.876 327.309L253.458 339.887C258.762 345.19 261.742 352.381 261.742 359.88C261.742 367.378 258.762 374.569 253.458 379.872L240.876 392.466L242.407 393.996L254.988 381.422C260.293 376.121 267.488 373.143 274.99 373.143C282.492 373.143 289.686 376.121 294.991 381.422L307.577 394L309.107 392.47L296.522 379.896C291.217 374.593 288.238 367.402 288.238 359.904C288.238 352.406 291.217 345.214 296.522 339.912L309.107 327.309L307.581 325.78L294.991 338.358C289.686 343.659 282.492 346.637 274.99 346.637C267.488 346.637 260.293 343.659 254.988 338.358L242.395 325.8L240.876 327.309Z" fill="#50327D"/>
<path d="M326.313 327.309L338.894 339.887C344.198 345.19 347.178 352.381 347.178 359.88C347.178 367.378 344.198 374.569 338.894 379.872L326.313 392.466L327.843 393.996L340.425 381.422C345.73 376.12 352.926 373.142 360.428 373.142C367.931 373.142 375.126 376.12 380.432 381.422L393.013 394L394.543 392.47L381.958 379.896C376.654 374.593 373.674 367.402 373.674 359.904C373.674 352.406 376.654 345.214 381.958 339.912L394.548 327.309L393.017 325.78L380.432 338.358C375.126 343.659 367.931 346.637 360.428 346.637C352.926 346.637 345.73 343.659 340.425 338.358L327.835 325.8L326.313 327.309Z" fill="#50327D"/>
<path d="M411.749 327.309L424.33 339.887C426.958 342.513 429.042 345.629 430.464 349.06C431.886 352.49 432.618 356.167 432.618 359.88C432.618 363.593 431.886 367.269 430.464 370.7C429.042 374.13 426.958 377.247 424.33 379.872L411.753 392.466L413.28 393.996L425.861 381.422C431.167 376.12 438.362 373.142 445.864 373.142C453.367 373.142 460.562 376.12 465.868 381.422L478.449 394L479.98 392.47L467.399 379.896C464.771 377.271 462.687 374.154 461.265 370.724C459.843 367.294 459.111 363.617 459.111 359.904C459.111 356.191 459.843 352.514 461.265 349.084C462.687 345.654 464.771 342.537 467.399 339.912L479.984 327.309L478.453 325.78L465.868 338.358C460.562 343.659 453.367 346.637 445.864 346.637C438.362 346.637 431.167 343.659 425.861 338.358L413.276 325.8L411.749 327.309Z" fill="#50327D"/>
<path d="M194.002 316.103H176.185C168.682 316.103 161.487 313.124 156.182 307.822C150.877 302.52 147.896 295.329 147.896 287.831V270.048H145.734V287.831C145.734 295.329 142.754 302.52 137.449 307.822C132.143 313.124 124.948 316.103 117.446 316.103H99.6287V318.264H117.446C124.948 318.264 132.143 321.243 137.449 326.545C142.754 331.847 145.734 339.038 145.734 346.537V364.344H147.896V346.537C147.896 339.038 150.877 331.847 156.182 326.545C161.487 321.243 168.682 318.264 176.185 318.264H194.002V316.103Z" fill="#50327D"/>
<path d="M155.436 241.918L168.021 254.496C173.326 259.798 176.306 266.99 176.306 274.488C176.306 281.986 173.326 289.177 168.021 294.48L155.44 307.074L156.971 308.604L169.552 296.03C174.857 290.729 182.052 287.751 189.554 287.751C197.056 287.751 204.25 290.729 209.555 296.03L222.148 308.592L223.675 307.062L211.086 294.488C205.781 289.186 202.801 281.994 202.801 274.496C202.801 266.998 205.781 259.806 211.086 254.504L223.671 241.918L222.148 240.396L209.555 252.974C204.25 258.275 197.056 261.253 189.554 261.253C182.052 261.253 174.857 258.275 169.552 252.974L156.955 240.4L155.436 241.918Z" fill="#50327D"/>
<path d="M71.5347 308.592L84.1159 296.014C89.4215 290.712 96.6169 287.734 104.119 287.734C111.622 287.734 118.817 290.712 124.123 296.014L136.708 308.588L138.235 307.058L125.654 294.488C123.026 291.863 120.942 288.746 119.52 285.316C118.098 281.886 117.366 278.209 117.366 274.496C117.366 270.783 118.098 267.106 119.52 263.676C120.942 260.246 123.026 257.129 125.654 254.504L138.235 241.918L136.708 240.4L124.127 252.974C118.821 258.275 111.626 261.254 104.123 261.254C96.6209 261.254 89.4256 258.275 84.1199 252.974L71.5144 240.396L70 241.918L82.5852 254.496C85.2127 257.121 87.297 260.237 88.719 263.668C90.1411 267.098 90.873 270.775 90.873 274.488C90.873 278.201 90.1411 281.878 88.719 285.308C87.297 288.738 85.2127 291.855 82.5852 294.48L70.004 307.074L71.5347 308.592Z" fill="#50327D"/>
<path d="M279.438 316.103H261.621C257.906 316.103 254.228 315.372 250.796 313.951C247.364 312.53 244.246 310.447 241.62 307.822C238.993 305.197 236.91 302.08 235.489 298.65C234.067 295.22 233.336 291.543 233.337 287.831V270.048H231.17V287.831C231.17 291.544 230.439 295.22 229.017 298.65C227.595 302.08 225.512 305.197 222.885 307.822C220.258 310.448 217.14 312.53 213.708 313.951C210.275 315.372 206.597 316.103 202.882 316.103H185.11V318.264H202.902C210.405 318.264 217.6 321.243 222.905 326.545C228.21 331.847 231.191 339.038 231.191 346.537V364.344H233.357V346.537C233.357 342.824 234.088 339.148 235.509 335.718C236.93 332.287 239.013 329.171 241.64 326.545C244.266 323.92 247.385 321.837 250.816 320.416C254.248 318.996 257.927 318.264 261.641 318.264H279.458L279.438 316.103Z" fill="#50327D"/>
<path d="M240.876 241.917L253.458 254.495C258.762 259.798 261.742 266.989 261.742 274.488C261.742 281.986 258.762 289.177 253.458 294.48L240.876 307.074L242.407 308.604L254.988 296.03C260.293 290.729 267.488 287.751 274.99 287.751C282.492 287.751 289.686 290.729 294.991 296.03L307.589 308.592L309.119 307.062L296.522 294.488C291.217 289.185 288.238 281.994 288.238 274.496C288.238 266.998 291.217 259.806 296.522 254.504L309.107 241.917L307.581 240.388L294.991 252.966C289.686 258.267 282.492 261.245 274.99 261.245C267.488 261.245 260.293 258.267 254.988 252.966L242.395 240.4L240.876 241.917Z" fill="#50327D"/>
<path d="M194.002 230.715H176.185C168.682 230.715 161.487 227.736 156.182 222.434C150.877 217.132 147.896 209.941 147.896 202.443V184.66H145.734V202.443C145.734 209.941 142.754 217.132 137.449 222.434C132.143 227.736 124.948 230.715 117.446 230.715H99.6287V232.876H117.446C124.948 232.876 132.143 235.855 137.449 241.157C142.754 246.459 145.734 253.65 145.734 261.149V278.956H147.896V261.149C147.896 253.65 150.877 246.459 156.182 241.157C161.487 235.855 168.682 232.876 176.185 232.876H194.002V230.715Z" fill="#50327D"/>
<path d="M155.436 156.526L168.021 169.104C173.326 174.406 176.306 181.596 176.306 189.094C176.306 196.591 173.326 203.782 168.021 209.084L155.44 221.682L156.971 223.212L169.552 210.638C174.857 205.337 182.052 202.359 189.554 202.359C197.056 202.359 204.25 205.337 209.555 210.638L222.148 223.204L223.675 221.674L211.086 209.096C205.782 203.794 202.802 196.604 202.802 189.106C202.802 181.608 205.782 174.418 211.086 169.116L223.671 156.526L222.148 155.008L209.555 167.586C204.25 172.887 197.056 175.865 189.554 175.865C182.052 175.865 174.857 172.887 169.552 167.586L156.955 155.012L155.436 156.526Z" fill="#50327D"/>
<path d="M71.5347 223.204L84.1159 210.626C89.4215 205.324 96.6169 202.346 104.119 202.346C111.622 202.346 118.817 205.324 124.123 210.626L136.708 223.2L138.235 221.67L125.654 209.096C123.026 206.471 120.942 203.355 119.52 199.925C118.098 196.495 117.366 192.819 117.366 189.106C117.366 185.393 118.098 181.717 119.52 178.287C120.942 174.857 123.026 171.741 125.654 169.116L138.235 156.526L136.708 155.012L124.127 167.586C118.821 172.888 111.626 175.866 104.123 175.866C96.6209 175.866 89.4256 172.888 84.1199 167.586L71.5144 155.008L70 156.526L82.5852 169.108C85.2126 171.732 87.2968 174.849 88.7188 178.279C90.1407 181.709 90.8727 185.385 90.8727 189.098C90.8727 192.811 90.1407 196.487 88.7188 199.917C87.2968 203.347 85.2126 206.463 82.5852 209.088L70.004 221.682L71.5347 223.204Z" fill="#50327D"/>
<path d="M279.438 230.715H261.621C257.906 230.715 254.228 229.984 250.796 228.563C247.364 227.142 244.246 225.059 241.62 222.434C238.993 219.809 236.91 216.692 235.489 213.262C234.067 209.832 233.336 206.155 233.337 202.443V184.66H231.17V202.443C231.17 206.156 230.439 209.832 229.017 213.262C227.595 216.692 225.512 219.809 222.885 222.434C220.258 225.06 217.14 227.142 213.708 228.563C210.275 229.984 206.597 230.715 202.882 230.715H185.11V232.876H202.902C210.405 232.876 217.6 235.855 222.905 241.157C228.21 246.459 231.191 253.65 231.191 261.149V278.956H233.357V261.149C233.357 257.436 234.088 253.76 235.509 250.33C236.93 246.899 239.013 243.783 241.64 241.157C244.266 238.532 247.385 236.449 250.816 235.028C254.248 233.608 257.927 232.876 261.641 232.876H279.458L279.438 230.715Z" fill="#50327D"/>
<path d="M240.876 156.526L253.458 169.104C258.762 174.406 261.742 181.596 261.742 189.094C261.742 196.592 258.762 203.782 253.458 209.084L240.876 221.683L242.407 223.212L254.988 210.638C260.293 205.337 267.488 202.359 274.99 202.359C282.492 202.359 289.686 205.337 294.991 210.638L307.589 223.204L309.119 221.674L296.522 209.096C291.218 203.794 288.238 196.604 288.238 189.106C288.238 181.609 291.218 174.418 296.522 169.116L309.107 156.526L307.581 155L294.991 167.578C289.686 172.879 282.492 175.857 274.99 175.857C267.488 175.857 260.293 172.879 254.988 167.578L242.395 155.012L240.876 156.526Z" fill="#50327D"/>
<path d="M364.874 316.103H347.081C339.579 316.103 332.384 313.124 327.078 307.822C321.773 302.52 318.793 295.329 318.793 287.831V270.048H316.627V287.831C316.627 291.543 315.896 295.22 314.475 298.65C313.054 302.08 310.97 305.197 308.344 307.822C305.717 310.447 302.599 312.53 299.167 313.951C295.735 315.372 292.057 316.103 288.342 316.103H270.525V318.264H288.342C292.057 318.264 295.735 318.996 299.167 320.416C302.599 321.837 305.717 323.92 308.344 326.545C310.97 329.171 313.054 332.287 314.475 335.718C315.896 339.148 316.627 342.824 316.627 346.537V364.344H318.793V346.537C318.793 339.038 321.773 331.847 327.078 326.545C332.384 321.243 339.579 318.264 347.081 318.264H364.874V316.103Z" fill="#50327D"/>
<path d="M326.313 241.917L338.894 254.495C344.198 259.798 347.178 266.989 347.178 274.488C347.178 281.986 344.198 289.177 338.894 294.48L326.313 307.074L327.843 308.604L340.425 296.03C345.73 290.728 352.926 287.75 360.428 287.75C367.931 287.75 375.126 290.728 380.432 296.03L393.029 308.592L394.56 307.062L381.974 294.488C376.67 289.185 373.69 281.994 373.69 274.496C373.69 266.998 376.67 259.806 381.974 254.504L394.548 241.917L393.017 240.388L380.432 252.966C375.126 258.267 367.931 261.245 360.428 261.245C352.926 261.245 345.73 258.267 340.425 252.966L327.835 240.4L326.313 241.917Z" fill="#50327D"/>
<path d="M450.314 316.103H432.497C424.995 316.103 417.8 313.124 412.495 307.822C407.189 302.52 404.209 295.329 404.209 287.831V270.048H402.047V287.831C402.047 295.329 399.066 302.52 393.761 307.822C388.456 313.124 381.261 316.103 373.758 316.103H355.941V318.264H373.758C381.261 318.264 388.456 321.243 393.761 326.545C399.066 331.847 402.047 339.038 402.047 346.537V364.344H404.209V346.537C404.209 339.038 407.189 331.847 412.495 326.545C417.8 321.243 424.995 318.264 432.497 318.264H450.314V316.103Z" fill="#50327D"/>
<path d="M411.749 241.917L424.33 254.495C426.958 257.121 429.042 260.237 430.464 263.668C431.886 267.098 432.618 270.775 432.618 274.488C432.618 278.201 431.886 281.878 430.464 285.308C429.042 288.738 426.958 291.855 424.33 294.48L411.753 307.074L413.28 308.604L425.861 296.03C431.167 290.728 438.362 287.75 445.864 287.75C453.367 287.75 460.562 290.728 465.868 296.03L478.469 308.592L480 307.062L467.419 294.488C464.791 291.863 462.707 288.746 461.285 285.316C459.863 281.886 459.131 278.209 459.131 274.496C459.131 270.783 459.863 267.106 461.285 263.676C462.707 260.245 464.791 257.129 467.419 254.504L479.984 241.917L478.453 240.388L465.868 252.966C460.562 258.267 453.367 261.245 445.864 261.245C438.362 261.245 431.167 258.267 425.861 252.966L413.276 240.4L411.749 241.917Z" fill="#50327D"/>
<path d="M364.874 230.715H347.081C339.579 230.715 332.384 227.736 327.078 222.434C321.773 217.132 318.793 209.941 318.793 202.443V184.66H316.627V202.443C316.627 206.155 315.896 209.832 314.475 213.262C313.054 216.692 310.97 219.809 308.344 222.434C305.717 225.059 302.599 227.142 299.167 228.563C295.735 229.984 292.057 230.715 288.342 230.715H270.525V232.876H288.342C292.057 232.876 295.735 233.608 299.167 235.028C302.599 236.449 305.717 238.532 308.344 241.157C310.97 243.783 313.054 246.899 314.475 250.33C315.896 253.76 316.627 257.436 316.627 261.149V278.956H318.793V261.149C318.793 253.65 321.773 246.459 327.078 241.157C332.384 235.855 339.579 232.876 347.081 232.876H364.874V230.715Z" fill="#50327D"/>
<path d="M326.313 156.526L338.894 169.104C344.198 174.406 347.178 181.596 347.178 189.094C347.178 196.592 344.198 203.782 338.894 209.084L326.313 221.683L327.843 223.212L340.425 210.638C345.73 205.337 352.926 202.359 360.428 202.359C367.931 202.359 375.126 205.337 380.432 210.638L393.029 223.204L394.56 221.674L381.974 209.096C376.67 203.794 373.69 196.604 373.69 189.106C373.69 181.609 376.67 174.418 381.974 169.116L394.548 156.526L393.017 155L380.432 167.578C375.126 172.88 367.931 175.858 360.428 175.858C352.926 175.858 345.73 172.88 340.425 167.578L327.835 155.012L326.313 156.526Z" fill="#50327D"/>
<path d="M450.314 230.715H432.497C424.995 230.715 417.8 227.736 412.495 222.434C407.189 217.132 404.209 209.941 404.209 202.443V184.66H402.047V202.443C402.047 209.941 399.066 217.132 393.761 222.434C388.456 227.736 381.261 230.715 373.758 230.715H355.941V232.876H373.758C381.261 232.876 388.456 235.855 393.761 241.157C399.066 246.459 402.047 253.65 402.047 261.149V278.956H404.209V261.149C404.209 253.65 407.189 246.459 412.495 241.157C417.8 235.855 424.995 232.876 432.497 232.876H450.314V230.715Z" fill="#50327D"/>
<path d="M411.749 156.526L424.33 169.104C426.958 171.729 429.042 174.845 430.464 178.275C431.886 181.705 432.618 185.381 432.618 189.094C432.618 192.807 431.886 196.483 430.464 199.913C429.042 203.343 426.958 206.46 424.33 209.084L411.753 221.683L413.28 223.212L425.861 210.638C431.167 205.337 438.362 202.359 445.864 202.359C453.367 202.359 460.562 205.337 465.868 210.638L478.469 223.204L480 221.674L467.419 209.096C464.791 206.472 462.707 203.355 461.285 199.925C459.863 196.495 459.131 192.819 459.131 189.106C459.131 185.393 459.863 181.717 461.285 178.287C462.707 174.857 464.791 171.741 467.419 169.116L479.984 156.526L478.453 155L465.868 167.578C460.562 172.88 453.367 175.858 445.864 175.858C438.362 175.858 431.167 172.88 425.861 167.578L413.276 155.012L411.749 156.526Z" fill="#50327D"/>
<path d="M50.407 173.551C53.4772 173.791 55.7138 174.667 57.1168 176.18C58.5392 177.676 59.1551 179.589 58.9643 181.918C58.7736 184.248 57.8587 185.988 56.2195 187.138C54.5984 188.29 52.2527 188.746 49.1825 188.506C47.3222 188.361 45.6227 187.917 44.084 187.175C42.5648 186.417 41.5368 185.209 41 183.551C42.9809 182.889 44.4521 182.347 45.4136 181.925C45.6838 182.621 46.1302 183.162 46.753 183.548C47.3938 183.935 48.274 184.173 49.3938 184.26C51.543 184.428 52.9777 183.999 53.6979 182.972L46.6273 182.419L46.9003 179.084L53.8355 179.626C53.2692 178.552 52.0559 177.942 50.1956 177.796C49.3468 177.73 48.4759 177.822 47.583 178.072C46.7082 178.323 46.0551 178.751 45.6238 179.357C44.0302 178.398 42.654 177.669 41.4952 177.17C43.1741 174.424 46.1447 173.217 50.407 173.551Z" fill="white"/>
<path d="M77.5872 183.132C74.9383 182.534 73.012 182.107 71.8082 181.85L69.8447 191.296L64.1984 190.176L66.1619 180.729C64.9687 180.511 63.0332 180.172 60.3554 179.713L61.3723 174.82L78.6041 178.24L77.5872 183.132Z" fill="white"/>
<path d="M84.9784 195.301C81.9709 194.574 79.9246 193.368 78.8394 191.683C77.7761 189.986 77.523 188.037 78.08 185.837C78.624 183.689 79.7692 182.115 81.5156 181.115C83.2797 180.119 85.6654 179.984 88.6729 180.711C90.6955 181.2 92.3013 181.935 93.4902 182.915C94.701 183.883 95.4926 184.995 95.8648 186.252C96.2414 187.492 96.2578 188.791 95.914 190.149C95.3527 192.366 94.146 193.961 92.294 194.936C90.4596 195.915 88.0211 196.037 84.9784 195.301ZM86.1936 190.945C87.3368 191.221 88.2573 191.161 88.955 190.764C89.6527 190.368 90.1147 189.722 90.341 188.829C90.5542 187.987 90.4469 187.231 90.019 186.563C89.5954 185.877 88.812 185.395 87.6688 185.119C86.5256 184.843 85.6227 184.907 84.9602 185.312C84.2977 185.717 83.8576 186.35 83.64 187.209C83.4138 188.102 83.497 188.879 83.8897 189.54C84.2824 190.2 85.0504 190.668 86.1936 190.945Z" fill="white"/>
<path d="M122.832 185.391C122.549 188.069 122.332 190.476 122.178 192.613C122.025 194.75 121.898 197.164 121.796 199.854L115.913 199.452L116.258 194.631L110.944 194.267L110.599 199.088L104.716 198.686C104.951 196.679 105.169 194.271 105.37 191.463C105.571 188.655 105.698 186.242 105.752 184.222L111.635 184.625L111.29 189.446L116.604 189.809L116.949 184.988L122.832 185.391Z" fill="white"/>
<path d="M131.076 193.161C131.238 193.937 131.605 194.566 132.178 195.05C132.768 195.516 133.588 195.738 134.639 195.716C135.399 195.7 136.112 195.544 136.776 195.247C137.44 194.932 137.965 194.505 138.352 193.966C139.578 194.524 141.204 195.119 143.229 195.75C142.695 197.001 141.693 198.013 140.224 198.787C138.772 199.543 136.86 199.946 134.487 199.996C131.408 200.06 129.11 199.417 127.595 198.067C126.097 196.7 125.324 194.883 125.274 192.618C125.226 190.405 125.921 188.593 127.358 187.182C128.795 185.771 131.062 185.034 134.16 184.969C136.007 184.931 137.617 185.198 138.989 185.772C140.36 186.345 141.42 187.164 142.168 188.229C142.916 189.276 143.305 190.489 143.335 191.87C143.345 192.33 143.334 192.676 143.303 192.906L131.076 193.161ZM134.628 188.97C133.722 188.989 132.983 189.172 132.411 189.521C131.838 189.869 131.441 190.338 131.218 190.927L137.63 190.793C137.401 190.232 137.037 189.788 136.541 189.461C136.044 189.118 135.406 188.954 134.628 188.97Z" fill="white"/>
<path d="M171.662 180.494L175.641 194.498L170.475 195.529L168.031 185.419L168.132 195.996L161.821 197.254L157.673 187.62L159.478 197.722L154.312 198.752L152.357 184.344L160.238 182.772L163.909 191.716L163.514 182.119L171.662 180.494Z" fill="white"/>
<path d="M194.41 185.232C194.545 185.819 194.711 186.218 194.908 186.429C195.104 186.64 195.427 186.751 195.875 186.761L196.329 189.22C195.783 189.431 195.302 189.6 194.885 189.727C194.487 189.851 193.943 189.988 193.253 190.14C191.733 190.473 190.65 190.366 190.004 189.818C189.354 189.253 188.91 188.452 188.672 187.416L188.523 186.768C188.336 188.297 187.827 189.516 186.996 190.424C186.182 191.328 185.015 191.947 183.495 192.28C181.727 192.668 180.313 192.615 179.253 192.122C178.21 191.625 177.532 190.694 177.218 189.33C176.96 188.207 177.138 187.243 177.751 186.437C178.365 185.631 179.439 184.933 180.975 184.342C179.417 183.704 177.887 183.187 176.384 182.79C177.144 181.245 178.126 179.986 179.333 179.014C180.535 178.024 182.109 177.316 184.053 176.89C186.776 176.293 188.924 176.429 190.498 177.3C192.086 178.149 193.154 179.765 193.701 182.149L194.41 185.232ZM185.658 181.328C184.756 181.525 183.995 181.847 183.373 182.292C182.751 182.737 182.233 183.313 181.82 184.02C182.853 183.667 184.165 183.315 185.756 182.966C186.41 182.823 186.852 182.644 187.081 182.431C187.311 182.217 187.398 181.989 187.342 181.748C187.294 181.54 187.122 181.397 186.825 181.317C186.524 181.219 186.135 181.223 185.658 181.328ZM184.195 187.69C185.185 187.473 186.036 187.096 186.748 186.559C187.457 186.004 187.891 185.392 188.053 184.721L187.898 184.048C187.522 184.348 187.091 184.615 186.606 184.848C186.117 185.064 185.522 185.304 184.821 185.566L183.902 185.931C182.956 186.338 182.536 186.775 182.644 187.241C182.759 187.742 183.276 187.892 184.195 187.69Z" fill="white"/>
<path d="M203.118 188.812L197.359 189.39C197.236 187.356 197.028 184.948 196.736 182.165C196.441 179.365 196.143 176.966 195.842 174.967L211.035 173.441C211.082 174.059 211.203 175.293 211.397 177.142L211.547 178.569L202.139 179.514L203.118 188.812Z" fill="white"/>
<path d="M229.944 173.154C229.89 175.722 229.877 178.041 229.905 180.112C229.934 182.148 230.011 184.466 230.138 187.067L224.567 187.141L224.738 177.95L220.709 187.193L213.127 187.294C213.203 184.956 213.225 182.636 213.193 180.335C213.16 177.998 213.074 175.68 212.933 173.38L218.286 173.309L218.146 182.739L222.172 173.257L229.944 173.154Z" fill="white"/>
<path d="M249.499 174.276C249.224 176.955 249.012 179.363 248.865 181.5C248.718 183.637 248.597 186.051 248.503 188.742L243.161 188.391L243.478 183.78L241.282 183.636C239.902 185.479 238.856 186.954 238.144 188.061L231.772 187.642C233.351 185.812 234.685 184.231 235.776 182.901C234.408 182.457 233.462 181.818 232.939 180.985C232.415 180.152 232.193 179.153 232.274 177.987C232.375 176.521 232.997 175.391 234.141 174.597C235.286 173.802 237.232 173.496 239.979 173.676L244.155 173.951L244.157 173.924L249.499 174.276ZM243.735 180.045L243.892 177.766L241.452 177.606C240.132 177.519 239.232 177.54 238.751 177.668C238.288 177.797 238.042 178.073 238.013 178.497C237.983 178.939 238.196 179.264 238.654 179.471C239.131 179.662 240.012 179.8 241.295 179.884L243.735 180.045Z" fill="white"/>
<path d="M253.582 184.172C254.389 184.29 255.014 184.694 255.457 185.386C255.921 186.062 256.072 186.935 255.908 188.003C255.774 188.878 255.471 189.774 255.001 190.689C254.549 191.608 254 192.324 253.353 192.838L251.068 192.503C251.974 191.616 252.599 190.705 252.944 189.771C252.012 189.634 251.31 189.254 250.838 188.63C250.365 188.006 250.188 187.309 250.306 186.538C250.425 185.768 250.803 185.152 251.442 184.691C252.08 184.229 252.794 184.056 253.582 184.172Z" fill="white"/>
<path d="M274.276 178.885C277.261 179.628 279.314 180.86 280.435 182.583C281.579 184.292 281.855 186.279 281.265 188.544C280.675 190.808 279.472 192.372 277.658 193.236C275.861 194.104 273.47 194.167 270.486 193.424C268.677 192.974 267.079 192.256 265.69 191.272C264.324 190.274 263.519 188.913 263.276 187.191C265.343 186.865 266.887 186.573 267.908 186.315C268.054 187.046 268.4 187.653 268.947 188.136C269.512 188.624 270.339 189.003 271.427 189.274C273.517 189.794 275.005 189.607 275.892 188.714L269.019 187.003L269.864 183.761L276.606 185.439C276.233 184.286 275.143 183.485 273.334 183.035C272.509 182.83 271.635 182.776 270.711 182.875C269.806 182.979 269.088 183.294 268.558 183.819C267.153 182.611 265.923 181.665 264.867 180.982C266.996 178.553 270.132 177.854 274.276 178.885Z" fill="white"/>
<path d="M300.722 189.591C298.053 189.082 296.113 188.72 294.901 188.504L293.273 198.011L287.59 197.082L289.218 187.575C288.018 187.397 286.072 187.123 283.379 186.755L284.223 181.831L301.565 184.667L300.722 189.591Z" fill="white"/>
<path d="M311.253 199.852C308.158 199.727 305.906 198.946 304.498 197.507C303.108 196.051 302.462 194.191 302.557 191.927C302.65 189.716 303.45 187.95 304.957 186.629C306.481 185.308 308.791 184.71 311.887 184.835C313.969 184.919 315.692 185.325 317.058 186.053C318.442 186.764 319.445 187.699 320.067 188.858C320.69 190 320.972 191.269 320.913 192.666C320.817 194.948 319.961 196.748 318.346 198.064C316.749 199.382 314.385 199.978 311.253 199.852ZM311.552 195.346C312.729 195.393 313.618 195.154 314.221 194.629C314.823 194.104 315.144 193.382 315.183 192.462C315.219 191.595 314.959 190.876 314.403 190.305C313.848 189.715 312.982 189.397 311.805 189.35C310.628 189.302 309.757 189.542 309.191 190.068C308.625 190.595 308.323 191.3 308.285 192.184C308.247 193.104 308.487 193.849 309.007 194.419C309.527 194.99 310.375 195.298 311.552 195.346Z" fill="white"/>
<path d="M349.963 183.657L352.347 198.004L347.097 198.474L345.801 188.164L344.715 198.687L338.301 199.262L335.259 189.242L335.919 199.476L330.669 199.946L330.342 185.416L338.353 184.698L340.998 193.981L341.682 184.4L349.963 183.657Z" fill="white"/>
<path d="M372.982 188.632C373.129 189.216 373.303 189.612 373.505 189.818C373.706 190.025 374.031 190.129 374.479 190.131L374.984 192.58C374.443 192.802 373.965 192.98 373.552 193.116C373.156 193.248 372.615 193.396 371.929 193.561C370.416 193.925 369.331 193.84 368.673 193.305C368.012 192.753 367.551 191.961 367.291 190.93L367.129 190.285C366.974 191.818 366.49 193.046 365.678 193.971C364.884 194.891 363.73 195.533 362.217 195.897C360.458 196.32 359.043 196.296 357.973 195.824C356.92 195.348 356.222 194.431 355.88 193.073C355.599 191.956 355.756 190.988 356.352 190.17C356.949 189.352 358.008 188.633 359.531 188.011C357.96 187.404 356.419 186.918 354.909 186.552C355.635 184.992 356.591 183.713 357.777 182.717C358.959 181.704 360.517 180.964 362.452 180.499C365.161 179.847 367.312 179.941 368.904 180.779C370.509 181.596 371.611 183.191 372.209 185.563L372.982 188.632ZM364.15 184.904C363.252 185.119 362.498 185.456 361.885 185.913C361.273 186.371 360.767 186.957 360.369 187.673C361.394 187.298 362.699 186.921 364.282 186.54C364.933 186.383 365.371 186.196 365.596 185.978C365.821 185.76 365.903 185.53 365.842 185.29C365.79 185.083 365.615 184.943 365.316 184.869C365.014 184.778 364.625 184.789 364.15 184.904ZM362.821 191.294C363.806 191.057 364.649 190.663 365.35 190.112C366.046 189.543 366.468 188.922 366.616 188.248L366.447 187.578C366.077 187.886 365.651 188.161 365.172 188.404C364.687 188.63 364.098 188.882 363.402 189.158L362.491 189.541C361.554 189.967 361.143 190.413 361.26 190.877C361.386 191.375 361.906 191.514 362.821 191.294Z" fill="white"/>
<path d="M385.258 175.389C386.412 175.171 387.515 175.295 388.565 175.762C389.616 176.229 390.509 176.969 391.244 177.982C391.976 178.977 392.473 180.134 392.734 181.453C392.993 182.754 392.979 184.034 392.695 185.294C392.407 186.537 391.864 187.603 391.064 188.493C390.278 189.361 389.291 189.909 388.101 190.134C386.716 190.396 385.471 190.344 384.367 189.977C383.277 189.59 382.375 188.852 381.661 187.763C381.857 188.751 382.208 190.332 382.713 192.505C383.204 194.608 383.535 196.093 383.707 196.961L377.688 198.101C377.154 194.854 376.538 191.469 375.839 187.947C375.141 184.426 374.418 181.061 373.671 177.855L378.785 176.886L380.202 179.992C380.459 178.684 381.029 177.658 381.913 176.914C382.794 176.153 383.909 175.645 385.258 175.389ZM384.402 185.974C385.201 185.823 385.818 185.454 386.254 184.867C386.705 184.26 386.851 183.557 386.693 182.759C386.517 181.874 386.126 181.201 385.519 180.74C384.911 180.279 384.181 180.13 383.329 180.291C382.353 180.476 381.662 180.85 381.258 181.413C380.85 181.958 380.753 182.768 380.967 183.844C381.087 184.451 381.348 184.933 381.751 185.288C382.149 185.627 382.59 185.85 383.071 185.956C383.55 186.046 383.993 186.052 384.402 185.974Z" fill="white"/>
<path d="M408.711 180.922C409.564 181.51 410.232 182.189 410.715 182.959C411.198 183.729 411.663 184.659 412.112 185.75C412.551 186.7 412.861 187.32 413.043 187.611L406.505 187.995C406.443 187.874 406.31 187.492 406.108 186.847C405.923 186.202 405.746 185.689 405.577 185.309C405.408 184.911 405.169 184.57 404.861 184.287C404.38 183.836 403.854 183.557 403.285 183.448C402.716 183.34 401.88 183.318 400.776 183.382L401.079 188.313L395.274 188.653C395.24 186.633 395.137 184.218 394.965 181.409C394.792 178.599 394.599 176.189 394.385 174.18L400.19 173.84L400.509 179.035L400.618 179.029C402.641 176.8 404.099 174.976 404.992 173.558L412.154 173.138L406.185 179.687C407.149 180.02 407.992 180.432 408.711 180.922Z" fill="white"/>
<path d="M418.801 181.081C418.935 181.862 419.278 182.504 419.833 183.008C420.405 183.494 421.217 183.744 422.268 183.759C423.029 183.77 423.746 183.638 424.421 183.365C425.096 183.073 425.636 182.665 426.043 182.139C427.248 182.741 428.851 183.392 430.852 184.093C430.272 185.324 429.233 186.301 427.737 187.023C426.259 187.728 424.333 188.064 421.96 188.03C418.88 187.987 416.608 187.264 415.143 185.862C413.696 184.443 412.989 182.601 413.023 180.335C413.056 178.122 413.816 176.336 415.304 174.976C416.792 173.616 419.085 172.958 422.183 173.002C424.03 173.028 425.629 173.352 426.979 173.973C428.329 174.594 429.358 175.45 430.067 176.54C430.776 177.612 431.12 178.838 431.099 180.219C431.093 180.679 431.069 181.024 431.03 181.254L418.801 181.081ZM422.504 177.017C421.598 177.004 420.853 177.162 420.268 177.49C419.683 177.818 419.269 178.272 419.025 178.853L425.438 178.944C425.229 178.374 424.882 177.918 424.398 177.575C423.914 177.214 423.283 177.028 422.504 177.017Z" fill="white"/>
<path d="M449.783 180.4C447.09 180.037 445.132 179.78 443.91 179.629L442.82 189.21L437.094 188.588L438.183 179.007C436.975 178.894 435.016 178.726 432.307 178.503L432.871 173.541L450.347 175.439L449.783 180.4Z" fill="white"/>
<path d="M468.962 179.461C468.28 181.941 467.699 184.19 467.219 186.208C466.748 188.191 466.256 190.46 465.742 193.015L460.315 191.784L462.732 182.9L456.555 190.931L449.169 189.256C449.816 187.004 450.406 184.757 450.938 182.515C451.479 180.238 451.963 177.967 452.39 175.702L457.605 176.885L455.158 186.007L461.391 177.743L468.962 179.461Z" fill="white"/>
<path d="M488.146 183.832C487.48 186.444 486.918 188.798 486.458 190.892C485.999 192.987 485.525 195.359 485.037 198.009L479.27 196.801L480.306 192.075L475.098 190.985L474.062 195.711L468.295 194.503C468.816 192.548 469.379 190.195 469.982 187.443C470.586 184.69 471.06 182.318 471.404 180.326L477.171 181.534L476.134 186.259L481.343 187.35L482.379 182.624L488.146 183.832Z" fill="white"/>
<path d="M495.356 199.036L489.586 198.583C489.843 196.561 490.086 194.155 490.316 191.367C490.547 188.562 490.7 186.149 490.776 184.131L506 185.327C505.931 185.944 505.82 187.178 505.668 189.031L505.55 190.46L496.123 189.719L495.356 199.036Z" fill="white"/>
<path d="M53.8652 225.892L45.4382 225.219L45.6356 222.756L54.0247 223.426C53.9184 221.892 53.3662 220.678 52.3681 219.785C51.3953 218.894 50.0992 218.383 48.4795 218.254C46.3791 218.086 44.5834 218.566 43.0923 219.693L41.9839 217.316C42.7765 216.642 43.7974 216.139 45.0465 215.806C46.2976 215.448 47.5053 215.316 48.6693 215.409C51.4024 215.627 53.5266 216.611 55.042 218.359C56.6079 220.111 57.2826 222.339 57.066 225.042C56.8656 227.543 55.8741 229.586 54.0915 231.173C52.3089 232.759 50.1776 233.453 47.6976 233.255C44.6102 233.009 42.3777 232.106 41 230.547L42.6216 228.426C43.7027 229.555 45.4074 230.212 47.7355 230.398C49.3298 230.526 50.6675 230.2 51.7486 229.422C52.8317 228.619 53.5373 227.442 53.8652 225.892Z" fill="white"/>
<path d="M65.8622 221.137L59.6823 220.004L60.2326 217.013L75.5889 219.829L75.0385 222.82L68.8586 221.687L66.3132 235.521L63.3169 234.971L65.8622 221.137Z" fill="white"/>
<path d="M76.5053 235.588C75.2934 233.514 74.9954 231.234 75.6112 228.749C76.2332 226.24 77.5586 224.374 79.5875 223.153C81.6472 221.912 83.9955 221.618 86.6325 222.269C89.2694 222.92 91.1968 224.271 92.4148 226.321C93.6635 228.352 93.9769 230.623 93.355 233.132C92.733 235.641 91.3922 237.516 89.3325 238.757C87.3036 239.979 84.9706 240.264 82.3337 239.613C79.7214 238.967 77.7786 237.626 76.5053 235.588ZM81.4317 225.684C80.079 226.498 79.1863 227.779 78.7533 229.526C78.3204 231.272 78.4997 232.818 79.2911 234.162C80.101 235.537 81.3439 236.431 83.0197 236.845C84.6955 237.259 86.1974 237.055 87.5254 236.235C88.8841 235.396 89.7799 234.103 90.2128 232.356C90.6336 230.658 90.442 229.11 89.6381 227.71C88.8528 226.342 87.6223 225.45 85.9465 225.036C84.2707 224.623 82.7657 224.838 81.4317 225.684Z" fill="white"/>
<path d="M122.849 244.856L119.807 244.685L120.214 237.474L110.709 236.94L110.302 244.151L107.261 243.98L108.223 226.901L111.265 227.072L110.869 234.093L120.374 234.627L120.77 227.605L123.812 227.776L122.849 244.856Z" fill="white"/>
<path d="M143.315 240.138L144.351 242.498C142.755 244.05 140.637 244.873 137.999 244.966C135.208 245.064 132.959 244.332 131.253 242.769C129.521 241.207 128.607 239.071 128.512 236.361C128.421 233.803 129.133 231.648 130.646 229.896C132.133 228.144 134.26 227.22 137.025 227.122C139.309 227.042 141.225 227.71 142.774 229.126C144.347 230.516 145.174 232.364 145.256 234.668C145.282 235.403 145.243 236.089 145.138 236.727L131.97 237.19C132.153 238.781 132.794 240.014 133.892 240.888C135.015 241.762 136.427 242.168 138.126 242.109C140.359 242.03 142.089 241.373 143.315 240.138ZM136.974 229.977C135.477 230.03 134.248 230.491 133.289 231.362C132.354 232.232 131.822 233.354 131.693 234.728L142.082 234.362C141.956 232.946 141.435 231.849 140.518 231.069C139.627 230.289 138.445 229.925 136.974 229.977Z" fill="white"/>
<path d="M164.601 241.541L161.638 242.249L157.65 225.612L160.353 224.966L168.737 231.68L172.834 221.984L175.463 221.356L179.452 237.993L176.489 238.701L173.582 226.574L169.657 235.681L169.546 235.708L161.694 229.415L164.601 241.541Z" fill="white"/>
<path d="M182.92 223.163L181.671 220.926C183.143 219.583 184.913 218.711 186.981 218.311C189.249 217.872 191.003 218.113 192.242 219.035C193.482 219.957 194.328 221.587 194.783 223.926L196.783 234.226L193.942 234.776L193.521 232.611C192.515 234.484 190.877 235.64 188.609 236.079C187.064 236.378 185.728 236.159 184.602 235.422C183.472 234.66 182.752 233.482 182.443 231.89C182.124 230.248 182.458 228.841 183.446 227.669C184.429 226.472 185.867 225.69 187.762 225.323C189.531 224.981 190.997 225.072 192.159 225.595C191.792 223.704 191.267 222.399 190.584 221.679C189.901 220.96 188.812 220.745 187.316 221.034C185.796 221.328 184.331 222.038 182.92 223.163ZM189.134 233.189C190.804 232.866 192.109 231.865 193.05 230.186L192.637 228.058C191.445 227.515 190.114 227.385 188.644 227.67C187.622 227.867 186.81 228.283 186.209 228.915C185.628 229.518 185.422 230.255 185.591 231.126C185.751 231.947 186.138 232.543 186.753 232.915C187.393 233.281 188.187 233.373 189.134 233.189Z" fill="white"/>
<path d="M204.153 233.369L201.12 233.648L199.543 216.614L210.35 215.617L210.613 218.456L202.839 219.174L204.153 233.369Z" fill="white"/>
<path d="M227.109 219.682L217.324 232.506L214.278 232.533L214.122 215.427L217.169 215.4L217.284 228.134L227.069 215.31L230.116 215.283L230.271 232.388L227.225 232.416L227.109 219.682Z" fill="white"/>
<path d="M244.048 215.986L249.363 216.41L247.996 233.462L244.959 233.22L245.415 227.536L242.112 227.272L237.481 232.622L233.799 232.328L239.25 226.281C238.231 225.97 237.402 225.345 236.765 224.404C236.129 223.438 235.862 222.323 235.963 221.06C236.103 219.317 236.846 217.991 238.192 217.082C239.54 216.147 241.492 215.782 244.048 215.986ZM239.183 221.394C239.119 222.202 239.381 222.897 239.971 223.478C240.564 224.034 241.29 224.346 242.15 224.415L245.643 224.694L246.098 219.01L243.327 218.788C242.036 218.685 241.041 218.873 240.34 219.351C239.64 219.829 239.254 220.51 239.183 221.394Z" fill="white"/>
<path d="M252.484 232.35C252.581 231.749 252.846 231.304 253.279 231.015C253.715 230.7 254.272 230.597 254.949 230.706C255.751 230.836 256.348 231.279 256.739 232.035C257.135 232.766 257.244 233.682 257.066 234.783C256.847 236.134 256.283 237.237 255.373 238.091C254.484 238.975 253.37 239.501 252.032 239.67L251.435 238.111C252.803 237.921 253.741 237.212 254.248 235.985C254.562 235.162 254.65 234.535 254.515 234.102C254.328 234.303 254.034 234.371 253.633 234.306C253.257 234.246 252.945 234.029 252.697 233.655C252.478 233.26 252.407 232.825 252.484 232.35Z" fill="white"/>
<path d="M279.873 232.633L271.667 230.606L272.262 228.208L280.431 230.225C280.575 228.694 280.227 227.408 279.387 226.365C278.572 225.328 277.376 224.615 275.798 224.225C273.753 223.72 271.903 223.903 270.249 224.773L269.541 222.249C270.432 221.712 271.521 221.38 272.808 221.254C274.101 221.104 275.314 221.168 276.447 221.448C279.109 222.106 281.046 223.42 282.257 225.39C283.518 227.372 283.822 229.679 283.17 232.312C282.566 234.747 281.256 236.604 279.24 237.881C277.223 239.158 275.007 239.498 272.592 238.902C269.586 238.159 267.529 236.907 266.423 235.146L268.367 233.316C269.251 234.604 270.826 235.529 273.093 236.089C274.646 236.472 276.019 236.367 277.212 235.774C278.411 235.157 279.298 234.11 279.873 232.633Z" fill="white"/>
<path d="M292.468 228.582L286.263 227.596L286.742 224.593L302.161 227.042L301.682 230.045L295.477 229.059L293.263 242.95L290.254 242.472L292.468 228.582Z" fill="white"/>
<path d="M305.754 242.247C304.141 240.464 303.381 238.294 303.473 235.736C303.567 233.153 304.48 231.055 306.215 229.444C307.976 227.808 310.214 227.039 312.929 227.136C315.643 227.234 317.807 228.161 319.421 229.918C321.06 231.651 321.834 233.809 321.74 236.392C321.647 238.975 320.72 241.085 318.959 242.721C317.225 244.332 315 245.089 312.285 244.992C309.596 244.895 307.419 243.98 305.754 242.247ZM308.54 231.544C307.384 232.618 306.773 234.054 306.708 235.852C306.643 237.65 307.136 239.126 308.187 240.28C309.262 241.46 310.663 242.08 312.388 242.142C314.113 242.204 315.541 241.698 316.672 240.623C317.83 239.523 318.441 238.074 318.506 236.276C318.569 234.528 318.063 233.052 316.989 231.847C315.939 230.668 314.551 230.048 312.826 229.986C311.101 229.924 309.672 230.443 308.54 231.544Z" fill="white"/>
<path d="M340.218 244.126L337.196 244.509L335.037 227.539L337.794 227.19L345.4 234.77L350.525 225.575L353.207 225.235L355.367 242.205L352.345 242.588L350.771 230.219L345.881 238.848L345.767 238.862L338.644 231.757L340.218 244.126Z" fill="white"/>
<path d="M360.411 227.059L359.049 224.889C360.451 223.472 362.174 222.512 364.219 222.006C366.462 221.452 368.226 221.604 369.51 222.462C370.795 223.319 371.724 224.904 372.297 227.217L374.822 237.402L372.012 238.095L371.482 235.955C370.572 237.877 368.996 239.115 366.753 239.669C365.225 240.046 363.88 239.895 362.718 239.216C361.55 238.513 360.771 237.374 360.381 235.799C359.978 234.176 360.24 232.753 361.167 231.532C362.087 230.287 363.484 229.433 365.357 228.97C367.107 228.538 368.575 228.554 369.762 229.018C369.299 227.148 368.708 225.871 367.989 225.187C367.27 224.503 366.172 224.344 364.693 224.709C363.19 225.08 361.762 225.863 360.411 227.059ZM367.13 236.756C368.781 236.348 370.033 235.282 370.887 233.557L370.366 231.453C369.148 230.971 367.812 230.909 366.358 231.268C365.348 231.518 364.558 231.974 363.99 232.636C363.441 233.268 363.273 234.014 363.486 234.875C363.687 235.687 364.105 236.263 364.738 236.603C365.396 236.936 366.193 236.987 367.13 236.756Z" fill="white"/>
<path d="M383.448 242.864L380.446 243.379L376.257 219.026L379.259 218.511L379.601 220.497C380.081 219.694 380.81 218.991 381.788 218.386C382.761 217.756 383.811 217.345 384.937 217.152C387.339 216.74 389.366 217.216 391.017 218.578C392.714 219.907 393.779 221.833 394.213 224.356C394.656 226.929 394.214 229.229 392.888 231.256C391.584 233.254 389.618 234.478 386.99 234.928C384.964 235.276 383.308 235.161 382.024 234.584L383.448 242.864ZM384.557 220.11C382.556 220.453 381.062 221.506 380.078 223.269L381.515 231.624C382.991 232.271 384.568 232.451 386.244 232.163C388.021 231.859 389.338 231.055 390.195 229.75C391.074 228.417 391.356 226.839 391.042 225.015C390.737 223.242 390.006 221.914 388.85 221.033C387.69 220.126 386.259 219.818 384.557 220.11Z" fill="white"/>
<path d="M409.431 215.431L413.425 215.233L406.338 223.767L414.996 232.283L410.775 232.492L402.62 224.142L409.431 215.431ZM402.331 232.91L399.288 233.061L398.439 215.975L401.482 215.825L402.331 232.91Z" fill="white"/>
<path d="M430.401 228.345L431.305 230.759C429.625 232.221 427.466 232.925 424.826 232.873C422.034 232.817 419.829 231.962 418.212 230.307C416.569 228.652 415.775 226.469 415.829 223.758C415.88 221.199 416.71 219.086 418.318 217.42C419.9 215.753 422.074 214.947 424.841 215.003C427.126 215.048 429.002 215.821 430.47 217.32C431.964 218.795 432.688 220.685 432.642 222.991C432.627 223.726 432.55 224.409 432.41 225.04L419.237 224.777C419.332 226.375 419.903 227.641 420.951 228.575C422.024 229.509 423.411 229.993 425.111 230.027C427.345 230.071 429.108 229.511 430.401 228.345ZM424.632 217.85C423.134 217.82 421.882 218.213 420.875 219.03C419.894 219.847 419.301 220.938 419.096 222.302L429.49 222.51C429.442 221.089 428.982 219.965 428.11 219.136C427.263 218.308 426.104 217.88 424.632 217.85Z" fill="white"/>
<path d="M441.319 219.527L435.078 218.797L435.433 215.777L450.94 217.59L450.585 220.61L444.345 219.88L442.706 233.85L439.68 233.497L441.319 219.527Z" fill="white"/>
<path d="M466.935 225.652L454.36 235.765L451.395 235.064L455.346 218.418L458.31 219.119L455.369 231.511L467.945 221.398L470.909 222.099L466.958 238.745L463.994 238.044L466.935 225.652Z" fill="white"/>
<path d="M488.473 243.453L485.479 242.893L486.812 235.794L477.455 234.042L476.121 241.141L473.127 240.581L476.285 223.767L479.279 224.328L477.981 231.24L487.338 232.991L488.637 226.079L491.631 226.64L488.473 243.453Z" fill="white"/>
<path d="M499.168 244.297L496.127 244.112L497.167 227.037L508 227.695L507.827 230.541L500.034 230.068L499.168 244.297Z" fill="white"/>
<path d="M50.407 260.571C53.4772 260.82 55.7138 261.729 57.1168 263.297C58.5392 264.849 59.1551 266.833 58.9643 269.249C58.7736 271.664 57.8587 273.469 56.2195 274.662C54.5984 275.856 52.2527 276.329 49.1825 276.08C47.3222 275.93 45.6227 275.47 44.084 274.7C42.5648 273.914 41.5368 272.661 41 270.942C42.9809 270.255 44.4521 269.693 45.4136 269.255C45.6838 269.977 46.1302 270.538 46.753 270.938C47.3938 271.34 48.274 271.587 49.3938 271.677C51.543 271.852 52.9777 271.406 53.6979 270.341L46.6273 269.768L46.9003 266.309L53.8355 266.871C53.2692 265.757 52.0559 265.125 50.1956 264.974C49.3468 264.905 48.4759 265 47.583 265.259C46.7082 265.52 46.0551 265.964 45.6238 266.592C44.0302 265.598 42.654 264.841 41.4952 264.324C43.1741 261.476 46.1447 260.225 50.407 260.571Z" fill="white"/>
<path d="M77.5872 270.507C74.9383 269.887 73.012 269.444 71.8082 269.178L69.8447 278.974L64.1984 277.812L66.1619 268.016C64.9687 267.789 63.0332 267.437 60.3554 266.961L61.3723 261.888L78.6041 265.434L77.5872 270.507Z" fill="white"/>
<path d="M84.9784 283.127C81.9709 282.373 79.9246 281.123 78.8394 279.375C77.7761 277.615 77.523 275.594 78.08 273.313C78.624 271.085 79.7692 269.453 81.5156 268.415C83.2797 267.382 85.6654 267.243 88.6729 267.997C90.6955 268.504 92.3013 269.266 93.4902 270.283C94.701 271.286 95.4926 272.44 95.8648 273.743C96.2414 275.029 96.2578 276.376 95.914 277.784C95.3527 280.083 94.146 281.738 92.294 282.749C90.4596 283.764 88.0211 283.89 84.9784 283.127ZM86.1936 278.609C87.3368 278.896 88.2573 278.834 88.955 278.422C89.6527 278.011 90.1147 277.342 90.341 276.415C90.5542 275.542 90.4469 274.758 90.019 274.065C89.5954 273.353 88.812 272.854 87.6688 272.568C86.5256 272.281 85.6227 272.348 84.9602 272.768C84.2977 273.188 83.8576 273.844 83.64 274.735C83.4138 275.662 83.497 276.468 83.8897 277.152C84.2824 277.837 85.0504 278.323 86.1936 278.609Z" fill="white"/>
<path d="M122.832 272.849C122.549 275.627 122.332 278.123 122.178 280.339C122.025 282.555 121.898 285.059 121.796 287.849L115.913 287.431L116.258 282.432L110.944 282.055L110.599 287.054L104.716 286.637C104.951 284.556 105.169 282.059 105.37 279.147C105.571 276.235 105.698 273.732 105.752 271.638L111.635 272.055L111.29 277.055L116.604 277.432L116.949 272.432L122.832 272.849Z" fill="white"/>
<path d="M131.076 280.908C131.238 281.712 131.605 282.365 132.178 282.867C132.768 283.35 133.588 283.58 134.639 283.558C135.399 283.541 136.112 283.379 136.776 283.071C137.44 282.744 137.965 282.301 138.352 281.742C139.578 282.322 141.204 282.938 143.229 283.593C142.695 284.889 141.693 285.939 140.224 286.742C138.772 287.527 136.86 287.944 134.487 287.995C131.408 288.062 129.11 287.395 127.595 285.996C126.097 284.577 125.324 282.694 125.274 280.344C125.226 278.05 125.921 276.171 127.358 274.708C128.795 273.244 131.062 272.479 134.16 272.412C136.007 272.373 137.617 272.65 138.989 273.245C140.36 273.839 141.42 274.689 142.168 275.793C142.916 276.878 143.305 278.137 143.335 279.569C143.345 280.046 143.334 280.404 143.303 280.644L131.076 280.908ZM134.628 276.562C133.722 276.581 132.983 276.771 132.411 277.133C131.838 277.494 131.441 277.98 131.218 278.591L137.63 278.452C137.401 277.87 137.037 277.409 136.541 277.071C136.044 276.715 135.406 276.545 134.628 276.562Z" fill="white"/>
<path d="M171.662 267.772L175.641 282.295L170.475 283.363L168.031 272.879L168.132 283.848L161.821 285.153L157.673 275.162L159.478 285.637L154.312 286.705L152.357 271.764L160.238 270.134L163.909 279.409L163.514 269.457L171.662 267.772Z" fill="white"/>
<path d="M194.41 272.685C194.545 273.294 194.711 273.708 194.908 273.927C195.104 274.145 195.427 274.26 195.875 274.271L196.329 276.821C195.783 277.039 195.302 277.214 194.885 277.347C194.487 277.475 193.943 277.618 193.253 277.774C191.733 278.12 190.65 278.009 190.004 277.441C189.354 276.855 188.91 276.025 188.672 274.95L188.523 274.278C188.336 275.864 187.827 277.127 186.996 278.069C186.182 279.007 185.015 279.648 183.495 279.994C181.727 280.396 180.313 280.342 179.253 279.83C178.21 279.315 177.532 278.35 177.218 276.934C176.96 275.77 177.138 274.77 177.751 273.934C178.365 273.099 179.439 272.374 180.975 271.762C179.417 271.1 177.887 270.564 176.384 270.153C177.144 268.55 178.126 267.245 179.333 266.237C180.535 265.21 182.109 264.476 184.053 264.034C186.776 263.414 188.924 263.556 190.498 264.459C192.086 265.339 193.154 267.016 193.701 269.488L194.41 272.685ZM185.658 268.636C184.756 268.841 183.995 269.174 183.373 269.636C182.751 270.097 182.233 270.695 181.82 271.428C182.853 271.062 184.165 270.697 185.756 270.335C186.41 270.187 186.852 270.002 187.081 269.78C187.311 269.558 187.398 269.322 187.342 269.072C187.294 268.857 187.122 268.708 186.825 268.625C186.524 268.524 186.135 268.528 185.658 268.636ZM184.195 275.235C185.185 275.009 186.036 274.618 186.748 274.061C187.457 273.486 187.891 272.851 188.053 272.155L187.898 271.457C187.522 271.768 187.091 272.045 186.606 272.287C186.117 272.511 185.522 272.759 184.821 273.032L183.902 273.41C182.956 273.832 182.536 274.285 182.644 274.769C182.759 275.288 183.276 275.444 184.195 275.235Z" fill="white"/>
<path d="M203.118 276.397L197.359 276.997C197.236 274.888 197.028 272.39 196.736 269.505C196.441 266.601 196.143 264.113 195.842 262.04L211.035 260.458C211.082 261.099 211.203 262.378 211.397 264.295L211.547 265.775L202.139 266.755L203.118 276.397Z" fill="white"/>
<path d="M229.944 260.16C229.89 262.823 229.877 265.228 229.905 267.376C229.934 269.487 230.011 271.891 230.138 274.588L224.567 274.665L224.738 265.134L220.709 274.718L213.127 274.823C213.203 272.398 213.225 269.993 213.193 267.606C213.16 265.183 213.074 262.779 212.933 260.394L218.286 260.321L218.146 270.099L222.172 260.267L229.944 260.16Z" fill="white"/>
<path d="M249.499 261.323C249.224 264.101 249.012 266.598 248.865 268.815C248.718 271.031 248.597 273.534 248.503 276.325L243.161 275.961L243.478 271.18L241.282 271.03C239.902 272.942 238.856 274.471 238.144 275.619L231.772 275.184C233.351 273.286 234.685 271.647 235.776 270.268C234.408 269.807 233.462 269.144 232.939 268.281C232.415 267.417 232.193 266.381 232.274 265.172C232.375 263.651 232.997 262.479 234.141 261.656C235.286 260.832 237.232 260.514 239.979 260.701L244.155 260.986L244.157 260.959L249.499 261.323ZM243.735 267.306L243.892 264.943L241.452 264.776C240.132 264.686 239.232 264.708 238.751 264.841C238.288 264.975 238.042 265.261 238.013 265.701C237.983 266.159 238.196 266.496 238.654 266.711C239.131 266.909 240.012 267.052 241.295 267.139L243.735 267.306Z" fill="white"/>
<path d="M253.582 271.585C254.389 271.708 255.014 272.128 255.457 272.845C255.921 273.546 256.072 274.451 255.908 275.558C255.774 276.466 255.471 277.395 255.001 278.345C254.549 279.297 254 280.04 253.353 280.573L251.068 280.226C251.974 279.305 252.599 278.36 252.944 277.392C252.012 277.25 251.31 276.856 250.838 276.209C250.365 275.562 250.188 274.839 250.306 274.04C250.425 273.241 250.803 272.602 251.442 272.124C252.08 271.645 252.794 271.466 253.582 271.585Z" fill="white"/>
<path d="M274.276 266.103C277.261 266.873 279.314 268.151 280.435 269.938C281.579 271.71 281.855 273.771 281.265 276.119C280.675 278.468 279.472 280.09 277.658 280.986C275.861 281.886 273.47 281.951 270.486 281.181C268.677 280.714 267.079 279.97 265.69 278.948C264.324 277.914 263.519 276.503 263.276 274.716C265.343 274.378 266.887 274.076 267.908 273.809C268.054 274.566 268.4 275.196 268.947 275.697C269.512 276.202 270.339 276.596 271.427 276.877C273.517 277.416 275.005 277.222 275.892 276.296L269.019 274.522L269.864 271.159L276.606 272.899C276.233 271.704 275.143 270.873 273.334 270.407C272.509 270.194 271.635 270.139 270.711 270.241C269.806 270.348 269.088 270.675 268.558 271.22C267.153 269.967 265.923 268.986 264.867 268.278C266.996 265.758 270.132 265.033 274.276 266.103Z" fill="white"/>
<path d="M300.722 277.205C298.053 276.678 296.113 276.302 294.901 276.078L293.273 285.938L287.59 284.974L289.218 275.115C288.018 274.93 286.072 274.646 283.379 274.264L284.223 269.158L301.565 272.099L300.722 277.205Z" fill="white"/>
<path d="M311.253 287.846C308.158 287.717 305.906 286.906 304.498 285.414C303.108 283.905 302.462 281.976 302.557 279.628C302.65 277.335 303.45 275.504 304.957 274.133C306.481 272.764 308.791 272.144 311.887 272.273C313.969 272.36 315.692 272.781 317.058 273.536C318.442 274.274 319.445 275.244 320.067 276.446C320.69 277.629 320.972 278.946 320.913 280.395C320.817 282.761 319.961 284.627 318.346 285.993C316.749 287.359 314.385 287.977 311.253 287.846ZM311.552 283.173C312.729 283.223 313.618 282.975 314.221 282.43C314.823 281.886 315.144 281.137 315.183 280.183C315.219 279.284 314.959 278.538 314.403 277.946C313.848 277.334 312.982 277.004 311.805 276.955C310.628 276.906 309.757 277.154 309.191 277.7C308.625 278.246 308.323 278.978 308.285 279.895C308.247 280.849 308.487 281.621 309.007 282.213C309.527 282.804 310.375 283.124 311.552 283.173Z" fill="white"/>
<path d="M349.963 271.052L352.347 285.93L347.097 286.417L345.801 275.725L344.715 286.639L338.301 287.235L335.259 276.843L335.919 287.456L330.669 287.944L330.342 272.876L338.353 272.131L340.998 281.758L341.682 271.822L349.963 271.052Z" fill="white"/>
<path d="M372.982 276.21C373.129 276.817 373.303 277.227 373.505 277.441C373.706 277.656 374.031 277.764 374.479 277.765L374.984 280.305C374.443 280.535 373.965 280.72 373.552 280.861C373.156 280.998 372.615 281.152 371.929 281.323C370.416 281.7 369.331 281.612 368.673 281.057C368.012 280.485 367.551 279.664 367.291 278.594L367.129 277.926C366.974 279.515 366.49 280.789 365.678 281.747C364.884 282.702 363.73 283.368 362.217 283.745C360.458 284.184 359.043 284.159 357.973 283.67C356.92 283.176 356.222 282.225 355.88 280.817C355.599 279.658 355.756 278.655 356.352 277.806C356.949 276.958 358.008 276.212 359.531 275.567C357.96 274.938 356.419 274.434 354.909 274.054C355.635 272.436 356.591 271.11 357.777 270.077C358.959 269.026 360.517 268.259 362.452 267.777C365.161 267.101 367.312 267.198 368.904 268.067C370.509 268.915 371.611 270.568 372.209 273.028L372.982 276.21ZM364.15 272.344C363.252 272.568 362.498 272.917 361.885 273.392C361.273 273.866 360.767 274.474 360.369 275.216C361.394 274.828 362.699 274.436 364.282 274.041C364.933 273.879 365.371 273.685 365.596 273.458C365.821 273.232 365.903 272.994 365.842 272.745C365.79 272.531 365.615 272.385 365.316 272.309C365.014 272.214 364.625 272.226 364.15 272.344ZM362.821 278.972C363.806 278.726 364.649 278.317 365.35 277.746C366.046 277.156 366.468 276.512 366.616 275.813L366.447 275.118C366.077 275.437 365.651 275.723 365.172 275.975C364.687 276.209 364.098 276.47 363.402 276.757L362.491 277.154C361.554 277.596 361.143 278.057 361.26 278.539C361.386 279.056 361.906 279.2 362.821 278.972Z" fill="white"/>
<path d="M385.258 262.478C386.412 262.251 387.515 262.38 388.565 262.864C389.616 263.349 390.509 264.116 391.244 265.166C391.976 266.199 392.473 267.398 392.734 268.766C392.993 270.115 392.979 271.443 392.695 272.75C392.407 274.038 391.864 275.144 391.064 276.066C390.278 276.967 389.291 277.535 388.101 277.769C386.716 278.041 385.471 277.986 384.367 277.606C383.277 277.204 382.375 276.439 381.661 275.309C381.857 276.335 382.208 277.974 382.713 280.227C383.204 282.408 383.535 283.948 383.707 284.848L377.688 286.031C377.154 282.663 376.538 279.153 375.839 275.501C375.141 271.849 374.418 268.36 373.671 265.034L378.785 264.03L380.202 267.251C380.459 265.894 381.029 264.83 381.913 264.059C382.794 263.27 383.909 262.743 385.258 262.478ZM384.402 273.455C385.201 273.298 385.818 272.915 386.254 272.307C386.705 271.677 386.851 270.948 386.693 270.121C386.517 269.203 386.126 268.505 385.519 268.027C384.911 267.549 384.181 267.394 383.329 267.561C382.353 267.753 381.662 268.141 381.258 268.724C380.85 269.29 380.753 270.13 380.967 271.246C381.087 271.875 381.348 272.375 381.751 272.744C382.149 273.095 382.59 273.326 383.071 273.436C383.55 273.529 383.993 273.535 384.402 273.455Z" fill="white"/>
<path d="M408.711 268.215C409.564 268.826 410.232 269.53 410.715 270.328C411.198 271.126 411.663 272.091 412.112 273.223C412.551 274.207 412.861 274.851 413.043 275.152L406.505 275.55C406.443 275.425 406.31 275.028 406.108 274.36C405.923 273.691 405.746 273.159 405.577 272.765C405.408 272.352 405.169 271.999 404.861 271.705C404.38 271.237 403.854 270.948 403.285 270.835C402.716 270.722 401.88 270.7 400.776 270.767L401.079 275.88L395.274 276.233C395.24 274.138 395.137 271.634 394.965 268.72C394.792 265.806 394.599 263.307 394.385 261.224L400.19 260.871L400.509 266.259L400.618 266.252C402.641 263.94 404.099 262.049 404.992 260.579L412.154 260.144L406.185 266.934C407.149 267.28 407.992 267.707 408.711 268.215Z" fill="white"/>
<path d="M418.801 268.38C418.935 269.19 419.278 269.856 419.833 270.378C420.405 270.882 421.217 271.142 422.268 271.158C423.029 271.169 423.746 271.032 424.421 270.748C425.096 270.446 425.636 270.023 426.043 269.478C427.248 270.101 428.851 270.777 430.852 271.504C430.272 272.781 429.233 273.794 427.737 274.543C426.259 275.274 424.333 275.622 421.96 275.587C418.88 275.542 416.608 274.792 415.143 273.339C413.696 271.867 412.989 269.956 413.023 267.607C413.056 265.312 413.816 263.46 415.304 262.049C416.792 260.639 419.085 259.957 422.183 260.002C424.03 260.029 425.629 260.365 426.979 261.009C428.329 261.653 429.358 262.54 430.067 263.671C430.776 264.783 431.12 266.055 431.099 267.486C431.093 267.964 431.069 268.321 431.03 268.56L418.801 268.38ZM422.504 264.166C421.598 264.152 420.853 264.316 420.268 264.656C419.683 264.996 419.269 265.468 419.025 266.07L425.438 266.164C425.229 265.573 424.882 265.1 424.398 264.744C423.914 264.37 423.283 264.177 422.504 264.166Z" fill="white"/>
<path d="M449.783 267.674C447.09 267.297 445.132 267.031 443.91 266.875L442.82 276.81L437.094 276.165L438.183 266.23C436.975 266.112 435.016 265.938 432.307 265.707L432.871 260.561L450.347 262.529L449.783 267.674Z" fill="white"/>
<path d="M468.962 266.7C468.28 269.272 467.699 271.605 467.219 273.697C466.748 275.754 466.256 278.107 465.742 280.756L460.315 279.48L462.732 270.267L456.555 278.595L449.169 276.858C449.816 274.522 450.406 272.192 450.938 269.867C451.479 267.507 451.963 265.151 452.39 262.802L457.605 264.029L455.158 273.489L461.391 264.919L468.962 266.7Z" fill="white"/>
<path d="M488.146 271.233C487.48 273.942 486.918 276.383 486.458 278.555C485.999 280.727 485.525 283.187 485.037 285.935L479.27 284.683L480.306 279.782L475.098 278.651L474.062 283.552L468.295 282.3C468.816 280.272 469.379 277.832 469.982 274.977C470.586 272.123 471.06 269.663 471.404 267.598L477.171 268.85L476.134 273.75L481.343 274.881L482.379 269.981L488.146 271.233Z" fill="white"/>
<path d="M495.356 287.001L489.586 286.53C489.843 284.433 490.086 281.939 490.316 279.048C490.547 276.138 490.7 273.636 490.776 271.543L506 272.784C505.931 273.423 505.82 274.703 505.668 276.625L505.55 278.107L496.123 277.338L495.356 287.001Z" fill="white"/>
<path d="M53.8652 313.892L45.4382 313.219L45.6356 310.756L54.0247 311.426C53.9184 309.892 53.3662 308.678 52.3681 307.785C51.3953 306.894 50.0992 306.383 48.4795 306.254C46.3791 306.086 44.5834 306.566 43.0923 307.693L41.9839 305.316C42.7765 304.642 43.7974 304.139 45.0465 303.806C46.2976 303.448 47.5053 303.316 48.6693 303.409C51.4024 303.627 53.5266 304.611 55.042 306.359C56.6079 308.111 57.2826 310.339 57.066 313.042C56.8656 315.543 55.8741 317.586 54.0915 319.173C52.3089 320.759 50.1776 321.453 47.6976 321.255C44.6102 321.009 42.3777 320.106 41 318.547L42.6216 316.426C43.7027 317.555 45.4074 318.212 47.7355 318.398C49.3298 318.526 50.6675 318.2 51.7486 317.422C52.8317 316.619 53.5373 315.442 53.8652 313.892Z" fill="white"/>
<path d="M65.8622 309.137L59.6823 308.004L60.2326 305.013L75.5889 307.829L75.0385 310.82L68.8586 309.687L66.3132 323.521L63.3169 322.971L65.8622 309.137Z" fill="white"/>
<path d="M76.5053 323.588C75.2934 321.514 74.9954 319.234 75.6112 316.749C76.2332 314.24 77.5586 312.374 79.5875 311.153C81.6472 309.912 83.9955 309.618 86.6325 310.269C89.2694 310.92 91.1968 312.271 92.4148 314.321C93.6635 316.352 93.9769 318.623 93.355 321.132C92.733 323.641 91.3922 325.516 89.3325 326.757C87.3036 327.979 84.9706 328.264 82.3337 327.613C79.7214 326.967 77.7786 325.626 76.5053 323.588ZM81.4317 313.684C80.079 314.498 79.1863 315.779 78.7533 317.526C78.3204 319.272 78.4997 320.818 79.2911 322.162C80.101 323.537 81.3439 324.431 83.0197 324.845C84.6955 325.259 86.1974 325.055 87.5254 324.235C88.8841 323.396 89.7799 322.103 90.2128 320.356C90.6336 318.658 90.442 317.11 89.6381 315.71C88.8528 314.342 87.6223 313.45 85.9465 313.036C84.2707 312.623 82.7657 312.838 81.4317 313.684Z" fill="white"/>
<path d="M122.849 332.856L119.807 332.685L120.214 325.474L110.709 324.94L110.302 332.151L107.261 331.98L108.223 314.901L111.265 315.072L110.869 322.093L120.374 322.627L120.77 315.605L123.812 315.776L122.849 332.856Z" fill="white"/>
<path d="M143.315 328.138L144.351 330.498C142.755 332.05 140.637 332.873 137.999 332.966C135.208 333.064 132.959 332.332 131.253 330.769C129.521 329.207 128.607 327.071 128.512 324.361C128.421 321.803 129.133 319.648 130.646 317.896C132.133 316.144 134.26 315.22 137.025 315.122C139.309 315.042 141.225 315.71 142.774 317.126C144.347 318.516 145.174 320.364 145.256 322.668C145.282 323.403 145.243 324.089 145.138 324.727L131.97 325.19C132.153 326.781 132.794 328.014 133.892 328.888C135.015 329.762 136.427 330.168 138.126 330.109C140.359 330.03 142.089 329.373 143.315 328.138ZM136.974 317.977C135.477 318.03 134.248 318.491 133.289 319.362C132.354 320.232 131.822 321.354 131.693 322.728L142.082 322.362C141.956 320.946 141.435 319.849 140.518 319.069C139.627 318.289 138.445 317.925 136.974 317.977Z" fill="white"/>
<path d="M164.601 329.541L161.638 330.249L157.65 313.612L160.353 312.966L168.737 319.68L172.834 309.984L175.463 309.356L179.452 325.993L176.489 326.701L173.582 314.574L169.657 323.681L169.546 323.708L161.694 317.415L164.601 329.541Z" fill="white"/>
<path d="M182.92 311.163L181.671 308.926C183.143 307.583 184.913 306.711 186.981 306.311C189.249 305.872 191.003 306.113 192.242 307.035C193.482 307.957 194.328 309.587 194.783 311.926L196.783 322.226L193.942 322.776L193.521 320.611C192.515 322.484 190.877 323.64 188.609 324.079C187.064 324.378 185.728 324.159 184.602 323.422C183.472 322.66 182.752 321.482 182.443 319.89C182.124 318.248 182.458 316.841 183.446 315.669C184.429 314.472 185.867 313.69 187.762 313.323C189.531 312.981 190.997 313.072 192.159 313.595C191.792 311.704 191.267 310.399 190.584 309.679C189.901 308.96 188.812 308.745 187.316 309.034C185.796 309.328 184.331 310.038 182.92 311.163ZM189.134 321.189C190.804 320.866 192.109 319.865 193.05 318.186L192.637 316.058C191.445 315.515 190.114 315.385 188.644 315.67C187.622 315.867 186.81 316.283 186.209 316.915C185.628 317.518 185.422 318.255 185.591 319.126C185.751 319.947 186.138 320.543 186.753 320.915C187.393 321.281 188.187 321.373 189.134 321.189Z" fill="white"/>
<path d="M204.153 321.369L201.12 321.648L199.543 304.614L210.35 303.617L210.613 306.456L202.839 307.174L204.153 321.369Z" fill="white"/>
<path d="M227.109 307.682L217.324 320.506L214.278 320.533L214.122 303.427L217.169 303.4L217.284 316.134L227.069 303.31L230.116 303.283L230.271 320.388L227.225 320.416L227.109 307.682Z" fill="white"/>
<path d="M244.048 303.986L249.363 304.41L247.996 321.462L244.959 321.22L245.415 315.536L242.112 315.272L237.481 320.622L233.799 320.328L239.25 314.281C238.231 313.97 237.402 313.345 236.765 312.404C236.129 311.438 235.862 310.323 235.963 309.06C236.103 307.317 236.846 305.991 238.192 305.082C239.54 304.147 241.492 303.782 244.048 303.986ZM239.183 309.394C239.119 310.202 239.381 310.897 239.971 311.478C240.564 312.034 241.29 312.346 242.15 312.415L245.643 312.694L246.098 307.01L243.327 306.788C242.036 306.685 241.041 306.873 240.34 307.351C239.64 307.829 239.254 308.51 239.183 309.394Z" fill="white"/>
<path d="M252.484 320.35C252.581 319.749 252.846 319.304 253.279 319.015C253.715 318.7 254.272 318.597 254.949 318.706C255.751 318.836 256.348 319.279 256.739 320.035C257.135 320.766 257.244 321.682 257.066 322.783C256.847 324.134 256.283 325.237 255.373 326.091C254.484 326.975 253.37 327.501 252.032 327.67L251.435 326.111C252.803 325.921 253.741 325.212 254.248 323.985C254.562 323.162 254.65 322.535 254.515 322.102C254.328 322.303 254.034 322.371 253.633 322.306C253.257 322.246 252.945 322.029 252.697 321.655C252.478 321.26 252.407 320.825 252.484 320.35Z" fill="white"/>
<path d="M279.873 320.633L271.667 318.606L272.262 316.208L280.431 318.225C280.575 316.694 280.227 315.408 279.387 314.365C278.572 313.328 277.376 312.615 275.798 312.225C273.753 311.72 271.903 311.903 270.249 312.773L269.541 310.249C270.432 309.712 271.521 309.38 272.808 309.254C274.101 309.104 275.314 309.168 276.447 309.448C279.109 310.106 281.046 311.42 282.257 313.39C283.518 315.372 283.822 317.679 283.17 320.312C282.566 322.747 281.256 324.604 279.24 325.881C277.223 327.158 275.007 327.498 272.592 326.902C269.586 326.159 267.529 324.907 266.423 323.146L268.367 321.316C269.251 322.604 270.826 323.529 273.093 324.089C274.646 324.472 276.019 324.367 277.212 323.774C278.411 323.157 279.298 322.11 279.873 320.633Z" fill="white"/>
<path d="M292.468 316.582L286.263 315.596L286.742 312.593L302.161 315.042L301.682 318.045L295.477 317.059L293.263 330.95L290.254 330.472L292.468 316.582Z" fill="white"/>
<path d="M305.754 330.247C304.141 328.464 303.381 326.294 303.473 323.736C303.567 321.153 304.48 319.055 306.215 317.444C307.976 315.808 310.214 315.039 312.929 315.136C315.643 315.234 317.807 316.161 319.421 317.918C321.06 319.651 321.834 321.809 321.74 324.392C321.647 326.975 320.72 329.085 318.959 330.721C317.225 332.332 315 333.089 312.285 332.992C309.596 332.895 307.419 331.98 305.754 330.247ZM308.54 319.544C307.384 320.618 306.773 322.054 306.708 323.852C306.643 325.65 307.136 327.126 308.187 328.28C309.262 329.46 310.663 330.08 312.388 330.142C314.113 330.204 315.541 329.698 316.672 328.623C317.83 327.523 318.441 326.074 318.506 324.276C318.569 322.528 318.063 321.052 316.989 319.847C315.939 318.668 314.551 318.048 312.826 317.986C311.101 317.924 309.672 318.443 308.54 319.544Z" fill="white"/>
<path d="M340.218 332.126L337.196 332.509L335.037 315.539L337.794 315.19L345.4 322.77L350.525 313.575L353.207 313.235L355.367 330.205L352.345 330.588L350.771 318.219L345.881 326.848L345.767 326.862L338.644 319.757L340.218 332.126Z" fill="white"/>
<path d="M360.411 315.059L359.049 312.889C360.451 311.472 362.174 310.512 364.219 310.006C366.462 309.452 368.226 309.604 369.51 310.462C370.795 311.319 371.724 312.904 372.297 315.217L374.822 325.402L372.012 326.095L371.482 323.955C370.572 325.877 368.996 327.115 366.753 327.669C365.225 328.046 363.88 327.895 362.718 327.216C361.55 326.513 360.771 325.374 360.381 323.799C359.978 322.176 360.24 320.753 361.167 319.532C362.087 318.287 363.484 317.433 365.357 316.97C367.107 316.538 368.575 316.554 369.762 317.018C369.299 315.148 368.708 313.871 367.989 313.187C367.27 312.503 366.172 312.344 364.693 312.709C363.19 313.08 361.762 313.863 360.411 315.059ZM367.13 324.756C368.781 324.348 370.033 323.282 370.887 321.557L370.366 319.453C369.148 318.971 367.812 318.909 366.358 319.268C365.348 319.518 364.558 319.974 363.99 320.636C363.441 321.268 363.273 322.014 363.486 322.875C363.687 323.687 364.105 324.263 364.738 324.603C365.396 324.936 366.193 324.987 367.13 324.756Z" fill="white"/>
<path d="M383.448 330.864L380.446 331.379L376.257 307.026L379.259 306.511L379.601 308.497C380.081 307.694 380.81 306.991 381.788 306.386C382.761 305.756 383.811 305.345 384.937 305.152C387.339 304.74 389.366 305.216 391.017 306.578C392.714 307.907 393.779 309.833 394.213 312.356C394.656 314.929 394.214 317.229 392.888 319.256C391.584 321.254 389.618 322.478 386.99 322.928C384.964 323.276 383.308 323.161 382.024 322.584L383.448 330.864ZM384.557 308.11C382.556 308.453 381.062 309.506 380.078 311.269L381.515 319.624C382.991 320.271 384.568 320.451 386.244 320.163C388.021 319.859 389.338 319.055 390.195 317.75C391.074 316.417 391.356 314.839 391.042 313.015C390.737 311.242 390.006 309.914 388.85 309.033C387.69 308.126 386.259 307.818 384.557 308.11Z" fill="white"/>
<path d="M409.431 303.431L413.425 303.233L406.338 311.767L414.996 320.283L410.775 320.492L402.62 312.142L409.431 303.431ZM402.331 320.91L399.288 321.061L398.439 303.975L401.482 303.825L402.331 320.91Z" fill="white"/>
<path d="M430.401 316.345L431.305 318.759C429.625 320.221 427.466 320.925 424.826 320.873C422.034 320.817 419.829 319.962 418.212 318.307C416.569 316.652 415.775 314.469 415.829 311.758C415.88 309.199 416.71 307.086 418.318 305.42C419.9 303.753 422.074 302.947 424.841 303.003C427.126 303.048 429.002 303.821 430.47 305.32C431.964 306.795 432.688 308.685 432.642 310.991C432.627 311.726 432.55 312.409 432.41 313.04L419.237 312.777C419.332 314.375 419.903 315.641 420.951 316.575C422.024 317.509 423.411 317.993 425.111 318.027C427.345 318.071 429.108 317.511 430.401 316.345ZM424.632 305.85C423.134 305.82 421.882 306.213 420.875 307.03C419.894 307.847 419.301 308.938 419.096 310.302L429.49 310.51C429.442 309.089 428.982 307.965 428.11 307.136C427.263 306.308 426.104 305.88 424.632 305.85Z" fill="white"/>
<path d="M441.319 307.527L435.078 306.797L435.433 303.777L450.94 305.59L450.585 308.61L444.345 307.88L442.706 321.85L439.68 321.497L441.319 307.527Z" fill="white"/>
<path d="M466.935 313.652L454.36 323.765L451.395 323.064L455.346 306.418L458.31 307.119L455.369 319.511L467.945 309.398L470.909 310.099L466.958 326.745L463.994 326.044L466.935 313.652Z" fill="white"/>
<path d="M488.473 331.453L485.479 330.893L486.812 323.794L477.455 322.042L476.121 329.141L473.127 328.581L476.285 311.767L479.279 312.328L477.981 319.24L487.338 320.991L488.637 314.079L491.631 314.64L488.473 331.453Z" fill="white"/>
<path d="M499.168 332.297L496.127 332.112L497.167 315.037L508 315.695L507.827 318.541L500.034 318.068L499.168 332.297Z" fill="white"/>
<path d="M50.407 348.571C53.4772 348.82 55.7138 349.729 57.1168 351.297C58.5392 352.849 59.1551 354.833 58.9643 357.249C58.7736 359.664 57.8587 361.469 56.2195 362.662C54.5984 363.856 52.2527 364.329 49.1825 364.08C47.3222 363.93 45.6227 363.47 44.084 362.7C42.5648 361.914 41.5368 360.661 41 358.942C42.9809 358.255 44.4521 357.693 45.4136 357.255C45.6838 357.977 46.1302 358.538 46.753 358.938C47.3938 359.34 48.274 359.587 49.3938 359.677C51.543 359.852 52.9777 359.406 53.6979 358.341L46.6273 357.768L46.9003 354.309L53.8355 354.871C53.2692 353.757 52.0559 353.125 50.1956 352.974C49.3468 352.905 48.4759 353 47.583 353.259C46.7082 353.52 46.0551 353.964 45.6238 354.592C44.0302 353.598 42.654 352.841 41.4952 352.324C43.1741 349.476 46.1447 348.225 50.407 348.571Z" fill="white"/>
<path d="M77.5872 358.507C74.9383 357.887 73.012 357.444 71.8082 357.178L69.8447 366.974L64.1984 365.812L66.1619 356.016C64.9687 355.789 63.0332 355.437 60.3554 354.961L61.3723 349.888L78.6041 353.434L77.5872 358.507Z" fill="white"/>
<path d="M84.9784 371.127C81.9709 370.373 79.9246 369.123 78.8394 367.375C77.7761 365.615 77.523 363.594 78.08 361.313C78.624 359.085 79.7692 357.453 81.5156 356.415C83.2797 355.382 85.6654 355.243 88.6729 355.997C90.6955 356.504 92.3013 357.266 93.4902 358.283C94.701 359.286 95.4926 360.44 95.8648 361.743C96.2414 363.029 96.2578 364.376 95.914 365.784C95.3527 368.083 94.146 369.738 92.294 370.749C90.4596 371.764 88.0211 371.89 84.9784 371.127ZM86.1936 366.609C87.3368 366.896 88.2573 366.834 88.955 366.422C89.6527 366.011 90.1147 365.342 90.341 364.415C90.5542 363.542 90.4469 362.758 90.019 362.065C89.5954 361.353 88.812 360.854 87.6688 360.568C86.5256 360.281 85.6227 360.348 84.9602 360.768C84.2977 361.188 83.8576 361.844 83.64 362.735C83.4138 363.662 83.497 364.468 83.8897 365.152C84.2824 365.837 85.0504 366.323 86.1936 366.609Z" fill="white"/>
<path d="M122.832 360.849C122.549 363.627 122.332 366.123 122.178 368.339C122.025 370.555 121.898 373.059 121.796 375.849L115.913 375.431L116.258 370.432L110.944 370.055L110.599 375.054L104.716 374.637C104.951 372.556 105.169 370.059 105.37 367.147C105.571 364.235 105.698 361.732 105.752 359.638L111.635 360.055L111.29 365.055L116.604 365.432L116.949 360.432L122.832 360.849Z" fill="white"/>
<path d="M131.076 368.908C131.238 369.712 131.605 370.365 132.178 370.867C132.768 371.35 133.588 371.58 134.639 371.558C135.399 371.541 136.112 371.379 136.776 371.071C137.44 370.744 137.965 370.301 138.352 369.742C139.578 370.322 141.204 370.938 143.229 371.593C142.695 372.889 141.693 373.939 140.224 374.742C138.772 375.527 136.86 375.944 134.487 375.995C131.408 376.062 129.11 375.395 127.595 373.996C126.097 372.577 125.324 370.694 125.274 368.344C125.226 366.05 125.921 364.171 127.358 362.708C128.795 361.244 131.062 360.479 134.16 360.412C136.007 360.373 137.617 360.65 138.989 361.245C140.36 361.839 141.42 362.689 142.168 363.793C142.916 364.878 143.305 366.137 143.335 367.569C143.345 368.046 143.334 368.404 143.303 368.644L131.076 368.908ZM134.628 364.562C133.722 364.581 132.983 364.771 132.411 365.133C131.838 365.494 131.441 365.98 131.218 366.591L137.63 366.452C137.401 365.87 137.037 365.409 136.541 365.071C136.044 364.715 135.406 364.545 134.628 364.562Z" fill="white"/>
<path d="M171.662 355.772L175.641 370.295L170.475 371.363L168.031 360.879L168.132 371.848L161.821 373.153L157.673 363.162L159.478 373.637L154.312 374.705L152.357 359.764L160.238 358.134L163.909 367.409L163.514 357.457L171.662 355.772Z" fill="white"/>
<path d="M194.41 360.685C194.545 361.294 194.711 361.708 194.908 361.927C195.104 362.145 195.427 362.26 195.875 362.271L196.329 364.821C195.783 365.039 195.302 365.214 194.885 365.347C194.487 365.475 193.943 365.618 193.253 365.774C191.733 366.12 190.65 366.009 190.004 365.441C189.354 364.855 188.91 364.025 188.672 362.95L188.523 362.278C188.336 363.864 187.827 365.127 186.996 366.069C186.182 367.007 185.015 367.648 183.495 367.994C181.727 368.396 180.313 368.342 179.253 367.83C178.21 367.315 177.532 366.35 177.218 364.934C176.96 363.77 177.138 362.77 177.751 361.934C178.365 361.099 179.439 360.374 180.975 359.762C179.417 359.1 177.887 358.564 176.384 358.153C177.144 356.55 178.126 355.245 179.333 354.237C180.535 353.21 182.109 352.476 184.053 352.034C186.776 351.414 188.924 351.556 190.498 352.459C192.086 353.339 193.154 355.016 193.701 357.488L194.41 360.685ZM185.658 356.636C184.756 356.841 183.995 357.174 183.373 357.636C182.751 358.097 182.233 358.695 181.82 359.428C182.853 359.062 184.165 358.697 185.756 358.335C186.41 358.187 186.852 358.002 187.081 357.78C187.311 357.558 187.398 357.322 187.342 357.072C187.294 356.857 187.122 356.708 186.825 356.625C186.524 356.524 186.135 356.528 185.658 356.636ZM184.195 363.235C185.185 363.009 186.036 362.618 186.748 362.061C187.457 361.486 187.891 360.851 188.053 360.155L187.898 359.457C187.522 359.768 187.091 360.045 186.606 360.287C186.117 360.511 185.522 360.759 184.821 361.032L183.902 361.41C182.956 361.832 182.536 362.285 182.644 362.769C182.759 363.288 183.276 363.444 184.195 363.235Z" fill="white"/>
<path d="M203.118 364.397L197.359 364.997C197.236 362.888 197.028 360.39 196.736 357.505C196.441 354.601 196.143 352.113 195.842 350.04L211.035 348.458C211.082 349.099 211.203 350.378 211.397 352.295L211.547 353.775L202.139 354.755L203.118 364.397Z" fill="white"/>
<path d="M229.944 348.16C229.89 350.823 229.877 353.228 229.905 355.376C229.934 357.487 230.011 359.891 230.138 362.588L224.567 362.665L224.738 353.134L220.709 362.718L213.127 362.823C213.203 360.398 213.225 357.993 213.193 355.606C213.16 353.183 213.074 350.779 212.933 348.394L218.286 348.321L218.146 358.099L222.172 348.267L229.944 348.16Z" fill="white"/>
<path d="M249.499 349.323C249.224 352.101 249.012 354.598 248.865 356.815C248.718 359.031 248.597 361.534 248.503 364.325L243.161 363.961L243.478 359.18L241.282 359.03C239.902 360.942 238.856 362.471 238.144 363.619L231.772 363.184C233.351 361.286 234.685 359.647 235.776 358.268C234.408 357.807 233.462 357.144 232.939 356.281C232.415 355.417 232.193 354.381 232.274 353.172C232.375 351.651 232.997 350.479 234.141 349.656C235.286 348.832 237.232 348.514 239.979 348.701L244.155 348.986L244.157 348.959L249.499 349.323ZM243.735 355.306L243.892 352.943L241.452 352.776C240.132 352.686 239.232 352.708 238.751 352.841C238.288 352.975 238.042 353.261 238.013 353.701C237.983 354.159 238.196 354.496 238.654 354.711C239.131 354.909 240.012 355.052 241.295 355.139L243.735 355.306Z" fill="white"/>
<path d="M253.582 359.585C254.389 359.708 255.014 360.128 255.457 360.845C255.921 361.546 256.072 362.451 255.908 363.558C255.774 364.466 255.471 365.395 255.001 366.345C254.549 367.297 254 368.04 253.353 368.573L251.068 368.226C251.974 367.305 252.599 366.36 252.944 365.392C252.012 365.25 251.31 364.856 250.838 364.209C250.365 363.562 250.188 362.839 250.306 362.04C250.425 361.241 250.803 360.602 251.442 360.124C252.08 359.645 252.794 359.466 253.582 359.585Z" fill="white"/>
<path d="M274.276 354.103C277.261 354.873 279.314 356.151 280.435 357.938C281.579 359.71 281.855 361.771 281.265 364.119C280.675 366.468 279.472 368.09 277.658 368.986C275.861 369.886 273.47 369.951 270.486 369.181C268.677 368.714 267.079 367.97 265.69 366.948C264.324 365.914 263.519 364.503 263.276 362.716C265.343 362.378 266.887 362.076 267.908 361.809C268.054 362.566 268.4 363.196 268.947 363.697C269.512 364.202 270.339 364.596 271.427 364.877C273.517 365.416 275.005 365.222 275.892 364.296L269.019 362.522L269.864 359.159L276.606 360.899C276.233 359.704 275.143 358.873 273.334 358.407C272.509 358.194 271.635 358.139 270.711 358.241C269.806 358.348 269.088 358.675 268.558 359.22C267.153 357.967 265.923 356.986 264.867 356.278C266.996 353.758 270.132 353.033 274.276 354.103Z" fill="white"/>
<path d="M300.722 365.205C298.053 364.678 296.113 364.302 294.901 364.078L293.273 373.938L287.59 372.974L289.218 363.115C288.018 362.93 286.072 362.646 283.379 362.264L284.223 357.158L301.565 360.099L300.722 365.205Z" fill="white"/>
<path d="M311.253 375.846C308.158 375.717 305.906 374.906 304.498 373.414C303.108 371.905 302.462 369.976 302.557 367.628C302.65 365.335 303.45 363.504 304.957 362.133C306.481 360.764 308.791 360.144 311.887 360.273C313.969 360.36 315.692 360.781 317.058 361.536C318.442 362.274 319.445 363.244 320.067 364.446C320.69 365.629 320.972 366.946 320.913 368.395C320.817 370.761 319.961 372.627 318.346 373.993C316.749 375.359 314.385 375.977 311.253 375.846ZM311.552 371.173C312.729 371.223 313.618 370.975 314.221 370.43C314.823 369.886 315.144 369.137 315.183 368.183C315.219 367.284 314.959 366.538 314.403 365.946C313.848 365.334 312.982 365.004 311.805 364.955C310.628 364.906 309.757 365.154 309.191 365.7C308.625 366.246 308.323 366.978 308.285 367.895C308.247 368.849 308.487 369.621 309.007 370.213C309.527 370.804 310.375 371.124 311.552 371.173Z" fill="white"/>
<path d="M349.963 359.052L352.347 373.93L347.097 374.417L345.801 363.725L344.715 374.639L338.301 375.235L335.259 364.843L335.919 375.456L330.669 375.944L330.342 360.876L338.353 360.131L340.998 369.758L341.682 359.822L349.963 359.052Z" fill="white"/>
<path d="M372.982 364.21C373.129 364.817 373.303 365.227 373.505 365.441C373.706 365.656 374.031 365.764 374.479 365.765L374.984 368.305C374.443 368.535 373.965 368.72 373.552 368.861C373.156 368.998 372.615 369.152 371.929 369.323C370.416 369.7 369.331 369.612 368.673 369.057C368.012 368.485 367.551 367.664 367.291 366.594L367.129 365.926C366.974 367.515 366.49 368.789 365.678 369.747C364.884 370.702 363.73 371.368 362.217 371.745C360.458 372.184 359.043 372.159 357.973 371.67C356.92 371.176 356.222 370.225 355.88 368.817C355.599 367.658 355.756 366.655 356.352 365.806C356.949 364.958 358.008 364.212 359.531 363.567C357.96 362.938 356.419 362.434 354.909 362.054C355.635 360.436 356.591 359.11 357.777 358.077C358.959 357.026 360.517 356.259 362.452 355.777C365.161 355.101 367.312 355.198 368.904 356.067C370.509 356.915 371.611 358.568 372.209 361.028L372.982 364.21ZM364.15 360.344C363.252 360.568 362.498 360.917 361.885 361.392C361.273 361.866 360.767 362.474 360.369 363.216C361.394 362.828 362.699 362.436 364.282 362.041C364.933 361.879 365.371 361.685 365.596 361.458C365.821 361.232 365.903 360.994 365.842 360.745C365.79 360.531 365.615 360.385 365.316 360.309C365.014 360.214 364.625 360.226 364.15 360.344ZM362.821 366.972C363.806 366.726 364.649 366.317 365.35 365.746C366.046 365.156 366.468 364.512 366.616 363.813L366.447 363.118C366.077 363.437 365.651 363.723 365.172 363.975C364.687 364.209 364.098 364.47 363.402 364.757L362.491 365.154C361.554 365.596 361.143 366.057 361.26 366.539C361.386 367.056 361.906 367.2 362.821 366.972Z" fill="white"/>
<path d="M385.258 350.478C386.412 350.251 387.515 350.38 388.565 350.864C389.616 351.349 390.509 352.116 391.244 353.166C391.976 354.199 392.473 355.398 392.734 356.766C392.993 358.115 392.979 359.443 392.695 360.75C392.407 362.038 391.864 363.144 391.064 364.066C390.278 364.967 389.291 365.535 388.101 365.769C386.716 366.041 385.471 365.986 384.367 365.606C383.277 365.204 382.375 364.439 381.661 363.309C381.857 364.335 382.208 365.974 382.713 368.227C383.204 370.408 383.535 371.948 383.707 372.848L377.688 374.031C377.154 370.663 376.538 367.153 375.839 363.501C375.141 359.849 374.418 356.36 373.671 353.034L378.785 352.03L380.202 355.251C380.459 353.894 381.029 352.83 381.913 352.059C382.794 351.27 383.909 350.743 385.258 350.478ZM384.402 361.455C385.201 361.298 385.818 360.915 386.254 360.307C386.705 359.677 386.851 358.948 386.693 358.121C386.517 357.203 386.126 356.505 385.519 356.027C384.911 355.549 384.181 355.394 383.329 355.561C382.353 355.753 381.662 356.141 381.258 356.724C380.85 357.29 380.753 358.13 380.967 359.246C381.087 359.875 381.348 360.375 381.751 360.744C382.149 361.095 382.59 361.326 383.071 361.436C383.55 361.529 383.993 361.535 384.402 361.455Z" fill="white"/>
<path d="M408.711 356.215C409.564 356.826 410.232 357.53 410.715 358.328C411.198 359.126 411.663 360.091 412.112 361.223C412.551 362.207 412.861 362.851 413.043 363.152L406.505 363.55C406.443 363.425 406.31 363.028 406.108 362.36C405.923 361.691 405.746 361.159 405.577 360.765C405.408 360.352 405.169 359.999 404.861 359.705C404.38 359.237 403.854 358.948 403.285 358.835C402.716 358.722 401.88 358.7 400.776 358.767L401.079 363.88L395.274 364.233C395.24 362.138 395.137 359.634 394.965 356.72C394.792 353.806 394.599 351.307 394.385 349.224L400.19 348.871L400.509 354.259L400.618 354.252C402.641 351.94 404.099 350.049 404.992 348.579L412.154 348.144L406.185 354.934C407.149 355.28 407.992 355.707 408.711 356.215Z" fill="white"/>
<path d="M418.801 356.38C418.935 357.19 419.278 357.856 419.833 358.378C420.405 358.882 421.217 359.142 422.268 359.158C423.029 359.169 423.746 359.032 424.421 358.748C425.096 358.446 425.636 358.023 426.043 357.478C427.248 358.101 428.851 358.777 430.852 359.504C430.272 360.781 429.233 361.794 427.737 362.543C426.259 363.274 424.333 363.622 421.96 363.587C418.88 363.542 416.608 362.792 415.143 361.339C413.696 359.867 412.989 357.956 413.023 355.607C413.056 353.312 413.816 351.46 415.304 350.049C416.792 348.639 419.085 347.957 422.183 348.002C424.03 348.029 425.629 348.365 426.979 349.009C428.329 349.653 429.358 350.54 430.067 351.671C430.776 352.783 431.12 354.055 431.099 355.486C431.093 355.964 431.069 356.321 431.03 356.56L418.801 356.38ZM422.504 352.166C421.598 352.152 420.853 352.316 420.268 352.656C419.683 352.996 419.269 353.468 419.025 354.07L425.438 354.164C425.229 353.573 424.882 353.1 424.398 352.744C423.914 352.37 423.283 352.177 422.504 352.166Z" fill="white"/>
<path d="M449.783 355.674C447.09 355.297 445.132 355.031 443.91 354.875L442.82 364.81L437.094 364.165L438.183 354.23C436.975 354.112 435.016 353.938 432.307 353.707L432.871 348.561L450.347 350.529L449.783 355.674Z" fill="white"/>
<path d="M468.962 354.7C468.28 357.272 467.699 359.605 467.219 361.697C466.748 363.754 466.256 366.107 465.742 368.756L460.315 367.48L462.732 358.267L456.555 366.595L449.169 364.858C449.816 362.522 450.406 360.192 450.938 357.867C451.479 355.507 451.963 353.151 452.39 350.802L457.605 352.029L455.158 361.489L461.391 352.919L468.962 354.7Z" fill="white"/>
<path d="M488.146 359.233C487.48 361.942 486.918 364.383 486.458 366.555C485.999 368.727 485.525 371.187 485.037 373.935L479.27 372.683L480.306 367.782L475.098 366.651L474.062 371.552L468.295 370.3C468.816 368.272 469.379 365.832 469.982 362.977C470.586 360.123 471.06 357.663 471.404 355.598L477.171 356.85L476.134 361.75L481.343 362.881L482.379 357.981L488.146 359.233Z" fill="white"/>
<path d="M495.356 375.001L489.586 374.53C489.843 372.433 490.086 369.939 490.316 367.048C490.547 364.138 490.7 361.636 490.776 359.543L506 360.784C505.931 361.423 505.82 362.703 505.668 364.625L505.55 366.107L496.123 365.338L495.356 375.001Z" fill="white"/>
<rect x="3.5" y="3.5" width="543" height="543" rx="271.5" stroke="black" stroke-width="7"/>
</svg>
