<?xml version="1.0" encoding="utf-8"?><svg width="24" height="24" fill="none" xmlns="http://www.w3.org/2000/svg" viewBox="0 0 24 24"><g clip-path="url(#fclip0_794_3344)"><path d="M13.466 12.014l6.23-6.23a1.035 1.035 0 10-1.466-1.466L12 10.548l-6.23-6.23a1.036 1.036 0 10-1.466 1.465l6.23 6.23-6.23 6.23a1.035 1.035 0 00.733 1.77c.265 0 .53-.101.733-.303L12 13.48l6.23 6.23a1.033 1.033 0 001.466 0 1.035 1.035 0 000-1.466l-6.23-6.23z" fill="#1C1C1C"/></g><defs><clipPath id="fclip0_794_3344"><path fill="#fff" transform="translate(4 4)" d="M0 0h16v16H0z"/></clipPath></defs></svg>