<?xml version="1.0" encoding="utf-8"?><svg width="69" height="67" fill="none" xmlns="http://www.w3.org/2000/svg" viewBox="0 0 69 67"><path d="M42.328 17.97H27.212a7.558 7.558 0 00-7.557 7.558v15.116a7.558 7.558 0 007.557 7.557h15.116a7.558 7.558 0 007.557-7.557V25.528a7.558 7.558 0 00-7.557-7.557z"/><path d="M40.816 32.133a6.046 6.046 0 11-11.96 1.774 6.046 6.046 0 0111.96-1.774z"/><path d="M43.083 24.773h.016M27.212 17.97h15.116a7.558 7.558 0 017.557 7.557v15.116a7.558 7.558 0 01-7.557 7.557H27.212a7.558 7.558 0 01-7.557-7.557V25.528a7.558 7.558 0 017.557-7.557zm13.604 14.162a6.046 6.046 0 11-11.96 1.774 6.046 6.046 0 0111.96-1.774z" stroke="#fff" stroke-width="2" stroke-linecap="round" stroke-linejoin="round"/></svg>