<?xml version="1.0" encoding="utf-8"?><svg width="101" height="72" xmlns="http://www.w3.org/2000/svg" viewBox="0 0 101 72"><path d="M2.76 29.151c-.139-.513-.312-.899-.52-1.157a1.804 1.804 0 00-.676-.543 2.032 2.032 0 00-.816-.157H.645v-.352h10.16v.352h-.903c-.693 0-1.213.099-1.56.297-.346.199-.52.591-.52 1.175 0 .188.03.42.087.702.058.28.122.55.19.806l1.735 6.066c.185.608.393 1.338.624 2.192.23.853.462 1.69.694 2.507.23.818.415 1.496.555 2.034h.07c.068-.28.132-.527.19-.737l.173-.63c.058-.21.121-.433.19-.667l3.849-13.92h2.22l3.397 10.343c.139.42.277.848.416 1.28a97.266 97.266 0 01.814 2.682c.127.444.248.877.364 1.297h.104c.092-.397.22-.899.38-1.507.163-.607.342-1.256.538-1.945.196-.69.375-1.327.537-1.912l1.838-6.592a7.81 7.81 0 00.225-.964c.058-.34.087-.602.087-.79 0-.608-.19-1.046-.572-1.314-.381-.269-.954-.403-1.717-.403h-1.179v-.352h6.831v.352h-.59c-.415 0-.774.07-1.075.21-.3.14-.567.409-.797.807-.231.398-.45.982-.66 1.753l-4.369 15.673h-3.26L15.24 31.852 11.39 45.737H7.646L2.76 29.151zM51.953 46.087c-1.549 0-2.85-.346-3.9-1.035-1.053-.689-1.85-1.758-2.393-3.209-.544-1.449-.815-3.307-.815-5.575 0-2.266.271-4.113.815-5.54.543-1.426 1.329-2.484 2.358-3.174 1.028-.688 2.282-1.034 3.761-1.034 1.387 0 2.531.392 3.433 1.175.902.783 1.48 1.993 1.733 3.629h.07c0-.935-.006-1.807-.018-2.612-.011-.807-.017-1.52-.017-2.14v-4.995c0-.63-.138-1.099-.416-1.402a1.951 1.951 0 00-.988-.597 4.464 4.464 0 00-1.058-.14h-.415v-.35h8.148v24.019c0 .655.133 1.145.398 1.472.266.328.595.544.989.65.392.104.75.157 1.075.157h.415v.35h-8.113v-4.803h-.07c-.23 1.777-.797 3.08-1.698 3.909-.902.83-2 1.245-3.294 1.245zm1.456-.876c1.179 0 2.069-.794 2.67-2.385.6-1.589.901-3.938.901-7.047 0-1.846-.138-3.39-.416-4.629-.277-1.238-.682-2.174-1.213-2.805-.532-.63-1.202-.947-2.011-.947-.694 0-1.279.315-1.752.947-.474.631-.827 1.567-1.058 2.805-.23 1.24-.346 2.783-.346 4.629 0 2.08.121 3.821.364 5.224.242 1.402.607 2.454 1.092 3.156.486.7 1.076 1.052 1.769 1.052zM74.2 46.086c-2.035 0-3.55-.537-4.543-1.612-.994-1.076-1.49-2.793-1.49-5.155v-9.537c0-.724-.087-1.262-.26-1.614-.174-.35-.429-.584-.764-.7-.335-.117-.769-.175-1.3-.175h-.104v-.352h7.698v13.535c0 1.005.087 1.847.26 2.524.173.679.45 1.187.832 1.525.382.34.885.508 1.508.508.833 0 1.48-.28 1.942-.841.462-.562.786-1.344.972-2.35.184-1.005.277-2.161.277-3.471V29.57c0-.678-.133-1.175-.399-1.49a1.902 1.902 0 00-.97-.63 4.113 4.113 0 00-1.093-.159h-.139v-.35H84.5v16.304c0 .608.138 1.07.415 1.385a1.9 1.9 0 00.989.614c.382.093.733.14 1.057.14h.139v.35h-7.871v-3.296h-.07c-.207.772-.486 1.402-.832 1.894-.346.49-.74.859-1.179 1.104a4.602 4.602 0 01-1.421.508 8.28 8.28 0 01-1.527.142zM35.78 53.4c-3.005 0-5.282-.846-6.83-2.542-1.548-1.694-2.323-4.06-2.323-7.1 0-3.296.75-5.78 2.254-7.45 1.502-1.672 3.617-2.508 6.346-2.508 2.519 0 4.502.714 5.946 2.14 1.444 1.425 2.167 3.681 2.167 6.442 0 .392-.315.71-.702.71h-9.83a.84.84 0 00-.834.857c.034 1.971.187 3.597.46 4.876.313 1.462.81 2.525 1.492 3.191.68.667 1.565 1 2.652 1 .81 0 1.563-.14 2.202-.527 1.633-.986.696-2.678.696-3.72 0-.943.6-2.02 1.903-2.02 1.31 0 1.96.895 1.96 2.02 0 2.488-2.757 3.639-3.763 4.036-1.003.396-2.269.595-3.795.595zm1.453-10.659a.839.839 0 00.833-.852c-.02-1.73-.1-3.136-.238-4.214-.162-1.25-.45-2.151-.867-2.7-.416-.549-.994-.824-1.734-.824a2.35 2.35 0 00-1.838.824c-.486.55-.839 1.45-1.058 2.7-.19 1.076-.306 2.477-.349 4.203a.839.839 0 00.833.864h4.418zM93.349 9.534h-3.37c-2.96 0-5.359-2.426-5.359-5.418V.708h-.41v3.408c0 2.992-2.4 5.418-5.358 5.418h-3.37v.415h3.37c2.959 0 5.358 2.426 5.358 5.418v3.41h.41v-3.41c0-2.992 2.4-5.418 5.358-5.418h3.37v-.415z"/><path d="M88.362 55.044l-.397-.541c7.858-5.877 12.011-12.936 12.011-20.418 0-7.14-3.819-13.943-11.042-19.671l.412-.53c7.39 5.86 11.298 12.845 11.298 20.201-.001 7.704-4.248 14.951-12.282 20.96zM5.798 59.465l1.127.615c.114-.416-.093-.75-.438-.939-.292-.16-.57-.172-.87-.13l-.021-.6c.383-.129.863-.02 1.185.154.868.474 1.133 1.297.695 2.118-.399.746-1.214 1.073-2.072.605-.49-.267-.746-.591-.85-.957l.537-.267c.074.202.268.464.58.633.382.21.756.164 1.025-.176l-1.133-.619.235-.438zM8.411 59.525l2.375 1.138-.316.673-.85-.407-.92 1.961-.666-.319.92-1.962-.857-.41.314-.674zM12.549 61.336c.881.367 1.204 1.208.875 2.017-.328.807-1.143 1.176-2.025.81-.882-.368-1.204-1.208-.875-2.016.328-.81 1.142-1.178 2.025-.81zm-.89 2.185c.42.175.853-.003 1.042-.47.185-.455-.001-.896-.416-1.07-.402-.167-.844 0-1.034.466-.183.45-.006.902.408 1.074zM17.303 65.073l-1.198-.396-.342 1.058-.7-.231.894-2.769.7.231-.338 1.046 1.198.396.338-1.046.7.23-.894 2.77-.7-.231.342-1.058zM21.09 67.038c-.343.16-.768.162-1.157.053-.895-.249-1.334-1.003-1.092-1.89.223-.817.958-1.317 1.87-1.063.717.2 1.174.884.96 1.67-.049.176-.09.278-.15.375l-2.005-.56c-.054.443.216.767.654.888.34.095.657.049.854-.037l.066.564zm-1.468-1.9l1.365.38c.1-.34-.061-.675-.469-.789-.426-.12-.721.06-.896.41zM24.025 65.068l.651.137.714 1.394 1.155-1.002.633.134-.586 2.853-.722-.152.36-1.744-1.053.89-.019-.004-.64-1.246-.358 1.744-.721-.151.586-2.853zM28.043 66.089a2.11 2.11 0 011.048-.108c.841.139 1.068.623.944 1.383l-.283 1.75-.632-.104.054-.332c-.186.193-.515.296-.9.232-.518-.086-.839-.473-.75-1.03.104-.632.613-.856 1.188-.762.253.042.492.167.614.292.096-.476.013-.759-.41-.829-.329-.054-.554.014-.778.075l-.096-.567zm1.164 2.07l.047-.294c-.11-.117-.268-.189-.476-.223-.24-.04-.474.04-.513.282-.035.217.122.368.35.406.302.05.482-.058.592-.171zM31.02 66.352l1.919.255-.09.694-1.188-.158-.287 2.196-.73-.097.377-2.89zM33.175 69.573l.278-2.902.733.072-.176 1.837 1.516-1.706.732.072-.278 2.902-.733-.072.177-1.837-1.516 1.706-.733-.072zM39.487 67.15l-.169 2.91-.735-.044.051-.874-.409-.024-.645.838-.844-.05.827-.988a.872.872 0 01-.507-.873c.033-.563.456-1.011 1.492-.95l.939.055zm-1.206 1.421l.384.023.049-.841-.326-.02c-.358-.021-.537.19-.55.41-.014.239.214.414.443.428zM40.69 69.22c.346.012.553.324.54.744-.018.55-.338.941-.849 1.073l-.187-.356a.617.617 0 00.403-.33c.061-.121.09-.23.067-.295-.04.05-.116.047-.167.046-.167-.005-.322-.186-.313-.425.007-.272.186-.467.506-.456zM43.688 68.444l1.281-.012c-.1-.42-.44-.61-.831-.607-.333.003-.582.128-.823.311l-.305-.514c.272-.301.745-.441 1.11-.444.986-.009 1.611.58 1.62 1.513.008.848-.55 1.533-1.523 1.542-.556.004-.936-.154-1.2-.424l.341-.495c.16.141.457.274.809.27.434-.003.74-.226.813-.654l-1.287.011-.005-.497zM46.008 67.23l2.624-.097.027.745-.941.035.079 2.168-.736.027-.08-2.168-.947.035-.026-.745zM50.498 66.943c.95-.068 1.609.541 1.67 1.413.06.872-.508 1.566-1.459 1.634-.952.068-1.609-.54-1.67-1.413-.06-.87.508-1.566 1.459-1.634zm.164 2.356c.453-.032.762-.385.728-.888-.035-.49-.397-.803-.843-.77-.434.03-.757.377-.722.88.033.486.39.81.837.778zM54.18 66.689l.66-.087 1.127 1.08.766-1.328.642-.084.37 2.89-.73.096-.226-1.767-.707 1.19-.019.004-1.008-.966.227 1.766-.73.096-.372-2.89zM58.309 66.324c.22-.19.585-.384.956-.448.84-.145 1.21.236 1.339.996l.297 1.749-.631.11-.056-.332c-.114.243-.392.449-.777.516-.517.09-.945-.172-1.039-.726-.108-.632.302-1.012.877-1.112.252-.043.519-.004.674.074-.061-.481-.232-.722-.655-.648-.328.057-.519.196-.711.327l-.274-.506zm1.767 1.573l-.05-.294c-.142-.074-.314-.09-.522-.054-.24.042-.435.194-.394.436.037.217.234.308.461.269.304-.053.439-.214.505-.357zM61.217 65.599l.72-.155.057.272c.135-.227.435-.451.8-.529.776-.167 1.405.332 1.582 1.175.183.868-.264 1.666-1.165 1.86-.25.055-.505.063-.687.002l.28 1.336-.72.155-.867-4.116zm.915.77l.242 1.152a.993.993 0 00.63.036c.501-.108.712-.538.611-1.012-.096-.456-.428-.73-.905-.626a.887.887 0 00-.578.45zM64.766 64.815l.712-.187.722 2.82-.713.188-.721-2.82zm1.91.93l1.581 1.164-.93.244-1.467-1.134.647-1.66.898-.236-.73 1.623zM70.96 65.775c-.204.32-.563.553-.95.672-.888.273-1.657-.126-1.921-1.005-.245-.812.11-1.631 1.017-1.91.71-.22 1.459.111 1.695.892.052.173.071.282.072.397l-1.99.613c.188.402.588.53 1.023.395.337-.103.581-.314.701-.493l.353.44zm-2.246-.811l1.353-.417c-.096-.342-.41-.537-.813-.412-.422.13-.575.441-.54.829zM70.738 63.092l2.477-.881.245.703-.888.316.712 2.046-.695.248-.712-2.047-.894.318-.245-.703zM74.84 64.707L73.75 62.01l.681-.28.69 1.708.556-2.222.681-.28 1.088 2.697-.681.281-.689-1.709-.555 2.222-.683.281zM79.732 61.322l-1.138.552.476 1.004-.664.322-1.246-2.627.664-.322.47.992 1.138-.551-.47-.993.664-.322 1.245 2.627-.664.323-.475-1.005zM80.404 58.96l1.695-.94.333.612-1.049.582 1.053 1.94-.645.359-1.387-2.554z"/></svg>