<?xml version="1.0" encoding="utf-8"?><svg width="104" height="104" xmlns="http://www.w3.org/2000/svg" viewBox="0 0 104 104"><path d="M96.29 31.773c.2-.122.345-.245.434-.37a.693.693 0 00.151-.426 1.502 1.502 0 00-.063-.536l-.055-.202.763-.209 1.327 4.86-.762.21-.098-.36c-.085-.31-.211-.527-.378-.65-.157-.124-.365-.15-.624-.08a1.744 1.744 0 00-.198.072c-.078.043-.16.088-.248.134-.088.047-.17.091-.248.135l-3.796 2.328a34.3 34.3 0 01-.819.492c-.288.168-.575.325-.859.47-.28.154-.536.28-.766.377l1.157-.05c.389-.005.79-.003 1.206.006l7.2.155.307 1.122-5.674 3.78c-.298.215-.6.415-.907.6-.306.184-.59.35-.85.5-.26.15-.49.268-.689.356l.872-.055c.32-.01.651-.022.993-.037.352-.018.705-.031 1.06-.039l4.187-.04c.133-.004.286-.012.46-.027.189-.006.324-.021.407-.044.27-.073.439-.21.508-.406.068-.198.056-.468-.038-.81l-.098-.359.763-.209L102 46.434l-.763.208-.08-.296a1.348 1.348 0 00-.234-.488c-.092-.131-.24-.225-.445-.28-.204-.056-.49-.084-.859-.083l-9.815.007-.447-1.635 7.137-4.733-8.473-.159-.477-1.745 8.746-5.457zM90.33 49.227l.79.044-.028.5c-.01.183.002.35.036.503a.667.667 0 00.253.386c.145.106.363.166.653.183l7.844.439c.323.018.561-.017.717-.106a.588.588 0 00.31-.338c.062-.148.099-.318.109-.512l.028-.5.79.044-.482 8.627-2.92-.082.056-1.016.746-.04c.259-.007.482-.053.67-.14a1.05 1.05 0 00.456-.346c.116-.156.182-.362.196-.62l.151-2.71-4.123-.23-.215 3.838-.902-.05.215-3.838-4.64-.26-.177 3.176c-.014.258.028.471.126.638.108.179.251.322.428.429.188.107.4.184.634.23l.735.154-.057 1.015-2.91-.276.511-9.142zM89.091 62.42l.724.317-.2.459a1.886 1.886 0 00-.15.499c-.01.16.036.31.139.449.109.153.306.293.592.418l7.18 3.152c.276.121.498.166.664.133a.65.65 0 00.415-.223c.1-.121.187-.265.26-.433l.201-.458.724.317-2.08 4.748c-.466 1.065-1.06 1.886-1.783 2.462-.717.59-1.548.92-2.493.986-.946.067-1.98-.146-3.103-.638-1.073-.472-1.93-1.077-2.569-1.816a4.642 4.642 0 01-1.152-2.516c-.125-.949.06-1.99.558-3.124l2.073-4.733zm-1.074 4.783c-.315.72-.4 1.394-.252 2.023.153.643.517 1.232 1.093 1.767.572.545 1.335 1.027 2.29 1.447.956.42 1.803.644 2.541.674.744.045 1.38-.105 1.907-.45.532-.33.954-.851 1.265-1.56l.447-1.021-8.85-3.886-.441 1.006zM81.013 76.73c.577-.696 1.167-1.214 1.77-1.553.602-.339 1.22-.469 1.853-.39.634.078 1.286.396 1.956.953l4.78 3.971c.232.193.432.296.602.311a.65.65 0 00.46-.1c.13-.088.252-.203.37-.344l.319-.385.608.505-3.338 4.027-.609-.506.32-.385c.116-.14.206-.29.267-.45a.65.65 0 00.014-.47c-.061-.163-.216-.348-.464-.554l-4.817-4.002c-.472-.392-.917-.622-1.336-.69a1.881 1.881 0 00-1.162.189c-.357.193-.693.48-1.009.862-.343.414-.561.82-.654 1.22-.1.406-.067.797.097 1.171.158.383.436.74.833 1.07l4.904 4.074c.231.192.432.296.601.31a.65.65 0 00.46-.1 1.82 1.82 0 00.37-.343l.32-.386.608.506-2.659 3.206-.608-.505.33-.398c.11-.133.195-.278.257-.437a.59.59 0 00.014-.471c-.061-.163-.216-.347-.464-.554l-4.88-4.053c-.546-.454-.929-.961-1.149-1.522-.212-.553-.236-1.147-.074-1.782.163-.634.533-1.3 1.11-1.995zM69.637 97.79c.115.206.233.354.355.447a.69.69 0 00.42.166c.149.02.328.006.537-.044l.204-.048.182.77-4.898 1.161-.182-.77.361-.086c.314-.074.535-.193.662-.356.13-.152.163-.36.101-.621a1.768 1.768 0 00-.064-.2 11.2 11.2 0 01-.126-.253 10.4 10.4 0 00-.126-.252l-2.194-3.878c-.15-.263-.305-.542-.463-.836a17.364 17.364 0 01-.439-.876 8.073 8.073 0 01-.35-.78l.009 1.16c-.008.39-.023.791-.046 1.206l-.403 7.199-1.13.268-3.58-5.807a12.868 12.868 0 01-.567-.928c-.173-.313-.33-.602-.47-.867-.14-.266-.251-.5-.332-.702l.024.874c-.001.321 0 .653.004.995.006.353.006.707.002 1.062l-.103 4.19a7.79 7.79 0 00.01.462c0 .188.01.324.03.408.065.272.194.446.389.522.195.075.465.072.81-.01l.361-.085.182.77-4.003.949-.182-.77.298-.071c.2-.047.364-.119.496-.217.134-.087.233-.232.295-.435.063-.203.1-.488.112-.856l.33-9.82 1.648-.392 4.48 7.303.45-8.471 1.758-.417 5.148 8.936zM52.475 91.214l-.07.789-.499-.045a1.818 1.818 0 00-.504.02.666.666 0 00-.394.24c-.11.142-.177.358-.203.647l-.698 7.834c-.029.322-.002.562.081.721a.592.592 0 00.328.321c.145.067.314.109.507.126l.498.045-.07.788-8.597-.768.179-2.919 1.012.09.015.748c-.002.259.038.484.118.675.07.19.18.346.33.467.152.122.356.194.613.217l2.7.241.367-4.118-3.825-.341.08-.901 3.825.342.413-4.633-3.166-.283c-.257-.023-.47.012-.64.105-.183.103-.33.24-.443.415a2.054 2.054 0 00-.25.626l-.178.73-1.013-.09.372-2.902 9.112.813zM39.393 89.552l-.342.714-.45-.216a1.882 1.882 0 00-.494-.165.656.656 0 00-.453.124c-.157.104-.302.297-.437.578l-3.383 7.081c-.13.272-.181.492-.154.66a.65.65 0 00.21.423c.117.103.258.195.423.274l.451.216-.341.714-4.672-2.237c-1.048-.501-1.848-1.123-2.4-1.865a4.313 4.313 0 01-.903-2.526c-.036-.948.21-1.976.74-3.083.506-1.059 1.138-1.896 1.897-2.511.749-.62 1.6-.977 2.55-1.071.95-.094 1.984.126 3.1.66l4.658 2.23zm-4.741-1.231c-.709-.34-1.38-.445-2.012-.319-.647.132-1.247.477-1.8 1.036-.563.554-1.07 1.302-1.52 2.245-.45.942-.702 1.782-.756 2.52-.07.742.06 1.383.387 1.921.313.544.818.983 1.517 1.317l1.004.48 4.17-8.726-.99-.474zM25.41 81.043c.676.6 1.173 1.208 1.491 1.822.318.614.427 1.237.328 1.868-.1.632-.44 1.273-1.018 1.925l-4.125 4.648c-.2.226-.31.423-.331.592a.65.65 0 00.084.464c.084.132.195.26.332.38l.373.333-.525.592-3.907-3.475.525-.592.373.333c.137.121.284.216.44.283a.649.649 0 00.47.029c.164-.056.354-.204.568-.446l4.157-4.684c.408-.459.652-.897.734-1.313a1.886 1.886 0 00-.149-1.17c-.181-.363-.457-.709-.827-1.038-.402-.357-.8-.589-1.195-.695a1.778 1.778 0 00-1.174.058c-.387.145-.752.41-1.095.797l-4.233 4.769c-.2.225-.31.422-.33.591a.65.65 0 00.084.464c.084.133.194.26.331.381l.374.333-.525.591-3.112-2.767.525-.591.386.343c.129.114.271.205.428.272.149.075.306.085.47.03.164-.056.354-.205.568-.446l4.21-4.745c.472-.531.992-.898 1.559-1.1.56-.192 1.154-.197 1.782-.013.628.184 1.28.576 1.955 1.177zM4.694 68.944a1.444 1.444 0 00-.458.339.692.692 0 00-.18.415c-.026.148-.017.327.025.539l.042.205-.775.156-.992-4.94.775-.156.073.365c.064.316.175.541.333.674.148.135.353.176.617.123.053-.01.12-.03.202-.058.08-.037.166-.077.257-.117.09-.04.176-.08.256-.117l3.946-2.063c.268-.142.552-.287.851-.435.3-.148.596-.284.889-.409a8.04 8.04 0 01.79-.324l-1.158-.03a32.26 32.26 0 01-1.202-.088l-7.173-.649-.23-1.14 5.92-3.382c.312-.194.628-.373.946-.536.318-.163.612-.31.882-.44a7.53 7.53 0 01.712-.309l-.873-.005c-.321-.013-.652-.023-.994-.03a35.614 35.614 0 01-1.06-.035l-4.18-.246a7.837 7.837 0 00-.462-.006c-.187-.006-.323 0-.408.016-.274.056-.452.18-.534.371-.082.193-.088.463-.018.811l.073.364-.775.156L0 53.926l.775-.156.06.3c.04.201.107.37.2.504.083.137.224.24.425.31.2.07.484.117.85.142l9.794.665.334 1.663-7.444 4.232 8.442.74.356 1.773-9.098 4.845zM11.818 52.067l-.785-.097.061-.497c.023-.181.022-.35-.003-.504a.667.667 0 00-.227-.403c-.138-.114-.35-.189-.639-.224l-7.798-.957c-.32-.04-.561-.02-.723.057a.588.588 0 00-.331.318c-.072.143-.12.31-.143.503l-.06.497-.785-.097 1.05-8.576 2.908.276-.124 1.01-.746-.01a1.705 1.705 0 00-.678.095 1.048 1.048 0 00-.478.316c-.126.147-.205.349-.236.605l-.33 2.694 4.1.503.467-3.816.896.11-.467 3.816 4.612.566.387-3.158c.031-.257.003-.472-.084-.645a1.252 1.252 0 00-.4-.456c-.18-.12-.385-.21-.616-.27l-.723-.203.124-1.01 2.884.468-1.113 9.089zM13.831 39.097l-.701-.364.23-.444c.09-.172.15-.335.18-.489a.658.658 0 00-.107-.457c-.1-.16-.287-.312-.564-.456L5.911 33.27c-.268-.139-.486-.197-.654-.176a.648.648 0 00-.429.196 1.82 1.82 0 00-.288.414l-.23.445-.702-.365 2.387-4.6c.535-1.033 1.182-1.813 1.94-2.34a4.303 4.303 0 012.553-.821c.947-.005 1.966.276 3.054.841 1.04.54 1.855 1.201 2.444 1.98.595.77.923 1.633.986 2.587.062.954-.192 1.981-.762 3.08l-2.379 4.586zm1.385-4.702c.362-.698.49-1.365.385-2.003-.11-.651-.436-1.263-.976-1.835-.534-.58-1.265-1.112-2.19-1.593-.926-.482-1.757-.761-2.492-.84-.739-.093-1.383.015-1.931.324-.553.295-1.008.787-1.365 1.475l-.513.989 8.577 4.457.505-.974zM22.781 25.318c-.622.656-1.245 1.132-1.87 1.43-.623.297-1.249.386-1.876.264-.627-.12-1.256-.482-1.887-1.083l-4.502-4.284c-.218-.207-.411-.324-.58-.35a.648.648 0 00-.465.069c-.135.08-.266.185-.392.318l-.344.363-.573-.546 3.601-3.792.573.545-.345.363a1.623 1.623 0 00-.297.43.65.65 0 00-.045.47c.05.166.192.36.426.583l4.536 4.318c.445.422.874.682 1.287.778a1.88 1.88 0 001.173-.11c.368-.169.723-.433 1.064-.792.37-.39.615-.781.735-1.172.126-.4.12-.792-.019-1.177-.132-.392-.384-.767-.759-1.123l-4.618-4.395c-.218-.207-.412-.325-.58-.35a.649.649 0 00-.466.068c-.135.08-.265.186-.391.319l-.345.362-.573-.545 2.868-3.02.573.546-.356.374a1.572 1.572 0 00-.286.419.59.59 0 00-.045.47c.05.165.192.36.426.582l4.595 4.373c.514.49.863 1.022 1.044 1.596.175.567.16 1.161-.046 1.783-.205.622-.618 1.26-1.24 1.916zM30.923 6.716a1.446 1.446 0 00-.37-.435.69.69 0 00-.426-.15 1.498 1.498 0 00-.535.062l-.202.055-.209-.763 4.856-1.329.208.763-.358.098c-.31.085-.527.212-.649.379-.124.157-.151.365-.08.625.014.051.038.118.07.198.044.077.09.16.135.248l.135.247 2.326 3.8c.16.258.323.532.491.82.168.29.325.576.47.86.154.281.28.537.376.767l-.049-1.158c-.006-.39-.004-.792.005-1.207l.155-7.208 1.12-.307 3.777 5.68c.215.299.415.601.599.908.184.307.35.59.5.85.15.261.268.491.355.69l-.054-.872c-.01-.321-.022-.653-.037-.994a35.789 35.789 0 01-.04-1.061l-.04-4.191a7.83 7.83 0 00-.026-.462 1.98 1.98 0 00-.044-.407c-.073-.27-.209-.44-.406-.508-.197-.069-.467-.056-.81.037l-.357.098-.209-.763L45.568 1l.209.763-.296.081c-.197.054-.36.132-.488.234-.13.092-.224.24-.28.445-.055.205-.083.492-.083.86l.008 9.826-1.634.447-4.728-7.144-.159 8.481-1.743.477-5.451-8.754zM48.375 12.652l.044-.79.5.028c.182.01.35-.002.503-.036a.667.667 0 00.386-.254c.105-.145.165-.362.181-.653l.439-7.852c.018-.323-.017-.562-.105-.718a.588.588 0 00-.339-.31 1.528 1.528 0 00-.51-.11l-.5-.027.044-.79 8.618.482-.082 2.923-1.015-.057-.04-.746a1.71 1.71 0 00-.14-.671 1.05 1.05 0 00-.346-.456c-.155-.117-.361-.182-.619-.197l-2.706-.151-.23 4.128 3.833.214-.05.903-3.834-.214-.26 4.643 3.174.178c.258.015.47-.027.637-.126.179-.109.321-.252.428-.429.107-.188.184-.4.23-.634l.154-.736 1.014.057-.275 2.913-9.134-.512zM61.483 13.834l.318-.725.458.201c.177.078.343.127.499.148a.656.656 0 00.448-.138c.153-.109.292-.306.418-.592l3.149-7.188c.12-.276.165-.498.133-.665a.65.65 0 00-.224-.415c-.12-.1-.264-.187-.432-.26l-.458-.202.318-.724 4.742 2.082c1.064.467 1.884 1.062 2.46 1.785.59.717.918 1.549.985 2.495.067.947-.146 1.982-.638 3.106-.47 1.075-1.076 1.932-1.814 2.572a4.633 4.633 0 01-2.514 1.154c-.947.125-1.987-.061-3.12-.559l-4.728-2.075zm4.78 1.075c.718.315 1.392.4 2.02.252.643-.153 1.231-.518 1.766-1.094.544-.572 1.025-1.337 1.444-2.293.42-.957.644-1.804.674-2.544.045-.744-.105-1.38-.45-1.908-.33-.533-.85-.955-1.559-1.266l-1.02-.448-3.88 8.86 1.004.44zM75.778 21.862c-.695-.577-1.212-1.168-1.55-1.77-.34-.604-.47-1.223-.39-1.857.078-.634.395-1.287.952-1.958l3.966-4.784c.193-.232.296-.433.311-.603a.65.65 0 00-.1-.46 1.82 1.82 0 00-.344-.37l-.385-.32.505-.609 4.023 3.342-.505.609-.385-.32a1.621 1.621 0 00-.449-.268.649.649 0 00-.47-.013c-.163.06-.347.215-.553.464l-3.998 4.822c-.392.472-.622.918-.69 1.337-.06.41.002.799.189 1.164.193.356.48.693.861 1.01.414.343.82.561 1.218.654.407.1.797.068 1.171-.097.383-.158.739-.436 1.069-.834l4.07-4.908c.192-.232.295-.433.31-.603a.65.65 0 00-.1-.46 1.816 1.816 0 00-.344-.37l-.385-.32.505-.609 3.203 2.661-.505.61-.397-.33a1.57 1.57 0 00-.436-.259.589.589 0 00-.471-.013c-.163.06-.347.216-.553.464l-4.05 4.884c-.452.547-.96.93-1.52 1.15-.552.213-1.146.238-1.78.075-.633-.163-1.298-.533-1.993-1.11zM73.396 51.213h-8.38c-7.357 0-13.322-7.064-13.322-15.777v-9.923h-1.02v9.923c0 8.713-5.964 15.777-13.322 15.777h-8.38v1.207h8.38c7.358 0 13.323 7.064 13.323 15.778v9.926h1.019v-9.926c0-8.714 5.965-15.778 13.322-15.778h8.38v-1.207z"/></svg>