<?xml version="1.0" encoding="utf-8"?><svg width="24" height="24" xmlns="http://www.w3.org/2000/svg" viewBox="0 0 24 24"><path d="M22.205 5.568c-3.59-5.535-10.92-7.18-16.604-3.74-5.535 3.44-7.33 10.92-3.74 16.454l.3.45-1.197 4.487 4.487-1.197.45.3c1.944 1.047 4.038 1.645 6.132 1.645 2.244 0 4.488-.598 6.432-1.795 5.535-3.59 7.18-10.92 3.74-16.604zm-3.141 11.518c-.599.897-1.346 1.496-2.394 1.645-.598 0-1.346.3-4.338-.897-2.543-1.197-4.637-3.142-6.133-5.385-.897-1.048-1.346-2.394-1.496-3.74 0-1.197.45-2.244 1.197-2.992.3-.3.598-.449.898-.449h.748c.299 0 .598 0 .747.599.3.748 1.048 2.543 1.048 2.692.15.15.15.449 0 .599.15.299 0 .598-.15.748-.15.15-.3.448-.449.598-.299.15-.449.449-.299.748a17.223 17.223 0 002.094 2.543c.898.748 1.795 1.346 2.842 1.795.3.15.599.15.748-.15.15-.299.898-1.047 1.197-1.346.3-.3.449-.3.748-.15l2.393 1.197c.3.15.599.3.748.449.15.449.15 1.047-.15 1.496z"/></svg>