<svg width="0" height="0" style="position:absolute"><symbol fill="none" viewBox="0 0 25 43" id="arrow-long--down-usage" xmlns="http://www.w3.org/2000/svg"><path d="M25 34c-6.5-.442-11.665 5.581-11.665 8.5h-1.298c0-2.919-5.388-8.997-12.037-8.997v-.404c5-1.099 10.06.245 11.5.404V0h1.835v33.71C15 32.5 20.5 32.5 25 33.5v.5z" fill="#fff"/></symbol><symbol fill="none" viewBox="0 0 129 25" id="arrow-long--left-usage" xmlns="http://www.w3.org/2000/svg"><path d="M14.186 0c0 6.649-6.222 12.04-13.898 12.04v.92c7.676 0 13.898 5.391 13.898 12.04h1.063c0-5.599-1.32-10.598-1.737-12.037h114.776v-1.298H13.64C14.149 9.78 15.25 5.111 15.25 0h-1.064z" fill="#fff"/></symbol><symbol viewBox="0 0 129 25" id="arrow-long--right-usage" xmlns="http://www.w3.org/2000/svg"><path d="M114.391 0c0 6.649 6.222 12.04 13.897 12.04v.92c-7.675 0-13.897 5.391-13.897 12.04h-1.064c0-5.599 1.321-10.598 1.738-12.037H.288v-1.298h114.649c-.509-1.886-1.61-6.554-1.61-11.665h1.064z"/></symbol><symbol viewBox="0 0 30 30" id="back-usage" xmlns="http://www.w3.org/2000/svg"><path fill-rule="evenodd" clip-rule="evenodd" d="M15 29c7.732 0 14-6.268 14-14S22.732 1 15 1 1 7.268 1 15s6.268 14 14 14zm0 1c8.284 0 15-6.716 15-15 0-8.284-6.716-15-15-15C6.716 0 0 6.716 0 15c0 8.284 6.716 15 15 15z"/><path d="M18 10l-5 5 5 5-1 2-7-7 7-7 1 2z"/></symbol><symbol fill="none" viewBox="0 0 24 24" id="checkbox-usage" xmlns="http://www.w3.org/2000/svg"><path fill-rule="evenodd" clip-rule="evenodd" d="M5 12.5l1.875-1.833 3.75 3.666L18.125 7 20 8.833 10.625 18 5 12.5z" fill="#fff"/></symbol><symbol fill="none" viewBox="0 0 24 24" id="close-usage" xmlns="http://www.w3.org/2000/svg"><g clip-path="url(#fclip0_794_3344)"><path d="M13.466 12.014l6.23-6.23a1.035 1.035 0 10-1.466-1.466L12 10.548l-6.23-6.23a1.036 1.036 0 10-1.466 1.465l6.23 6.23-6.23 6.23a1.035 1.035 0 00.733 1.77c.265 0 .53-.101.733-.303L12 13.48l6.23 6.23a1.033 1.033 0 001.466 0 1.035 1.035 0 000-1.466l-6.23-6.23z" fill="#1C1C1C"/></g><defs><clipPath id="fclip0_794_3344"><path fill="#fff" transform="translate(4 4)" d="M0 0h16v16H0z"/></clipPath></defs></symbol><symbol fill="none" viewBox="0 0 69 67" id="instagram-usage" xmlns="http://www.w3.org/2000/svg"><path d="M42.328 17.97H27.212a7.558 7.558 0 00-7.557 7.558v15.116a7.558 7.558 0 007.557 7.557h15.116a7.558 7.558 0 007.557-7.557V25.528a7.558 7.558 0 00-7.557-7.557z"/><path d="M40.816 32.133a6.046 6.046 0 11-11.96 1.774 6.046 6.046 0 0111.96-1.774z"/><path d="M43.083 24.773h.016M27.212 17.97h15.116a7.558 7.558 0 017.557 7.557v15.116a7.558 7.558 0 01-7.557 7.557H27.212a7.558 7.558 0 01-7.557-7.557V25.528a7.558 7.558 0 017.557-7.557zm13.604 14.162a6.046 6.046 0 11-11.96 1.774 6.046 6.046 0 0111.96-1.774z" stroke="#fff" stroke-width="2" stroke-linecap="round" stroke-linejoin="round"/></symbol><symbol viewBox="0 0 101 72" id="logo-lg-usage" xmlns="http://www.w3.org/2000/svg"><path d="M2.76 29.151c-.139-.513-.312-.899-.52-1.157a1.804 1.804 0 00-.676-.543 2.032 2.032 0 00-.816-.157H.645v-.352h10.16v.352h-.903c-.693 0-1.213.099-1.56.297-.346.199-.52.591-.52 1.175 0 .188.03.42.087.702.058.28.122.55.19.806l1.735 6.066c.185.608.393 1.338.624 2.192.23.853.462 1.69.694 2.507.23.818.415 1.496.555 2.034h.07c.068-.28.132-.527.19-.737l.173-.63c.058-.21.121-.433.19-.667l3.849-13.92h2.22l3.397 10.343c.139.42.277.848.416 1.28a97.266 97.266 0 01.814 2.682c.127.444.248.877.364 1.297h.104c.092-.397.22-.899.38-1.507.163-.607.342-1.256.538-1.945.196-.69.375-1.327.537-1.912l1.838-6.592a7.81 7.81 0 00.225-.964c.058-.34.087-.602.087-.79 0-.608-.19-1.046-.572-1.314-.381-.269-.954-.403-1.717-.403h-1.179v-.352h6.831v.352h-.59c-.415 0-.774.07-1.075.21-.3.14-.567.409-.797.807-.231.398-.45.982-.66 1.753l-4.369 15.673h-3.26L15.24 31.852 11.39 45.737H7.646L2.76 29.151zM51.953 46.087c-1.549 0-2.85-.346-3.9-1.035-1.053-.689-1.85-1.758-2.393-3.209-.544-1.449-.815-3.307-.815-5.575 0-2.266.271-4.113.815-5.54.543-1.426 1.329-2.484 2.358-3.174 1.028-.688 2.282-1.034 3.761-1.034 1.387 0 2.531.392 3.433 1.175.902.783 1.48 1.993 1.733 3.629h.07c0-.935-.006-1.807-.018-2.612-.011-.807-.017-1.52-.017-2.14v-4.995c0-.63-.138-1.099-.416-1.402a1.951 1.951 0 00-.988-.597 4.464 4.464 0 00-1.058-.14h-.415v-.35h8.148v24.019c0 .655.133 1.145.398 1.472.266.328.595.544.989.65.392.104.75.157 1.075.157h.415v.35h-8.113v-4.803h-.07c-.23 1.777-.797 3.08-1.698 3.909-.902.83-2 1.245-3.294 1.245zm1.456-.876c1.179 0 2.069-.794 2.67-2.385.6-1.589.901-3.938.901-7.047 0-1.846-.138-3.39-.416-4.629-.277-1.238-.682-2.174-1.213-2.805-.532-.63-1.202-.947-2.011-.947-.694 0-1.279.315-1.752.947-.474.631-.827 1.567-1.058 2.805-.23 1.24-.346 2.783-.346 4.629 0 2.08.121 3.821.364 5.224.242 1.402.607 2.454 1.092 3.156.486.7 1.076 1.052 1.769 1.052zM74.2 46.086c-2.035 0-3.55-.537-4.543-1.612-.994-1.076-1.49-2.793-1.49-5.155v-9.537c0-.724-.087-1.262-.26-1.614-.174-.35-.429-.584-.764-.7-.335-.117-.769-.175-1.3-.175h-.104v-.352h7.698v13.535c0 1.005.087 1.847.26 2.524.173.679.45 1.187.832 1.525.382.34.885.508 1.508.508.833 0 1.48-.28 1.942-.841.462-.562.786-1.344.972-2.35.184-1.005.277-2.161.277-3.471V29.57c0-.678-.133-1.175-.399-1.49a1.902 1.902 0 00-.97-.63 4.113 4.113 0 00-1.093-.159h-.139v-.35H84.5v16.304c0 .608.138 1.07.415 1.385a1.9 1.9 0 00.989.614c.382.093.733.14 1.057.14h.139v.35h-7.871v-3.296h-.07c-.207.772-.486 1.402-.832 1.894-.346.49-.74.859-1.179 1.104a4.602 4.602 0 01-1.421.508 8.28 8.28 0 01-1.527.142zM35.78 53.4c-3.005 0-5.282-.846-6.83-2.542-1.548-1.694-2.323-4.06-2.323-7.1 0-3.296.75-5.78 2.254-7.45 1.502-1.672 3.617-2.508 6.346-2.508 2.519 0 4.502.714 5.946 2.14 1.444 1.425 2.167 3.681 2.167 6.442 0 .392-.315.71-.702.71h-9.83a.84.84 0 00-.834.857c.034 1.971.187 3.597.46 4.876.313 1.462.81 2.525 1.492 3.191.68.667 1.565 1 2.652 1 .81 0 1.563-.14 2.202-.527 1.633-.986.696-2.678.696-3.72 0-.943.6-2.02 1.903-2.02 1.31 0 1.96.895 1.96 2.02 0 2.488-2.757 3.639-3.763 4.036-1.003.396-2.269.595-3.795.595zm1.453-10.659a.839.839 0 00.833-.852c-.02-1.73-.1-3.136-.238-4.214-.162-1.25-.45-2.151-.867-2.7-.416-.549-.994-.824-1.734-.824a2.35 2.35 0 00-1.838.824c-.486.55-.839 1.45-1.058 2.7-.19 1.076-.306 2.477-.349 4.203a.839.839 0 00.833.864h4.418zM93.349 9.534h-3.37c-2.96 0-5.359-2.426-5.359-5.418V.708h-.41v3.408c0 2.992-2.4 5.418-5.358 5.418h-3.37v.415h3.37c2.959 0 5.358 2.426 5.358 5.418v3.41h.41v-3.41c0-2.992 2.4-5.418 5.358-5.418h3.37v-.415z"/><path d="M88.362 55.044l-.397-.541c7.858-5.877 12.011-12.936 12.011-20.418 0-7.14-3.819-13.943-11.042-19.671l.412-.53c7.39 5.86 11.298 12.845 11.298 20.201-.001 7.704-4.248 14.951-12.282 20.96zM5.798 59.465l1.127.615c.114-.416-.093-.75-.438-.939-.292-.16-.57-.172-.87-.13l-.021-.6c.383-.129.863-.02 1.185.154.868.474 1.133 1.297.695 2.118-.399.746-1.214 1.073-2.072.605-.49-.267-.746-.591-.85-.957l.537-.267c.074.202.268.464.58.633.382.21.756.164 1.025-.176l-1.133-.619.235-.438zM8.411 59.525l2.375 1.138-.316.673-.85-.407-.92 1.961-.666-.319.92-1.962-.857-.41.314-.674zM12.549 61.336c.881.367 1.204 1.208.875 2.017-.328.807-1.143 1.176-2.025.81-.882-.368-1.204-1.208-.875-2.016.328-.81 1.142-1.178 2.025-.81zm-.89 2.185c.42.175.853-.003 1.042-.47.185-.455-.001-.896-.416-1.07-.402-.167-.844 0-1.034.466-.183.45-.006.902.408 1.074zM17.303 65.073l-1.198-.396-.342 1.058-.7-.231.894-2.769.7.231-.338 1.046 1.198.396.338-1.046.7.23-.894 2.77-.7-.231.342-1.058zM21.09 67.038c-.343.16-.768.162-1.157.053-.895-.249-1.334-1.003-1.092-1.89.223-.817.958-1.317 1.87-1.063.717.2 1.174.884.96 1.67-.049.176-.09.278-.15.375l-2.005-.56c-.054.443.216.767.654.888.34.095.657.049.854-.037l.066.564zm-1.468-1.9l1.365.38c.1-.34-.061-.675-.469-.789-.426-.12-.721.06-.896.41zM24.025 65.068l.651.137.714 1.394 1.155-1.002.633.134-.586 2.853-.722-.152.36-1.744-1.053.89-.019-.004-.64-1.246-.358 1.744-.721-.151.586-2.853zM28.043 66.089a2.11 2.11 0 011.048-.108c.841.139 1.068.623.944 1.383l-.283 1.75-.632-.104.054-.332c-.186.193-.515.296-.9.232-.518-.086-.839-.473-.75-1.03.104-.632.613-.856 1.188-.762.253.042.492.167.614.292.096-.476.013-.759-.41-.829-.329-.054-.554.014-.778.075l-.096-.567zm1.164 2.07l.047-.294c-.11-.117-.268-.189-.476-.223-.24-.04-.474.04-.513.282-.035.217.122.368.35.406.302.05.482-.058.592-.171zM31.02 66.352l1.919.255-.09.694-1.188-.158-.287 2.196-.73-.097.377-2.89zM33.175 69.573l.278-2.902.733.072-.176 1.837 1.516-1.706.732.072-.278 2.902-.733-.072.177-1.837-1.516 1.706-.733-.072zM39.487 67.15l-.169 2.91-.735-.044.051-.874-.409-.024-.645.838-.844-.05.827-.988a.872.872 0 01-.507-.873c.033-.563.456-1.011 1.492-.95l.939.055zm-1.206 1.421l.384.023.049-.841-.326-.02c-.358-.021-.537.19-.55.41-.014.239.214.414.443.428zM40.69 69.22c.346.012.553.324.54.744-.018.55-.338.941-.849 1.073l-.187-.356a.617.617 0 00.403-.33c.061-.121.09-.23.067-.295-.04.05-.116.047-.167.046-.167-.005-.322-.186-.313-.425.007-.272.186-.467.506-.456zM43.688 68.444l1.281-.012c-.1-.42-.44-.61-.831-.607-.333.003-.582.128-.823.311l-.305-.514c.272-.301.745-.441 1.11-.444.986-.009 1.611.58 1.62 1.513.008.848-.55 1.533-1.523 1.542-.556.004-.936-.154-1.2-.424l.341-.495c.16.141.457.274.809.27.434-.003.74-.226.813-.654l-1.287.011-.005-.497zM46.008 67.23l2.624-.097.027.745-.941.035.079 2.168-.736.027-.08-2.168-.947.035-.026-.745zM50.498 66.943c.95-.068 1.609.541 1.67 1.413.06.872-.508 1.566-1.459 1.634-.952.068-1.609-.54-1.67-1.413-.06-.87.508-1.566 1.459-1.634zm.164 2.356c.453-.032.762-.385.728-.888-.035-.49-.397-.803-.843-.77-.434.03-.757.377-.722.88.033.486.39.81.837.778zM54.18 66.689l.66-.087 1.127 1.08.766-1.328.642-.084.37 2.89-.73.096-.226-1.767-.707 1.19-.019.004-1.008-.966.227 1.766-.73.096-.372-2.89zM58.309 66.324c.22-.19.585-.384.956-.448.84-.145 1.21.236 1.339.996l.297 1.749-.631.11-.056-.332c-.114.243-.392.449-.777.516-.517.09-.945-.172-1.039-.726-.108-.632.302-1.012.877-1.112.252-.043.519-.004.674.074-.061-.481-.232-.722-.655-.648-.328.057-.519.196-.711.327l-.274-.506zm1.767 1.573l-.05-.294c-.142-.074-.314-.09-.522-.054-.24.042-.435.194-.394.436.037.217.234.308.461.269.304-.053.439-.214.505-.357zM61.217 65.599l.72-.155.057.272c.135-.227.435-.451.8-.529.776-.167 1.405.332 1.582 1.175.183.868-.264 1.666-1.165 1.86-.25.055-.505.063-.687.002l.28 1.336-.72.155-.867-4.116zm.915.77l.242 1.152a.993.993 0 00.63.036c.501-.108.712-.538.611-1.012-.096-.456-.428-.73-.905-.626a.887.887 0 00-.578.45zM64.766 64.815l.712-.187.722 2.82-.713.188-.721-2.82zm1.91.93l1.581 1.164-.93.244-1.467-1.134.647-1.66.898-.236-.73 1.623zM70.96 65.775c-.204.32-.563.553-.95.672-.888.273-1.657-.126-1.921-1.005-.245-.812.11-1.631 1.017-1.91.71-.22 1.459.111 1.695.892.052.173.071.282.072.397l-1.99.613c.188.402.588.53 1.023.395.337-.103.581-.314.701-.493l.353.44zm-2.246-.811l1.353-.417c-.096-.342-.41-.537-.813-.412-.422.13-.575.441-.54.829zM70.738 63.092l2.477-.881.245.703-.888.316.712 2.046-.695.248-.712-2.047-.894.318-.245-.703zM74.84 64.707L73.75 62.01l.681-.28.69 1.708.556-2.222.681-.28 1.088 2.697-.681.281-.689-1.709-.555 2.222-.683.281zM79.732 61.322l-1.138.552.476 1.004-.664.322-1.246-2.627.664-.322.47.992 1.138-.551-.47-.993.664-.322 1.245 2.627-.664.323-.475-1.005zM80.404 58.96l1.695-.94.333.612-1.049.582 1.053 1.94-.645.359-1.387-2.554z"/></symbol><symbol viewBox="0 0 64 66" id="logo-usage" xmlns="http://www.w3.org/2000/svg"><path d="M1.442 34.52l.054.916c.271-.088.384-.34.367-.62a.992.992 0 00-.234-.577L1.954 34c.207.183.315.516.331.778.042.705-.321 1.177-.93 1.22-.553.038-1.022-.334-1.063-1.031-.023-.399.066-.677.233-.877l.336.225a.963.963 0 00-.148.59c.019.313.176.522.458.558l-.054-.921.325-.023zM2.058 36l.23 1.927-.473.073-.083-.69-1.38.214-.064-.54 1.38-.215-.083-.696.473-.073zM3.259 39.796c.133.593-.197 1.063-.752 1.179-.556.117-1.056-.179-1.19-.771-.132-.593.198-1.063.753-1.179.555-.117 1.057.178 1.189.771zm-1.501.315c.063.283.32.445.64.378.313-.066.48-.321.417-.6-.06-.27-.314-.442-.635-.375-.308.065-.484.319-.422.597zM2.695 44.1l-.345-1.01-.86.308-.202-.59L3.541 42l.201.59-.85.306.344 1.011.851-.305.201.59L2.036 45l-.202-.59.861-.31zM3.908 47c-.223-.107-.403-.322-.512-.564-.25-.557-.056-1.092.489-1.338.503-.227 1.062-.062 1.317.507.2.446.05.963-.435 1.18a.89.89 0 01-.25.08l-.561-1.25c-.245.156-.293.427-.17.7a.876.876 0 00.376.418L3.908 47zm.337-1.532l.382.85c.212-.092.313-.313.198-.566-.119-.266-.333-.34-.58-.284zM6.074 48l.25.401-.375 1.033 1.096.118.243.39L5.504 51l-.278-.444 1.09-.647-.987-.119-.008-.011.336-.924-1.09.647-.279-.445L6.074 48zM7.567 50c.171.068.387.212.531.394.325.412.214.712-.182.983l-.91.623-.243-.31.172-.117c-.17.003-.368-.091-.517-.28-.2-.254-.174-.553.114-.75.329-.226.663-.107.885.175a.69.69 0 01.153.381c.256-.161.344-.316.18-.523-.127-.161-.26-.227-.39-.295L7.566 50zm-.386 1.365l.153-.104a.47.47 0 00-.12-.295c-.092-.117-.235-.182-.361-.096-.113.078-.108.208-.02.319a.414.414 0 00.348.176zM9.204 52l1.084 1.222-.46.368-.67-.757L7.7 54l-.413-.466L9.204 52zM9.288 54.5l1.534-1.5.384.392-.971.95 1.67-.234.383.391L10.755 56l-.383-.392.971-.95-1.67.234-.385-.391zM13.288 56.676L11.817 58l-.435-.293.441-.397-.242-.163-.793.16-.5-.336.977-.165c-.102-.141-.146-.386.096-.605.285-.256.758-.313 1.37.1l.557.375zm-1.413.231l.227.153.425-.383-.193-.13c-.212-.142-.421-.108-.533-.008-.121.109-.062.276.074.368zM13.153 58.081c.183.142.176.39.007.613a.716.716 0 01-.872.248l.035-.266a.406.406 0 00.345-.021c.08-.042.137-.09.15-.133-.041.011-.082-.02-.11-.041-.088-.068-.102-.226-.006-.352.109-.143.28-.179.45-.048zM15.113 58.693l.685.44c.09-.258-.026-.477-.234-.611a.836.836 0 00-.545-.122l.014-.379c.248-.064.547.026.742.151.528.339.66.87.345 1.366-.286.452-.817.62-1.337.287-.298-.192-.446-.408-.495-.642l.351-.144c.038.131.15.305.338.426.233.149.471.138.656-.064l-.688-.442.168-.266zM17.666 59l1.622.748-.246.389-.582-.268L17.743 61l-.455-.21.717-1.132-.585-.27.246-.388zM20.677 60.104c.553.25.743.796.52 1.309-.222.512-.744.734-1.297.484-.553-.252-.743-.797-.52-1.31.22-.512.744-.735 1.297-.483zm-.601 1.386c.263.12.54.013.669-.283.125-.289.014-.576-.246-.694-.252-.114-.535-.015-.664.281-.123.285-.02.578.24.696zM22.92 62l.49.155.457 1.168.946-.726.475.15L24.66 65l-.542-.171.384-1.377-.861.644-.015-.005-.41-1.044-.385 1.376-.542-.17L22.92 62zM25.756 63.066c.212-.06.526-.09.811-.042.643.108.803.416.686.888L26.983 65l-.483-.081.051-.207c-.15.116-.405.172-.7.122-.396-.067-.631-.317-.545-.662.098-.393.497-.52.936-.447a.995.995 0 01.465.198c.088-.295.032-.474-.292-.528-.251-.042-.427-.005-.6.027l-.059-.356zm.834 1.322l.045-.183a.68.68 0 00-.36-.151c-.184-.032-.366.013-.403.163-.034.135.083.234.257.263.232.04.374-.024.46-.092zM27.595 63l.449.062-.02.195c.123-.12.34-.2.567-.169.483.068.75.545.688 1.146-.064.62-.48 1.047-1.043.97a.796.796 0 01-.4-.157l-.099.953-.449-.062.307-2.938zm.38.723l-.086.822c.111.108.21.149.358.17.312.043.52-.194.555-.533.034-.326-.106-.583-.403-.625a.502.502 0 00-.425.166zM30.36 63l.515.017-.072 1.931-.515-.017.073-1.931zm1.098.957l.83 1.043-.671-.023-.76-1.002.76-.932.649.023-.808.891zM35.16 64.732c-.193.168-.473.256-.754.267-.643.025-1.091-.356-1.117-.957-.023-.555.356-1.016 1.014-1.041.515-.02.96.314.984.848.005.119-.001.19-.02.264l-1.443.056c.057.286.304.434.619.422a.952.952 0 00.556-.196l.16.337zm-1.367-.889l.98-.038c-.005-.234-.182-.41-.475-.397-.306.012-.463.183-.506.435zM35.288 63.199L37.226 63l.062.479-.694.07.184 1.396-.544.055-.184-1.395-.699.072-.063-.478zM37.627 64l-.339-1.674.435-.085.214 1.06.579-1.216.434-.085.338 1.674-.434.085-.214-1.06-.58 1.216-.433.085zM42.4 63.625l-1.057.302.272.897-.617.176-.71-2.346.617-.176.268.886 1.057-.301-.268-.887.617-.176.71 2.346-.617.176-.272-.897zM42.288 61.404L44.051 61l.237.383-1.091.25.75 1.213-.67.154-.989-1.596zM13.99 12.763c-.11-.41-.25-.718-.418-.923a1.449 1.449 0 00-.544-.434 1.647 1.647 0 00-.656-.126h-.084V11h8.177v.28h-.726c-.558 0-.976.08-1.255.238-.279.159-.418.471-.418.938 0 .15.023.335.07.56.046.223.097.438.153.643l1.395 4.841c.15.486.316 1.068.502 1.75.186.68.372 1.348.559 2 .186.653.334 1.195.447 1.623h.055c.056-.223.107-.42.154-.588l.14-.503a28.1 28.1 0 01.153-.532l3.097-11.11h1.786l2.735 8.256a76.15 76.15 0 011.283 4.197h.083c.075-.317.177-.718.307-1.203a93.3 93.3 0 01.432-1.553c.158-.55.302-1.058.432-1.525l1.48-5.261a6.16 6.16 0 00.181-.77c.047-.27.07-.48.07-.63 0-.485-.154-.835-.46-1.05-.307-.213-.768-.32-1.382-.32h-.947V11h5.497v.28h-.474c-.335 0-.624.056-.866.168-.242.112-.456.326-.642.644s-.362.784-.53 1.4L30.259 26h-2.623l-3.6-11.082-3.097 11.081h-3.014l-3.934-13.236zM20.895 49c-1.221 0-2.248-.269-3.076-.805-.83-.536-1.46-1.367-1.888-2.495-.429-1.127-.643-2.573-.643-4.337 0-1.763.214-3.2.643-4.31.429-1.108 1.049-1.93 1.86-2.468.812-.535 1.8-.804 2.968-.804 1.093 0 1.996.305 2.707.913.712.61 1.167 1.55 1.367 2.823h.055c0-.727-.004-1.405-.014-2.032-.009-.627-.013-1.181-.013-1.663v-3.886c0-.491-.11-.854-.328-1.09a1.543 1.543 0 00-.78-.465 3.57 3.57 0 00-.834-.108h-.328V28h6.428v18.682c0 .51.104.891.314 1.145.21.256.469.424.78.505.31.082.592.123.847.123h.328v.273h-6.4V44.99h-.055c-.182 1.382-.629 2.396-1.34 3.04-.71.647-1.577.969-2.598.969zm1.149-.681c.93 0 1.632-.618 2.106-1.855.473-1.236.71-3.063.71-5.482 0-1.435-.108-2.636-.327-3.6-.219-.963-.538-1.69-.957-2.182a1.998 1.998 0 00-1.587-.736c-.547 0-1.008.245-1.381.736-.375.491-.653 1.219-.835 2.182-.182.964-.273 2.165-.273 3.6 0 1.619.096 2.973.287 4.064.191 1.09.479 1.909.861 2.455.384.544.85.818 1.396.818zM39.022 50c-1.62 0-2.825-.42-3.615-1.263-.792-.843-1.187-2.189-1.187-4.039v-7.472c0-.567-.069-.989-.207-1.264a1.047 1.047 0 00-.607-.549c-.267-.091-.612-.137-1.035-.137h-.083v-.275h6.127v10.604c0 .787.069 1.447.207 1.977.138.532.358.93.662 1.195.304.266.704.398 1.2.398.663 0 1.178-.22 1.546-.66.368-.44.625-1.052.773-1.84.147-.787.22-1.693.22-2.72V37.06c0-.53-.105-.92-.316-1.167a1.517 1.517 0 00-.773-.494 3.327 3.327 0 00-.87-.124h-.11V35h6.265v12.774c0 .476.11.838.33 1.085.221.247.484.407.787.48.304.074.584.11.842.11h.11v.275h-6.264v-2.582h-.055c-.166.604-.387 1.098-.663 1.483s-.589.674-.938.866a3.7 3.7 0 01-1.132.398c-.405.074-.81.111-1.214.111zM39.408 32c-2.337 0-4.108-.648-5.313-1.945-1.204-1.297-1.807-3.108-1.807-5.434 0-2.523.584-4.424 1.753-5.702C35.21 17.639 36.855 17 38.977 17c1.96 0 3.502.546 4.626 1.637 1.123 1.091 1.685 2.818 1.685 4.93 0 .3-.244.544-.546.544h-7.646a.647.647 0 00-.649.656c.026 1.509.146 2.752.359 3.732.242 1.118.63 1.932 1.16 2.442.53.51 1.217.765 2.062.765.63 0 1.216-.107 1.713-.403 1.27-.755.542-2.05.542-2.847 0-.722.467-1.546 1.48-1.546 1.019 0 1.524.685 1.524 1.546 0 1.904-2.144 2.784-2.926 3.088-.781.304-1.765.456-2.953.456zm1.13-8.157c.36 0 .651-.294.647-.652-.015-1.325-.077-2.4-.185-3.225-.126-.957-.35-1.646-.675-2.066-.323-.42-.773-.631-1.348-.631a1.84 1.84 0 00-1.43.63c-.378.421-.652 1.11-.823 2.067-.147.823-.238 1.896-.27 3.216a.646.646 0 00.647.661h3.436zM56.288 6.839h-2.64a4.199 4.199 0 01-4.2-4.198V0h-.32v2.64a4.199 4.199 0 01-4.199 4.199h-2.64v.321h2.64a4.199 4.199 0 014.199 4.199V14h.32v-2.641a4.199 4.199 0 014.2-4.199h2.64V6.84z"/><path d="M50.586 58l-.298-.398a30.765 30.765 0 009.093-10.535c2.26-4.324 3.406-9 3.406-13.9 0-8.718-3.805-17.027-10.44-22.796l.33-.371c6.744 5.862 10.611 14.306 10.611 23.167 0 4.979-1.164 9.732-3.461 14.127A31.258 31.258 0 0150.587 58z"/></symbol><symbol viewBox="0 0 69 67" id="odnoklassniki-usage" xmlns="http://www.w3.org/2000/svg"><path d="M34.508 13.086c-5.728 0-10.37 4.643-10.37 10.37 0 5.727 4.642 10.37 10.37 10.37 5.727 0 10.37-4.643 10.37-10.37 0-5.727-4.643-10.37-10.37-10.37zm0 14.657a4.287 4.287 0 110-8.574 4.287 4.287 0 010 8.574zM38.338 42.06c4.151-.846 6.639-2.812 6.77-2.917a2.82 2.82 0 00-3.527-4.4c-.026.02-2.68 2.056-7.045 2.06-4.366-.004-7.076-2.04-7.101-2.06a2.82 2.82 0 00-3.528 4.4c.133.107 2.724 2.124 6.992 2.95l-5.948 6.216a2.82 2.82 0 104.06 3.914l5.525-5.886 6.084 5.925a2.82 2.82 0 103.984-3.991l-6.266-6.21zM34.536 36.802c-.007 0 .006 0 0 0-.007 0 .007 0 0 0z"/></symbol><symbol fill="none" viewBox="0 0 103 103" id="ok-usage" xmlns="http://www.w3.org/2000/svg"><g filter="url(#kfilter0_bd_338_3463)"><rect x="24.949" y="20.694" width="54" height="54" rx="27" fill="#fff" fill-opacity=".28" shape-rendering="crispEdges"/><path d="M63.072 33.572l-16.825 17.24-5.457-5.59-5.352 5.483 5.457 5.592 5.387 5.52 5.352-5.485 16.825-17.24-5.387-5.52z" fill="#A0D911"/></g><defs><filter id="kfilter0_bd_338_3463" x=".949" y=".694" width="102" height="102" filterUnits="userSpaceOnUse" color-interpolation-filters="sRGB"><feFlood flood-opacity="0" result="BackgroundImageFix"/><feGaussianBlur in="BackgroundImage" stdDeviation="5"/><feComposite in2="SourceAlpha" operator="in" result="effect1_backgroundBlur_338_3463"/><feColorMatrix in="SourceAlpha" values="0 0 0 0 0 0 0 0 0 0 0 0 0 0 0 0 0 0 127 0" result="hardAlpha"/><feOffset dy="4"/><feGaussianBlur stdDeviation="12"/><feComposite in2="hardAlpha" operator="out"/><feColorMatrix values="0 0 0 0 0.647059 0 0 0 0 0.215686 0 0 0 0 0.509804 0 0 0 0.1 0"/><feBlend in2="effect1_backgroundBlur_338_3463" result="effect2_dropShadow_338_3463"/><feBlend in="SourceGraphic" in2="effect2_dropShadow_338_3463" result="shape"/></filter></defs></symbol><symbol viewBox="0 0 104 104" id="round-logo-usage" xmlns="http://www.w3.org/2000/svg"><path d="M96.29 31.773c.2-.122.345-.245.434-.37a.693.693 0 00.151-.426 1.502 1.502 0 00-.063-.536l-.055-.202.763-.209 1.327 4.86-.762.21-.098-.36c-.085-.31-.211-.527-.378-.65-.157-.124-.365-.15-.624-.08a1.744 1.744 0 00-.198.072c-.078.043-.16.088-.248.134-.088.047-.17.091-.248.135l-3.796 2.328a34.3 34.3 0 01-.819.492c-.288.168-.575.325-.859.47-.28.154-.536.28-.766.377l1.157-.05c.389-.005.79-.003 1.206.006l7.2.155.307 1.122-5.674 3.78c-.298.215-.6.415-.907.6-.306.184-.59.35-.85.5-.26.15-.49.268-.689.356l.872-.055c.32-.01.651-.022.993-.037.352-.018.705-.031 1.06-.039l4.187-.04c.133-.004.286-.012.46-.027.189-.006.324-.021.407-.044.27-.073.439-.21.508-.406.068-.198.056-.468-.038-.81l-.098-.359.763-.209L102 46.434l-.763.208-.08-.296a1.348 1.348 0 00-.234-.488c-.092-.131-.24-.225-.445-.28-.204-.056-.49-.084-.859-.083l-9.815.007-.447-1.635 7.137-4.733-8.473-.159-.477-1.745 8.746-5.457zM90.33 49.227l.79.044-.028.5c-.01.183.002.35.036.503a.667.667 0 00.253.386c.145.106.363.166.653.183l7.844.439c.323.018.561-.017.717-.106a.588.588 0 00.31-.338c.062-.148.099-.318.109-.512l.028-.5.79.044-.482 8.627-2.92-.082.056-1.016.746-.04c.259-.007.482-.053.67-.14a1.05 1.05 0 00.456-.346c.116-.156.182-.362.196-.62l.151-2.71-4.123-.23-.215 3.838-.902-.05.215-3.838-4.64-.26-.177 3.176c-.014.258.028.471.126.638.108.179.251.322.428.429.188.107.4.184.634.23l.735.154-.057 1.015-2.91-.276.511-9.142zM89.091 62.42l.724.317-.2.459a1.886 1.886 0 00-.15.499c-.01.16.036.31.139.449.109.153.306.293.592.418l7.18 3.152c.276.121.498.166.664.133a.65.65 0 00.415-.223c.1-.121.187-.265.26-.433l.201-.458.724.317-2.08 4.748c-.466 1.065-1.06 1.886-1.783 2.462-.717.59-1.548.92-2.493.986-.946.067-1.98-.146-3.103-.638-1.073-.472-1.93-1.077-2.569-1.816a4.642 4.642 0 01-1.152-2.516c-.125-.949.06-1.99.558-3.124l2.073-4.733zm-1.074 4.783c-.315.72-.4 1.394-.252 2.023.153.643.517 1.232 1.093 1.767.572.545 1.335 1.027 2.29 1.447.956.42 1.803.644 2.541.674.744.045 1.38-.105 1.907-.45.532-.33.954-.851 1.265-1.56l.447-1.021-8.85-3.886-.441 1.006zM81.013 76.73c.577-.696 1.167-1.214 1.77-1.553.602-.339 1.22-.469 1.853-.39.634.078 1.286.396 1.956.953l4.78 3.971c.232.193.432.296.602.311a.65.65 0 00.46-.1c.13-.088.252-.203.37-.344l.319-.385.608.505-3.338 4.027-.609-.506.32-.385c.116-.14.206-.29.267-.45a.65.65 0 00.014-.47c-.061-.163-.216-.348-.464-.554l-4.817-4.002c-.472-.392-.917-.622-1.336-.69a1.881 1.881 0 00-1.162.189c-.357.193-.693.48-1.009.862-.343.414-.561.82-.654 1.22-.1.406-.067.797.097 1.171.158.383.436.74.833 1.07l4.904 4.074c.231.192.432.296.601.31a.65.65 0 00.46-.1 1.82 1.82 0 00.37-.343l.32-.386.608.506-2.659 3.206-.608-.505.33-.398c.11-.133.195-.278.257-.437a.59.59 0 00.014-.471c-.061-.163-.216-.347-.464-.554l-4.88-4.053c-.546-.454-.929-.961-1.149-1.522-.212-.553-.236-1.147-.074-1.782.163-.634.533-1.3 1.11-1.995zM69.637 97.79c.115.206.233.354.355.447a.69.69 0 00.42.166c.149.02.328.006.537-.044l.204-.048.182.77-4.898 1.161-.182-.77.361-.086c.314-.074.535-.193.662-.356.13-.152.163-.36.101-.621a1.768 1.768 0 00-.064-.2 11.2 11.2 0 01-.126-.253 10.4 10.4 0 00-.126-.252l-2.194-3.878c-.15-.263-.305-.542-.463-.836a17.364 17.364 0 01-.439-.876 8.073 8.073 0 01-.35-.78l.009 1.16c-.008.39-.023.791-.046 1.206l-.403 7.199-1.13.268-3.58-5.807a12.868 12.868 0 01-.567-.928c-.173-.313-.33-.602-.47-.867-.14-.266-.251-.5-.332-.702l.024.874c-.001.321 0 .653.004.995.006.353.006.707.002 1.062l-.103 4.19a7.79 7.79 0 00.01.462c0 .188.01.324.03.408.065.272.194.446.389.522.195.075.465.072.81-.01l.361-.085.182.77-4.003.949-.182-.77.298-.071c.2-.047.364-.119.496-.217.134-.087.233-.232.295-.435.063-.203.1-.488.112-.856l.33-9.82 1.648-.392 4.48 7.303.45-8.471 1.758-.417 5.148 8.936zM52.475 91.214l-.07.789-.499-.045a1.818 1.818 0 00-.504.02.666.666 0 00-.394.24c-.11.142-.177.358-.203.647l-.698 7.834c-.029.322-.002.562.081.721a.592.592 0 00.328.321c.145.067.314.109.507.126l.498.045-.07.788-8.597-.768.179-2.919 1.012.09.015.748c-.002.259.038.484.118.675.07.19.18.346.33.467.152.122.356.194.613.217l2.7.241.367-4.118-3.825-.341.08-.901 3.825.342.413-4.633-3.166-.283c-.257-.023-.47.012-.64.105-.183.103-.33.24-.443.415a2.054 2.054 0 00-.25.626l-.178.73-1.013-.09.372-2.902 9.112.813zM39.393 89.552l-.342.714-.45-.216a1.882 1.882 0 00-.494-.165.656.656 0 00-.453.124c-.157.104-.302.297-.437.578l-3.383 7.081c-.13.272-.181.492-.154.66a.65.65 0 00.21.423c.117.103.258.195.423.274l.451.216-.341.714-4.672-2.237c-1.048-.501-1.848-1.123-2.4-1.865a4.313 4.313 0 01-.903-2.526c-.036-.948.21-1.976.74-3.083.506-1.059 1.138-1.896 1.897-2.511.749-.62 1.6-.977 2.55-1.071.95-.094 1.984.126 3.1.66l4.658 2.23zm-4.741-1.231c-.709-.34-1.38-.445-2.012-.319-.647.132-1.247.477-1.8 1.036-.563.554-1.07 1.302-1.52 2.245-.45.942-.702 1.782-.756 2.52-.07.742.06 1.383.387 1.921.313.544.818.983 1.517 1.317l1.004.48 4.17-8.726-.99-.474zM25.41 81.043c.676.6 1.173 1.208 1.491 1.822.318.614.427 1.237.328 1.868-.1.632-.44 1.273-1.018 1.925l-4.125 4.648c-.2.226-.31.423-.331.592a.65.65 0 00.084.464c.084.132.195.26.332.38l.373.333-.525.592-3.907-3.475.525-.592.373.333c.137.121.284.216.44.283a.649.649 0 00.47.029c.164-.056.354-.204.568-.446l4.157-4.684c.408-.459.652-.897.734-1.313a1.886 1.886 0 00-.149-1.17c-.181-.363-.457-.709-.827-1.038-.402-.357-.8-.589-1.195-.695a1.778 1.778 0 00-1.174.058c-.387.145-.752.41-1.095.797l-4.233 4.769c-.2.225-.31.422-.33.591a.65.65 0 00.084.464c.084.133.194.26.331.381l.374.333-.525.591-3.112-2.767.525-.591.386.343c.129.114.271.205.428.272.149.075.306.085.47.03.164-.056.354-.205.568-.446l4.21-4.745c.472-.531.992-.898 1.559-1.1.56-.192 1.154-.197 1.782-.013.628.184 1.28.576 1.955 1.177zM4.694 68.944a1.444 1.444 0 00-.458.339.692.692 0 00-.18.415c-.026.148-.017.327.025.539l.042.205-.775.156-.992-4.94.775-.156.073.365c.064.316.175.541.333.674.148.135.353.176.617.123.053-.01.12-.03.202-.058.08-.037.166-.077.257-.117.09-.04.176-.08.256-.117l3.946-2.063c.268-.142.552-.287.851-.435.3-.148.596-.284.889-.409a8.04 8.04 0 01.79-.324l-1.158-.03a32.26 32.26 0 01-1.202-.088l-7.173-.649-.23-1.14 5.92-3.382c.312-.194.628-.373.946-.536.318-.163.612-.31.882-.44a7.53 7.53 0 01.712-.309l-.873-.005c-.321-.013-.652-.023-.994-.03a35.614 35.614 0 01-1.06-.035l-4.18-.246a7.837 7.837 0 00-.462-.006c-.187-.006-.323 0-.408.016-.274.056-.452.18-.534.371-.082.193-.088.463-.018.811l.073.364-.775.156L0 53.926l.775-.156.06.3c.04.201.107.37.2.504.083.137.224.24.425.31.2.07.484.117.85.142l9.794.665.334 1.663-7.444 4.232 8.442.74.356 1.773-9.098 4.845zM11.818 52.067l-.785-.097.061-.497c.023-.181.022-.35-.003-.504a.667.667 0 00-.227-.403c-.138-.114-.35-.189-.639-.224l-7.798-.957c-.32-.04-.561-.02-.723.057a.588.588 0 00-.331.318c-.072.143-.12.31-.143.503l-.06.497-.785-.097 1.05-8.576 2.908.276-.124 1.01-.746-.01a1.705 1.705 0 00-.678.095 1.048 1.048 0 00-.478.316c-.126.147-.205.349-.236.605l-.33 2.694 4.1.503.467-3.816.896.11-.467 3.816 4.612.566.387-3.158c.031-.257.003-.472-.084-.645a1.252 1.252 0 00-.4-.456c-.18-.12-.385-.21-.616-.27l-.723-.203.124-1.01 2.884.468-1.113 9.089zM13.831 39.097l-.701-.364.23-.444c.09-.172.15-.335.18-.489a.658.658 0 00-.107-.457c-.1-.16-.287-.312-.564-.456L5.911 33.27c-.268-.139-.486-.197-.654-.176a.648.648 0 00-.429.196 1.82 1.82 0 00-.288.414l-.23.445-.702-.365 2.387-4.6c.535-1.033 1.182-1.813 1.94-2.34a4.303 4.303 0 012.553-.821c.947-.005 1.966.276 3.054.841 1.04.54 1.855 1.201 2.444 1.98.595.77.923 1.633.986 2.587.062.954-.192 1.981-.762 3.08l-2.379 4.586zm1.385-4.702c.362-.698.49-1.365.385-2.003-.11-.651-.436-1.263-.976-1.835-.534-.58-1.265-1.112-2.19-1.593-.926-.482-1.757-.761-2.492-.84-.739-.093-1.383.015-1.931.324-.553.295-1.008.787-1.365 1.475l-.513.989 8.577 4.457.505-.974zM22.781 25.318c-.622.656-1.245 1.132-1.87 1.43-.623.297-1.249.386-1.876.264-.627-.12-1.256-.482-1.887-1.083l-4.502-4.284c-.218-.207-.411-.324-.58-.35a.648.648 0 00-.465.069c-.135.08-.266.185-.392.318l-.344.363-.573-.546 3.601-3.792.573.545-.345.363a1.623 1.623 0 00-.297.43.65.65 0 00-.045.47c.05.166.192.36.426.583l4.536 4.318c.445.422.874.682 1.287.778a1.88 1.88 0 001.173-.11c.368-.169.723-.433 1.064-.792.37-.39.615-.781.735-1.172.126-.4.12-.792-.019-1.177-.132-.392-.384-.767-.759-1.123l-4.618-4.395c-.218-.207-.412-.325-.58-.35a.649.649 0 00-.466.068c-.135.08-.265.186-.391.319l-.345.362-.573-.545 2.868-3.02.573.546-.356.374a1.572 1.572 0 00-.286.419.59.59 0 00-.045.47c.05.165.192.36.426.582l4.595 4.373c.514.49.863 1.022 1.044 1.596.175.567.16 1.161-.046 1.783-.205.622-.618 1.26-1.24 1.916zM30.923 6.716a1.446 1.446 0 00-.37-.435.69.69 0 00-.426-.15 1.498 1.498 0 00-.535.062l-.202.055-.209-.763 4.856-1.329.208.763-.358.098c-.31.085-.527.212-.649.379-.124.157-.151.365-.08.625.014.051.038.118.07.198.044.077.09.16.135.248l.135.247 2.326 3.8c.16.258.323.532.491.82.168.29.325.576.47.86.154.281.28.537.376.767l-.049-1.158c-.006-.39-.004-.792.005-1.207l.155-7.208 1.12-.307 3.777 5.68c.215.299.415.601.599.908.184.307.35.59.5.85.15.261.268.491.355.69l-.054-.872c-.01-.321-.022-.653-.037-.994a35.789 35.789 0 01-.04-1.061l-.04-4.191a7.83 7.83 0 00-.026-.462 1.98 1.98 0 00-.044-.407c-.073-.27-.209-.44-.406-.508-.197-.069-.467-.056-.81.037l-.357.098-.209-.763L45.568 1l.209.763-.296.081c-.197.054-.36.132-.488.234-.13.092-.224.24-.28.445-.055.205-.083.492-.083.86l.008 9.826-1.634.447-4.728-7.144-.159 8.481-1.743.477-5.451-8.754zM48.375 12.652l.044-.79.5.028c.182.01.35-.002.503-.036a.667.667 0 00.386-.254c.105-.145.165-.362.181-.653l.439-7.852c.018-.323-.017-.562-.105-.718a.588.588 0 00-.339-.31 1.528 1.528 0 00-.51-.11l-.5-.027.044-.79 8.618.482-.082 2.923-1.015-.057-.04-.746a1.71 1.71 0 00-.14-.671 1.05 1.05 0 00-.346-.456c-.155-.117-.361-.182-.619-.197l-2.706-.151-.23 4.128 3.833.214-.05.903-3.834-.214-.26 4.643 3.174.178c.258.015.47-.027.637-.126.179-.109.321-.252.428-.429.107-.188.184-.4.23-.634l.154-.736 1.014.057-.275 2.913-9.134-.512zM61.483 13.834l.318-.725.458.201c.177.078.343.127.499.148a.656.656 0 00.448-.138c.153-.109.292-.306.418-.592l3.149-7.188c.12-.276.165-.498.133-.665a.65.65 0 00-.224-.415c-.12-.1-.264-.187-.432-.26l-.458-.202.318-.724 4.742 2.082c1.064.467 1.884 1.062 2.46 1.785.59.717.918 1.549.985 2.495.067.947-.146 1.982-.638 3.106-.47 1.075-1.076 1.932-1.814 2.572a4.633 4.633 0 01-2.514 1.154c-.947.125-1.987-.061-3.12-.559l-4.728-2.075zm4.78 1.075c.718.315 1.392.4 2.02.252.643-.153 1.231-.518 1.766-1.094.544-.572 1.025-1.337 1.444-2.293.42-.957.644-1.804.674-2.544.045-.744-.105-1.38-.45-1.908-.33-.533-.85-.955-1.559-1.266l-1.02-.448-3.88 8.86 1.004.44zM75.778 21.862c-.695-.577-1.212-1.168-1.55-1.77-.34-.604-.47-1.223-.39-1.857.078-.634.395-1.287.952-1.958l3.966-4.784c.193-.232.296-.433.311-.603a.65.65 0 00-.1-.46 1.82 1.82 0 00-.344-.37l-.385-.32.505-.609 4.023 3.342-.505.609-.385-.32a1.621 1.621 0 00-.449-.268.649.649 0 00-.47-.013c-.163.06-.347.215-.553.464l-3.998 4.822c-.392.472-.622.918-.69 1.337-.06.41.002.799.189 1.164.193.356.48.693.861 1.01.414.343.82.561 1.218.654.407.1.797.068 1.171-.097.383-.158.739-.436 1.069-.834l4.07-4.908c.192-.232.295-.433.31-.603a.65.65 0 00-.1-.46 1.816 1.816 0 00-.344-.37l-.385-.32.505-.609 3.203 2.661-.505.61-.397-.33a1.57 1.57 0 00-.436-.259.589.589 0 00-.471-.013c-.163.06-.347.216-.553.464l-4.05 4.884c-.452.547-.96.93-1.52 1.15-.552.213-1.146.238-1.78.075-.633-.163-1.298-.533-1.993-1.11zM73.396 51.213h-8.38c-7.357 0-13.322-7.064-13.322-15.777v-9.923h-1.02v9.923c0 8.713-5.964 15.777-13.322 15.777h-8.38v1.207h8.38c7.358 0 13.323 7.064 13.323 15.778v9.926h1.019v-9.926c0-8.714 5.965-15.778 13.322-15.778h8.38v-1.207z"/></symbol><symbol viewBox="0 0 80 79" id="star-usage" xmlns="http://www.w3.org/2000/svg"><path d="M79.288 38.592H64.387c-13.084 0-23.692-10.608-23.692-23.691V0h-1.813v14.9c0 13.084-10.608 23.692-23.692 23.692H.288v1.812H15.19c13.084 0 23.692 10.607 23.692 23.691V79h1.813V64.095c0-13.084 10.608-23.69 23.692-23.69h14.901v-1.813z"/></symbol><symbol viewBox="0 0 24 24" id="telegram-usage" xmlns="http://www.w3.org/2000/svg"><path fill-rule="evenodd" clip-rule="evenodd" d="M24 12c0 6.627-5.373 12-12 12S0 18.627 0 12 5.373 0 12 0s12 5.373 12 12zM12.43 8.859c-1.167.485-3.5 1.49-6.998 3.014-.568.226-.866.447-.893.663-.046.366.412.51 1.034.705.085.027.173.054.263.084.613.199 1.437.432 1.865.441.389.008.823-.152 1.302-.48 3.268-2.207 4.955-3.322 5.061-3.346.075-.017.179-.039.249.024.07.062.063.18.056.212-.046.193-1.84 1.862-2.77 2.726-.29.269-.495.46-.537.504-.094.097-.19.19-.282.279-.57.548-.996.96.024 1.632.49.323.882.59 1.273.856.427.291.853.581 1.405.943.14.092.274.187.405.28.497.355.944.673 1.496.623.32-.03.652-.331.82-1.23.397-2.126 1.179-6.73 1.36-8.628a2.112 2.112 0 00-.02-.472.506.506 0 00-.172-.325c-.143-.117-.365-.142-.465-.14-.451.008-1.143.249-4.476 1.635z"/></symbol><symbol viewBox="0 0 33 24" id="vk-usage" xmlns="http://www.w3.org/2000/svg"><path fill-rule="evenodd" clip-rule="evenodd" d="M32.243 4.287c.228-.741 0-1.287-1.093-1.287h-3.61c-.918 0-1.341.47-1.57.99 0 0-1.836 4.338-4.437 7.156-.841.817-1.223 1.076-1.683 1.076-.23 0-.574-.26-.574-1.002V4.287c0-.89-.253-1.287-1.018-1.287h-5.676c-.573 0-.918.413-.918.805 0 .843 1.3 1.038 1.434 3.41v5.155c0 1.13-.21 1.335-.67 1.335-1.223 0-4.2-4.358-5.967-9.344C6.119 3.391 5.772 3 4.85 3H1.237C.207 3 0 3.47 0 3.99c0 .926 1.224 5.524 5.7 11.606C8.682 19.748 12.882 22 16.71 22c2.295 0 2.578-.5 2.578-1.361v-3.14c0-1 .217-1.199.945-1.199.536 0 1.453.26 3.595 2.262C26.276 20.936 26.678 22 28.056 22h3.61c1.03 0 1.548-.5 1.25-1.487-.326-.983-1.495-2.41-3.045-4.102-.841-.963-2.104-2.002-2.487-2.521-.535-.667-.382-.964 0-1.557 0 0 4.4-6.007 4.858-8.046h.001z"/></symbol><symbol viewBox="0 0 24 24" id="whatsapp-usage" xmlns="http://www.w3.org/2000/svg"><path d="M22.205 5.568c-3.59-5.535-10.92-7.18-16.604-3.74-5.535 3.44-7.33 10.92-3.74 16.454l.3.45-1.197 4.487 4.487-1.197.45.3c1.944 1.047 4.038 1.645 6.132 1.645 2.244 0 4.488-.598 6.432-1.795 5.535-3.59 7.18-10.92 3.74-16.604zm-3.141 11.518c-.599.897-1.346 1.496-2.394 1.645-.598 0-1.346.3-4.338-.897-2.543-1.197-4.637-3.142-6.133-5.385-.897-1.048-1.346-2.394-1.496-3.74 0-1.197.45-2.244 1.197-2.992.3-.3.598-.449.898-.449h.748c.299 0 .598 0 .747.599.3.748 1.048 2.543 1.048 2.692.15.15.15.449 0 .599.15.299 0 .598-.15.748-.15.15-.3.448-.449.598-.299.15-.449.449-.299.748a17.223 17.223 0 002.094 2.543c.898.748 1.795 1.346 2.842 1.795.3.15.599.15.748-.15.15-.299.898-1.047 1.197-1.346.3-.3.449-.3.748-.15l2.393 1.197c.3.15.599.3.748.449.15.449.15 1.047-.15 1.496z"/></symbol><symbol viewBox="0 0 15 15" id="zen-logo-usage" xmlns="http://www.w3.org/2000/svg"><path d="M.884 4.34A3.463 3.463 0 014.347.875h6.321a3.463 3.463 0 013.463 3.463v6.322a3.463 3.463 0 01-3.463 3.463H4.347A3.463 3.463 0 01.884 10.66V4.339z" fill="#fff"/><path fill-rule="evenodd" clip-rule="evenodd" d="M7.332 1.674c-.03 2.362-.19 3.69-1.076 4.575-.886.886-2.213 1.047-4.575 1.076v.35c2.362.029 3.69.19 4.575 1.076.886.886 1.047 2.214 1.076 4.576h.35c.029-2.362.19-3.69 1.076-4.576.886-.886 2.213-1.047 4.575-1.076v-.35c-2.362-.029-3.69-.19-4.575-1.076-.886-.886-1.047-2.213-1.077-4.575h-.349z"/></symbol><symbol viewBox="0 0 24 24" id="zen-usage" xmlns="http://www.w3.org/2000/svg"><path fill-rule="evenodd" clip-rule="evenodd" d="M0 12.47A12 12 0 0011.75 24c-.06-4.79-.4-7.49-2.21-9.3-1.81-1.81-4.6-2.17-9.54-2.23zM11.76 0A12 12 0 000 11.76c4.93-.06 7.69-.38 9.53-2.22C11.37 7.7 11.7 4.94 11.76 0zM24 11.75A12 12 0 0012.47 0c.06 4.92.39 7.68 2.22 9.52 1.83 1.84 4.51 2.17 9.31 2.23zM12.48 24A12 12 0 0024 12.48c-4.78.06-7.48.41-9.29 2.21-1.81 1.8-2.17 4.51-2.23 9.31z"/></symbol></svg>