<svg width="316" height="272" viewBox="0 0 316 272" fill="none" xmlns="http://www.w3.org/2000/svg">
<path d="M314.34 153.47C314.34 152.918 313.892 152.47 313.34 152.47H264.292V2.22241C264.292 1.67013 263.844 1.22241 263.292 1.22241H155.836C155.541 1.22241 155.26 1.35312 155.07 1.57947C110.222 55.0048 59.2458 103.653 2.13883 147.525C1.89245 147.715 1.74805 148.008 1.74805 148.318V222.654C1.74805 223.207 2.19576 223.654 2.74805 223.654H176.524C176.034 243.989 175.306 259.197 174.345 269.296C174.318 269.576 174.411 269.855 174.6 270.063C174.79 270.272 175.058 270.39 175.34 270.39H263.292C263.844 270.39 264.292 269.943 264.292 269.39V223.654H313.34C313.892 223.654 314.34 223.207 314.34 222.654V153.47ZM136.281 119.607L136.289 119.6C148.141 108.222 162.162 94.2163 178.353 77.5851L177.298 152.47H97.0119C111.532 141.52 124.622 130.566 136.281 119.607Z" fill="url(#paint0_linear_288_1676)" fill-opacity="0.1" stroke="url(#paint1_linear_288_1676)" stroke-width="2" stroke-miterlimit="3.15525" stroke-linecap="round" stroke-linejoin="round"/>
<defs>
<linearGradient id="paint0_linear_288_1676" x1="2.74805" y1="2.22241" x2="358.785" y2="236.728" gradientUnits="userSpaceOnUse">
<stop stop-color="#D530A0"/>
<stop offset="0.914583" stop-color="#481E86"/>
</linearGradient>
<linearGradient id="paint1_linear_288_1676" x1="2.74805" y1="2.22241" x2="358.785" y2="236.728" gradientUnits="userSpaceOnUse">
<stop stop-color="#D530A0"/>
<stop offset="0.914583" stop-color="#481E86"/>
</linearGradient>
</defs>
</svg>
