<svg width="280" height="19" viewBox="0 0 280 19" fill="none" xmlns="http://www.w3.org/2000/svg">
<g clip-path="url(#clip0_1605_6581)">
<path d="M22.4315 11.6807L23.6905 0.765061H29.5978L26.3536 18.259H18.921L17.2747 8.5L15.3621 18.259H8.2442L5 0.765061H10.9074L12.1421 11.5361L14.0789 0.765061H20.5431L22.4315 11.6807ZM39.6622 13.8494C45.7955 13.8173 50.2422 13.7289 53.0022 13.5843C52.8892 14.243 52.8165 14.9257 52.7843 15.6325C52.7681 16.3233 52.76 17.1988 52.76 18.259H33.9485C34.0776 15.1426 34.1422 12.2269 34.1422 9.51205C34.1422 6.79719 34.0776 3.88153 33.9485 0.765061H52.76V5.12651H39.6622V7.43976C40.4369 7.45582 41.5829 7.46386 43.1001 7.46386C45.6664 7.46386 48.3215 7.41566 51.0653 7.31928V11.4639C48.3215 11.3675 45.6664 11.3193 43.1001 11.3193C41.5829 11.3193 40.4369 11.3273 39.6622 11.3434V13.8494ZM72.3798 0.5C75.4142 0.5 77.811 0.869478 79.5703 1.60843C81.3296 2.33133 82.5563 3.34337 83.2503 4.64458C83.9605 5.92972 84.3155 7.51205 84.3155 9.39157C84.3155 11.1747 83.912 12.7329 83.105 14.0663C82.298 15.3996 81.0875 16.4357 79.4735 17.1747C77.8594 17.8976 75.8742 18.259 73.5177 18.259C72.0812 18.259 70.6205 18.259 69.1356 18.259C67.6507 18.259 66.1496 18.251 64.6324 18.2349C64.7616 15.0703 64.8261 12.1225 64.8261 9.39157C64.8261 6.62851 64.7616 3.74498 64.6324 0.740964C66.5531 0.580321 69.1356 0.5 72.3798 0.5ZM74.1956 13.4639C75.6966 13.4639 76.6973 13.1024 77.1977 12.3795C77.698 11.6566 77.9482 10.6606 77.9482 9.39157C77.9482 8.17068 77.6819 7.18273 77.1493 6.42771C76.6328 5.67269 75.6482 5.29518 74.1956 5.29518C72.63 5.29518 71.4598 5.34337 70.6851 5.43976V13.4639H74.1956ZM102.996 0.740964H109V10.3313C108.968 12.6928 108.153 14.6446 106.555 16.1867C104.973 17.7289 102.302 18.5 98.5411 18.5C94.732 18.5 92.1253 17.7691 90.7211 16.3072C89.3169 14.8293 88.6309 12.8936 88.6632 10.5V0.740964H94.6674V10.1145C94.6674 10.8213 94.7158 11.3996 94.8127 11.8494C94.9257 12.2831 95.2646 12.6928 95.8295 13.0783C96.4106 13.4639 97.3386 13.6566 98.6137 13.6566C100.002 13.6566 101.019 13.4639 101.664 13.0783C102.31 12.6767 102.689 12.2349 102.802 11.753C102.931 11.2711 102.996 10.6526 102.996 9.89759V0.740964Z" fill="#50327D"/>
<path d="M136 9.28152H132.793C129.978 9.28152 127.695 6.73038 127.695 3.58367V0H127.305V3.58367C127.305 6.73038 125.022 9.28152 122.207 9.28152H119V9.71745H122.207C125.022 9.71745 127.305 12.2686 127.305 15.4153V19H127.695V15.4153C127.695 12.2686 129.978 9.71745 132.793 9.71745H136V9.28152Z" fill="#50327D"/>
<path opacity="0.6" d="M163.194 0.707774L162.333 8.17528L161.036 0.679827L160.964 0.265061H160.543H154.079H153.661L153.587 0.676571L152.252 8.10165L151.404 0.708117L151.353 0.265061H150.907H145H144.399L144.508 0.85623L147.753 18.3502L147.828 18.759H148.244H155.362H155.774L155.853 18.3552L157.238 11.2876L158.428 18.3422L158.498 18.759H158.921H166.354H166.769L166.845 18.3502L170.089 0.85623L170.199 0.265061H169.598H163.69H163.245L163.194 0.707774ZM180.162 5.62651H192.76H193.26V5.12651V0.765061V0.265061H192.76H173.949H173.427L173.449 0.78576C173.578 3.89632 173.642 6.80502 173.642 9.51205C173.642 12.2191 173.578 15.1278 173.449 18.2383L173.427 18.759H173.949H192.76H193.26V18.259C193.26 17.2037 193.268 16.3343 193.284 15.6498C193.316 14.9644 193.386 14.3042 193.495 13.6689L193.601 13.0523L192.976 13.085C190.304 13.225 186.035 13.3124 180.162 13.3466V11.8349C180.899 11.8245 181.878 11.8193 183.1 11.8193C185.66 11.8193 188.309 11.8674 191.048 11.9635L191.565 11.9817V11.4639V7.31928V6.8014L191.048 6.81959C188.309 6.91578 185.66 6.96386 183.1 6.96386C181.878 6.96386 180.899 6.95863 180.162 6.94825V5.62651ZM219.678 17.631L219.682 17.6293C221.374 16.8546 222.667 15.7558 223.533 14.3252C224.394 12.903 224.816 11.2526 224.816 9.39157C224.816 7.45205 224.449 5.78233 223.69 4.40583C222.927 2.9775 221.595 1.90009 219.762 1.14665C217.916 0.371783 215.445 0 212.38 0C209.13 0 206.531 0.0803858 204.591 0.242703L204.112 0.282723L204.133 0.762435C204.262 3.75992 204.326 6.63627 204.326 9.39157C204.326 12.1147 204.262 15.0556 204.133 18.2146L204.112 18.7295L204.627 18.7349C206.146 18.751 207.649 18.759 209.136 18.759H209.144H209.153H209.162H209.17H209.179H209.188H209.196H209.205H209.214H209.223H209.231H209.24H209.249H209.257H209.266H209.275H209.283H209.292H209.301H209.309H209.318H209.327H209.336H209.344H209.353H209.362H209.37H209.379H209.388H209.396H209.405H209.414H209.422H209.431H209.44H209.448H209.457H209.466H209.474H209.483H209.492H209.501H209.509H209.518H209.527H209.535H209.544H209.553H209.561H209.57H209.579H209.587H209.596H209.605H209.613H209.622H209.631H209.639H209.648H209.657H209.665H209.674H209.683H209.691H209.7H209.709H209.717H209.726H209.735H209.743H209.752H209.761H209.769H209.778H209.787H209.795H209.804H209.813H209.821H209.83H209.839H209.847H209.856H209.864H209.873H209.882H209.89H209.899H209.908H209.916H209.925H209.934H209.942H209.951H209.96H209.968H209.977H209.986H209.994H210.003H210.012H210.02H210.029H210.037H210.046H210.055H210.063H210.072H210.081H210.089H210.098H210.107H210.115H210.124H210.132H210.141H210.15H210.158H210.167H210.176H210.184H210.193H210.202H210.21H210.219H210.227H210.236H210.245H210.253H210.262H210.271H210.279H210.288H210.297H210.305H210.314H210.322H210.331H210.34H210.348H210.357H210.365H210.374H210.383H210.391H210.4H210.409H210.417H210.426H210.434H210.443H210.452H210.46H210.469H210.478H210.486H210.495H210.503H210.512H210.521H210.529H210.538H210.546H210.555H210.564H210.572H210.581H210.589H210.598H210.607H210.615H210.624H210.633H210.641H210.65H210.658H210.667H210.676H210.684H210.693H210.701H210.71H210.719H210.727H210.736H210.744H210.753H210.762H210.77H210.779H210.787H210.796H210.804H210.813H210.822H210.83H210.839H210.847H210.856H210.865H210.873H210.882H210.89H210.899H210.908H210.916H210.925H210.933H210.942H210.951H210.959H210.968H210.976H210.985H210.993H211.002H211.011H211.019H211.028H211.036H211.045H211.053H211.062H211.071H211.079H211.088H211.096H211.105H211.114H211.122H211.131H211.139H211.148H211.156H211.165H211.174H211.182H211.191H211.199H211.208H211.216H211.225H211.233H211.242H211.251H211.259H211.268H211.276H211.285H211.293H211.302H211.311H211.319H211.328H211.336H211.345H211.353H211.362H211.37H211.379H211.388H211.396H211.405H211.413H211.422H211.43H211.439H211.447H211.456H211.465H211.473H211.482H211.49H211.499H211.507H211.516H211.524H211.533H211.541H211.55H211.559H211.567H211.576H211.584H211.593H211.601H211.61H211.618H211.627H211.635H211.644H211.653H211.661H211.67H211.678H211.687H211.695H211.704H211.712H211.721H211.729H211.738H211.746H211.755H211.764H211.772H211.781H211.789H211.798H211.806H211.815H211.823H211.832H211.84H211.849H211.857H211.866H211.874H211.883H211.891H211.9H211.908H211.917H211.926H211.934H211.943H211.951H211.96H211.968H211.977H211.985H211.994H212.002H212.011H212.019H212.028H212.036H212.045H212.053H212.062H212.07H212.079H212.087H212.096H212.104H212.113H212.121H212.13H212.138H212.147H212.155H212.164H212.172H212.181H212.189H212.198H212.206H212.215H212.223H212.232H212.24H212.249H212.257H212.266H212.274H212.283H212.291H212.3H212.308H212.317H212.325H212.334H212.342H212.351H212.359H212.368H212.376H212.385H212.393H212.402H212.41H212.419H212.427H212.436H212.444H212.453H212.461H212.47H212.478H212.487H212.495H212.504H212.512H212.521H212.529H212.538H212.546H212.555H212.563H212.572H212.58H212.588H212.597H212.605H212.614H212.622H212.631H212.639H212.648H212.656H212.665H212.673H212.682H212.69H212.699H212.707H212.716H212.724H212.733H212.741H212.749H212.758H212.766H212.775H212.783H212.792H212.8H212.809H212.817H212.826H212.834H212.843H212.851H212.859H212.868H212.876H212.885H212.893H212.902H212.91H212.919H212.927H212.936H212.944H212.953H212.961H212.969H212.978H212.986H212.995H213.003H213.012H213.02H213.029H213.037H213.045H213.054H213.062H213.071H213.079H213.088H213.096H213.105H213.113H213.121H213.13H213.138H213.147H213.155H213.164H213.172H213.181H213.189H213.197H213.206H213.214H213.223H213.231H213.24H213.248H213.256H213.265H213.273H213.282H213.29H213.299H213.307H213.316H213.324H213.332H213.341H213.349H213.358H213.366H213.375H213.383H213.391H213.4H213.408H213.417H213.425H213.433H213.442H213.45H213.459H213.467H213.476H213.484H213.492H213.501H213.509H213.518C215.922 18.759 217.982 18.3906 219.678 17.631ZM216.737 6.71004L216.741 6.71594C217.197 7.36328 217.448 8.24109 217.448 9.39157C217.448 10.6021 217.209 11.4852 216.787 12.095C216.43 12.6099 215.648 12.9639 214.196 12.9639H211.185V5.89051C211.913 5.82774 212.914 5.79518 214.196 5.79518C215.583 5.79518 216.358 6.15688 216.737 6.71004ZM242.996 0.240964H242.496V0.740964V9.89759C242.496 10.6288 242.433 11.1996 242.319 11.6236L242.317 11.6312L242.315 11.6389C242.246 11.9366 241.993 12.2838 241.404 12.6513C240.877 12.9645 239.973 13.1566 238.614 13.1566C237.369 13.1566 236.564 12.9646 236.108 12.6634C235.601 12.3163 235.372 11.9991 235.299 11.7328C235.214 11.332 235.167 10.7961 235.167 10.1145V0.740964V0.240964H234.667H228.663H228.163V0.740964V10.4967C228.13 12.9948 228.85 15.0635 230.359 16.6516L230.361 16.6536C231.914 18.2708 234.704 19 238.541 19C242.346 19 245.18 18.2242 246.903 16.5456C248.603 14.9047 249.466 12.8231 249.5 10.3382V10.3313V0.740964V0.240964H249H242.996Z" stroke="#50327D"/>
<path opacity="0.6" d="M276 9.28152H272.793C269.978 9.28152 267.695 6.73038 267.695 3.58367V0H267.305V3.58367C267.305 6.73038 265.022 9.28152 262.207 9.28152H259V9.71745H262.207C265.022 9.71745 267.305 12.2686 267.305 15.4153V19H267.695V15.4153C267.695 12.2686 269.978 9.71745 272.793 9.71745H276V9.28152Z" fill="#50327D"/>
</g>
<defs>
<clipPath id="clip0_1605_6581">
<rect width="280" height="19" fill="white"/>
</clipPath>
</defs>
</svg>
