<svg width="101" height="72" viewBox="0 0 101 72" fill="none" xmlns="http://www.w3.org/2000/svg">
<path d="M2.75979 29.1515C2.62121 28.6376 2.44799 28.2523 2.24012 27.9944C2.03225 27.7375 1.80706 27.5565 1.56358 27.4514C1.32107 27.3463 1.04872 27.2937 0.748465 27.2937H0.644531V26.9424H10.8041V27.2937H9.90241C9.20855 27.2937 8.68888 27.393 8.34243 27.5915C7.99598 27.79 7.82276 28.1822 7.82276 28.7661C7.82276 28.9539 7.85163 29.1865 7.90937 29.4678C7.96711 29.748 8.03063 30.0176 8.09992 30.2745L9.83408 36.3403C10.0189 36.9485 10.2267 37.6784 10.4577 38.5319C10.6887 39.3853 10.9196 40.2213 11.1516 41.0388C11.3825 41.8572 11.5673 42.5355 11.7068 43.0727H11.7761C11.8454 42.7924 11.9089 42.5462 11.9667 42.336C12.0244 42.1258 12.0822 41.9156 12.1399 41.7054C12.1976 41.4952 12.2612 41.2733 12.3304 41.0388L16.1789 27.1185H18.3981L21.7962 37.4624C21.9348 37.8828 22.0733 38.31 22.2119 38.7421C22.3505 39.1751 22.4891 39.6189 22.6277 40.0743C22.7662 40.5298 22.8991 40.9804 23.0261 41.4241C23.1531 41.8679 23.2744 42.301 23.3899 42.7214H23.4938C23.5862 42.3243 23.7132 41.8222 23.8749 41.2139C24.0366 40.6067 24.2156 39.9576 24.4119 39.2686C24.6082 38.5796 24.7872 37.9421 24.9489 37.3573L26.787 30.765C26.8794 30.4614 26.9544 30.1402 27.0122 29.8006C27.0699 29.4619 27.0988 29.1992 27.0988 29.0113C27.0988 28.4031 26.9082 27.9652 26.5271 27.6966C26.146 27.428 25.5734 27.2937 24.8103 27.2937H23.6314V26.9424H30.4622V27.2937H29.8723C29.4566 27.2937 29.0976 27.3638 28.7973 27.5039C28.4961 27.644 28.2305 27.9126 27.9995 28.3107C27.7686 28.7087 27.5492 29.2926 27.3403 30.0643L22.9712 45.7372H19.7117L15.2387 31.852L11.3902 45.7372H7.64568L2.75979 29.1515Z" fill="white"/>
<path d="M51.9527 46.0865C50.4043 46.0865 49.1032 45.7411 48.0523 45.0521C47.0004 44.3631 46.2026 43.2936 45.6598 41.8435C45.1161 40.3945 44.8447 38.5357 44.8447 36.2682C44.8447 34.0017 45.1161 32.1546 45.6598 30.728C46.2026 29.3023 46.9889 28.2445 48.0176 27.5545C49.0464 26.8655 50.3003 26.52 51.7795 26.52C53.1662 26.52 54.3105 26.9122 55.2122 27.6946C56.1139 28.478 56.6914 29.6877 56.9454 31.3236H57.0147C57.0147 30.3893 57.0089 29.5174 56.9974 28.7116C56.9858 27.9048 56.9801 27.1925 56.9801 26.5725C56.9801 25.9536 56.9801 25.4563 56.9801 25.0826V21.5773C56.9801 20.9466 56.8415 20.4785 56.5643 20.1749C56.2872 19.8713 55.9571 19.6728 55.576 19.5784C55.1949 19.4849 54.8417 19.4382 54.5184 19.4382H54.1026V19.0879H62.2509V43.1067C62.2509 43.7617 62.3837 44.2521 62.6493 44.5791C62.9149 44.9071 63.2441 45.1231 63.6377 45.2282C64.0303 45.3333 64.3883 45.3859 64.7126 45.3859H65.1284V45.7362H57.0147V40.9326H56.9454C56.7145 42.7097 56.1476 44.0127 55.2469 44.8419C54.3451 45.672 53.2471 46.0865 51.9527 46.0865ZM53.4088 45.2107C54.5876 45.2107 55.4778 44.4166 56.0783 42.8264C56.6788 41.2372 56.9801 38.888 56.9801 35.7787C56.9801 33.9326 56.8415 32.3892 56.5643 31.1503C56.2872 29.9115 55.882 28.9763 55.3508 28.3447C54.8186 27.7141 54.1488 27.3978 53.3395 27.3978C52.6456 27.3978 52.0615 27.7131 51.588 28.3447C51.1135 28.9763 50.7613 29.9115 50.5303 31.1503C50.2994 32.3892 50.1839 33.9326 50.1839 35.7787C50.1839 37.8594 50.3051 39.6004 50.5477 41.0027C50.7902 42.4051 51.1549 43.457 51.6399 44.1587C52.1259 44.8594 52.7159 45.2107 53.4088 45.2107Z" fill="white"/>
<path d="M74.1994 46.0863C72.1649 46.0863 70.6502 45.5492 69.657 44.4738C68.6629 43.3984 68.1663 41.6808 68.1663 39.3189V29.7818C68.1663 29.0578 68.0797 28.5196 67.9065 28.1683C67.7333 27.818 67.4782 27.5844 67.1433 27.4676C66.8075 27.3509 66.3744 27.2925 65.8432 27.2925H65.7393V26.9412H73.4372V40.476C73.4372 41.4813 73.5238 42.3231 73.697 43.0004C73.8702 43.6787 74.1474 44.1867 74.5294 44.5254C74.9105 44.865 75.4139 45.0334 76.0375 45.0334C76.8699 45.0334 77.5166 44.7531 77.9795 44.1916C78.4414 43.6301 78.7648 42.8476 78.9505 41.8423C79.1353 40.8371 79.2277 39.6809 79.2277 38.371V29.5697C79.2277 28.8924 79.0949 28.3951 78.8293 28.0798C78.5637 27.7645 78.2403 27.5533 77.8582 27.4492C77.4762 27.344 77.1124 27.2915 76.766 27.2915H76.6274V26.9402H84.4985V43.2447C84.4985 43.8529 84.6371 44.3142 84.9143 44.6295C85.1914 44.9448 85.5215 45.1502 85.9026 45.2436C86.2847 45.337 86.6359 45.3837 86.9602 45.3837H87.0988V45.734H79.2277V42.4379H79.1584C78.9505 43.2097 78.6724 43.8403 78.326 44.3317C77.9795 44.8222 77.5859 45.191 77.1471 45.4363C76.7082 45.6815 76.2338 45.8508 75.7257 45.9443C75.2166 46.0396 74.7075 46.0863 74.1994 46.0863Z" fill="white"/>
<path d="M35.7809 53.4002C32.7755 53.4002 30.4985 52.5535 28.9501 50.8583C27.4017 49.164 26.627 46.7972 26.627 43.758C26.627 40.4619 27.3776 37.9784 28.8808 36.3074C30.383 34.6365 32.4983 33.8005 35.2266 33.8005C37.746 33.8005 39.7285 34.5139 41.173 35.9396C42.6175 37.3653 43.3402 39.6211 43.3402 42.382C43.3402 42.7741 43.0255 43.0924 42.6377 43.0924H32.8072C32.3424 43.0924 31.9661 43.4787 31.9738 43.9488C32.0075 45.9204 32.1615 47.5456 32.4348 48.8253C32.7466 50.287 33.2441 51.3497 33.9255 52.0163C34.6068 52.683 35.4912 53.0158 36.5777 53.0158C37.3871 53.0158 38.1406 52.8756 38.7796 52.4893C40.4127 51.5025 39.4763 49.8111 39.4763 48.7689C39.4763 47.8259 40.0769 46.7495 41.3789 46.7495C42.6887 46.7495 43.3383 47.6439 43.3383 48.7689C43.3383 51.2573 40.5821 52.4076 39.5764 52.8046C38.5727 53.2007 37.3072 53.4002 35.7809 53.4002ZM37.2331 42.7411C37.696 42.7411 38.0713 42.3566 38.0655 41.8886C38.0463 40.1583 37.9664 38.753 37.8278 37.6747C37.6662 36.4242 37.3774 35.524 36.9607 34.9752C36.545 34.4263 35.9666 34.1509 35.2266 34.1509C34.4865 34.1509 33.8745 34.4263 33.3885 34.9752C32.9025 35.525 32.5503 36.4252 32.3308 37.6747C32.1413 38.7511 32.0248 40.1524 31.9825 41.8779C31.9709 42.3508 32.3472 42.742 32.8149 42.742H37.2331V42.7411Z" fill="white"/>
<path d="M93.3486 9.53417H89.9784C87.0191 9.53417 84.62 7.10806 84.62 4.11556V0.70752H84.21V4.11556C84.21 7.10806 81.8109 9.53417 78.8516 9.53417H75.4814V9.94874H78.8516C81.8109 9.94874 84.21 12.3749 84.21 15.3674V18.7764H84.62V15.3674C84.62 12.3749 87.0191 9.94874 89.9784 9.94874H93.3486V9.53417Z" fill="white"/>
<path d="M88.3623 55.0445L87.9648 54.5025C95.8225 48.6265 99.976 41.5671 99.976 34.0854C99.976 26.9442 96.1574 20.1418 88.9339 14.4137L89.3458 13.8833C96.7367 19.7437 100.644 26.7292 100.644 34.0854C100.643 41.789 96.3961 49.0362 88.3623 55.0445Z" fill="white"/>
<path d="M5.79805 59.4645L6.92497 60.0805C7.03853 59.664 6.83162 59.3302 6.4871 59.1414C6.19454 58.9818 5.91642 58.9691 5.61713 59.0119L5.59596 58.4115C5.97897 58.2821 6.45919 58.3901 6.78061 58.5653C7.64866 59.0392 7.91427 59.8625 7.4764 60.6829C7.07702 61.4293 6.26191 61.7563 5.40445 61.2882C4.91461 61.0206 4.65766 60.6965 4.55469 60.3306L5.09072 60.0639C5.16482 60.2663 5.35922 60.5281 5.67006 60.6975C6.05308 60.9067 6.42743 60.861 6.69593 60.5213L5.56324 59.9024L5.79805 59.4645Z" fill="white"/>
<path d="M8.41142 59.5251L10.7855 60.6628L10.4699 61.3362L9.61916 60.9285L8.70012 62.8904L8.03418 62.5712L8.95322 60.6093L8.09673 60.1986L8.41142 59.5251Z" fill="white"/>
<path d="M12.5485 61.3362C13.43 61.7031 13.7533 62.5439 13.4242 63.3526C13.0961 64.1603 12.2809 64.5291 11.3994 64.1623C10.5169 63.7954 10.1945 62.9546 10.5237 62.1468C10.8518 61.3372 11.666 60.9693 12.5485 61.3362ZM11.6593 63.5209C12.0798 63.6961 12.5119 63.518 12.7015 63.0509C12.8863 62.5964 12.6996 62.1546 12.2848 61.9814C11.8825 61.814 11.4408 61.9804 11.2512 62.4475C11.0684 62.8971 11.2445 63.3487 11.6593 63.5209Z" fill="white"/>
<path d="M17.3029 65.0729L16.1047 64.6768L15.7631 65.7347L15.0635 65.504L15.9575 62.7354L16.6571 62.966L16.3193 64.0122L17.5175 64.4082L17.8552 63.3621L18.5549 63.5927L17.6609 66.3614L16.9612 66.1307L17.3029 65.0729Z" fill="white"/>
<path d="M21.09 67.0378C20.7474 67.1974 20.3221 67.2003 19.9333 67.0913C19.0383 66.8421 18.5995 66.0879 18.841 65.2014C19.0643 64.3839 19.7986 63.8837 20.7118 64.1377C21.4278 64.3372 21.8849 65.0223 21.6703 65.8086C21.6222 65.9838 21.5808 66.086 21.5212 66.1833L19.5156 65.6237C19.4617 66.0656 19.7322 66.3896 20.17 66.5113C20.5097 66.6057 20.8273 66.5599 21.0236 66.4743L21.09 67.0378ZM19.6224 65.1381L20.9871 65.5186C21.0862 65.1771 20.9255 64.8433 20.5184 64.7294C20.0921 64.6097 19.7966 64.7897 19.6224 65.1381Z" fill="white"/>
<path d="M24.0246 65.0681L24.6761 65.2053L25.3902 66.5989L26.545 65.5975L27.1782 65.7308L26.5921 68.5842L25.8704 68.4324L26.2293 66.6884L25.1765 67.5779L25.1582 67.574L24.5183 66.3284L24.1602 68.0723L23.4385 67.9205L24.0246 65.0681Z" fill="white"/>
<path d="M28.0425 66.0888C28.3129 65.9827 28.719 65.9185 29.0914 65.9807C29.9325 66.1199 30.1586 66.6036 30.0355 67.3636L29.7516 69.1143L29.1203 69.0102L29.1742 68.6784C28.9875 68.8711 28.6593 68.9742 28.2734 68.91C27.7557 68.8243 27.4352 68.437 27.5247 67.8804C27.6277 67.2478 28.1368 67.024 28.7122 67.1184C28.9653 67.1602 29.204 67.2848 29.3262 67.4103C29.4224 66.9344 29.3387 66.6513 28.9153 66.5812C28.5871 66.5267 28.3619 66.5948 28.1377 66.6561L28.0425 66.0888ZM29.2069 68.1587L29.254 67.8648C29.1434 67.748 28.9865 67.676 28.7777 67.6419C28.5371 67.602 28.3042 67.6818 28.2648 67.9242C28.2301 68.1412 28.387 68.292 28.6141 68.33C28.9172 68.3796 29.0972 68.2716 29.2069 68.1587Z" fill="white"/>
<path d="M31.0208 66.3516L32.9388 66.6075L32.8483 67.3014L31.6608 67.1428L31.374 69.3392L30.6436 69.2419L31.0208 66.3516Z" fill="white"/>
<path d="M33.1748 69.5729L33.4529 66.6709L34.1862 66.7429L34.0101 68.5803L35.5258 66.8743L36.2582 66.9463L35.9801 69.8483L35.2467 69.7763L35.4238 67.9389L33.9081 69.6449L33.1748 69.5729Z" fill="white"/>
<path d="M39.4868 67.1505L39.3183 70.0592L38.5831 70.0155L38.6341 69.1425L38.2251 69.1182L37.5803 69.9561L36.7363 69.9065L37.563 68.9177C37.3195 68.8126 37.0279 68.5226 37.0558 68.0448C37.0886 67.4823 37.512 67.0337 38.5475 67.095L39.4868 67.1505ZM38.2809 68.5713L38.6649 68.5937L38.714 67.7528L38.3877 67.7334C38.0297 67.712 37.8507 67.9222 37.8382 68.1421C37.8238 68.3815 38.0519 68.5567 38.2809 68.5713Z" fill="white"/>
<path d="M40.6901 69.2206C41.0356 69.2323 41.2435 69.5437 41.23 69.9641C41.2117 70.514 40.8922 70.9052 40.3812 71.0375L40.1945 70.6814C40.3562 70.6288 40.4996 70.549 40.5968 70.3515C40.6584 70.2298 40.6873 70.1208 40.6642 70.0556C40.6237 70.1062 40.5477 70.1033 40.4967 70.1023C40.3302 70.0965 40.1753 69.9164 40.1839 69.677C40.1907 69.4055 40.3697 69.2099 40.6901 69.2206Z" fill="white"/>
<path d="M43.6882 68.4439L44.9691 68.4322C44.869 68.0128 44.5284 67.8211 44.1377 67.825C43.8047 67.8279 43.5564 67.9534 43.3148 68.1364L43.0098 67.6216C43.2821 67.3209 43.7546 67.1808 44.1194 67.1778C45.1058 67.1691 45.7313 67.7588 45.74 68.6911C45.7477 69.5387 45.1905 70.2238 44.2175 70.2326C43.6613 70.2375 43.2812 70.0788 43.0165 69.8093L43.3581 69.3139C43.5189 69.455 43.8153 69.5884 44.1665 69.5845C44.6015 69.5806 44.9075 69.3577 44.9797 68.9295L43.693 68.9412L43.6882 68.4439Z" fill="white"/>
<path d="M46.0078 67.2304L48.6322 67.1331L48.6591 67.8775L47.7179 67.9126L47.7968 70.0808L47.0606 70.108L46.9817 67.9398L46.0338 67.9749L46.0078 67.2304Z" fill="white"/>
<path d="M50.4975 66.9434C51.4483 66.8753 52.1066 67.4845 52.1672 68.3555C52.2278 69.2275 51.6601 69.9223 50.7092 69.9904C49.7575 70.0576 49.1002 69.4493 49.0396 68.5774C48.9789 67.7064 49.5467 67.0106 50.4975 66.9434ZM50.6621 69.2995C51.1154 69.2673 51.4243 68.9141 51.3896 68.411C51.355 67.9205 50.9931 67.6081 50.5466 67.6402C50.1126 67.6704 49.7902 68.0178 49.8248 68.5219C49.8585 69.0065 50.2146 69.3306 50.6621 69.2995Z" fill="white"/>
<path d="M54.1797 66.6885L54.8399 66.6019L55.9668 67.6821L56.7328 66.3537L57.3747 66.27L57.7452 69.1603L57.0148 69.2557L56.7887 67.4894L56.0823 68.6796L56.063 68.6825L55.0554 67.7171L55.2816 69.4834L54.5512 69.5788L54.1797 66.6885Z" fill="white"/>
<path d="M58.3086 66.3242C58.5299 66.1344 58.8937 65.9398 59.2652 65.8756C60.1044 65.7306 60.4749 66.112 60.6038 66.8721L60.9012 68.6209L60.2699 68.7308L60.2141 68.399C60.0995 68.6423 59.8224 68.8476 59.4374 68.9148C58.9197 69.0043 58.4924 68.7435 58.3981 68.1888C58.2903 67.5572 58.7003 67.1767 59.2748 67.0774C59.5269 67.0336 59.7935 67.0726 59.9494 67.1514C59.8878 66.6697 59.7165 66.4293 59.294 66.5033C58.9659 66.5597 58.7753 66.6989 58.5829 66.8302L58.3086 66.3242ZM60.0764 67.8968L60.0264 67.6029C59.884 67.529 59.7117 67.5124 59.5038 67.5494C59.2642 67.5913 59.0689 67.7431 59.1102 67.9854C59.1468 68.2024 59.3441 68.2929 59.5712 68.254C59.8753 68.2005 60.01 68.0399 60.0764 67.8968Z" fill="white"/>
<path d="M61.2168 65.5986L61.9366 65.4439L61.9944 65.7164C62.1291 65.4887 62.4294 65.2648 62.7931 65.187C63.5698 65.0196 64.1992 65.5188 64.3762 66.3616C64.5591 67.2297 64.1116 68.0277 63.2108 68.2223C62.9606 68.2768 62.7065 68.2846 62.5237 68.2242L62.8047 69.5604L62.0848 69.7151L61.2168 65.5986ZM62.132 66.3684L62.3745 67.5206C62.5959 67.6053 62.7662 67.6082 63.0039 67.5566C63.5053 67.4486 63.7161 67.0195 63.615 66.5446C63.5188 66.0891 63.1868 65.8156 62.7104 65.9188C62.4669 65.9714 62.2658 66.1339 62.132 66.3684Z" fill="white"/>
<path d="M64.7656 64.8152L65.4778 64.6284L66.1995 67.4486L65.4874 67.6355L64.7656 64.8152ZM66.6759 65.7456L68.2571 66.9095L67.3274 67.1528L65.8598 66.019L66.5065 64.3588L67.4054 64.1233L66.6759 65.7456Z" fill="white"/>
<path d="M70.9595 65.7754C70.7555 66.0956 70.3966 66.3282 70.0107 66.4469C69.1224 66.7204 68.3535 66.3214 68.0888 65.4416C67.8444 64.63 68.1995 63.8106 69.106 63.5313C69.8163 63.3123 70.565 63.6432 70.8007 64.4237C70.8527 64.5969 70.872 64.7059 70.8729 64.8207L68.8828 65.4339C69.0714 65.8358 69.4708 65.9632 69.9058 65.829C70.2426 65.7258 70.487 65.5146 70.6073 65.3356L70.9595 65.7754ZM68.7144 64.9638L70.0674 64.5473C69.9712 64.2047 69.6575 64.0101 69.2542 64.1347C68.8318 64.2651 68.6788 64.5765 68.7144 64.9638Z" fill="white"/>
<path d="M70.7383 63.0916L73.2154 62.2109L73.4598 62.9136L72.5716 63.2298L73.2837 65.2764L72.5889 65.5236L71.8768 63.477L70.9827 63.7953L70.7383 63.0916Z" fill="white"/>
<path d="M74.8394 64.7071L73.751 62.0094L74.4323 61.7282L75.1214 63.4371L75.6776 61.2153L76.359 60.9341L77.4474 63.6317L76.766 63.913L76.077 62.2041L75.5217 64.4258L74.8394 64.7071Z" fill="white"/>
<path d="M79.7316 61.3223L78.594 61.8741L79.0704 62.8784L78.4064 63.2005L77.1602 60.573L77.8242 60.2509L78.2948 61.2435L79.4323 60.6917L78.9617 59.6991L79.6257 59.377L80.871 62.0045L80.2069 62.3266L79.7316 61.3223Z" fill="white"/>
<path d="M80.4043 58.9594L82.099 58.0193L82.432 58.6324L81.383 59.2143L82.4359 61.1548L81.7911 61.513L80.4043 58.9594Z" fill="white"/>
</svg>
