<svg width="55" height="58" viewBox="0 0 55 58" fill="none" xmlns="http://www.w3.org/2000/svg">
<path d="M1.15351 30.5193L1.20807 31.436C1.47877 31.3484 1.59133 31.0963 1.57476 30.8164C1.56026 30.5784 1.46979 30.4048 1.34065 30.2395L1.66591 30C1.87239 30.1833 1.98081 30.5163 1.99669 30.7775C2.03882 31.4831 1.67558 31.9553 1.06719 31.9972C0.513355 32.0361 0.0451474 31.6635 0.0037133 30.9668C-0.019766 30.568 0.069317 30.2903 0.236435 30.0898L0.572741 30.315C0.48642 30.4363 0.410461 30.6533 0.424963 30.9055C0.443608 31.2175 0.600363 31.427 0.882806 31.4629L0.828253 30.5418L1.15351 30.5193Z" fill="white"/>
<path d="M1.76973 32L2 33.9266L1.52658 34L1.44396 33.3091L0.0643422 33.524L0 32.9838L1.37962 32.7689L1.29631 32.0734L1.76973 32Z" fill="white"/>
<path d="M2.97058 34.7963C3.1036 35.3895 2.77379 35.8587 2.21839 35.9748C1.66299 36.0916 1.16244 35.7963 1.02942 35.2037C0.896398 34.6112 1.22621 34.1413 1.78161 34.0252C2.33701 33.9084 2.83824 34.203 2.97058 34.7963ZM1.46963 35.1108C1.53271 35.3935 1.78915 35.5561 2.11005 35.4891C2.42272 35.4234 2.58934 35.1679 2.52695 34.8892C2.46661 34.6185 2.2129 34.4466 1.89201 34.5143C1.58345 34.5793 1.40723 34.8328 1.46963 35.1108Z" fill="white"/>
<path d="M1.93779 38.4003L1.70795 37.7261L1.13422 37.9323L1 37.5388L2.50173 37L2.63594 37.3935L2.06855 37.5973L2.29839 38.2715L2.86579 38.0676L3 38.4612L1.49827 39L1.36406 38.6065L1.93779 38.4003Z" fill="white"/>
<path d="M2.61997 41C2.3963 40.8929 2.21653 40.6781 2.10812 40.4358C1.85768 39.8785 2.05117 39.3438 2.59664 39.098C3.09957 38.8715 3.65877 39.0363 3.91401 39.6053C4.11436 40.0514 3.96272 40.5676 3.479 40.7845C3.37128 40.8325 3.30267 40.8545 3.22857 40.8648L2.66732 39.6156C2.42305 39.7714 2.37434 40.0425 2.49716 40.3157C2.59184 40.5271 2.74828 40.6692 2.87384 40.733L2.61997 41ZM2.95686 39.468L3.33835 40.3171C3.55104 40.2258 3.65122 40.0054 3.53664 39.7522C3.41794 39.4865 3.20386 39.4117 2.95686 39.468Z" fill="white"/>
<path d="M5.78532 42L6.03658 42.4015L5.66044 43.4344L6.7563 43.5523L7 43.942L5.21544 45L4.93769 44.5557L6.02825 43.9089L5.04062 43.7903L5.03305 43.7785L5.36832 42.8546L4.27775 43.5015L4 43.0572L5.78532 42Z" fill="white"/>
<path d="M6.2789 44C6.45013 44.0682 6.66567 44.2115 6.81004 44.3942C7.13437 44.806 7.02357 45.1058 6.62807 45.3767L5.71821 46L5.47446 45.6909L5.64703 45.5726C5.4758 45.5757 5.27906 45.4819 5.12999 45.2929C4.92989 45.0388 4.95541 44.7403 5.24414 44.5426C5.5725 44.3173 5.9069 44.4362 6.12916 44.7178C6.22652 44.8417 6.28091 44.995 6.28158 45.0995C6.53809 44.938 6.62538 44.7829 6.46154 44.5757C6.33463 44.4149 6.201 44.3492 6.07074 44.281L6.2789 44ZM5.8928 45.3655L6.04589 45.2609C6.04724 45.1652 6.00695 45.0688 5.92637 44.9662C5.83371 44.8486 5.69068 44.7841 5.56444 44.8705C5.45163 44.9481 5.45701 45.0776 5.54497 45.189C5.66181 45.3379 5.79207 45.3673 5.8928 45.3655Z" fill="white"/>
<path d="M7.27729 46L8 47.2221L7.69338 47.5903L7.24584 46.8331L6.27517 48L6 47.5343L7.27729 46Z" fill="white"/>
<path d="M7 48.5008L8.53341 47L8.91715 47.3917L7.94615 48.3422L9.61704 48.1075L10 48.4992L8.4666 50L8.08364 49.6083L9.05464 48.6578L7.38374 48.8925L7 48.5008Z" fill="white"/>
<path d="M11 49.6756L10.019 51L9.72895 50.7071L10.0234 50.3096L9.86203 50.1466L9.33297 50.307L9 49.971L9.65128 49.8056C9.58338 49.6648 9.55405 49.4195 9.71537 49.2014C9.90494 48.9453 10.2205 48.8882 10.629 49.3003L11 49.6756ZM10.0576 49.907L10.2091 50.0598L10.4927 49.6775L10.3639 49.5475C10.2227 49.4049 10.0831 49.4391 10.0087 49.5387C9.92776 49.6477 9.96687 49.8151 10.0576 49.907Z" fill="white"/>
<path d="M10.8644 51.0813C11.0474 51.2229 11.0405 51.4718 10.872 51.694C10.6514 51.9842 10.3271 52.0705 10 51.9422L10.0348 51.6765C10.1427 51.7108 10.2512 51.7242 10.3793 51.6548C10.4593 51.6134 10.5171 51.5657 10.5296 51.5216C10.4886 51.5335 10.4475 51.5019 10.4204 51.4809C10.332 51.4129 10.3174 51.2552 10.4134 51.129C10.5227 50.986 10.6946 50.9502 10.8644 51.0813Z" fill="white"/>
<path d="M12.8248 51.6929L13.5098 52.1328C13.6005 51.8755 13.484 51.6556 13.2755 51.5217C13.0975 51.407 12.9221 51.387 12.7308 51.4004L12.7447 51.0212C12.9922 50.9572 13.2921 51.0472 13.4867 51.1724C14.0142 51.511 14.146 52.0415 13.8315 52.538C13.5456 52.9898 13.0147 53.1584 12.4945 52.8245C12.1966 52.6333 12.049 52.4173 12 52.1828L12.3508 52.0395C12.3886 52.1701 12.5004 52.344 12.6884 52.4647C12.9214 52.614 13.1597 52.6026 13.345 52.4014L12.6566 51.9595L12.8248 51.6929Z" fill="white"/>
<path d="M14.3782 52L16 52.7484L15.7538 53.137L15.1719 52.8686L14.4551 54L14 53.7897L14.7167 52.6583L14.1312 52.388L14.3782 52Z" fill="white"/>
<path d="M17.3884 53.1037C17.9415 53.3549 18.1314 53.9 17.9091 54.4126C17.6868 54.9252 17.1647 55.1472 16.6116 54.8967C16.0585 54.6455 15.8686 54.1004 16.0909 53.5878C16.3126 53.0746 16.8353 52.8525 17.3884 53.1037ZM16.7876 54.4898C17.0509 54.6096 17.3282 54.5033 17.4565 54.2067C17.5816 53.9183 17.4704 53.6312 17.2104 53.5134C16.9583 53.3989 16.6751 53.4978 16.5468 53.7944C16.4237 54.0794 16.5276 54.372 16.7876 54.4898Z" fill="white"/>
<path d="M19.4206 54L19.7473 54.1032L20.0526 54.882L20.6829 54.3982L21 54.498L20.5805 56L20.2191 55.886L20.4753 54.9682L19.901 55.3971L19.8914 55.3942L19.6176 54.6977L19.3614 55.6154L19 55.5014L19.4206 54Z" fill="white"/>
<path d="M22.4678 55.0655C22.6792 55.006 22.9935 54.9757 23.2789 55.0239C23.9219 55.1315 24.0819 55.44 23.9645 55.9122L23.6944 57L23.2113 56.9188L23.2628 56.712C23.1133 56.8276 22.8577 56.8838 22.5627 56.8342C22.1664 56.7675 21.9317 56.5172 22.0177 56.1718C22.1158 55.7788 22.5145 55.6513 22.9541 55.7253C23.1478 55.7577 23.3279 55.8415 23.4187 55.9234C23.5071 55.6282 23.4509 55.4492 23.1269 55.3951C22.8754 55.3528 22.7001 55.3898 22.5265 55.4221L22.4678 55.0655ZM23.3014 56.3877L23.3464 56.2048C23.2644 56.1288 23.1454 56.08 22.9863 56.0535C22.803 56.0225 22.6206 56.0667 22.5836 56.2173C22.5498 56.3521 22.6664 56.4505 22.8408 56.4795C23.0723 56.5192 23.2146 56.4558 23.3014 56.3877Z" fill="white"/>
<path d="M24.3062 55L24.7553 55.0623L24.7348 55.2567C24.8585 55.1365 25.0763 55.0564 25.3024 55.0883C25.7861 55.1558 26.0532 55.6335 25.9911 56.2344C25.9264 56.8539 25.51 57.2812 24.9481 57.2033C24.7918 57.1818 24.6432 57.1283 24.5484 57.0467L24.4491 58L24 57.9377L24.3062 55ZM24.6861 55.7226L24.6003 56.5453C24.7117 56.6528 24.8104 56.6936 24.959 56.7144C25.271 56.7582 25.478 56.5208 25.5132 56.1818C25.5471 55.8561 25.4075 55.5987 25.1109 55.5571C24.959 55.5364 24.8098 55.5979 24.6861 55.7226Z" fill="white"/>
<path d="M26.0722 56L26.5866 56.0175L26.5144 57.9482L26 57.9307L26.0722 56ZM27.1696 56.9573L28 58L27.3287 57.9769L26.5684 56.9755L27.3287 56.0434L27.9774 56.0658L27.1696 56.9573Z" fill="white"/>
<path d="M29.8716 57.7316C29.679 57.9001 29.3982 57.9878 29.118 57.9989C28.4745 58.0237 28.0264 57.6425 28.0011 57.0416C27.9772 56.4871 28.3572 56.0264 29.0145 56.0009C29.5292 55.9808 29.9751 56.3151 29.9983 56.8489C30.0033 56.9677 29.9975 57.0396 29.9787 57.1128L28.536 57.1694C28.5925 57.4553 28.8393 57.6031 29.1542 57.5907C29.3982 57.581 29.5987 57.4885 29.7101 57.3952L29.8716 57.7316ZM28.5042 56.8434L29.485 56.8047C29.4792 56.5713 29.3026 56.3959 29.0102 56.4076C28.704 56.4201 28.5469 56.5913 28.5042 56.8434Z" fill="white"/>
<path d="M30 55.1988L31.9372 55L32 55.4788L31.3054 55.5499L31.4891 56.9447L30.9457 57L30.762 55.6052L30.0628 55.6769L30 55.1988Z" fill="white"/>
<path d="M32.3383 57L32 55.3263L32.4343 55.241L32.6483 56.301L33.2275 55.0853L33.6617 55L34 56.6737L33.5657 56.759L33.3517 55.699L32.7725 56.9147L32.3383 57Z" fill="white"/>
<path d="M36.4078 55.0832L35.7033 55.2845L35.8843 55.8825L35.4731 56L35 54.4362L35.4112 54.3188L35.5897 54.9097L36.2943 54.7084L36.1157 54.1175L36.5269 54L37 55.5638L36.5888 55.6812L36.4078 55.0832Z" fill="white"/>
<path d="M37 54.4036L37.8811 54L38 54.3832L37.4543 54.6329L37.8298 55.8461L37.4944 56L37 54.4036Z" fill="white"/>
<path d="M11.4896 11.528C11.392 11.1726 11.2701 10.906 11.1237 10.7276C10.9773 10.5499 10.8187 10.4247 10.6472 10.352C10.4764 10.2793 10.2846 10.243 10.0732 10.243H10V10H17.1547V10.243H16.5197C16.0311 10.243 15.6651 10.3117 15.4211 10.449C15.1771 10.5863 15.0552 10.8576 15.0552 11.2614C15.0552 11.3913 15.0755 11.5522 15.1161 11.7468C15.1568 11.9406 15.2015 12.1271 15.2503 12.3048L16.4716 16.5003C16.6017 16.921 16.7481 17.4259 16.9108 18.0162C17.0734 18.6065 17.2361 19.1847 17.3994 19.7502C17.5621 20.3163 17.6922 20.7854 17.7905 21.157H17.8392C17.888 20.9631 17.9328 20.7928 17.9734 20.6474C18.0141 20.502 18.0548 20.3567 18.0954 20.2113C18.1361 20.0659 18.1808 19.9124 18.2296 19.7502L20.9398 10.1218H22.5027L24.8957 17.2764C24.9933 17.5672 25.0909 17.8627 25.1885 18.1616C25.2861 18.4611 25.3837 18.7681 25.4813 19.0831C25.5789 19.3981 25.6724 19.7098 25.7619 20.0167C25.8513 20.3237 25.9367 20.6232 26.018 20.914H26.0912C26.1563 20.6394 26.2458 20.292 26.3596 19.8713C26.4735 19.4513 26.5995 19.0023 26.7378 18.5258C26.876 18.0492 27.0021 17.6083 27.116 17.2038L28.4104 12.644C28.4755 12.434 28.5283 12.2119 28.569 11.977C28.6097 11.7427 28.63 11.561 28.63 11.4311C28.63 11.0104 28.4958 10.7075 28.2274 10.5217C27.959 10.3359 27.5558 10.243 27.0184 10.243H26.1895V10H31V10.243H30.5846C30.2918 10.243 30.039 10.2915 29.8275 10.3884C29.6154 10.4853 29.4284 10.6711 29.2657 10.9464C29.103 11.2217 28.9485 11.6256 28.8015 12.1594L25.7246 23H23.4291L20.2797 13.3952L17.5695 22.9993H14.9325L11.4896 11.528Z" fill="white"/>
<path d="M17.906 44C16.8373 44 15.9392 43.7569 15.2139 43.272C14.4879 42.7871 13.9372 42.0345 13.5626 41.014C13.1873 39.9943 13 38.6862 13 37.0905C13 35.4954 13.1873 34.1956 13.5626 33.1916C13.9372 32.1883 14.4799 31.4438 15.19 30.9583C15.9 30.4734 16.7655 30.2303 17.7864 30.2303C18.7436 30.2303 19.5334 30.5063 20.1558 31.0569C20.7781 31.6082 21.1767 32.4595 21.352 33.6107H21.3999C21.3999 32.9532 21.3959 32.3396 21.3879 31.7726C21.3799 31.2048 21.376 30.7035 21.376 30.2672C21.376 29.8317 21.376 29.4817 21.376 29.2187V26.7519C21.376 26.3074 21.2803 25.9787 21.089 25.765C20.8977 25.5513 20.6699 25.4116 20.4068 25.3452C20.1438 25.2794 19.9 25.2465 19.6769 25.2465H19.3899V25H25.014V41.903C25.014 42.3639 25.1056 42.709 25.2889 42.9392C25.4723 43.17 25.6994 43.322 25.9711 43.396C26.2421 43.4699 26.4892 43.5069 26.7131 43.5069H27V43.7535H21.3999V40.373H21.352C21.1926 41.6235 20.8014 42.5406 20.1797 43.1241C19.5573 43.7082 18.7994 44 17.906 44ZM18.911 43.3836C19.7247 43.3836 20.3391 42.8248 20.7536 41.7057C21.1681 40.5874 21.376 38.9341 21.376 36.746C21.376 35.4468 21.2803 34.3606 21.089 33.4888C20.8977 32.617 20.6181 31.9588 20.2514 31.5144C19.8841 31.0699 19.4218 30.848 18.8632 30.848C18.3843 30.848 17.9811 31.0699 17.6543 31.5144C17.3268 31.9588 17.0837 32.617 16.9243 33.4888C16.7649 34.3606 16.6852 35.4468 16.6852 36.746C16.6852 38.2102 16.7688 39.4354 16.9362 40.4223C17.1036 41.4092 17.3554 42.1495 17.6901 42.6433C18.0256 43.1364 18.4327 43.3836 18.911 43.3836Z" fill="white"/>
<path d="M33.9412 43C32.5125 43 31.4487 42.6353 30.7513 41.9051C30.0532 41.175 29.7044 40.0087 29.7044 38.405V31.9295C29.7044 31.4378 29.6436 31.0724 29.522 30.8339C29.4003 30.596 29.2212 30.4374 28.986 30.3581C28.7502 30.2788 28.446 30.2392 28.073 30.2392H28V30.0007H33.4059V39.1907C33.4059 39.8732 33.4668 40.4448 33.5884 40.9047C33.7101 41.3653 33.9047 41.7102 34.173 41.9401C34.4406 42.1707 34.7941 42.2851 35.232 42.2851C35.8166 42.2851 36.2708 42.0947 36.5959 41.7135C36.9202 41.3322 37.1473 40.801 37.2778 40.1184C37.4075 39.4358 37.4724 38.6508 37.4724 37.7614V31.7854C37.4724 31.3255 37.3791 30.9878 37.1926 30.7738C37.0061 30.5597 36.779 30.4163 36.5107 30.3456C36.2424 30.2742 35.9869 30.2385 35.7436 30.2385H35.6463V30H41.1739V41.0706C41.1739 41.4835 41.2712 41.7967 41.4659 42.0108C41.6605 42.2249 41.8923 42.3643 42.16 42.4278C42.4276 42.4912 42.6749 42.5229 42.9027 42.5229H43V42.7608H37.4724V40.5228H37.4237C37.2778 41.0468 37.0825 41.4749 36.8392 41.8086C36.5959 42.1417 36.3194 42.3921 36.0113 42.5586C35.7031 42.7251 35.3699 42.8401 35.0131 42.9035C34.6556 42.9683 34.298 43 33.9412 43Z" fill="white"/>
<path d="M34.5725 28C32.4146 28 30.7798 27.4384 29.668 26.314C28.5562 25.1902 28 23.6204 28 21.6046C28 19.4183 28.539 17.7711 29.6182 16.6628C30.6968 15.5545 32.2156 15 34.1745 15C35.9834 15 37.4068 15.4731 38.4439 16.4188C39.4811 17.3644 40 18.8606 40 20.6919C40 20.952 39.7741 21.1631 39.4956 21.1631H32.4374C32.1036 21.1631 31.8335 21.4193 31.839 21.7311C31.8632 23.0388 31.9737 24.1168 32.17 24.9656C32.3939 25.9351 32.7511 26.64 33.2403 27.0821C33.7295 27.5243 34.3645 27.745 35.1446 27.745C35.7257 27.745 36.2667 27.6521 36.7255 27.3958C37.8981 26.7413 37.2258 25.6195 37.2258 24.9282C37.2258 24.3027 37.6569 23.5888 38.5918 23.5888C39.5322 23.5888 39.9986 24.182 39.9986 24.9282C39.9986 26.5786 38.0197 27.3416 37.2976 27.605C36.577 27.8683 35.6683 28 34.5725 28ZM35.6144 20.9307C35.9468 20.9307 36.2163 20.6757 36.2121 20.3652C36.1983 19.2176 36.141 18.2855 36.0415 17.5703C35.9254 16.7409 35.7181 16.1438 35.4189 15.7797C35.1204 15.4157 34.7051 15.233 34.1738 15.233C33.6424 15.233 33.203 15.4157 32.854 15.7797C32.5051 16.1444 32.2522 16.7415 32.0947 17.5703C31.9585 18.2842 31.8749 19.2137 31.8445 20.3581C31.8362 20.6718 32.1064 20.9307 32.4422 20.9307H35.6144Z" fill="white"/>
<path d="M49 5.86201H46.7365C44.749 5.86201 43.1377 4.25077 43.1377 2.26337V0H42.8623V2.26337C42.8623 4.25077 41.251 5.86201 39.2635 5.86201H37V6.13734H39.2635C41.251 6.13734 42.8623 7.74858 42.8623 9.73598V12H43.1377V9.73598C43.1377 7.74858 44.749 6.13734 46.7365 6.13734H49V5.86201Z" fill="white"/>
<path d="M44.2522 51L44 50.6522C47.2093 48.2309 49.8695 45.043 51.6942 41.4335C53.6062 37.6498 54.5757 33.5579 54.5757 29.2709C54.5757 21.6425 51.3559 14.3726 45.7413 9.32502L46.0217 9C51.7277 14.1294 55 21.5178 55 29.2709C55 33.6276 54.0147 37.7865 52.0712 41.6319C50.2169 45.3003 47.5134 48.5399 44.2522 51Z" fill="white"/>
</svg>
