<svg width="82" height="15" viewBox="0 0 82 15" fill="none" xmlns="http://www.w3.org/2000/svg">
<path d="M4.30435 11.2193H5.81088V2.30566H3.61953C1.41575 2.30566 0.257797 3.47278 0.257797 5.19136C0.257797 6.56365 0.892787 7.37167 2.02582 8.20532L0.0585938 11.2193H1.68968L3.88103 7.84618L3.12152 7.32038C2.20014 6.67911 1.7519 6.17889 1.7519 5.10157C1.7519 4.1525 2.39935 3.51124 3.63199 3.51124H4.30435V11.2193ZM33.3522 11.3475C34.0369 11.3475 34.5226 11.2193 34.8837 10.9499V9.70586C34.5103 9.9752 34.062 10.1419 33.4394 10.1419C32.3809 10.1419 31.9454 9.29547 31.9454 7.96164C31.9454 6.56365 32.4808 5.84546 33.4518 5.84546C34.0246 5.84546 34.5847 6.05064 34.8837 6.24302V4.94769C34.5724 4.76811 34.0246 4.63985 33.2901 4.63985C31.3976 4.63985 30.4139 6.03784 30.4139 8.0001C30.4139 10.1547 31.3725 11.3475 33.3522 11.3475ZM24.0888 10.7832V9.53914C23.6281 9.85978 22.8561 10.1419 22.134 10.1419C21.0508 10.1419 20.6399 9.6161 20.5776 8.53878H24.151V7.73076C24.151 5.48633 23.1923 4.63985 21.7106 4.63985C19.9053 4.63985 19.0462 6.06347 19.0462 8.01294C19.0462 10.2574 20.1169 11.3475 22.0095 11.3475C22.9557 11.3475 23.653 11.091 24.0888 10.7832ZM10.5173 4.7681V7.32038H8.53765V4.7681H7.05598V11.2193H8.53765V8.52595H10.5173V11.2193H11.999V4.7681H10.5173ZM18.6851 10.0137H18.0252V4.7681H13.7048V5.31962C13.7048 6.89712 13.6051 8.93634 13.0822 10.0137H12.6215V12.6942H13.9911V11.2193H17.3155V12.6942H18.6851V10.0137ZM28.8201 11.2193H30.5011L28.1228 7.7436L30.2145 4.7681H28.7205L26.6287 7.7436V4.7681H25.1471V11.2193H26.6287V8.0514L28.8201 11.2193ZM21.6858 5.84546C22.4204 5.84546 22.6445 6.4739 22.6445 7.28188V7.41013H20.5776C20.615 6.3841 20.9761 5.84546 21.6858 5.84546ZM16.5436 10.0137H14.4518C14.8627 9.03896 14.9747 7.28188 14.9747 6.1661V5.97372H16.5436V10.0137Z" fill="white"/>
<path d="M39.8838 4.3393C39.8838 2.42683 41.4342 0.876465 43.3466 0.876465H49.668C51.5805 0.876465 53.1308 2.42683 53.1308 4.3393V10.6607C53.1308 12.5732 51.5805 14.1235 49.668 14.1235H43.3466C41.4342 14.1235 39.8838 12.5732 39.8838 10.6607V4.3393Z" fill="white"/>
<path fill-rule="evenodd" clip-rule="evenodd" d="M46.3325 1.67353C46.3029 4.03551 46.1417 5.3631 45.2559 6.24899C44.3702 7.13488 43.0429 7.2961 40.6812 7.32546V7.67467C43.0429 7.70403 44.3702 7.86525 45.2559 8.75114C46.1417 9.63703 46.3029 10.9646 46.3325 13.3266H46.6815C46.711 10.9646 46.8723 9.63703 47.758 8.75114C48.6438 7.86525 49.971 7.704 52.3331 7.67467V7.32546C49.971 7.2961 48.6438 7.13488 47.758 6.24899C46.8723 5.3631 46.711 4.03551 46.6815 1.67353H46.3325Z" fill="#1C1C1C"/>
<path d="M59.5086 12.6942V10.9009H64.0444V12.6942H65.4224V9.73841H64.6299V2.30566H59.4477L59.3015 6.57238C59.2528 7.95753 59.1062 9.08292 58.716 9.73841H58.1309V12.6942H59.5086ZM60.5939 6.77026L60.7034 3.46818H63.1544V9.73841H60.1062C60.3623 9.15713 60.5451 8.15537 60.5939 6.77026Z" fill="white"/>
<path d="M67.8979 9.86208C67.1541 9.86208 66.4228 9.58999 66.0325 9.29318V10.4928C66.3128 10.7278 67.02 11.0246 68.0687 11.0246C69.6171 11.0246 70.4342 10.3196 70.4342 9.07058C70.4342 8.34088 69.9832 7.84619 69.1782 7.67306C69.9344 7.42571 70.2514 6.88156 70.2514 6.18898C70.2514 5.13776 69.4343 4.55652 68.1174 4.55652C67.1666 4.55652 66.5448 4.85333 66.1912 5.07593V6.27557C66.581 6.01585 67.1178 5.71904 67.9104 5.71904C68.4468 5.71904 68.7883 5.97876 68.7883 6.43633C68.7883 6.91865 68.4955 7.17837 67.8979 7.17837H66.9837V8.29142H67.8979C68.6417 8.29142 68.9345 8.51406 68.9345 9.05821C68.9345 9.5529 68.5809 9.86208 67.8979 9.86208Z" fill="white"/>
<path d="M75.9242 10.4804V9.28081C75.4727 9.58999 74.7168 9.86208 74.0097 9.86208C72.9489 9.86208 72.5466 9.35502 72.4858 8.31617H75.985V7.53701C75.985 5.37274 75.0462 4.55652 73.5953 4.55652C71.8273 4.55652 70.986 5.92926 70.986 7.80911C70.986 9.97338 72.0343 11.0246 73.888 11.0246C74.8147 11.0246 75.4973 10.7773 75.9242 10.4804ZM73.5707 5.71904C74.2903 5.71904 74.5098 6.32503 74.5098 7.10416V7.22783H72.4858C72.5224 6.23845 72.876 5.71904 73.5707 5.71904Z" fill="white"/>
<path d="M80.3468 4.6802V7.14128H78.4081V4.6802H76.9571V10.9009H78.4081V8.3038H80.3468V10.9009H81.7977V4.6802H80.3468Z" fill="white"/>
</svg>
