<svg width="63" height="66" viewBox="0 0 63 66" fill="none" xmlns="http://www.w3.org/2000/svg">
<path d="M1.15351 34.5193L1.20807 35.436C1.47877 35.3484 1.59133 35.0963 1.57476 34.8164C1.56026 34.5784 1.46979 34.4048 1.34065 34.2395L1.66591 34C1.87239 34.1833 1.98081 34.5163 1.99669 34.7775C2.03882 35.4831 1.67558 35.9553 1.06719 35.9972C0.513355 36.0361 0.0451474 35.6635 0.0037133 34.9668C-0.019766 34.568 0.069317 34.2903 0.236435 34.0898L0.572741 34.315C0.48642 34.4363 0.410461 34.6533 0.424963 34.9055C0.443608 35.2175 0.600363 35.427 0.882806 35.4629L0.828253 34.5418L1.15351 34.5193Z" fill="#1C1C1C"/>
<path d="M1.76973 36L2 37.9266L1.52658 38L1.44396 37.3091L0.0643422 37.524L0 36.9838L1.37962 36.7689L1.29631 36.0734L1.76973 36Z" fill="#1C1C1C"/>
<path d="M2.97058 39.7963C3.1036 40.3895 2.77379 40.8587 2.21839 40.9748C1.66299 41.0916 1.16244 40.7963 1.02942 40.2037C0.896398 39.6112 1.22621 39.1413 1.78161 39.0252C2.33701 38.9084 2.83824 39.203 2.97058 39.7963ZM1.46963 40.1108C1.53271 40.3935 1.78915 40.5561 2.11005 40.4891C2.42272 40.4234 2.58934 40.1679 2.52695 39.8892C2.46661 39.6185 2.2129 39.4466 1.89201 39.5143C1.58345 39.5793 1.40723 39.8328 1.46963 40.1108Z" fill="#1C1C1C"/>
<path d="M2.40668 44.1004L2.06192 43.0892L1.20133 43.3985L1 42.8083L3.25259 42L3.45392 42.5902L2.60282 42.896L2.94758 43.9072L3.79868 43.6015L4 44.1917L1.74741 45L1.54608 44.4097L2.40668 44.1004Z" fill="#1C1C1C"/>
<path d="M3.61997 47C3.3963 46.8929 3.21653 46.6781 3.10812 46.4358C2.85768 45.8785 3.05117 45.3438 3.59664 45.098C4.09957 44.8715 4.65877 45.0363 4.91401 45.6053C5.11436 46.0514 4.96272 46.5676 4.479 46.7845C4.37128 46.8325 4.30267 46.8545 4.22857 46.8648L3.66732 45.6156C3.42305 45.7714 3.37434 46.0425 3.49716 46.3157C3.59184 46.5271 3.74828 46.6692 3.87384 46.733L3.61997 47ZM3.95686 45.468L4.33835 46.3171C4.55104 46.2258 4.65122 46.0054 4.53664 45.7522C4.41794 45.4865 4.20386 45.4117 3.95686 45.468Z" fill="#1C1C1C"/>
<path d="M5.78532 48L6.03658 48.4015L5.66044 49.4344L6.7563 49.5523L7 49.942L5.21544 51L4.93769 50.5557L6.02825 49.9089L5.04062 49.7903L5.03305 49.7785L5.36832 48.8546L4.27775 49.5015L4 49.0572L5.78532 48Z" fill="#1C1C1C"/>
<path d="M7.2789 50C7.45013 50.0682 7.66567 50.2115 7.81004 50.3942C8.13437 50.806 8.02357 51.1058 7.62807 51.3767L6.71821 52L6.47446 51.6909L6.64703 51.5726C6.4758 51.5757 6.27906 51.4819 6.12999 51.2929C5.92989 51.0388 5.95541 50.7403 6.24414 50.5426C6.5725 50.3173 6.9069 50.4362 7.12916 50.7178C7.22652 50.8417 7.28091 50.995 7.28158 51.0995C7.53809 50.938 7.62538 50.7829 7.46154 50.5757C7.33463 50.4149 7.201 50.3492 7.07074 50.281L7.2789 50ZM6.8928 51.3655L7.04589 51.2609C7.04724 51.1652 7.00695 51.0688 6.92637 50.9662C6.83371 50.8486 6.69068 50.7841 6.56444 50.8705C6.45163 50.9481 6.45701 51.0776 6.54497 51.189C6.66181 51.3379 6.79207 51.3673 6.8928 51.3655Z" fill="#1C1C1C"/>
<path d="M8.91594 52L10 53.2221L9.54007 53.5903L8.86877 52.8331L7.41276 54L7 53.5343L8.91594 52Z" fill="#1C1C1C"/>
<path d="M9 54.5008L10.5334 53L10.9171 53.3917L9.94615 54.3422L11.617 54.1075L12 54.4992L10.4666 56L10.0836 55.6083L11.0546 54.6578L9.38374 54.8925L9 54.5008Z" fill="#1C1C1C"/>
<path d="M13 56.6756L11.5285 58L11.0934 57.7071L11.535 57.3096L11.293 57.1466L10.4995 57.307L10 56.971L10.9769 56.8056C10.8751 56.6648 10.8311 56.4195 11.0731 56.2014C11.3574 55.9453 11.8308 55.8882 12.4435 56.3003L13 56.6756ZM11.5864 56.907L11.8137 57.0598L12.239 56.6775L12.0459 56.5475C11.8341 56.4049 11.6247 56.4391 11.513 56.5387C11.3916 56.6477 11.4503 56.8151 11.5864 56.907Z" fill="#1C1C1C"/>
<path d="M12.8644 58.0813C13.0474 58.2229 13.0405 58.4718 12.872 58.694C12.6514 58.9842 12.3271 59.0705 12 58.9422L12.0348 58.6765C12.1427 58.7108 12.2512 58.7242 12.3793 58.6548C12.4593 58.6134 12.5171 58.5657 12.5296 58.5216C12.4886 58.5335 12.4475 58.5019 12.4204 58.4809C12.332 58.4129 12.3174 58.2552 12.4134 58.129C12.5227 57.986 12.6946 57.9502 12.8644 58.0813Z" fill="#1C1C1C"/>
<path d="M14.8248 58.6929L15.5098 59.1328C15.6005 58.8755 15.484 58.6556 15.2755 58.5217C15.0975 58.407 14.9221 58.387 14.7308 58.4004L14.7447 58.0212C14.9922 57.9572 15.2921 58.0472 15.4867 58.1724C16.0142 58.511 16.146 59.0415 15.8315 59.538C15.5456 59.9898 15.0147 60.1584 14.4945 59.8245C14.1966 59.6333 14.049 59.4173 14 59.1828L14.3508 59.0395C14.3886 59.1701 14.5004 59.344 14.6884 59.4647C14.9214 59.614 15.1597 59.6026 15.345 59.4014L14.6566 58.9595L14.8248 58.6929Z" fill="#1C1C1C"/>
<path d="M17.3782 59L19 59.7484L18.7538 60.137L18.1719 59.8686L17.4551 61L17 60.7897L17.7167 59.6583L17.1312 59.388L17.3782 59Z" fill="#1C1C1C"/>
<path d="M20.3884 60.1037C20.9415 60.3549 21.1314 60.9 20.9091 61.4126C20.6868 61.9252 20.1647 62.1472 19.6116 61.8967C19.0585 61.6455 18.8686 61.1004 19.0909 60.5878C19.3126 60.0746 19.8353 59.8525 20.3884 60.1037ZM19.7876 61.4898C20.0509 61.6096 20.3282 61.5033 20.4565 61.2067C20.5816 60.9183 20.4704 60.6312 20.2104 60.5134C19.9583 60.3989 19.6751 60.4978 19.5468 60.7944C19.4237 61.0794 19.5276 61.372 19.7876 61.4898Z" fill="#1C1C1C"/>
<path d="M22.6309 62L23.1209 62.1549L23.5789 63.323L24.5244 62.5973L25 62.747L24.3707 65L23.8287 64.829L24.213 63.4524L23.3515 64.0956L23.3371 64.0913L22.9263 63.0465L22.542 64.4231L22 64.2521L22.6309 62Z" fill="#1C1C1C"/>
<path d="M25.4678 63.0655C25.6792 63.006 25.9935 62.9757 26.2789 63.0239C26.9219 63.1315 27.0819 63.44 26.9645 63.9122L26.6944 65L26.2113 64.9188L26.2628 64.712C26.1133 64.8276 25.8577 64.8838 25.5627 64.8342C25.1664 64.7675 24.9317 64.5172 25.0177 64.1718C25.1158 63.7788 25.5145 63.6513 25.9541 63.7253C26.1478 63.7577 26.3279 63.8415 26.4187 63.9234C26.5071 63.6282 26.4509 63.4492 26.1269 63.3951C25.8754 63.3528 25.7001 63.3898 25.5265 63.4221L25.4678 63.0655ZM26.3014 64.3877L26.3464 64.2048C26.2644 64.1288 26.1454 64.08 25.9863 64.0535C25.803 64.0225 25.6206 64.0667 25.5836 64.2173C25.5498 64.3521 25.6664 64.4505 25.8408 64.4795C26.0723 64.5192 26.2146 64.4558 26.3014 64.3877Z" fill="#1C1C1C"/>
<path d="M27.3062 63L27.7553 63.0623L27.7348 63.2567C27.8585 63.1365 28.0763 63.0564 28.3024 63.0883C28.7861 63.1558 29.0532 63.6335 28.9911 64.2344C28.9264 64.8539 28.51 65.2812 27.9481 65.2033C27.7918 65.1818 27.6432 65.1283 27.5484 65.0467L27.4491 66L27 65.9377L27.3062 63ZM27.6861 63.7226L27.6003 64.5453C27.7117 64.6528 27.8104 64.6936 27.959 64.7144C28.271 64.7582 28.478 64.5208 28.5132 64.1818C28.5471 63.8561 28.4075 63.5987 28.1109 63.5571C27.959 63.5364 27.8098 63.5979 27.6861 63.7226Z" fill="#1C1C1C"/>
<path d="M30.0722 63L30.5866 63.0175L30.5144 64.9482L30 64.9307L30.0722 63ZM31.1696 63.9573L32 65L31.3287 64.9769L30.5684 63.9755L31.3287 63.0434L31.9774 63.0658L31.1696 63.9573Z" fill="#1C1C1C"/>
<path d="M34.8716 64.7316C34.679 64.9001 34.3982 64.9878 34.118 64.9989C33.4745 65.0237 33.0264 64.6425 33.0011 64.0416C32.9772 63.4871 33.3572 63.0264 34.0145 63.0009C34.5292 62.9808 34.9751 63.3151 34.9983 63.8489C35.0033 63.9677 34.9975 64.0396 34.9787 64.1128L33.536 64.1694C33.5925 64.4553 33.8393 64.6031 34.1542 64.5907C34.3982 64.581 34.5987 64.4885 34.7101 64.3952L34.8716 64.7316ZM33.5042 63.8434L34.485 63.8047C34.4792 63.5713 34.3026 63.3959 34.0102 63.4076C33.704 63.4201 33.5469 63.5913 33.5042 63.8434Z" fill="#1C1C1C"/>
<path d="M35 63.1988L36.9372 63L37 63.4788L36.3054 63.5499L36.4891 64.9447L35.9457 65L35.762 63.6052L35.0628 63.6769L35 63.1988Z" fill="#1C1C1C"/>
<path d="M37.3383 64L37 62.3263L37.4343 62.241L37.6483 63.301L38.2275 62.0853L38.6617 62L39 63.6737L38.5657 63.759L38.3517 62.699L37.7725 63.9147L37.3383 64Z" fill="#1C1C1C"/>
<path d="M42.1118 63.6249L41.055 63.9268L41.3264 64.8238L40.7097 65L40 62.6544L40.6168 62.4782L40.8846 63.3645L41.9414 63.0626L41.6736 62.1762L42.2903 62L43 64.3456L42.3832 64.5219L42.1118 63.6249Z" fill="#1C1C1C"/>
<path d="M42 61.4036L43.7622 61L44 61.3832L42.9085 61.6329L43.6596 62.8461L42.9888 63L42 61.4036Z" fill="#1C1C1C"/>
<path d="M13.7024 12.7631C13.5909 12.353 13.4515 12.0454 13.2842 11.8396C13.1169 11.6345 12.9356 11.4901 12.7397 11.4062C12.5445 11.3223 12.3253 11.2804 12.0837 11.2804H12V11H20.1769V11.2804H19.4511C18.8927 11.2804 18.4744 11.3596 18.1956 11.518C17.9167 11.6765 17.7773 11.9895 17.7773 12.4555C17.7773 12.6054 17.8006 12.791 17.847 13.0155C17.8935 13.2392 17.9446 13.4543 18.0004 13.6593L19.3961 18.5004C19.5448 18.9858 19.7121 19.5683 19.898 20.2495C20.0839 20.9306 20.2698 21.5978 20.4565 22.2502C20.6424 22.9034 20.7911 23.4447 20.9034 23.8735H20.9591C21.0149 23.6498 21.066 23.4533 21.1125 23.2855C21.159 23.1177 21.2054 22.95 21.2519 22.7822C21.2984 22.6145 21.3495 22.4374 21.4053 22.2502L24.5027 11.1406H26.2888L29.0237 19.3959C29.1352 19.7314 29.2468 20.0724 29.3583 20.4172C29.4698 20.7629 29.5814 21.117 29.6929 21.4805C29.8044 21.844 29.9113 22.2036 30.0136 22.5578C30.1158 22.9119 30.2134 23.2575 30.3063 23.5931H30.39C30.4643 23.2762 30.5666 22.8754 30.6967 22.39C30.8268 21.9054 30.9709 21.3873 31.1289 20.8374C31.2869 20.2875 31.431 19.7788 31.5611 19.312L33.0405 14.0508C33.1148 13.8085 33.1752 13.5522 33.2217 13.2811C33.2682 13.0108 33.2914 12.8011 33.2914 12.6512C33.2914 12.1658 33.1381 11.8163 32.8313 11.6019C32.5246 11.3876 32.0638 11.2804 31.4496 11.2804H30.5023V11H36V11.2804H35.5252C35.1906 11.2804 34.9017 11.3363 34.66 11.4481C34.4176 11.56 34.2038 11.7743 34.0179 12.092C33.8321 12.4097 33.6555 12.8757 33.4874 13.4916L29.971 26H27.3476L23.7483 14.9176L20.6509 25.9992H17.6371L13.7024 12.7631Z" fill="#1C1C1C"/>
<path d="M20.6069 49C19.3854 49 18.3591 48.7313 17.5302 48.1954C16.7004 47.6594 16.0711 46.8276 15.643 45.6997C15.2141 44.5726 15 43.1268 15 41.3632C15 39.6002 15.2141 38.1635 15.643 37.0539C16.0711 35.9449 16.6913 35.1221 17.5028 34.5854C18.3143 34.0495 19.3035 33.7808 20.4702 33.7808C21.5641 33.7808 22.4667 34.0859 23.178 34.6944C23.8893 35.3038 24.3448 36.2447 24.5452 37.5171H24.5998C24.5998 36.7904 24.5953 36.1122 24.5862 35.4855C24.5771 34.8579 24.5725 34.3039 24.5725 33.8217C24.5725 33.3403 24.5725 32.9535 24.5725 32.6628V29.9363C24.5725 29.445 24.4632 29.0817 24.2446 28.8455C24.026 28.6093 23.7656 28.4549 23.465 28.3815C23.1643 28.3088 22.8858 28.2725 22.6307 28.2725H22.3027V28H28.7302V46.6822C28.7302 47.1917 28.835 47.5732 29.0445 47.8275C29.254 48.0826 29.5136 48.2506 29.8241 48.3324C30.1338 48.4141 30.4162 48.455 30.6721 48.455H31V48.7275H24.5998V44.9912H24.5452C24.363 46.3734 23.9159 47.3869 23.2053 48.0319C22.494 48.6775 21.6279 49 20.6069 49ZM21.7554 48.3187C22.6853 48.3187 23.3875 47.7011 23.8612 46.4642C24.3349 45.2281 24.5725 43.4009 24.5725 40.9824C24.5725 39.5465 24.4632 38.346 24.2446 37.3824C24.026 36.4188 23.7064 35.6913 23.2873 35.2001C22.8675 34.7088 22.3392 34.4636 21.7008 34.4636C21.1534 34.4636 20.6927 34.7088 20.3192 35.2001C19.9449 35.6913 19.6671 36.4188 19.4849 37.3824C19.3027 38.346 19.2116 39.5465 19.2116 40.9824C19.2116 42.6008 19.3073 43.9549 19.4986 45.0457C19.6899 46.1365 19.9776 46.9547 20.3602 47.5005C20.7435 48.0455 21.2089 48.3187 21.7554 48.3187Z" fill="#1C1C1C"/>
<path d="M38.7334 50C37.1142 50 35.9086 49.5791 35.1181 48.7367C34.3269 47.8942 33.9317 46.5485 33.9317 44.6981V37.2263C33.9317 36.659 33.8628 36.2374 33.7249 35.9622C33.587 35.6877 33.384 35.5047 33.1175 35.4132C32.8502 35.3217 32.5055 35.276 32.0827 35.276H32V35.0008H38.1267V45.6046C38.1267 46.3922 38.1957 47.0517 38.3335 47.5823C38.4714 48.1138 38.692 48.5117 38.9961 48.7771C39.2994 49.0431 39.7 49.1751 40.1963 49.1751C40.8588 49.1751 41.3736 48.9555 41.742 48.5156C42.1096 48.0756 42.367 47.4626 42.5148 46.6751C42.6619 45.8875 42.7354 44.9817 42.7354 43.9555V37.0601C42.7354 36.5294 42.6297 36.1398 42.4183 35.8928C42.2069 35.6458 41.9495 35.4803 41.6455 35.3987C41.3414 35.3164 41.0519 35.2752 40.7761 35.2752H40.6658V35H46.9304V47.7737C46.9304 48.2502 47.0407 48.6116 47.2613 48.8586C47.4819 49.1057 47.7446 49.2665 48.0479 49.3397C48.3513 49.4129 48.6316 49.4495 48.8897 49.4495H49V49.724H42.7354V47.1417H42.6802C42.5148 47.7463 42.2935 48.2403 42.0177 48.6253C41.742 49.0096 41.4287 49.2986 41.0794 49.4907C40.7302 49.6828 40.3526 49.8155 39.9481 49.8887C39.543 49.9634 39.1378 50 38.7334 50Z" fill="#1C1C1C"/>
<path d="M39.1202 32C36.7825 32 35.0114 31.352 33.807 30.0546C32.6026 28.7579 32 26.9466 32 24.6207C32 22.0981 32.5839 20.1974 33.7531 18.9186C34.9216 17.6398 36.5669 17 38.689 17C40.6487 17 42.1907 17.5459 43.3143 18.637C44.4378 19.7282 45 21.4546 45 23.5675C45 23.8677 44.7552 24.1112 44.4536 24.1112H36.8072C36.4456 24.1112 36.1529 24.4069 36.1589 24.7666C36.1851 26.2756 36.3049 27.5194 36.5175 28.4988C36.76 29.6174 37.147 30.4307 37.677 30.9409C38.2069 31.4511 38.8949 31.7058 39.74 31.7058C40.3695 31.7058 40.9556 31.5986 41.4526 31.3029C42.7229 30.5477 41.9946 29.2532 41.9946 28.4556C41.9946 27.7339 42.4617 26.9101 43.4745 26.9101C44.4932 26.9101 44.9985 27.5946 44.9985 28.4556C44.9985 30.36 42.8547 31.2403 42.0724 31.5442C41.2917 31.8481 40.3074 32 39.1202 32ZM40.249 23.8431C40.609 23.8431 40.901 23.5489 40.8965 23.1907C40.8815 21.8664 40.8194 20.791 40.7116 19.9657C40.5858 19.0087 40.3613 18.3198 40.0371 17.8997C39.7138 17.4796 39.2639 17.2689 38.6883 17.2689C38.1126 17.2689 37.6366 17.4796 37.2585 17.8997C36.8805 18.3205 36.6066 19.0094 36.4359 19.9657C36.2884 20.7895 36.1978 21.862 36.1649 23.1825C36.1559 23.5444 36.4486 23.8431 36.8124 23.8431H40.249Z" fill="#1C1C1C"/>
<path d="M56 6.83901H53.3593C51.0405 6.83901 49.1606 4.95923 49.1606 2.6406V0H48.8394V2.6406C48.8394 4.95923 46.9595 6.83901 44.6407 6.83901H42V7.16023H44.6407C46.9595 7.16023 48.8394 9.04002 48.8394 11.3586V14H49.1606V11.3586C49.1606 9.04002 51.0405 7.16023 53.3593 7.16023H56V6.83901Z" fill="#1C1C1C"/>
<path d="M50.2981 58L50 57.6025C53.7928 54.8353 56.9366 51.192 59.0931 47.0669C61.3528 42.7427 62.4985 38.0661 62.4985 33.1667C62.4985 24.4486 58.6933 16.1402 52.0579 10.3715L52.3893 10C59.1327 15.8621 63 24.3061 63 33.1667C63 38.1458 61.8356 42.8989 59.5387 47.2936C57.3473 51.4861 54.1522 55.1884 50.2981 58Z" fill="#1C1C1C"/>
</svg>
