<svg width="346" height="32" viewBox="0 0 346 32" fill="none" xmlns="http://www.w3.org/2000/svg">
<mask id="path-1-outside-1_556_4060" maskUnits="userSpaceOnUse" x="-0.220703" y="0.662109" width="304" height="31" fill="black">
<rect fill="white" x="-0.220703" y="0.662109" width="304" height="31"/>
<path d="M33.7997 2.50174C33.6216 6.80165 33.5325 11.4069 33.5325 16.3174C33.5325 21.2534 33.6216 25.8714 33.7997 30.1713H20.1366L10.9007 9.33326L11.5877 30.1713H1.7793C1.98284 25.2353 2.08462 20.6174 2.08462 16.3174C2.08462 12.043 1.98284 7.43774 1.7793 2.50174L15.824 2.50174L25.0981 23.9123L24.4493 2.50174L33.7997 2.50174ZM55.7424 30.553C49.9159 30.553 45.6287 29.2935 42.8808 26.7746C40.133 24.2303 38.759 20.6683 38.759 16.0885C38.759 11.5596 40.1203 8.02293 42.8427 5.4786C45.5906 2.93427 49.8905 1.66211 55.7424 1.66211C61.6198 1.66211 65.9198 2.93427 68.6422 5.4786C71.3901 8.02293 72.764 11.5596 72.764 16.0885C72.764 20.6937 71.4028 24.2558 68.6804 26.7746C65.9579 29.2935 61.6453 30.553 55.7424 30.553ZM55.7424 22.7673C58.5666 22.7673 60.6021 22.233 61.8488 21.1644C63.0955 20.0703 63.7189 18.3784 63.7189 16.0885C63.7189 13.8494 63.0955 12.1829 61.8488 11.0889C60.6021 9.99479 58.5666 9.44776 55.7424 9.44776C52.9437 9.44776 50.9209 9.99479 49.6742 11.0889C48.4275 12.1829 47.8041 13.8494 47.8041 16.0885C47.8041 18.3529 48.4275 20.0322 49.6742 21.1262C50.9209 22.2203 52.9437 22.7673 55.7424 22.7673ZM108.597 10.4782C104.602 10.351 100.722 10.2747 96.9567 10.2492V30.1713H87.4155V10.2492C83.6244 10.2747 79.757 10.351 75.8133 10.4782V2.46357L108.597 2.46357V10.4782ZM152.893 9.60042L132.131 9.60042V13.6077C133.429 13.6332 135.375 13.6459 137.971 13.6459C142.449 13.6459 147.003 13.5696 151.634 13.4169V20.8972C147.003 20.7191 142.118 20.6301 136.978 20.6301C134.841 20.6301 133.225 20.6428 132.131 20.6683V30.1713H123.124C123.328 25.2353 123.43 20.6174 123.43 16.3174C123.43 12.0175 123.328 7.39957 123.124 2.46357L152.893 2.46357V9.60042ZM174.851 30.553C169.025 30.553 164.738 29.2935 161.99 26.7746C159.242 24.2303 157.868 20.6683 157.868 16.0885C157.868 11.5596 159.229 8.02293 161.952 5.4786C164.699 2.93427 168.999 1.66211 174.851 1.66211C180.729 1.66211 185.029 2.93427 187.751 5.4786C190.499 8.02293 191.873 11.5596 191.873 16.0885C191.873 20.6937 190.512 24.2558 187.789 26.7746C185.067 29.2935 180.754 30.553 174.851 30.553ZM174.851 22.7673C177.676 22.7673 179.711 22.233 180.958 21.1644C182.204 20.0703 182.828 18.3784 182.828 16.0885C182.828 13.8494 182.204 12.1829 180.958 11.0889C179.711 9.99479 177.676 9.44776 174.851 9.44776C172.053 9.44776 170.03 9.99479 168.783 11.0889C167.536 12.1829 166.913 13.8494 166.913 16.0885C166.913 18.3529 167.536 20.0322 168.783 21.1262C170.03 22.2203 172.053 22.7673 174.851 22.7673ZM219.417 2.42541L228.882 2.42541V17.6151C228.831 21.3552 227.546 24.4466 225.027 26.8891C222.533 29.3317 218.323 30.553 212.394 30.553C206.39 30.553 202.281 29.3953 200.067 27.08C197.853 24.7392 196.772 21.6733 196.823 17.8822V2.42541L206.288 2.42541V17.2716C206.288 18.3911 206.364 19.307 206.517 20.0194C206.695 20.7064 207.229 21.3552 208.12 21.9659C209.036 22.5765 210.499 22.8818 212.509 22.8818C214.697 22.8818 216.3 22.5765 217.318 21.9659C218.335 21.3298 218.933 20.6301 219.111 19.8668C219.315 19.1035 219.417 18.1239 219.417 16.9281V2.42541ZM265.86 2.50174C265.682 6.80165 265.593 11.4069 265.593 16.3174C265.593 21.2534 265.682 25.8714 265.86 30.1713H252.197L242.961 9.33326L243.648 30.1713H233.84C234.044 25.2353 234.145 20.6174 234.145 16.3174C234.145 12.043 234.044 7.43774 233.84 2.50174L247.885 2.50174L257.159 23.9123L256.51 2.50174L265.86 2.50174ZM283.033 2.04376C287.816 2.04376 291.594 2.62895 294.368 3.79935C297.141 4.94429 299.075 6.54722 300.169 8.60813C301.288 10.6436 301.848 13.1498 301.848 16.1266C301.848 18.9508 301.212 21.4188 299.94 23.5306C298.667 25.6424 296.759 27.2835 294.215 28.4539C291.671 29.5988 288.541 30.1713 284.826 30.1713C282.562 30.1713 280.259 30.1713 277.918 30.1713C275.578 30.1713 273.211 30.1586 270.82 30.1332C271.023 25.1208 271.125 20.452 271.125 16.1266C271.125 11.7504 271.023 7.1833 270.82 2.42541C273.848 2.17097 277.918 2.04376 283.033 2.04376ZM285.895 22.5765C288.261 22.5765 289.839 22.004 290.627 20.8591C291.416 19.7141 291.81 18.1366 291.81 16.1266C291.81 14.1929 291.391 12.6282 290.551 11.4323C289.737 10.2365 288.185 9.63858 285.895 9.63858C283.427 9.63858 281.582 9.71491 280.361 9.86757V22.5765L285.895 22.5765Z"/>
</mask>
<path d="M33.7997 2.50174C33.6216 6.80165 33.5325 11.4069 33.5325 16.3174C33.5325 21.2534 33.6216 25.8714 33.7997 30.1713H20.1366L10.9007 9.33326L11.5877 30.1713H1.7793C1.98284 25.2353 2.08462 20.6174 2.08462 16.3174C2.08462 12.043 1.98284 7.43774 1.7793 2.50174L15.824 2.50174L25.0981 23.9123L24.4493 2.50174L33.7997 2.50174ZM55.7424 30.553C49.9159 30.553 45.6287 29.2935 42.8808 26.7746C40.133 24.2303 38.759 20.6683 38.759 16.0885C38.759 11.5596 40.1203 8.02293 42.8427 5.4786C45.5906 2.93427 49.8905 1.66211 55.7424 1.66211C61.6198 1.66211 65.9198 2.93427 68.6422 5.4786C71.3901 8.02293 72.764 11.5596 72.764 16.0885C72.764 20.6937 71.4028 24.2558 68.6804 26.7746C65.9579 29.2935 61.6453 30.553 55.7424 30.553ZM55.7424 22.7673C58.5666 22.7673 60.6021 22.233 61.8488 21.1644C63.0955 20.0703 63.7189 18.3784 63.7189 16.0885C63.7189 13.8494 63.0955 12.1829 61.8488 11.0889C60.6021 9.99479 58.5666 9.44776 55.7424 9.44776C52.9437 9.44776 50.9209 9.99479 49.6742 11.0889C48.4275 12.1829 47.8041 13.8494 47.8041 16.0885C47.8041 18.3529 48.4275 20.0322 49.6742 21.1262C50.9209 22.2203 52.9437 22.7673 55.7424 22.7673ZM108.597 10.4782C104.602 10.351 100.722 10.2747 96.9567 10.2492V30.1713H87.4155V10.2492C83.6244 10.2747 79.757 10.351 75.8133 10.4782V2.46357L108.597 2.46357V10.4782ZM152.893 9.60042L132.131 9.60042V13.6077C133.429 13.6332 135.375 13.6459 137.971 13.6459C142.449 13.6459 147.003 13.5696 151.634 13.4169V20.8972C147.003 20.7191 142.118 20.6301 136.978 20.6301C134.841 20.6301 133.225 20.6428 132.131 20.6683V30.1713H123.124C123.328 25.2353 123.43 20.6174 123.43 16.3174C123.43 12.0175 123.328 7.39957 123.124 2.46357L152.893 2.46357V9.60042ZM174.851 30.553C169.025 30.553 164.738 29.2935 161.99 26.7746C159.242 24.2303 157.868 20.6683 157.868 16.0885C157.868 11.5596 159.229 8.02293 161.952 5.4786C164.699 2.93427 168.999 1.66211 174.851 1.66211C180.729 1.66211 185.029 2.93427 187.751 5.4786C190.499 8.02293 191.873 11.5596 191.873 16.0885C191.873 20.6937 190.512 24.2558 187.789 26.7746C185.067 29.2935 180.754 30.553 174.851 30.553ZM174.851 22.7673C177.676 22.7673 179.711 22.233 180.958 21.1644C182.204 20.0703 182.828 18.3784 182.828 16.0885C182.828 13.8494 182.204 12.1829 180.958 11.0889C179.711 9.99479 177.676 9.44776 174.851 9.44776C172.053 9.44776 170.03 9.99479 168.783 11.0889C167.536 12.1829 166.913 13.8494 166.913 16.0885C166.913 18.3529 167.536 20.0322 168.783 21.1262C170.03 22.2203 172.053 22.7673 174.851 22.7673ZM219.417 2.42541L228.882 2.42541V17.6151C228.831 21.3552 227.546 24.4466 225.027 26.8891C222.533 29.3317 218.323 30.553 212.394 30.553C206.39 30.553 202.281 29.3953 200.067 27.08C197.853 24.7392 196.772 21.6733 196.823 17.8822V2.42541L206.288 2.42541V17.2716C206.288 18.3911 206.364 19.307 206.517 20.0194C206.695 20.7064 207.229 21.3552 208.12 21.9659C209.036 22.5765 210.499 22.8818 212.509 22.8818C214.697 22.8818 216.3 22.5765 217.318 21.9659C218.335 21.3298 218.933 20.6301 219.111 19.8668C219.315 19.1035 219.417 18.1239 219.417 16.9281V2.42541ZM265.86 2.50174C265.682 6.80165 265.593 11.4069 265.593 16.3174C265.593 21.2534 265.682 25.8714 265.86 30.1713H252.197L242.961 9.33326L243.648 30.1713H233.84C234.044 25.2353 234.145 20.6174 234.145 16.3174C234.145 12.043 234.044 7.43774 233.84 2.50174L247.885 2.50174L257.159 23.9123L256.51 2.50174L265.86 2.50174ZM283.033 2.04376C287.816 2.04376 291.594 2.62895 294.368 3.79935C297.141 4.94429 299.075 6.54722 300.169 8.60813C301.288 10.6436 301.848 13.1498 301.848 16.1266C301.848 18.9508 301.212 21.4188 299.94 23.5306C298.667 25.6424 296.759 27.2835 294.215 28.4539C291.671 29.5988 288.541 30.1713 284.826 30.1713C282.562 30.1713 280.259 30.1713 277.918 30.1713C275.578 30.1713 273.211 30.1586 270.82 30.1332C271.023 25.1208 271.125 20.452 271.125 16.1266C271.125 11.7504 271.023 7.1833 270.82 2.42541C273.848 2.17097 277.918 2.04376 283.033 2.04376ZM285.895 22.5765C288.261 22.5765 289.839 22.004 290.627 20.8591C291.416 19.7141 291.81 18.1366 291.81 16.1266C291.81 14.1929 291.391 12.6282 290.551 11.4323C289.737 10.2365 288.185 9.63858 285.895 9.63858C283.427 9.63858 281.582 9.71491 280.361 9.86757V22.5765L285.895 22.5765Z" stroke="white" stroke-opacity="0.6" stroke-width="2" mask="url(#path-1-outside-1_556_4060)"/>
<path opacity="0.6" d="M335.251 15.7985H330.836C326.96 15.7985 323.818 12.19 323.818 7.73925V2.67041H323.281V7.73925C323.281 12.19 320.138 15.7985 316.262 15.7985H311.848V16.4151H316.262C320.138 16.4151 323.281 20.0235 323.281 24.4743V29.5445H323.818V24.4743C323.818 20.0235 326.96 16.4151 330.836 16.4151H335.251V15.7985Z" fill="white"/>
</svg>
