<svg width="135" height="132" viewBox="0 0 135 132" fill="none" xmlns="http://www.w3.org/2000/svg">
<path d="M58.6529 84.9106L58.6594 84.919C61.515 88.6292 63.4565 91.1527 63.4565 95.3386C63.4565 96.0265 63.6792 96.5596 64.0307 96.9184C64.3813 97.2763 64.8985 97.5003 65.5639 97.5003H96.8532C97.5187 97.5003 98.0358 97.2763 98.3864 96.9184C98.7379 96.5596 98.9607 96.0265 98.9607 95.3386C98.9607 89.1349 100.179 84.1711 101.429 79.0769C101.48 78.8684 101.531 78.6597 101.582 78.4507C102.885 73.1311 104.176 67.5918 104.176 60.7361V52.7509C104.176 48.4923 101 45.2657 96.8532 45.2657C95.8874 45.2657 94.9031 45.5138 94.1461 45.7714L93.6558 45.9383L93.5063 45.4424C92.5196 42.1687 89.8287 39.9423 86.4235 39.9423C85.1801 39.9423 84.0002 40.1971 83.077 40.904L82.6364 41.2413L82.3466 40.768C81.1215 38.767 78.9262 37.2805 76.2544 37.2805C75.3025 37.2805 74.5903 37.5201 73.8081 37.7862L73.147 38.0112V37.3129V26.1336C73.147 21.8751 69.9715 18.6484 65.8247 18.6484C61.6779 18.6484 58.5024 21.8751 58.5024 26.1336V53.5494V54.9361L57.6174 53.8685C56.197 52.1548 54.7289 50.6602 53.2459 49.5972C51.7609 48.5329 50.2977 47.9275 48.8763 47.9275C46.619 47.9275 44.7336 48.6964 43.8194 50.0964L43.8076 50.1145L43.7943 50.1314C42.8626 51.3203 42.0958 53.5431 43.0972 56.8654C44.1227 60.2674 48.5308 69.8074 53.4726 77.7728L58.6529 84.9106ZM58.6529 84.9106L58.646 84.9025M58.6529 84.9106L58.646 84.9025M58.646 84.9025C57.0943 83.0544 55.2838 80.6782 53.4731 77.7737L58.646 84.9025ZM67.4139 92.7341L67.465 93.1768H67.9106H94.2458H94.724L94.7453 92.6991C94.9599 87.8799 95.8859 83.797 96.7946 79.7906C96.9793 78.9763 97.1633 78.165 97.3404 77.3514C97.3932 77.1359 97.446 76.9206 97.4988 76.7056C98.7463 71.6227 99.9607 66.6745 99.9607 60.7361V52.7509C99.9607 51.8418 99.6619 51.0441 99.1008 50.4713C98.5388 49.8975 97.7522 49.5892 96.8532 49.5892C95.9542 49.5892 95.1677 49.8975 94.6056 50.4713C94.0445 51.0441 93.7458 51.8418 93.7458 52.7509V55.4126C93.7458 56.1006 93.523 56.6337 93.1716 56.9925C92.821 57.3504 92.3038 57.5744 91.6383 57.5744C90.9729 57.5744 90.4557 57.3504 90.1051 56.9925C89.7536 56.6337 89.5309 56.1006 89.5309 55.4126V47.4275C89.5309 46.5184 89.2321 45.7206 88.671 45.1478C88.109 44.5741 87.3224 44.2657 86.4235 44.2657C85.5245 44.2657 84.7379 44.5741 84.1759 45.1478C83.6148 45.7206 83.316 46.5184 83.316 47.4275V52.7509C83.316 53.4389 83.0933 53.972 82.7418 54.3308C82.3912 54.6887 81.8741 54.9126 81.2086 54.9126C80.5431 54.9126 80.026 54.6887 79.6754 54.3308C79.3239 53.972 79.1011 53.4389 79.1011 52.7509V44.7657C79.1011 43.8566 78.8024 43.0589 78.2413 42.4861C77.6793 41.9124 76.8927 41.604 75.9937 41.604C75.0947 41.604 74.3081 41.9124 73.7461 42.4861C73.185 43.0589 72.8863 43.8566 72.8863 44.7657V50.0892C72.8863 50.7771 72.6635 51.3102 72.312 51.669C71.9615 52.0269 71.4443 52.2509 70.7788 52.2509C70.1134 52.2509 69.5962 52.0269 69.2456 51.669C68.8941 51.3102 68.6714 50.7771 68.6714 50.0892V26.1336C68.6714 25.2245 68.3726 24.4268 67.8115 23.854C67.2495 23.2803 66.4629 22.9719 65.5639 22.9719C64.665 22.9719 63.8784 23.2803 63.3164 23.854C62.7553 24.4268 62.4565 25.2245 62.4565 26.1336V66.0595C62.4565 66.7475 62.2338 67.2806 61.8823 67.6394C61.5317 67.9973 61.0145 68.2213 60.3491 68.2213C59.6836 68.2213 59.1665 67.9973 58.8159 67.6394C58.4644 67.2806 58.2416 66.7475 58.2416 66.0595V63.9302V63.8376L58.2085 63.7512C57.0115 60.6284 55.1534 57.7843 53.3608 55.7172C52.4645 54.6836 51.5753 53.8336 50.782 53.2371C50.3856 52.939 50.0044 52.6977 49.6509 52.5289C49.3041 52.3634 48.9494 52.2509 48.6156 52.2509H48.5971C48.3496 52.2509 48.0582 52.2509 47.7938 52.2894C47.5285 52.3281 47.2001 52.4167 46.9547 52.6672C46.8039 52.8211 46.7241 53.0157 46.6796 53.1976C46.6342 53.3829 46.6163 53.5924 46.6163 53.8156C46.6163 54.2618 46.6883 54.8303 46.8212 55.5088L46.8245 55.5254L46.8288 55.5417C47.2333 57.0558 48.4257 59.9545 50.1539 63.5163C51.8874 67.0888 54.1758 71.3605 56.7914 75.6329C57.9802 77.6549 59.1768 79.2326 60.3536 80.7841C60.7417 81.2959 61.1277 81.8049 61.5106 82.326L61.5251 82.3457L61.5415 82.364C64.4212 85.5709 66.9131 88.3884 67.4139 92.7341Z" fill="white" stroke="white"/>
<mask id="path-2-inside-1_1122_4304" fill="white">
<path d="M84.0433 28.2326C85.3991 25.1787 85.9822 21.8237 85.7387 18.4776C85.4951 15.1316 84.4328 11.9025 82.65 9.08864C80.8671 6.2748 78.4211 3.96704 75.5381 2.37863C72.6551 0.790213 69.4281 -0.0276176 66.1552 0.000711535C62.8824 0.0290407 59.6693 0.902615 56.8128 2.54071C53.9564 4.1788 51.5488 6.52857 49.8126 9.37287C48.0763 12.2172 47.0673 15.4642 46.879 18.814C46.6906 22.1638 47.3289 25.5082 48.7348 28.5382L52.6177 26.6447C51.5222 24.2838 51.0248 21.6778 51.1716 19.0677C51.3184 16.4576 52.1045 13.9275 53.4574 11.7112C54.8103 9.49498 56.6863 7.66406 58.912 6.38767C61.1377 5.11128 63.6414 4.4306 66.1915 4.40852C68.7417 4.38645 71.2562 5.0237 73.5026 6.26138C75.749 7.49906 77.6549 9.29725 79.0441 11.4898C80.4333 13.6823 81.261 16.1984 81.4508 18.8056C81.6405 21.4128 81.1862 24.027 80.1297 26.4066L84.0433 28.2326Z"/>
</mask>
<path d="M84.0433 28.2326C85.3991 25.1787 85.9822 21.8237 85.7387 18.4776C85.4951 15.1316 84.4328 11.9025 82.65 9.08864C80.8671 6.2748 78.4211 3.96704 75.5381 2.37863C72.6551 0.790213 69.4281 -0.0276176 66.1552 0.000711535C62.8824 0.0290407 59.6693 0.902615 56.8128 2.54071C53.9564 4.1788 51.5488 6.52857 49.8126 9.37287C48.0763 12.2172 47.0673 15.4642 46.879 18.814C46.6906 22.1638 47.3289 25.5082 48.7348 28.5382L52.6177 26.6447C51.5222 24.2838 51.0248 21.6778 51.1716 19.0677C51.3184 16.4576 52.1045 13.9275 53.4574 11.7112C54.8103 9.49498 56.6863 7.66406 58.912 6.38767C61.1377 5.11128 63.6414 4.4306 66.1915 4.40852C68.7417 4.38645 71.2562 5.0237 73.5026 6.26138C75.749 7.49906 77.6549 9.29725 79.0441 11.4898C80.4333 13.6823 81.261 16.1984 81.4508 18.8056C81.6405 21.4128 81.1862 24.027 80.1297 26.4066L84.0433 28.2326Z" fill="white" stroke="white" stroke-width="2" mask="url(#path-2-inside-1_1122_4304)"/>
<path d="M134.061 19.2091C134.647 18.6233 134.647 17.6736 134.061 17.0878L124.515 7.54184C123.929 6.95605 122.979 6.95605 122.394 7.54184C121.808 8.12763 121.808 9.07737 122.394 9.66316L130.879 18.1484L122.394 26.6337C121.808 27.2195 121.808 28.1693 122.394 28.755C122.979 29.3408 123.929 29.3408 124.515 28.755L134.061 19.2091ZM92.874 19.6484L133 19.6484L133 16.6484L92.874 16.6484L92.874 19.6484Z" fill="white"/>
<path d="M0.93919 17.0878C0.353405 17.6736 0.353405 18.6233 0.93919 19.2091L10.4851 28.755C11.0709 29.3408 12.0207 29.3408 12.6065 28.755C13.1922 28.1692 13.1922 27.2195 12.6065 26.6337L4.12117 18.1484L12.6065 9.66315C13.1922 9.07737 13.1922 8.12762 12.6065 7.54183C12.0207 6.95605 11.0709 6.95605 10.4851 7.54183L0.93919 17.0878ZM42.126 16.6484L1.99985 16.6484L1.99985 19.6484L42.126 19.6484L42.126 16.6484Z" fill="white"/>
<path d="M12.656 121.624L13.268 122.776C12.848 123.208 12.278 123.55 11.558 123.802C10.838 124.054 10.082 124.18 9.29 124.18C7.406 124.18 5.864 123.592 4.664 122.416C3.488 121.216 2.9 119.644 2.9 117.7C2.9 115.828 3.464 114.286 4.592 113.074C5.72 111.838 7.25 111.22 9.182 111.22C10.778 111.22 12.056 111.628 13.016 112.444L12.314 113.596C11.474 112.972 10.436 112.66 9.2 112.66C7.832 112.66 6.71 113.128 5.834 114.064C4.958 114.988 4.52 116.2 4.52 117.7C4.52 119.2 4.97 120.418 5.87 121.354C6.794 122.278 7.982 122.74 9.434 122.74C10.658 122.74 11.732 122.368 12.656 121.624ZM15.2885 124V115.9C15.3485 115.9 15.4325 115.9 15.5405 115.9C15.6485 115.888 15.8045 115.882 16.0085 115.882C16.2125 115.87 16.3985 115.864 16.5665 115.864C17.4545 115.84 18.0065 115.828 18.2225 115.828C20.5505 115.828 21.7145 116.524 21.7145 117.916C21.7145 118.396 21.5645 118.81 21.2645 119.158C20.9645 119.494 20.5745 119.698 20.0945 119.77V119.806C21.3545 120.034 21.9845 120.67 21.9845 121.714C21.9845 123.286 20.7425 124.072 18.2585 124.072C18.1385 124.072 17.6105 124.06 16.6745 124.036C16.4945 124.036 16.2965 124.03 16.0805 124.018C15.8645 124.018 15.6965 124.012 15.5765 124C15.4565 124 15.3605 124 15.2885 124ZM18.4565 120.364H16.7285V122.848C17.5925 122.884 18.1445 122.902 18.3845 122.902C19.7645 122.902 20.4545 122.47 20.4545 121.606C20.4545 120.778 19.7885 120.364 18.4565 120.364ZM18.3305 116.998C17.9825 116.998 17.4485 117.016 16.7285 117.052V119.464H18.5465C19.0385 119.464 19.4345 119.35 19.7345 119.122C20.0345 118.894 20.1845 118.588 20.1845 118.204C20.1845 117.4 19.5665 116.998 18.3305 116.998ZM24.795 117.61L24.417 116.458C25.221 115.966 26.121 115.72 27.117 115.72C28.209 115.72 29.001 115.99 29.493 116.53C29.985 117.07 30.231 117.904 30.231 119.032V124H28.863V122.956C28.227 123.736 27.363 124.126 26.271 124.126C25.527 124.126 24.927 123.904 24.471 123.46C24.015 123.004 23.787 122.392 23.787 121.624C23.787 120.832 24.069 120.208 24.633 119.752C25.197 119.284 25.935 119.05 26.847 119.05C27.699 119.05 28.371 119.224 28.863 119.572C28.863 118.66 28.737 118.006 28.485 117.61C28.233 117.214 27.747 117.016 27.027 117.016C26.295 117.016 25.551 117.214 24.795 117.61ZM26.775 122.83C27.579 122.83 28.275 122.482 28.863 121.786V120.76C28.359 120.4 27.753 120.22 27.045 120.22C26.553 120.22 26.139 120.34 25.803 120.58C25.479 120.808 25.317 121.132 25.317 121.552C25.317 121.948 25.443 122.26 25.695 122.488C25.959 122.716 26.319 122.83 26.775 122.83ZM38.9423 117.97L34.2623 124H32.8223V115.9H34.2623V121.93L38.9423 115.9H40.3823V124H38.9423V117.97ZM33.9743 111.76H35.3243C35.3963 112.708 35.8583 113.182 36.7103 113.182C37.5143 113.182 37.9523 112.708 38.0243 111.76H39.3743C39.3743 112.492 39.1223 113.098 38.6183 113.578C38.1263 114.046 37.4903 114.28 36.7103 114.28C35.8583 114.28 35.1863 114.052 34.6943 113.596C34.2143 113.128 33.9743 112.516 33.9743 111.76ZM50.4701 124H49.0301V117.25H44.6201V124H43.1801V115.9H50.4701V124ZM53.6885 117.61L53.3105 116.458C54.1145 115.966 55.0145 115.72 56.0105 115.72C57.1025 115.72 57.8945 115.99 58.3865 116.53C58.8785 117.07 59.1245 117.904 59.1245 119.032V124H57.7565V122.956C57.1205 123.736 56.2565 124.126 55.1645 124.126C54.4205 124.126 53.8205 123.904 53.3645 123.46C52.9085 123.004 52.6805 122.392 52.6805 121.624C52.6805 120.832 52.9625 120.208 53.5265 119.752C54.0905 119.284 54.8285 119.05 55.7405 119.05C56.5925 119.05 57.2645 119.224 57.7565 119.572C57.7565 118.66 57.6305 118.006 57.3785 117.61C57.1265 117.214 56.6405 117.016 55.9205 117.016C55.1885 117.016 54.4445 117.214 53.6885 117.61ZM55.6685 122.83C56.4725 122.83 57.1685 122.482 57.7565 121.786V120.76C57.2525 120.4 56.6465 120.22 55.9385 120.22C55.4465 120.22 55.0325 120.34 54.6965 120.58C54.3725 120.808 54.2105 121.132 54.2105 121.552C54.2105 121.948 54.3365 122.26 54.5885 122.488C54.8525 122.716 55.2125 122.83 55.6685 122.83ZM67.8358 117.97L63.1558 124H61.7158V115.9H63.1558V121.93L67.8358 115.9H69.2758V124H67.8358V117.97ZM62.8678 111.76H64.2178C64.2898 112.708 64.7518 113.182 65.6038 113.182C66.4078 113.182 66.8458 112.708 66.9178 111.76H68.2678C68.2678 112.492 68.0158 113.098 67.5118 113.578C67.0198 114.046 66.3838 114.28 65.6038 114.28C64.7518 114.28 64.0798 114.052 63.5878 113.596C63.1078 113.128 62.8678 112.516 62.8678 111.76ZM76.2965 124V115.9C76.3565 115.9 76.4405 115.9 76.5485 115.9C76.6565 115.888 76.8125 115.882 77.0165 115.882C77.2205 115.87 77.4065 115.864 77.5745 115.864C78.4625 115.84 79.0145 115.828 79.2305 115.828C81.5585 115.828 82.7225 116.524 82.7225 117.916C82.7225 118.396 82.5725 118.81 82.2725 119.158C81.9725 119.494 81.5825 119.698 81.1025 119.77V119.806C82.3625 120.034 82.9925 120.67 82.9925 121.714C82.9925 123.286 81.7505 124.072 79.2665 124.072C79.1465 124.072 78.6185 124.06 77.6825 124.036C77.5025 124.036 77.3045 124.03 77.0885 124.018C76.8725 124.018 76.7045 124.012 76.5845 124C76.4645 124 76.3685 124 76.2965 124ZM79.4645 120.364H77.7365V122.848C78.6005 122.884 79.1525 122.902 79.3925 122.902C80.7725 122.902 81.4625 122.47 81.4625 121.606C81.4625 120.778 80.7965 120.364 79.4645 120.364ZM79.3385 116.998C78.9905 116.998 78.4565 117.016 77.7365 117.052V119.464H79.5545C80.0465 119.464 80.4425 119.35 80.7425 119.122C81.0425 118.894 81.1925 118.588 81.1925 118.204C81.1925 117.4 80.5745 116.998 79.3385 116.998ZM92.6611 124H91.2211V117.25H86.8111V124H85.3711V115.9H92.6611V124ZM96.8876 127.6H95.4476V115.9H96.8876V116.854C97.1756 116.518 97.5716 116.248 98.0756 116.044C98.5796 115.828 99.1016 115.72 99.6416 115.72C100.794 115.72 101.7 116.104 102.36 116.872C103.044 117.628 103.386 118.612 103.386 119.824C103.386 121.06 102.996 122.098 102.216 122.938C101.448 123.766 100.434 124.18 99.1736 124.18C98.2016 124.18 97.4396 123.994 96.8876 123.622V127.6ZM99.2276 117.07C98.2676 117.07 97.4876 117.442 96.8876 118.186V122.2C97.5236 122.62 98.2436 122.83 99.0476 122.83C99.8996 122.83 100.578 122.56 101.082 122.02C101.598 121.468 101.856 120.754 101.856 119.878C101.856 119.026 101.622 118.348 101.154 117.844C100.686 117.328 100.044 117.07 99.2276 117.07ZM106.062 117.61L105.684 116.458C106.488 115.966 107.388 115.72 108.384 115.72C109.476 115.72 110.268 115.99 110.76 116.53C111.252 117.07 111.498 117.904 111.498 119.032V124H110.13V122.956C109.494 123.736 108.63 124.126 107.538 124.126C106.794 124.126 106.194 123.904 105.738 123.46C105.282 123.004 105.054 122.392 105.054 121.624C105.054 120.832 105.336 120.208 105.9 119.752C106.464 119.284 107.202 119.05 108.114 119.05C108.966 119.05 109.638 119.224 110.13 119.572C110.13 118.66 110.004 118.006 109.752 117.61C109.5 117.214 109.014 117.016 108.294 117.016C107.562 117.016 106.818 117.214 106.062 117.61ZM108.042 122.83C108.846 122.83 109.542 122.482 110.13 121.786V120.76C109.626 120.4 109.02 120.22 108.312 120.22C107.82 120.22 107.406 120.34 107.07 120.58C106.746 120.808 106.584 121.132 106.584 121.552C106.584 121.948 106.71 122.26 106.962 122.488C107.226 122.716 107.586 122.83 108.042 122.83ZM114.089 124V115.9C114.149 115.9 114.233 115.9 114.341 115.9C114.449 115.888 114.605 115.882 114.809 115.882C115.013 115.87 115.199 115.864 115.367 115.864C116.255 115.84 116.807 115.828 117.023 115.828C119.351 115.828 120.515 116.524 120.515 117.916C120.515 118.396 120.365 118.81 120.065 119.158C119.765 119.494 119.375 119.698 118.895 119.77V119.806C120.155 120.034 120.785 120.67 120.785 121.714C120.785 123.286 119.543 124.072 117.059 124.072C116.939 124.072 116.411 124.06 115.475 124.036C115.295 124.036 115.097 124.03 114.881 124.018C114.665 124.018 114.497 124.012 114.377 124C114.257 124 114.161 124 114.089 124ZM117.257 120.364H115.529V122.848C116.393 122.884 116.945 122.902 117.185 122.902C118.565 122.902 119.255 122.47 119.255 121.606C119.255 120.778 118.589 120.364 117.257 120.364ZM117.131 116.998C116.783 116.998 116.249 117.016 115.529 117.052V119.464H117.347C117.839 119.464 118.235 119.35 118.535 119.122C118.835 118.894 118.985 118.588 118.985 118.204C118.985 117.4 118.367 116.998 117.131 116.998ZM123.811 122.992C123.019 122.176 122.623 121.162 122.623 119.95C122.623 118.726 123.019 117.718 123.811 116.926C124.615 116.122 125.659 115.72 126.943 115.72C128.227 115.72 129.265 116.122 130.057 116.926C130.861 117.718 131.263 118.726 131.263 119.95C131.263 121.174 130.861 122.188 130.057 122.992C129.265 123.784 128.227 124.18 126.943 124.18C125.671 124.18 124.627 123.784 123.811 122.992ZM124.945 117.88C124.417 118.408 124.153 119.098 124.153 119.95C124.153 120.802 124.411 121.492 124.927 122.02C125.455 122.56 126.127 122.83 126.943 122.83C127.759 122.83 128.425 122.566 128.941 122.038C129.469 121.498 129.733 120.802 129.733 119.95C129.733 119.122 129.469 118.432 128.941 117.88C128.425 117.34 127.759 117.07 126.943 117.07C126.127 117.07 125.461 117.34 124.945 117.88Z" fill="#C4C4C4"/>
</svg>
