<svg width="104" height="104" viewBox="0 0 104 104" fill="none" xmlns="http://www.w3.org/2000/svg">
<path d="M96.2898 31.773C96.4907 31.6511 96.6354 31.5278 96.724 31.4031C96.8229 31.2755 96.8733 31.1334 96.8751 30.9766C96.8901 30.8274 96.8692 30.649 96.8125 30.4413L96.7572 30.2387L97.5197 30.03L98.8472 34.8904L98.0847 35.0991L97.9868 34.7408C97.9017 34.4292 97.7757 34.2126 97.6086 34.0909C97.4519 33.9663 97.2439 33.9396 96.9846 34.0106C96.9327 34.0247 96.8667 34.0484 96.7865 34.0815C96.7092 34.125 96.6267 34.1699 96.539 34.2162C96.4513 34.2625 96.3688 34.3074 96.2914 34.3509L92.4951 36.6791C92.2377 36.8389 91.9647 37.0029 91.6761 37.1711C91.3876 37.3394 91.1014 37.4959 90.8175 37.6405C90.5365 37.7955 90.2809 37.9213 90.0508 38.0178C90.4366 38.0015 90.8224 37.9852 91.2083 37.9689C91.5969 37.963 91.9988 37.9646 92.4138 37.9738L99.6148 38.1293L99.9211 39.2509L94.2466 43.0307C93.9486 43.2462 93.6464 43.4461 93.34 43.6304C93.0335 43.8147 92.7501 43.9816 92.4899 44.1309C92.2296 44.2803 92 44.399 91.801 44.4869C92.0642 44.4707 92.3547 44.4526 92.6726 44.4325C92.9933 44.4229 93.3244 44.4104 93.6659 44.3951C94.0177 44.3769 94.371 44.3639 94.7257 44.3562L98.9126 44.3153C99.0456 44.3124 99.1994 44.3038 99.3739 44.2895C99.5616 44.2828 99.6969 44.268 99.7799 44.2453C100.05 44.1715 100.219 44.0359 100.288 43.8385C100.356 43.6411 100.344 43.371 100.25 43.0283L100.152 42.67L100.915 42.4613L102 46.4337L101.237 46.6424L101.157 46.3464C101.103 46.1491 101.025 45.9863 100.923 45.8579C100.831 45.7267 100.683 45.6333 100.478 45.5777C100.274 45.5222 99.9873 45.4945 99.6194 45.4947L89.8037 45.5023L89.3569 43.8666L96.494 39.1341L88.0209 38.9751L87.5444 37.2304L96.2898 31.773Z" fill="black"/>
<path d="M90.3304 49.2268L91.1197 49.271L91.0917 49.7708C91.0815 49.9536 91.0937 50.1214 91.1283 50.2743C91.1628 50.4272 91.2472 50.5559 91.3814 50.6605C91.5263 50.7656 91.7438 50.8263 92.0337 50.8426L99.8784 51.2816C100.201 51.2996 100.439 51.2645 100.595 51.1762C100.75 51.0986 100.854 50.9857 100.905 50.8376C100.967 50.6902 101.004 50.5197 101.014 50.3262L101.042 49.8263L101.832 49.8705L101.35 58.4971L98.4297 58.4146L98.4864 57.3987L99.2319 57.3596C99.4908 57.3525 99.7142 57.3057 99.9022 57.2192C100.09 57.1434 100.241 57.0279 100.358 56.8726C100.474 56.7174 100.54 56.5108 100.554 56.2528L100.705 53.5439L96.5817 53.3131L96.3673 57.1507L95.4653 57.1002L95.6796 53.2626L91.0405 53.0029L90.8631 56.1795C90.8487 56.4375 90.8906 56.6501 90.989 56.8174C91.0975 56.996 91.2404 57.1388 91.4175 57.2457C91.6054 57.3533 91.8166 57.4298 92.0511 57.4753L92.7857 57.6296L92.729 58.6455L89.8197 58.3694L90.3304 49.2268Z" fill="black"/>
<path d="M89.091 62.4195L89.8149 62.7373L89.6141 63.1958C89.5363 63.3733 89.4869 63.5397 89.4658 63.695C89.4546 63.8547 89.5006 64.0042 89.604 64.1436C89.7129 64.2972 89.9101 64.4367 90.1958 64.5621L97.3764 67.7144C97.6522 67.8354 97.8736 67.8797 98.0405 67.8472C98.2173 67.819 98.3556 67.7445 98.4555 67.6238C98.5554 67.503 98.642 67.3588 98.7154 67.1912L98.9163 66.7327L99.6403 67.0505L97.5604 71.7981C97.0938 72.863 96.4994 73.6837 95.7771 74.2601C95.0604 74.8507 94.2293 75.1795 93.2839 75.2464C92.3385 75.3134 91.3043 75.1004 90.1814 74.6075C89.1078 74.1362 88.2514 73.531 87.6121 72.7918C86.9686 72.0626 86.5844 71.2238 86.4596 70.2756C86.3348 69.3273 86.5208 68.2862 87.0175 67.1523L89.091 62.4195ZM88.017 67.2031C87.7017 67.9229 87.6177 68.5973 87.7649 69.2262C87.9177 69.8693 88.2821 70.4584 88.858 70.9934C89.4297 71.5383 90.1933 72.0204 91.1487 72.4398C92.1041 72.8593 92.9511 73.0841 93.6895 73.1143C94.4334 73.1588 95.0688 73.0086 95.5956 72.6638C96.128 72.3332 96.5497 71.813 96.8607 71.1031L97.3078 70.0826L88.4576 66.1974L88.017 67.2031Z" fill="black"/>
<path d="M81.0128 76.7295C81.5898 76.0336 82.1796 75.5162 82.7821 75.1772C83.3846 74.8383 84.0026 74.7081 84.6362 74.7868C85.2699 74.8655 85.9219 75.1833 86.5923 75.7403L91.3719 79.7111C91.6037 79.9036 91.8042 80.0073 91.9736 80.0221C92.1513 80.0438 92.3048 80.0104 92.4341 79.922C92.5634 79.8335 92.6864 79.7188 92.8031 79.578L93.1226 79.1927L93.7309 79.6981L90.3926 83.7246L89.7843 83.2192L90.1037 82.8339C90.2204 82.6931 90.3097 82.5433 90.3713 82.3847C90.4344 82.2412 90.4389 82.084 90.3848 81.9132C90.3239 81.7507 90.1693 81.5662 89.921 81.36L85.1041 77.3582C84.6324 76.9663 84.1871 76.7363 83.7683 76.6682C83.3578 76.607 82.9703 76.6698 82.6057 76.8566C82.2494 77.0503 81.9133 77.3377 81.5974 77.7188C81.2539 78.1331 81.0358 78.5395 80.9429 78.9381C80.8432 79.3449 80.8757 79.7357 81.0403 80.1103C81.1981 80.4932 81.4756 80.8497 81.8728 81.1797L86.7766 85.2537C87.0084 85.4462 87.2089 85.5499 87.3783 85.5647C87.556 85.5864 87.7095 85.553 87.8388 85.4646C87.9681 85.3761 88.0911 85.2614 88.2079 85.1206L88.5273 84.7353L89.1356 85.2407L86.4773 88.447L85.869 87.9416L86.1987 87.5439C86.3086 87.4113 86.3944 87.2657 86.456 87.1071C86.526 86.9553 86.5305 86.7981 86.4696 86.6356C86.4086 86.4731 86.254 86.2887 86.0057 86.0824L81.1268 82.029C80.5805 81.5752 80.1974 81.068 79.9773 80.5074C79.7655 79.9536 79.7409 79.3596 79.9035 78.7251C80.0661 78.0907 80.4359 77.4255 81.0128 76.7295Z" fill="black"/>
<path d="M69.6372 97.7904C69.7521 97.9955 69.8702 98.1445 69.9917 98.2374C70.1156 98.3408 70.2558 98.3961 70.4123 98.4033C70.5607 98.4234 70.7396 98.4087 70.9489 98.359L71.153 98.3106L71.3352 99.0807L66.4371 100.242L66.2549 99.4719L66.616 99.3863C66.93 99.3119 67.1506 99.1932 67.2778 99.0302C67.4076 98.8778 67.4414 98.6706 67.3795 98.4087C67.3671 98.3563 67.3457 98.2894 67.3154 98.2081C67.2747 98.1292 67.2327 98.0452 67.1894 97.9558C67.1462 97.8665 67.1042 97.7824 67.0634 97.7036L64.8693 93.8257C64.7186 93.5627 64.5642 93.2839 64.4061 92.9895C64.248 92.695 64.1017 92.4033 63.967 92.1144C63.8218 91.8279 63.705 91.5679 63.6166 91.3344C63.6197 91.721 63.6227 92.1075 63.6257 92.494C63.6183 92.8831 63.6029 93.285 63.5795 93.7L63.1771 100.899L62.0468 101.167L58.4678 95.36C58.2629 95.0545 58.0737 94.7453 57.9002 94.4324C57.7266 94.1195 57.5698 93.8303 57.4296 93.5648C57.2894 93.2993 57.1788 93.0655 57.0978 92.8634C57.105 93.1272 57.1131 93.4185 57.1222 93.7372C57.1208 94.0584 57.122 94.3901 57.1255 94.7322C57.1316 95.0849 57.1324 95.4387 57.128 95.7938L57.0252 99.9839C57.0235 100.117 57.0268 100.271 57.0351 100.446C57.0354 100.634 57.0454 100.77 57.0652 100.854C57.1297 101.126 57.2593 101.3 57.454 101.376C57.6487 101.451 57.9188 101.448 58.2642 101.366L58.6252 101.281L58.8074 102.051L54.8042 103L54.622 102.23L54.9203 102.159C55.1191 102.112 55.2844 102.04 55.416 101.942C55.5502 101.855 55.6485 101.71 55.711 101.507C55.7735 101.304 55.811 101.019 55.8234 100.651L56.1526 90.8303L57.801 90.4395L62.281 97.742L62.7305 89.2708L64.4887 88.8539L69.6372 97.7904Z" fill="black"/>
<path d="M52.4746 91.2144L52.4044 92.0026L51.9062 91.9581C51.7241 91.9419 51.5561 91.9485 51.4023 91.978C51.2485 92.0075 51.1172 92.0877 51.0084 92.2185C50.8986 92.36 50.8308 92.5755 50.805 92.8651L50.1068 100.699C50.0782 101.021 50.1053 101.261 50.1884 101.42C50.2607 101.577 50.3699 101.684 50.5161 101.741C50.6613 101.808 50.8303 101.85 51.0232 101.867L51.5213 101.912L51.4511 102.7L42.8539 101.932L43.033 99.0133L44.0454 99.1037L44.0598 99.8508C44.0583 100.11 44.0976 100.335 44.1778 100.526C44.2473 100.716 44.3576 100.872 44.5087 100.993C44.6598 101.115 44.8639 101.187 45.1211 101.21L47.8207 101.451L48.1877 97.3334L44.3632 96.9918L44.4435 96.091L48.268 96.4326L48.6809 91.7998L45.5152 91.5171C45.2581 91.4942 45.0444 91.5291 44.8741 91.622C44.6922 91.7247 44.5449 91.8629 44.4323 92.0366C44.3186 92.221 44.2353 92.4297 44.1821 92.6628L44.0037 93.3927L42.9913 93.3023L43.3632 90.4008L52.4746 91.2144Z" fill="black"/>
<path d="M39.3926 89.5522L39.0515 90.2661L38.6003 90.0501C38.4257 89.9665 38.2611 89.9116 38.1067 89.8854C37.9477 89.8689 37.7969 89.9101 37.6543 90.0089C37.4974 90.1128 37.3516 90.3056 37.217 90.5873L33.8344 97.6681C33.7044 97.94 33.653 98.1601 33.68 98.3281C33.7024 98.5059 33.7722 98.6468 33.8895 98.7506C34.0067 98.8545 34.1479 98.9459 34.3128 99.0249L34.764 99.2409L34.423 99.9548L29.7509 97.7183C28.703 97.2166 27.9031 96.595 27.3513 95.8535C26.7851 95.117 26.4841 94.2748 26.4482 93.3267C26.4123 92.3787 26.6588 91.351 27.1878 90.2437C27.6936 89.185 28.3259 88.348 29.0848 87.7327C29.834 87.1127 30.6841 86.7558 31.635 86.662C32.5859 86.5682 33.6192 86.7884 34.7351 87.3226L39.3926 89.5522ZM34.6516 88.3209C33.9433 87.9818 33.2727 87.8756 32.6399 88.0024C31.9928 88.1341 31.3927 88.4794 30.8396 89.0381C30.2769 89.5922 29.7705 90.3403 29.3204 91.2825C28.8703 92.2246 28.618 93.0646 28.5636 93.8024C28.4949 94.5452 28.624 95.1858 28.951 95.7242C29.2636 96.2677 29.7692 96.7067 30.4679 97.0411L31.4721 97.5218L35.6413 88.7947L34.6516 88.3209Z" fill="black"/>
<path d="M25.4107 81.0429C26.0861 81.6436 26.5829 82.251 26.9011 82.8651C27.2192 83.4793 27.3284 84.102 27.2285 84.7333C27.1287 85.3646 26.7894 86.0062 26.2108 86.6582L22.0856 91.3065C21.8856 91.5319 21.7754 91.7291 21.7549 91.8981C21.7273 92.0751 21.7554 92.2298 21.8394 92.3621C21.9234 92.4944 22.0338 92.6213 22.1705 92.7429L22.5444 93.0754L22.0194 93.667L18.1115 90.1918L18.6365 89.6002L19.0104 89.9327C19.1471 90.0543 19.2936 90.1486 19.4499 90.2156C19.5911 90.2835 19.7478 90.2933 19.9202 90.245C20.0845 90.1895 20.2739 90.041 20.4882 89.7995L24.6455 85.1149C25.0527 84.6561 25.2973 84.2184 25.3793 83.8017C25.4542 83.3931 25.4045 83.0033 25.2303 82.6323C25.0488 82.2693 24.7732 81.9234 24.4033 81.5945C24.0013 81.2369 23.6028 81.005 23.208 80.8987C22.8051 80.7853 22.4139 80.8046 22.0343 80.9568C21.6467 81.1017 21.2815 81.3674 20.9386 81.7537L16.7063 86.5228C16.5063 86.7482 16.396 86.9454 16.3755 87.1144C16.3479 87.2914 16.3761 87.4461 16.4601 87.5784C16.5441 87.7107 16.6544 87.8376 16.7911 87.9592L17.165 88.2917L16.64 88.8833L13.5282 86.1161L14.0532 85.5245L14.4392 85.8677C14.5678 85.9821 14.7103 86.0728 14.8666 86.1398C15.0158 86.2149 15.1726 86.2247 15.3369 86.1692C15.5012 86.1137 15.6906 85.9652 15.9049 85.7237L20.1158 80.9788C20.5872 80.4475 21.1065 80.0813 21.6736 79.8799C22.2336 79.6866 22.8276 79.682 23.4556 79.866C24.0835 80.05 24.7352 80.4423 25.4107 81.0429Z" fill="black"/>
<path d="M4.69402 68.9436C4.4853 69.0515 4.33248 69.1646 4.23556 69.283C4.1281 69.4034 4.06812 69.5418 4.05562 69.6981C4.03045 69.8459 4.03906 70.0254 4.08145 70.2365L4.12278 70.4423L3.34775 70.5982L2.35582 65.6583L3.13085 65.5024L3.20397 65.8665C3.26756 66.1832 3.37852 66.408 3.53684 66.5408C3.68463 66.6758 3.89033 66.7168 4.15394 66.6637C4.20667 66.6531 4.27415 66.6341 4.35638 66.6065C4.4365 66.5685 4.52189 66.5293 4.61255 66.4891C4.70322 66.4489 4.78861 66.4098 4.86872 66.3717L8.81541 64.3092C9.08315 64.1674 9.36672 64.0225 9.6661 63.8744C9.96549 63.7263 10.2617 63.5899 10.5548 63.465C10.8457 63.3296 11.1093 63.2216 11.3455 63.1412C10.9595 63.131 10.5734 63.1208 10.1874 63.1106C9.79929 63.0899 9.39849 63.0607 8.98502 63.0231L1.81162 62.3744L1.58271 61.2344L7.50246 57.8524C7.81445 57.6579 8.12962 57.4792 8.44798 57.3163C8.76633 57.1534 9.06044 57.0063 9.33031 56.8752C9.60017 56.744 9.83738 56.6414 10.0419 56.5673C9.77824 56.5654 9.48715 56.5636 9.16864 56.5618C8.84801 56.5494 8.51684 56.5392 8.17512 56.5311C7.82285 56.5251 7.46953 56.5138 7.11515 56.4972L2.93527 56.2511C2.80237 56.2449 2.64839 56.2429 2.47332 56.2452C2.28558 56.239 2.14953 56.2444 2.06518 56.2614C1.79102 56.3166 1.6129 56.4403 1.53082 56.6325C1.44874 56.8247 1.44267 57.095 1.51261 57.4433L1.58574 57.8075L0.810707 57.9634L0 53.926L0.775029 53.77L0.835434 54.0709C0.875705 54.2714 0.942311 54.4392 1.03525 54.5743C1.11765 54.7114 1.25907 54.8147 1.45953 54.8842C1.65998 54.9537 1.94373 55.001 2.31078 55.0259L12.104 55.6911L12.4378 57.3536L4.99384 61.5859L13.4361 62.3252L13.7922 64.0985L4.69402 68.9436Z" fill="black"/>
<path d="M11.8181 52.0666L11.0334 51.9703L11.0943 51.4734C11.1165 51.2917 11.1155 51.1234 11.0911 50.9686C11.0667 50.8137 10.991 50.6797 10.864 50.5665C10.7264 50.452 10.5134 50.377 10.2252 50.3416L2.42665 49.3845C2.10638 49.3452 1.86563 49.3645 1.70439 49.4423C1.54446 49.5095 1.43398 49.6152 1.37296 49.7596C1.30125 49.9026 1.25362 50.0704 1.23006 50.2627L1.1692 50.7596L0.384543 50.6633L1.43494 42.0874L4.34317 42.363L4.21948 43.3729L3.47305 43.3626C3.21422 43.3525 2.98817 43.3845 2.7949 43.4584C2.60295 43.5216 2.44378 43.6268 2.31739 43.774C2.191 43.9212 2.1121 44.123 2.08068 44.3795L1.75084 47.0725L5.85026 47.5756L6.31754 43.7605L7.21429 43.8706L6.74701 47.6857L11.3589 48.2517L11.7456 45.0938C11.7771 44.8374 11.7492 44.6224 11.6621 44.449C11.5656 44.2636 11.4325 44.1117 11.2628 43.9933C11.0824 43.8735 10.8767 43.7832 10.6458 43.7223L9.92294 43.5197L10.0466 42.5098L12.9313 42.9777L11.8181 52.0666Z" fill="black"/>
<path d="M13.8314 39.0975L13.1299 38.7329L13.3603 38.2886C13.4495 38.1166 13.5097 37.9538 13.5409 37.8001C13.5626 37.6416 13.5264 37.4893 13.4325 37.3434C13.3339 37.183 13.1462 37.0309 12.8694 36.887L5.91067 33.2702C5.6434 33.1313 5.42542 33.0726 5.25672 33.0941C5.07847 33.1106 4.93557 33.1758 4.828 33.2898C4.72043 33.4037 4.62452 33.5419 4.54026 33.7043L4.30979 34.1486L3.6082 33.784L5.99463 29.1831C6.5299 28.1511 7.17679 27.3713 7.93528 26.8435C8.68919 26.3013 9.54002 26.0277 10.4878 26.023C11.4355 26.0182 12.4535 26.2986 13.5417 26.8642C14.5822 27.4049 15.3971 28.0651 15.9865 28.8446C16.5809 29.6145 16.9093 30.4767 16.9718 31.4311C17.0342 32.3855 16.7804 33.4121 16.2104 34.511L13.8314 39.0975ZM15.2164 34.3947C15.5782 33.6972 15.7063 33.0298 15.6005 32.3925C15.4902 31.7407 15.1652 31.129 14.6255 30.5573C14.0908 29.9761 13.3604 29.4449 12.4345 28.9637C11.5086 28.4824 10.6782 28.2025 9.94342 28.1238C9.20401 28.0307 8.56015 28.1388 8.01184 28.4483C7.45894 28.7432 7.00406 29.2346 6.64721 29.9226L6.13424 30.9116L14.7109 35.3693L15.2164 34.3947Z" fill="black"/>
<path d="M22.7812 25.3184C22.1587 25.9739 21.5355 26.4504 20.9116 26.748C20.2877 27.0455 19.6623 27.1337 19.0354 27.0125C18.4085 26.8913 17.7793 26.5303 17.1479 25.9294L12.6462 21.6455C12.4279 21.4378 12.2347 21.3209 12.0667 21.2947C11.8909 21.261 11.7355 21.284 11.6006 21.3636C11.4656 21.4432 11.3352 21.5493 11.2092 21.6819L10.8646 22.0448L10.2917 21.4995L13.8932 17.7072L14.4661 18.2524L14.1215 18.6153C13.9955 18.7479 13.8965 18.8913 13.8243 19.0454C13.7517 19.1844 13.7367 19.3409 13.7791 19.5149C13.8289 19.6812 13.9708 19.8756 14.2047 20.0982L18.7415 24.4155C19.1858 24.8383 19.6146 25.0978 20.0279 25.1939C20.4333 25.2827 20.8242 25.2461 21.2005 25.0843C21.569 24.915 21.9237 24.6509 22.2646 24.292C22.6351 23.9018 22.8801 23.511 22.9995 23.1196C23.1264 22.7204 23.1202 22.3283 22.9812 21.9435C22.8495 21.5508 22.5966 21.1764 22.2225 20.8204L17.6038 16.4252C17.3855 16.2175 17.1923 16.1005 17.0243 16.0743C16.8485 16.0407 16.6931 16.0636 16.5582 16.1432C16.4232 16.2228 16.2928 16.3289 16.1668 16.4616L15.8222 16.8244L15.2493 16.2792L18.1171 13.2593L18.6901 13.8046L18.3344 14.1791C18.2158 14.304 18.1204 14.4435 18.0483 14.5976C17.9683 14.7443 17.9532 14.9008 18.0031 15.0671C18.0529 15.2334 18.1948 15.4278 18.4286 15.6503L23.0239 20.0233C23.5384 20.5129 23.8866 21.0447 24.0685 21.6189C24.2426 22.1857 24.2272 22.7801 24.0223 23.4021C23.8174 24.0242 23.4037 24.6629 22.7812 25.3184Z" fill="black"/>
<path d="M30.9226 6.71604C30.8008 6.51498 30.6776 6.37011 30.5531 6.28143C30.4256 6.18236 30.2836 6.13193 30.1271 6.13014C29.978 6.11512 29.7997 6.13601 29.5922 6.1928L29.3899 6.24817L29.1814 5.48484L34.0368 4.156L34.2453 4.91932L33.8874 5.01728C33.5761 5.10247 33.3597 5.22866 33.2381 5.39588C33.1137 5.55271 33.087 5.76094 33.1579 6.02058C33.1721 6.0725 33.1957 6.13859 33.2288 6.21883C33.2722 6.29624 33.3171 6.37883 33.3633 6.46662C33.4096 6.55441 33.4545 6.63701 33.4979 6.71441L35.8237 10.5146C35.9833 10.7723 36.1471 11.0456 36.3152 11.3344C36.4833 11.6233 36.6396 11.9098 36.7841 12.1939C36.939 12.4752 37.0646 12.731 37.161 12.9614C37.1447 12.5752 37.1284 12.189 37.1122 11.8028C37.1063 11.4137 37.1079 11.0115 37.1171 10.596L37.2724 3.38767L38.3929 3.08101L42.1688 8.76135C42.3841 9.05961 42.5838 9.36212 42.7679 9.6689C42.9521 9.97568 43.1187 10.2593 43.2679 10.5199C43.4171 10.7804 43.5357 11.0102 43.6235 11.2094C43.6073 10.946 43.5892 10.6552 43.5692 10.337C43.5596 10.0159 43.5471 9.68446 43.5318 9.34264C43.5136 8.99043 43.5007 8.63681 43.4929 8.28176L43.4521 4.09057C43.4492 3.95743 43.4406 3.80351 43.4263 3.62883C43.4196 3.44092 43.4049 3.30542 43.3822 3.22234C43.3085 2.95232 43.173 2.78291 42.9758 2.7141C42.7786 2.64529 42.5088 2.65774 42.1664 2.75144L41.8085 2.8494L41.6 2.08607L45.5684 1L45.7768 1.76332L45.4812 1.84425C45.284 1.8982 45.1214 1.9762 44.9931 2.07826C44.8621 2.16994 44.7688 2.31825 44.7133 2.5232C44.6577 2.72815 44.6301 3.01475 44.6303 3.38302L44.6379 13.2088L43.0039 13.656L38.2762 6.51168L38.1174 14.9934L36.3744 15.4704L30.9226 6.71604Z" fill="black"/>
<path d="M48.3753 12.6524L48.4194 11.8623L48.9188 11.8902C49.1014 11.9004 49.269 11.8883 49.4218 11.8537C49.5745 11.8191 49.7031 11.7346 49.8075 11.6003C49.9126 11.4552 49.9732 11.2375 49.9894 10.9473L50.428 3.09462C50.4461 2.77213 50.4109 2.53293 50.3227 2.37703C50.2452 2.22172 50.1325 2.11836 49.9845 2.06695C49.8372 2.00479 49.6669 1.9683 49.4736 1.95748L48.9742 1.92953L49.0184 1.13942L57.6362 1.62175L57.5537 4.54481L56.5389 4.48801L56.4998 3.74177C56.4927 3.48258 56.446 3.2589 56.3595 3.07075C56.2838 2.88319 56.1684 2.73116 56.0134 2.61465C55.8583 2.49814 55.6519 2.43267 55.3942 2.41824L52.688 2.26678L52.4574 6.39468L56.2912 6.60925L56.2407 7.51222L52.407 7.29766L52.1476 11.9415L55.3209 12.1191C55.5787 12.1336 55.7911 12.0915 55.9581 11.9931C56.1366 11.8844 56.2792 11.7414 56.3861 11.5641C56.4935 11.376 56.57 11.1646 56.6154 10.9299L56.7696 10.1945L57.7844 10.2513L57.5086 13.1636L48.3753 12.6524Z" fill="black"/>
<path d="M61.4833 13.8337L61.8008 13.1089L62.2588 13.31C62.4361 13.3878 62.6024 13.4373 62.7576 13.4584C62.9171 13.4696 63.0664 13.4235 63.2057 13.3201C63.3592 13.2111 63.4985 13.0136 63.6238 12.7277L66.7728 5.53973C66.8938 5.26365 66.938 5.04206 66.9055 4.87496C66.8773 4.698 66.8029 4.55954 66.6823 4.45956C66.5617 4.35958 66.4176 4.27284 66.2502 4.19933L65.7922 3.99826L66.1097 3.27355L70.8524 5.35558C71.9162 5.82258 72.736 6.41759 73.3118 7.14062C73.9018 7.85812 74.2303 8.69005 74.2972 9.63642C74.3641 10.5828 74.1513 11.618 73.6589 12.742C73.1881 13.8168 72.5835 14.6741 71.8451 15.314C71.1166 15.9582 70.2787 16.3428 69.3314 16.4677C68.3841 16.5926 67.3441 16.4065 66.2113 15.9092L61.4833 13.8337ZM66.2621 14.9087C66.9811 15.2243 67.6548 15.3085 68.2831 15.1611C68.9256 15.0081 69.514 14.6434 70.0485 14.0668C70.5928 13.4946 71.0745 12.7302 71.4935 11.7738C71.9125 10.8174 72.1371 9.96959 72.1673 9.23045C72.2117 8.48577 72.0616 7.84973 71.7172 7.32233C71.387 6.78939 70.8672 6.36726 70.1581 6.05592L69.1386 5.60838L65.2574 14.4676L66.2621 14.9087Z" fill="black"/>
<path d="M75.7778 21.8622C75.0826 21.2847 74.5657 20.6943 74.2271 20.0912C73.8885 19.4881 73.7585 18.8694 73.8371 18.2351C73.9157 17.6008 74.2332 16.9482 74.7896 16.2771L78.7564 11.4926C78.9487 11.2606 79.0523 11.0598 79.0671 10.8902C79.0887 10.7123 79.0554 10.5587 78.967 10.4293C78.8786 10.2999 78.764 10.1768 78.6233 10.0599L78.2385 9.74014L78.7434 9.13119L82.7657 12.4729L82.2608 13.0818L81.876 12.7621C81.7353 12.6452 81.5857 12.5559 81.4272 12.4942C81.2839 12.4311 81.1269 12.4266 80.9562 12.4807C80.7938 12.5416 80.6096 12.6964 80.4035 12.945L76.4058 17.7668C76.0143 18.239 75.7845 18.6847 75.7165 19.1039C75.6554 19.5149 75.7181 19.9028 75.9048 20.2677C76.0983 20.6244 76.3854 20.9608 76.7661 21.2771C77.1799 21.6209 77.5859 21.8393 77.9841 21.9322C78.3905 22.032 78.7809 21.9996 79.1551 21.8348C79.5377 21.6768 79.8938 21.399 80.2235 21.0014L84.2933 16.0926C84.4856 15.8606 84.5892 15.6598 84.604 15.4902C84.6257 15.3123 84.5923 15.1587 84.5039 15.0293C84.4155 14.8999 84.301 14.7767 84.1603 14.6599L83.7754 14.3401L84.2803 13.7312L87.4833 16.3922L86.9784 17.0011L86.5811 16.6711C86.4487 16.5611 86.3033 16.4752 86.1448 16.4135C85.9931 16.3435 85.8362 16.339 85.6738 16.3999C85.5114 16.4609 85.3272 16.6157 85.1211 16.8642L81.0719 21.7482C80.6186 22.295 80.1118 22.6786 79.5518 22.8989C78.9986 23.1109 78.4052 23.1355 77.7714 22.9727C77.1376 22.81 76.4731 22.4398 75.7778 21.8622Z" fill="black"/>
<path d="M73.3957 51.2132H65.0165C57.6589 51.2132 51.6939 44.149 51.6939 35.4358V25.5126H50.6746V35.4358C50.6746 44.149 44.7097 51.2132 37.3521 51.2132H28.9729V52.4203H37.3521C44.7097 52.4203 50.6746 59.4844 50.6746 68.1976V78.1237H51.6939V68.1976C51.6939 59.4844 57.6589 52.4203 65.0165 52.4203H73.3957V51.2132Z" fill="#1C1C1C"/>
</svg>
