<svg width="58" height="58" viewBox="0 0 58 58" fill="none" xmlns="http://www.w3.org/2000/svg">
<path d="M54.753 17.4984C54.8672 17.4291 54.9495 17.3589 54.9999 17.288C55.0562 17.2155 55.0848 17.1347 55.0858 17.0455C55.0944 16.9607 55.0825 16.8592 55.0503 16.7411L55.0188 16.626L55.4524 16.5073L56.2072 19.271L55.7736 19.3897L55.718 19.1859C55.6696 19.0088 55.5979 18.8856 55.5029 18.8164C55.4138 18.7456 55.2956 18.7303 55.1481 18.7707C55.1186 18.7788 55.081 18.7922 55.0355 18.811C54.9915 18.8358 54.9446 18.8613 54.8947 18.8877C54.8448 18.914 54.7979 18.9395 54.754 18.9643L52.5952 20.2881C52.4489 20.379 52.2936 20.4722 52.1296 20.5679C51.9655 20.6636 51.8027 20.7525 51.6413 20.8348C51.4815 20.923 51.3362 20.9945 51.2054 21.0493C51.4248 21.04 51.6441 21.0308 51.8635 21.0215C52.0845 21.0182 52.313 21.0191 52.549 21.0243L56.6437 21.1127L56.8179 21.7505L53.5912 23.8998C53.4218 24.0223 53.2499 24.136 53.0757 24.2408C52.9014 24.3456 52.7403 24.4405 52.5923 24.5254C52.4443 24.6104 52.3137 24.6778 52.2006 24.7278C52.3502 24.7186 52.5154 24.7083 52.6962 24.6969C52.8786 24.6914 53.0668 24.6843 53.261 24.6756C53.4611 24.6653 53.6619 24.6579 53.8636 24.6535L56.2444 24.6303C56.32 24.6286 56.4075 24.6237 56.5067 24.6156C56.6134 24.6118 56.6904 24.6034 56.7376 24.5905C56.891 24.5485 56.9872 24.4714 57.0263 24.3591C57.0654 24.2469 57.0583 24.0933 57.0051 23.8985L56.9495 23.6947L57.3831 23.576L58 25.8349L57.5664 25.9535L57.5204 25.7852C57.4898 25.673 57.4455 25.5804 57.3875 25.5074C57.3354 25.4328 57.2512 25.3797 57.1348 25.3481C57.0183 25.3165 56.8555 25.3008 56.6463 25.3009L51.0648 25.3052L50.8108 24.3751L54.8691 21.6841L50.0511 21.5937L49.7802 20.6016L54.753 17.4984Z" fill="white"/>
<path d="M51.3643 27.4231L51.8131 27.4482L51.7973 27.7324C51.7915 27.8363 51.7984 27.9318 51.818 28.0187C51.8377 28.1057 51.8857 28.1789 51.962 28.2383C52.0444 28.2981 52.168 28.3326 52.3329 28.3418L56.7936 28.5915C56.9768 28.6018 57.1126 28.5818 57.2012 28.5315C57.2894 28.4874 57.3481 28.4233 57.3773 28.3391C57.4127 28.2552 57.4334 28.1582 57.4395 28.0482L57.4554 27.764L57.9042 27.7891L57.6302 32.6945L55.9698 32.6475L56.0021 32.0699L56.426 32.0476C56.5732 32.0436 56.7003 32.017 56.8071 31.9678C56.9137 31.9247 57 31.859 57.0662 31.7707C57.1324 31.6824 57.1696 31.565 57.1778 31.4183L57.2638 29.8779L54.919 29.7467L54.7971 31.9288L54.2842 31.9001L54.4061 29.7179L51.7681 29.5703L51.6672 31.3766C51.659 31.5233 51.6829 31.6442 51.7389 31.7393C51.8006 31.8408 51.8818 31.922 51.9825 31.9829C52.0894 32.044 52.2094 32.0875 52.3428 32.1134L52.7605 32.2012L52.7282 32.7788L51.074 32.6218L51.3643 27.4231Z" fill="white"/>
<path d="M50.6596 34.9248L51.0712 35.1055L50.957 35.3662C50.9128 35.4672 50.8847 35.5618 50.8727 35.6501C50.8663 35.7409 50.8925 35.8259 50.9513 35.9052C51.0132 35.9925 51.1254 36.0719 51.2878 36.1432L55.3709 37.9356C55.5277 38.0045 55.6536 38.0296 55.7485 38.0111C55.849 37.9951 55.9277 37.9528 55.9845 37.8841C56.0413 37.8154 56.0905 37.7335 56.1323 37.6381L56.2465 37.3774L56.6582 37.5582L55.4755 40.2578C55.2102 40.8633 54.8722 41.3299 54.4615 41.6577C54.0539 41.9935 53.5814 42.1805 53.0438 42.2186C52.5062 42.2567 51.9182 42.1355 51.2796 41.8552C50.6691 41.5872 50.1822 41.2431 49.8187 40.8228C49.4527 40.4081 49.2343 39.9312 49.1633 39.392C49.0923 38.8528 49.1981 38.2608 49.4806 37.616L50.6596 34.9248ZM50.0489 37.6449C49.8696 38.0542 49.8218 38.4377 49.9055 38.7953C49.9924 39.161 50.1996 39.496 50.5271 39.8002C50.8522 40.11 51.2864 40.3842 51.8297 40.6227C52.373 40.8612 52.8545 40.989 53.2744 41.0062C53.6974 41.0315 54.0587 40.9461 54.3583 40.75C54.661 40.562 54.9008 40.2662 55.0777 39.8625L55.3319 39.2822L50.2994 37.073L50.0489 37.6449Z" fill="white"/>
<path d="M46.0661 43.0619C46.3942 42.6662 46.7296 42.3719 47.0722 42.1792C47.4147 41.9865 47.7662 41.9125 48.1265 41.9572C48.4868 42.0019 48.8575 42.1827 49.2387 42.4994L51.9566 44.7573C52.0884 44.8668 52.2024 44.9257 52.2987 44.9342C52.3998 44.9465 52.4871 44.9275 52.5606 44.8772C52.6341 44.8269 52.704 44.7617 52.7704 44.6816L52.952 44.4625L53.2979 44.7499L51.3997 47.0395L51.0538 46.7521L51.2354 46.533C51.3018 46.4529 51.3526 46.3678 51.3876 46.2776C51.4235 46.196 51.426 46.1066 51.3953 46.0095C51.3607 45.917 51.2727 45.8122 51.1316 45.6949L48.3925 43.4194C48.1243 43.1965 47.8711 43.0657 47.633 43.027C47.3995 42.9922 47.1792 43.0279 46.9719 43.1342C46.7693 43.2443 46.5782 43.4077 46.3985 43.6244C46.2032 43.86 46.0792 44.0911 46.0264 44.3177C45.9697 44.5491 45.9881 44.7713 46.0817 44.9843C46.1714 45.202 46.3292 45.4047 46.5551 45.5924L49.3436 47.909C49.4753 48.0184 49.5894 48.0774 49.6857 48.0858C49.7868 48.0982 49.874 48.0792 49.9476 48.0289C50.0211 47.9786 50.091 47.9133 50.1574 47.8333L50.339 47.6142L50.6849 47.9016L49.1734 49.7247L48.8275 49.4374L49.0149 49.2112C49.0774 49.1359 49.1262 49.0531 49.1613 48.9628C49.201 48.8765 49.2036 48.7872 49.169 48.6948C49.1343 48.6023 49.0464 48.4975 48.9052 48.3802L46.1309 46.0753C45.8203 45.8173 45.6024 45.5289 45.4773 45.2101C45.3568 44.8952 45.3428 44.5574 45.4353 44.1966C45.5278 43.8359 45.738 43.4576 46.0661 43.0619Z" fill="white"/>
<path d="M39.5976 55.0377C39.6629 55.1543 39.7301 55.239 39.7992 55.2919C39.8697 55.3507 39.9494 55.3821 40.0383 55.3862C40.1228 55.3976 40.2245 55.3892 40.3435 55.361L40.4596 55.3335L40.5632 55.7714L37.778 56.4317L37.6744 55.9938L37.8797 55.9452C38.0582 55.9028 38.1837 55.8353 38.256 55.7427C38.3298 55.656 38.3491 55.5382 38.3138 55.3892C38.3068 55.3595 38.2946 55.3214 38.2774 55.2752C38.2542 55.2304 38.2303 55.1825 38.2057 55.1317C38.1812 55.081 38.1573 55.0331 38.1341 54.9883L36.8864 52.7832C36.8008 52.6337 36.713 52.4752 36.6231 52.3077C36.5332 52.1403 36.45 51.9744 36.3734 51.8101C36.2908 51.6473 36.2244 51.4994 36.1742 51.3666C36.1759 51.5864 36.1776 51.8062 36.1793 52.026C36.1751 52.2472 36.1663 52.4758 36.153 52.7117L35.9242 56.8051L35.2815 56.9575L33.2464 53.6557C33.1299 53.482 33.0223 53.3062 32.9236 53.1282C32.825 52.9503 32.7358 52.7858 32.656 52.6349C32.5763 52.4839 32.5135 52.351 32.4674 52.236C32.4715 52.3861 32.4761 52.5517 32.4813 52.7329C32.4805 52.9156 32.4811 53.1042 32.4831 53.2987C32.4866 53.4992 32.4871 53.7004 32.4846 53.9024L32.4261 56.285C32.4251 56.3607 32.427 56.4483 32.4317 56.5479C32.4319 56.6548 32.4376 56.7321 32.4489 56.7798C32.4855 56.9347 32.5592 57.0336 32.6699 57.0765C32.7806 57.1195 32.9342 57.1177 33.1306 57.0711L33.3359 57.0224L33.4395 57.4603L31.1632 58L31.0596 57.5621L31.2292 57.5219C31.3422 57.4951 31.4362 57.454 31.5111 57.3985C31.5873 57.3489 31.6433 57.2665 31.6788 57.1511C31.7144 57.0357 31.7357 56.8734 31.7427 56.6641L31.9299 51.08L32.8672 50.8578L35.4147 55.0102L35.6703 50.1932L36.6701 49.9562L39.5976 55.0377Z" fill="white"/>
<path d="M29.8385 51.2984L29.7986 51.7466L29.5153 51.7213C29.4117 51.7121 29.3162 51.7158 29.2288 51.7326C29.1413 51.7494 29.0667 51.7949 29.0048 51.8693C28.9423 51.9498 28.9038 52.0724 28.8891 52.237L28.4921 56.6915C28.4758 56.8745 28.4913 57.0111 28.5385 57.1013C28.5796 57.1911 28.6417 57.2519 28.7248 57.2839C28.8074 57.322 28.9035 57.346 29.0132 57.3558L29.2964 57.3811L29.2565 57.8293L24.3679 57.3927L24.4698 55.733L25.0454 55.7845L25.0536 56.2093C25.0528 56.3567 25.0751 56.4847 25.1207 56.5933C25.1602 56.7013 25.2229 56.7899 25.3089 56.859C25.3948 56.9282 25.5109 56.9693 25.6571 56.9823L27.1922 57.1194L27.4009 54.7778L25.2261 54.5836L25.2718 54.0714L27.4465 54.2656L27.6813 51.6313L25.8812 51.4705C25.735 51.4575 25.6135 51.4773 25.5167 51.5302C25.4132 51.5885 25.3295 51.6671 25.2654 51.7659C25.2008 51.8708 25.1534 51.9894 25.1231 52.122L25.0217 52.537L24.446 52.4856L24.6575 50.8357L29.8385 51.2984Z" fill="white"/>
<path d="M22.3997 50.3532L22.2058 50.7591L21.9492 50.6363C21.8499 50.5888 21.7563 50.5576 21.6685 50.5427C21.5781 50.5333 21.4923 50.5567 21.4113 50.6129C21.322 50.672 21.2392 50.7816 21.1626 50.9418L19.2392 54.9681C19.1653 55.1228 19.136 55.2479 19.1514 55.3434C19.1641 55.4445 19.2038 55.5246 19.2705 55.5837C19.3372 55.6428 19.4174 55.6948 19.5112 55.7397L19.7678 55.8625L19.5738 56.2684L16.9172 54.9967C16.3213 54.7114 15.8665 54.358 15.5527 53.9363C15.2307 53.5175 15.0596 53.0386 15.0392 52.4995C15.0187 51.9604 15.1589 51.3761 15.4597 50.7464C15.7473 50.1444 16.1069 49.6685 16.5384 49.3186C16.9645 48.966 17.4478 48.7631 17.9885 48.7098C18.5292 48.6565 19.1168 48.7817 19.7513 49.0854L22.3997 50.3532ZM19.7038 49.6531C19.3011 49.4603 18.9198 49.3999 18.56 49.4719C18.192 49.5469 17.8507 49.7432 17.5363 50.0609C17.2163 50.376 16.9283 50.8014 16.6724 51.3371C16.4164 51.8728 16.273 52.3505 16.2421 52.77C16.203 53.1924 16.2764 53.5566 16.4623 53.8628C16.6401 54.1718 16.9276 54.4214 17.3249 54.6116L17.8959 54.885L20.2666 49.9225L19.7038 49.6531Z" fill="white"/>
<path d="M14.4492 45.5146C14.8333 45.8562 15.1158 46.2015 15.2967 46.5508C15.4776 46.9 15.5397 47.2541 15.4829 47.613C15.4261 47.972 15.2332 48.3369 14.9042 48.7076L12.5585 51.3508C12.4448 51.4789 12.3821 51.591 12.3704 51.6871C12.3547 51.7878 12.3707 51.8758 12.4185 51.951C12.4663 52.0262 12.529 52.0984 12.6067 52.1675L12.8194 52.3566L12.5208 52.693L10.2987 50.7169L10.5972 50.3805L10.8098 50.5696C10.8876 50.6387 10.9709 50.6923 11.0598 50.7304C11.14 50.7691 11.2292 50.7746 11.3272 50.7471C11.4206 50.7156 11.5283 50.6312 11.6501 50.4939L14.0141 47.8301C14.2456 47.5692 14.3847 47.3203 14.4314 47.0833C14.474 46.851 14.4457 46.6293 14.3466 46.4184C14.2435 46.212 14.0867 46.0153 13.8764 45.8282C13.6478 45.6249 13.4212 45.4931 13.1967 45.4326C12.9676 45.3681 12.7452 45.3791 12.5293 45.4656C12.3089 45.548 12.1012 45.6991 11.9063 45.9188L9.49965 48.6306C9.38592 48.7588 9.32323 48.8709 9.31158 48.967C9.29586 49.0677 9.31189 49.1556 9.35965 49.2309C9.40742 49.3061 9.47016 49.3783 9.54789 49.4474L9.7605 49.6365L9.46196 49.9729L7.69249 48.3993L7.99103 48.0629L8.2105 48.2581C8.28366 48.3231 8.36468 48.3747 8.45358 48.4128C8.53841 48.4555 8.62755 48.4611 8.72099 48.4295C8.81443 48.398 8.92208 48.3136 9.04394 48.1762L11.4384 45.4781C11.7065 45.1761 12.0017 44.9678 12.3242 44.8533C12.6426 44.7434 12.9804 44.7407 13.3375 44.8454C13.6946 44.95 14.0651 45.1731 14.4492 45.5146Z" fill="white"/>
<path d="M2.66915 38.6346C2.55046 38.696 2.46357 38.7603 2.40846 38.8276C2.34735 38.8961 2.31325 38.9747 2.30613 39.0636C2.29182 39.1477 2.29672 39.2497 2.32082 39.3698L2.34432 39.4868L1.90362 39.5755L1.33959 36.7665L1.78029 36.6778L1.82187 36.8849C1.85802 37.0649 1.92112 37.1928 2.01115 37.2683C2.09518 37.3451 2.21215 37.3684 2.36205 37.3382C2.39203 37.3322 2.4304 37.3213 2.47716 37.3057C2.52272 37.284 2.57127 37.2618 2.62282 37.2389C2.67438 37.216 2.72293 37.1938 2.76849 37.1721L5.01268 35.9993C5.16493 35.9187 5.32618 35.8363 5.49641 35.7521C5.66665 35.6679 5.83509 35.5903 6.00175 35.5193C6.16719 35.4423 6.31706 35.3809 6.45135 35.3352C6.23185 35.3294 6.01235 35.3236 5.79285 35.3178C5.57215 35.306 5.34424 35.2894 5.10913 35.268L1.03013 34.8992L0.899973 34.2509L4.2661 32.3279C4.44351 32.2172 4.62273 32.1156 4.80375 32.023C4.98478 31.9303 5.15201 31.8467 5.30547 31.7722C5.45892 31.6976 5.5938 31.6392 5.71011 31.5971C5.56018 31.596 5.39466 31.595 5.21354 31.5939C5.03122 31.5869 4.84291 31.5811 4.6486 31.5765C4.44829 31.5731 4.24738 31.5667 4.04587 31.5573L1.66907 31.4173C1.59351 31.4137 1.50595 31.4126 1.4064 31.4139C1.29964 31.4104 1.22228 31.4135 1.17432 31.4231C1.01842 31.4545 0.917137 31.5249 0.870465 31.6342C0.823793 31.7435 0.820343 31.8971 0.860114 32.0952L0.901694 32.3023L0.46099 32.391L0 30.0952L0.440703 30.0065L0.475051 30.1775C0.49795 30.2916 0.535824 30.387 0.588672 30.4638C0.635525 30.5418 0.715943 30.6005 0.829926 30.6401C0.94391 30.6796 1.10526 30.7064 1.31397 30.7206L6.88266 31.0989L7.07248 32.0442L2.83963 34.4508L7.64013 34.8712L7.84261 35.8795L2.66915 38.6346Z" fill="white"/>
<path d="M6.72009 29.0379L6.27391 28.9831L6.30852 28.7005C6.32118 28.5972 6.32057 28.5016 6.30671 28.4135C6.29285 28.3255 6.24981 28.2492 6.17759 28.1849C6.0993 28.1197 5.97821 28.0771 5.81431 28.057L1.37986 27.5128C1.19775 27.4904 1.06085 27.5014 0.969164 27.5456C0.878223 27.5838 0.815402 27.6439 0.780701 27.726C0.739929 27.8074 0.712844 27.9028 0.699447 28.0121L0.664838 28.2947L0.218661 28.2399L0.815944 23.3634L2.46965 23.5201L2.39931 24.0944L1.97487 24.0885C1.82769 24.0828 1.69915 24.101 1.58926 24.143C1.48011 24.1789 1.3896 24.2388 1.31773 24.3225C1.24586 24.4062 1.201 24.5209 1.18313 24.6668L0.995575 26.1981L3.32662 26.4842L3.59233 24.3148L4.10224 24.3774L3.83654 26.5468L6.45896 26.8686L6.67889 25.073C6.69676 24.9271 6.68092 24.8049 6.63138 24.7063C6.57651 24.6009 6.50083 24.5145 6.40433 24.4471C6.30176 24.379 6.18482 24.3277 6.0535 24.2931L5.64246 24.1779L5.71279 23.6036L7.3531 23.8697L6.72009 29.0379Z" fill="white"/>
<path d="M7.86494 21.6633L7.466 21.456L7.59704 21.2033C7.64777 21.1055 7.68201 21.0129 7.69975 20.9256C7.71207 20.8354 7.6915 20.7488 7.63806 20.6659C7.58201 20.5746 7.47528 20.4881 7.31787 20.4063L3.36097 18.3497C3.20899 18.2707 3.08504 18.2373 2.98911 18.2496C2.88776 18.259 2.8065 18.2961 2.74533 18.3608C2.68417 18.4256 2.62963 18.5042 2.58172 18.5966L2.45067 18.8492L2.05172 18.6419L3.40871 16.0257C3.71308 15.4389 4.08092 14.9954 4.51222 14.6953C4.94091 14.387 5.42472 14.2315 5.96363 14.2287C6.50256 14.226 7.0814 14.3855 7.70018 14.7071C8.29181 15.0146 8.75522 15.3899 9.09039 15.8332C9.42838 16.271 9.61512 16.7612 9.65061 17.3039C9.6861 17.8467 9.5418 18.4304 9.2177 19.0553L7.86494 21.6633ZM8.65248 18.9891C8.85821 18.5925 8.93101 18.213 8.87089 17.8506C8.80815 17.48 8.62334 17.1322 8.31646 16.8071C8.01239 16.4766 7.59711 16.1746 7.07061 15.9009C6.54411 15.6273 6.07194 15.4681 5.6541 15.4234C5.23365 15.3704 4.86754 15.4319 4.55575 15.6078C4.24136 15.7755 3.9827 16.055 3.77979 16.4462L3.4881 17.0086L8.36502 19.5433L8.65248 18.9891Z" fill="white"/>
<path d="M12.954 13.8281C12.6001 14.2008 12.2457 14.4718 11.8909 14.641C11.5361 14.8102 11.1805 14.8604 10.824 14.7914C10.4676 14.7225 10.1098 14.5172 9.75078 14.1756L7.19095 11.7396C7.06684 11.6215 6.95701 11.555 6.86146 11.5401C6.76148 11.521 6.67313 11.534 6.5964 11.5793C6.51968 11.6245 6.4455 11.6849 6.37387 11.7603L6.17792 11.9666L5.85213 11.6566L7.90003 9.50016L8.22583 9.81019L8.02989 10.0165C7.95825 10.0919 7.90191 10.1735 7.86087 10.2611C7.81961 10.3401 7.81104 10.4291 7.83517 10.5281C7.86352 10.6227 7.94418 10.7332 8.07716 10.8597L10.6569 13.3147C10.9096 13.5551 11.1534 13.7027 11.3884 13.7573C11.619 13.8078 11.8412 13.787 12.0552 13.695C12.2647 13.5987 12.4664 13.4486 12.6602 13.2444C12.8709 13.0226 13.0102 12.8004 13.0782 12.5778C13.1503 12.3508 13.1468 12.1279 13.0677 11.909C12.9929 11.6857 12.8491 11.4729 12.6363 11.2704L10.01 8.77117C9.88587 8.65306 9.77604 8.58656 9.68049 8.57166C9.58051 8.55254 9.49216 8.5656 9.41543 8.61085C9.33871 8.6561 9.26453 8.71644 9.19289 8.79187L8.99695 8.99819L8.67116 8.68816L10.3019 6.97099L10.6277 7.28102L10.4254 7.494C10.358 7.565 10.3038 7.64432 10.2627 7.73197C10.2173 7.8154 10.2087 7.90439 10.237 7.99894C10.2654 8.09349 10.346 8.20403 10.479 8.33058L13.092 10.8172C13.3846 11.0955 13.5826 11.398 13.686 11.7245C13.785 12.0468 13.7762 12.3847 13.6597 12.7385C13.5432 13.0922 13.308 13.4554 12.954 13.8281Z" fill="white"/>
<path d="M17.5835 3.2503C17.5142 3.13597 17.4441 3.05359 17.3733 3.00316C17.3009 2.94683 17.2201 2.91816 17.1311 2.91714C17.0463 2.9086 16.9449 2.92048 16.827 2.95277L16.7119 2.98425L16.5934 2.5502L19.3543 1.79459L19.4728 2.22864L19.2693 2.28434C19.0923 2.33277 18.9693 2.40454 18.9001 2.49962C18.8294 2.5888 18.8142 2.7072 18.8545 2.85484C18.8625 2.88436 18.876 2.92194 18.8948 2.96757C18.9195 3.01159 18.945 3.05855 18.9713 3.10847C18.9976 3.15839 19.0231 3.20536 19.0478 3.24937L20.3703 5.41029C20.4611 5.55682 20.5543 5.7122 20.6498 5.87645C20.7454 6.0407 20.8343 6.2036 20.9165 6.36517C21.0045 6.52513 21.076 6.67059 21.1308 6.80157C21.1215 6.58197 21.1122 6.36236 21.103 6.14276C21.0996 5.92154 21.1006 5.6928 21.1058 5.45654L21.1941 1.35769L21.8312 1.18332L23.9783 4.41332C24.1007 4.58291 24.2143 4.75493 24.319 4.92937C24.4237 5.10382 24.5185 5.26511 24.6033 5.41325C24.6882 5.5614 24.7556 5.6921 24.8055 5.80537C24.7963 5.65556 24.786 5.49019 24.7747 5.30925C24.7692 5.12669 24.7621 4.93822 24.7534 4.74385C24.7431 4.54358 24.7357 4.3425 24.7313 4.14061L24.708 1.75738C24.7064 1.68167 24.7015 1.59415 24.6934 1.49482C24.6896 1.38797 24.6812 1.31093 24.6683 1.26368C24.6264 1.11014 24.5493 1.01381 24.4372 0.974683C24.3251 0.935557 24.1717 0.942635 23.977 0.995915L23.7735 1.05162L23.6549 0.61757L25.9114 0L26.03 0.434046L25.8618 0.480062C25.7497 0.510739 25.6573 0.555094 25.5843 0.61313C25.5098 0.665261 25.4568 0.749595 25.4252 0.866133C25.3936 0.982671 25.3779 1.14564 25.378 1.35505L25.3823 6.94226L24.4532 7.19655L21.7649 3.13409L21.6746 7.95701L20.6835 8.22826L17.5835 3.2503Z" fill="white"/>
<path d="M27.5075 6.62587L27.5326 6.17659L27.8166 6.19248C27.9204 6.19829 28.0157 6.19136 28.1026 6.1717C28.1894 6.15203 28.2625 6.10401 28.3219 6.02762C28.3817 5.94512 28.4162 5.82135 28.4254 5.65631L28.6748 1.19106C28.685 1.00768 28.665 0.871667 28.6149 0.783015C28.5708 0.694705 28.5067 0.635931 28.4226 0.606696C28.3388 0.571349 28.242 0.5506 28.132 0.544448L27.8481 0.528555L27.8732 0.0792807L32.7735 0.353544L32.7266 2.01568L32.1496 1.98338L32.1273 1.55905C32.1233 1.41166 32.0967 1.28447 32.0476 1.17748C32.0045 1.07084 31.9389 0.984386 31.8507 0.918133C31.7626 0.851881 31.6452 0.814653 31.4986 0.806451L29.9598 0.720328L29.8287 3.06756L32.0087 3.18957L31.98 3.70303L29.8001 3.58102L29.6526 6.22166L31.457 6.32265C31.6035 6.33085 31.7243 6.30696 31.8193 6.25096C31.9208 6.18919 32.0019 6.10788 32.0627 6.00704C32.1238 5.90009 32.1672 5.77989 32.1931 5.64644L32.2807 5.22826L32.8578 5.26055L32.701 6.91654L27.5075 6.62587Z" fill="white"/>
<path d="M34.9611 7.29757L35.1416 6.88548L35.4021 6.99981C35.5029 7.04407 35.5974 7.0722 35.6857 7.08419C35.7764 7.09058 35.8613 7.06437 35.9405 7.00554C36.0278 6.94357 36.107 6.83129 36.1782 6.66869L37.9689 2.58141C38.0376 2.42443 38.0628 2.29843 38.0443 2.20341C38.0283 2.10279 37.986 2.02405 37.9174 1.9672C37.8488 1.91035 37.7669 1.86103 37.6717 1.81923L37.4112 1.70489L37.5918 1.2928L40.2886 2.4767C40.8935 2.74225 41.3597 3.08059 41.6871 3.49173C42.0226 3.89971 42.2094 4.37277 42.2474 4.91091C42.2855 5.44904 42.1645 6.03769 41.8845 6.67685C41.6167 7.28798 41.273 7.77547 40.8531 8.13933C40.4389 8.50564 39.9624 8.72432 39.4237 8.79536C38.8851 8.8664 38.2937 8.76054 37.6496 8.47778L34.9611 7.29757ZM37.6784 7.90886C38.0873 8.08835 38.4704 8.13619 38.8276 8.05237C39.193 7.9654 39.5276 7.75799 39.8315 7.43014C40.141 7.10475 40.4149 6.67013 40.6531 6.12628C40.8914 5.58243 41.0191 5.10036 41.0363 4.68006C41.0615 4.25661 40.9762 3.89494 40.7804 3.59505C40.5926 3.29201 40.2971 3.05197 39.8938 2.87494L39.3141 2.62045L37.1071 7.65807L37.6784 7.90886Z" fill="white"/>
<path d="M43.0894 11.8628C42.694 11.5344 42.4001 11.1987 42.2076 10.8558C42.015 10.5128 41.9411 10.161 41.9858 9.80036C42.0305 9.4397 42.211 9.06857 42.5274 8.68698L44.783 5.96636C44.8924 5.83445 44.9513 5.72028 44.9597 5.62385C44.972 5.52271 44.9531 5.43534 44.9028 5.36176C44.8525 5.28818 44.7874 5.21815 44.7074 5.15169L44.4886 4.96988L44.7756 4.62362L47.0629 6.5238L46.7758 6.87006L46.5569 6.68825C46.4769 6.62179 46.3919 6.57101 46.3017 6.53591C46.2202 6.50002 46.131 6.49746 46.0339 6.52822C45.9416 6.5629 45.8368 6.6509 45.7197 6.79223L43.4465 9.53405C43.2238 9.80258 43.0932 10.056 43.0545 10.2944C43.0197 10.5281 43.0554 10.7486 43.1615 10.9562C43.2716 11.159 43.4348 11.3503 43.6513 11.5301C43.8866 11.7256 44.1175 11.8498 44.3439 11.9026C44.575 11.9594 44.797 11.9409 45.0098 11.8472C45.2273 11.7574 45.4298 11.5995 45.6173 11.3733L47.9315 8.58204C48.0408 8.45013 48.0997 8.33596 48.1082 8.23953C48.1205 8.13839 48.1015 8.05102 48.0513 7.97744C48.001 7.90386 47.9359 7.83384 47.8558 7.76737L47.637 7.58556L47.9241 7.2393L49.7454 8.75241L49.4583 9.09867L49.2324 8.911C49.1571 8.84844 49.0744 8.79961 48.9843 8.76452C48.8981 8.72472 48.8088 8.72215 48.7165 8.75683C48.6241 8.79151 48.5194 8.87951 48.4022 9.02084L46.0997 11.798C45.8419 12.1089 45.5538 12.327 45.2353 12.4523C44.9208 12.5729 44.5833 12.5869 44.2229 12.4943C43.8625 12.4018 43.4847 12.1913 43.0894 11.8628Z" fill="white"/>
<path d="M41.7348 28.5526H36.9701C32.7864 28.5526 29.3946 24.5357 29.3946 19.5811V13.9385H28.815V19.5811C28.815 24.5357 25.4231 28.5526 21.2394 28.5526H16.4748V29.239H21.2394C25.4231 29.239 28.815 33.2558 28.815 38.2104V43.8546H29.3946V38.2104C29.3946 33.2558 32.7864 29.239 36.9701 29.239H41.7348V28.5526Z" fill="white"/>
</svg>
